<svg width="24" height="24" viewBox="0 0 24 24" fill="none" xmlns="http://www.w3.org/2000/svg">
<g clip-path="url(#clip0)">
<path d="M13.8717 6.49895L13.8726 6.49972L17.764 9.53692C18.5121 10.1209 18.8454 10.9441 18.5088 11.3764L14.5626 16.4434C14.1593 16.9612 13.4163 17.18 12.4972 17.0517L9.7803 16.6724C7.86718 16.4053 5.72837 14.7374 5.00313 12.947L3.97308 10.4042C3.62471 9.54418 3.65577 8.77042 4.05942 8.25318L8.00996 3.19095C8.347 2.75906 9.22634 2.88146 9.975 3.46446L13.8717 6.49895Z" fill="#424248" stroke="#3B3B3C" stroke-width="1.07604"/>
<rect x="0.330853" y="-0.424265" width="12.9144" height="12.9144" rx="2.01781" transform="matrix(-0.990394 -0.138275 0.375448 0.926844 17.6733 3.05914)" fill="#4D4D52" stroke="#3B3B3C" stroke-width="1.07604"/>
<path d="M20.8896 14.4921C21.3581 14.4501 21.7719 14.7959 21.8139 15.2643L22.2057 19.6373C22.2477 20.1058 21.9019 20.5196 21.4335 20.5616L20.8088 20.6176C20.3403 20.6595 19.9265 20.3138 19.8845 19.8453L19.4927 15.4723C19.4507 15.0039 19.7964 14.5901 20.2649 14.5481L20.8896 14.4921Z" fill="#FDC830" stroke="#3B3B3C" stroke-width="1.07604"/>
<path d="M21.4521 20.7407C21.9206 20.6987 22.3344 21.0444 22.3764 21.5129L22.4323 22.1376C22.4743 22.6061 22.1286 23.0198 21.6601 23.0618L21.0354 23.1178C20.5669 23.1598 20.1531 22.814 20.1112 22.3456L20.0552 21.7209C20.0132 21.2524 20.3589 20.8386 20.8274 20.7966L21.4521 20.7407Z" fill="#FDC830" stroke="#3B3B3C" stroke-width="1.07604"/>
</g>
<defs>
<clipPath id="clip0">
<rect width="24" height="24" fill="white"/>
</clipPath>
</defs>
</svg>
