<svg width="1329" height="552" viewBox="0 0 1329 552" fill="none" xmlns="http://www.w3.org/2000/svg">
<g clip-path="url(#clip0)">
<path d="M1226.87 309.167C1230.36 309.167 1233.18 306.343 1233.18 302.858C1233.18 299.374 1230.36 296.549 1226.87 296.549C1223.39 296.549 1220.56 299.374 1220.56 302.858C1220.56 306.343 1223.39 309.167 1226.87 309.167Z" fill="#17014C"/>
<path d="M1182.01 483.025C1184.72 483.025 1186.92 480.828 1186.92 478.118C1186.92 475.408 1184.72 473.211 1182.01 473.211C1179.3 473.211 1177.1 475.408 1177.1 478.118C1177.1 480.828 1179.3 483.025 1182.01 483.025Z" fill="#4E69FF"/>
<path d="M984.372 96.1674C987.856 96.1674 990.681 93.3427 990.681 89.8581C990.681 86.3736 987.856 83.5488 984.372 83.5488C980.887 83.5488 978.062 86.3736 978.062 89.8581C978.062 93.3427 980.887 96.1674 984.372 96.1674Z" fill="#4E69FF"/>
<path d="M191.968 346.941C191.968 350.586 189.023 353.671 185.238 353.671C181.592 353.671 178.508 350.726 178.508 346.941C178.508 343.295 181.452 340.211 185.238 340.211C189.023 340.211 191.968 343.295 191.968 346.941Z" fill="#17014C"/>
<path d="M150.74 56.8293C151.901 56.8293 152.843 55.8877 152.843 54.7261C152.843 53.5646 151.901 52.623 150.74 52.623C149.578 52.623 148.637 53.5646 148.637 54.7261C148.637 55.8877 149.578 56.8293 150.74 56.8293Z" fill="#17014C"/>
<path d="M1109.23 27.8576C1107.27 36.9711 1098.3 42.7195 1089.18 40.7566C1080.07 38.7937 1074.32 29.8205 1076.28 20.7071C1078.25 11.5936 1087.22 5.84515 1096.33 7.80804C1105.45 9.91114 1111.19 18.8844 1109.23 27.8576Z" fill="#4E69FF"/>
<path d="M1183.41 58.7594C1182.85 61.5635 1180.05 63.246 1177.38 62.6852C1174.72 62.1244 1172.9 59.3202 1173.46 56.6563C1174.02 53.8522 1176.82 52.1697 1179.49 52.7305C1182.29 53.2913 1183.97 56.0955 1183.41 58.7594Z" fill="#FFB54A"/>
<path d="M214.05 136.625C213.49 139.429 210.685 141.111 208.022 140.55C205.217 139.99 203.535 137.185 204.096 134.522C204.657 131.717 207.461 130.035 210.125 130.596C212.929 131.157 214.751 133.961 214.05 136.625Z" fill="#FFB54A"/>
<path d="M296.19 47.3081C295.282 51.8482 290.742 54.5722 286.428 53.6642C281.888 52.7562 279.164 48.2161 280.072 43.9031C280.98 39.363 285.52 36.639 289.834 37.547C294.374 38.455 297.325 42.9951 296.19 47.3081Z" fill="#FFB54A"/>
<path d="M1225.61 174.009C1225.05 176.814 1222.25 178.496 1219.58 177.935C1216.78 177.374 1215.1 174.57 1215.66 171.906C1216.22 169.102 1219.02 167.42 1221.69 167.981C1224.35 168.541 1226.17 171.205 1225.61 174.009Z" fill="#4E69FF"/>
<path opacity="0.32" d="M1024.04 140.635C1023.62 142.738 1021.38 144.14 1019.27 143.719C1017.17 143.299 1015.77 141.055 1016.19 138.952C1016.61 136.849 1018.85 135.447 1020.95 135.868C1023.2 136.288 1024.46 138.391 1024.04 140.635Z" fill="#17014C"/>
<path d="M7.34369 136.626C4.43739 136.044 1.61517 137.9 1.04009 140.772C0.464998 143.644 2.35482 146.444 5.26112 147.026C8.16742 147.608 10.9896 145.752 11.5647 142.88C12.1398 140.008 10.25 137.208 7.34369 136.626Z" fill="#17014C"/>
<path d="M73.4605 0.819471C71.2 0.366855 69.0049 1.81084 68.5577 4.04469C68.1104 6.27855 69.5802 8.45637 71.8407 8.90898C74.1011 9.3616 76.2962 7.91762 76.7435 5.68376C77.1908 3.4499 75.7209 1.27209 73.4605 0.819471Z" fill="#4E69FF"/>
<path d="M643.652 451.546C640.746 450.964 637.924 452.82 637.349 455.692C636.774 458.564 638.663 461.364 641.57 461.946C644.476 462.528 647.298 460.672 647.873 457.8C648.448 454.927 646.559 452.127 643.652 451.546Z" fill="#4E69FF"/>
<path d="M120.747 429.503C123.888 422.319 132.321 419.08 139.598 422.219C146.875 425.359 150.189 433.715 147.048 440.899C143.906 448.083 135.473 451.323 128.196 448.183C120.942 444.927 117.629 436.571 120.747 429.503Z" fill="#C6426E"/>
<path d="M2.26586 350.284C3.19641 348.067 5.81288 347.148 7.94219 348.055C10.0715 348.962 11.1289 351.578 10.2215 353.68C9.29095 355.898 6.67447 356.816 4.54516 355.909C2.29891 354.979 1.35844 352.386 2.26586 350.284Z" fill="#FFB54A"/>
<path d="M165.827 200.07C166.758 197.853 169.374 196.934 171.504 197.841C173.75 198.772 174.69 201.364 173.783 203.466C172.852 205.684 170.236 206.602 168.107 205.695C165.977 204.788 164.897 202.288 165.827 200.07Z" fill="#4E69FF"/>
<path d="M272.766 412.26C273.464 410.597 275.567 409.816 277.251 410.514C278.936 411.211 279.735 413.295 279.037 414.958C278.339 416.621 276.237 417.402 274.552 416.704C272.751 415.983 272.045 414.039 272.766 412.26Z" fill="#17014C"/>
<path d="M293.236 297.094C293.838 294.089 296.802 292.038 299.96 292.671C303 293.279 305.087 296.221 304.462 299.342C303.861 302.346 300.896 304.397 297.738 303.765C294.581 303.133 292.634 300.098 293.236 297.094Z" fill="#17014C"/>
<path d="M1032.09 255.014C1030.57 254.33 1029.93 252.457 1030.66 250.831C1031.4 249.205 1033.22 248.441 1034.74 249.125C1036.26 249.809 1036.89 251.682 1036.16 253.308C1035.43 254.934 1033.6 255.698 1032.09 255.014Z" fill="#17014C"/>
<path d="M1015.08 344.955C1013.9 344.423 1013.4 342.967 1013.97 341.702C1014.54 340.437 1015.96 339.843 1017.14 340.375C1018.32 340.907 1018.82 342.363 1018.25 343.628C1017.68 344.893 1016.26 345.487 1015.08 344.955Z" fill="#4E69FF"/>
<path d="M1224.72 187.047C1223.66 191.685 1226.36 196.129 1230.74 197.002C1235.13 197.874 1239.52 194.815 1240.58 190.176C1241.64 185.538 1238.94 181.094 1234.56 180.222C1230.14 179.415 1225.75 182.474 1224.72 187.047Z" fill="#4E69FF"/>
<path d="M1103.67 146.679C1103.32 148.098 1104.19 149.433 1105.47 149.695C1106.75 149.956 1108.13 149.005 1108.45 147.651C1108.79 146.233 1107.92 144.897 1106.65 144.636C1105.31 144.347 1103.98 145.326 1103.67 146.679Z" fill="#FFB54A"/>
<path d="M1061.05 192.184C1060.71 193.603 1061.58 194.938 1062.85 195.199C1064.19 195.488 1065.52 194.509 1065.83 193.156C1066.18 191.737 1065.31 190.402 1064.03 190.141C1062.75 189.88 1061.4 190.765 1061.05 192.184Z" fill="#4E69FF"/>
<path d="M1247.66 206.431C1247.4 207.495 1248.08 208.589 1249.09 208.806C1250.09 209.022 1251.17 208.25 1251.43 207.186C1251.69 206.122 1251.01 205.028 1250 204.811C1248.94 204.567 1247.95 205.301 1247.66 206.431Z" fill="#17014C"/>
<path d="M1305.46 450.277C1304.06 456.777 1297.66 460.877 1291.16 459.477C1284.66 458.077 1280.56 451.677 1281.96 445.177C1283.36 438.677 1289.76 434.577 1296.26 435.977C1302.76 437.477 1306.86 443.877 1305.46 450.277Z" fill="#4E69FF"/>
<path d="M160.387 186.566C158.987 193.066 152.587 197.166 146.087 195.766C139.587 194.366 135.487 187.966 136.887 181.466C138.287 174.966 144.687 170.866 151.187 172.266C157.687 173.766 161.787 180.166 160.387 186.566Z" fill="#4E69FF"/>
<path d="M314.281 518.734C315.211 516.517 317.828 515.598 319.957 516.505C322.203 517.436 323.144 520.028 322.236 522.13C321.306 524.348 318.689 525.266 316.56 524.359C314.431 523.452 313.35 520.952 314.281 518.734Z" fill="#4E69FF"/>
<path d="M576.28 545.176C577.211 542.958 579.828 542.04 581.957 542.947C584.203 543.877 585.144 546.47 584.236 548.572C583.306 550.789 580.689 551.708 578.56 550.801C576.314 549.87 575.256 547.254 576.28 545.176Z" fill="#FFB54A"/>
<path d="M997.956 513.66C996.987 513.466 996.046 514.085 995.855 515.043C995.663 516 996.293 516.933 997.262 517.127C998.23 517.321 999.171 516.702 999.363 515.745C999.554 514.788 998.924 513.854 997.956 513.66Z" fill="#17014C"/>
</g>
<defs>
<clipPath id="clip0">
<rect width="1329" height="552" fill="white"/>
</clipPath>
</defs>
</svg>
