<svg width="19" height="15" viewBox="0 0 19 15" fill="none" xmlns="http://www.w3.org/2000/svg">
<path d="M17.9084 5.49189L17.0751 5.03356L9.57506 0.866894H9.48339C9.4323 0.845293 9.37929 0.828553 9.32506 0.816895H9.16673H9.01673C8.95979 0.828561 8.90402 0.845294 8.85006 0.866894H8.75839L1.25839 5.03356C1.13015 5.10624 1.02347 5.21164 0.949256 5.33901C0.87504 5.46638 0.835937 5.61115 0.835938 5.75856C0.835937 5.90597 0.87504 6.05075 0.949256 6.17811C1.02347 6.30548 1.13015 6.41088 1.25839 6.48356L3.33339 7.63356V11.5836C3.33339 12.2466 3.59679 12.8825 4.06563 13.3513C4.53447 13.8202 5.17035 14.0836 5.83339 14.0836H12.5001C13.1631 14.0836 13.799 13.8202 14.2678 13.3513C14.7367 12.8825 15.0001 12.2466 15.0001 11.5836V7.63356L16.6667 6.70023V9.08356C16.6667 9.30457 16.7545 9.51654 16.9108 9.67282C17.0671 9.8291 17.279 9.91689 17.5001 9.91689C17.7211 9.91689 17.933 9.8291 18.0893 9.67282C18.2456 9.51654 18.3334 9.30457 18.3334 9.08356V6.21689C18.3331 6.06923 18.2937 5.92429 18.219 5.7969C18.1443 5.66951 18.0371 5.56425 17.9084 5.49189ZM13.3334 11.5836C13.3334 11.8046 13.2456 12.0165 13.0893 12.1728C12.933 12.3291 12.7211 12.4169 12.5001 12.4169H5.83339C5.61238 12.4169 5.40042 12.3291 5.24414 12.1728C5.08786 12.0165 5.00006 11.8046 5.00006 11.5836V8.55856L8.75839 10.6419L8.88339 10.6919H8.9584C9.02757 10.7006 9.09756 10.7006 9.16673 10.6919C9.2359 10.7006 9.30589 10.7006 9.37506 10.6919H9.45006C9.4943 10.6826 9.53659 10.6657 9.57506 10.6419L13.3334 8.55856V11.5836ZM9.16673 8.96689L3.38339 5.75023L9.16673 2.53356L14.9501 5.75023L9.16673 8.96689Z" fill="#BCC5D3"/>
</svg>
