<svg width="14" height="18" viewBox="0 0 14 18" fill="none" xmlns="http://www.w3.org/2000/svg">
<path d="M6.9987 0.666504C5.23059 0.666504 3.53489 1.36888 2.28465 2.61913C1.03441 3.86937 0.332031 5.56506 0.332031 7.33317C0.332031 11.8332 6.20703 16.9165 6.45703 17.1332C6.60797 17.2623 6.80007 17.3332 6.9987 17.3332C7.19732 17.3332 7.38942 17.2623 7.54036 17.1332C7.83203 16.9165 13.6654 11.8332 13.6654 7.33317C13.6654 5.56506 12.963 3.86937 11.7127 2.61913C10.4625 1.36888 8.76681 0.666504 6.9987 0.666504ZM6.9987 15.3748C5.2237 13.7082 1.9987 10.1165 1.9987 7.33317C1.9987 6.00709 2.52548 4.73532 3.46316 3.79764C4.40085 2.85996 5.67262 2.33317 6.9987 2.33317C8.32478 2.33317 9.59655 2.85996 10.5342 3.79764C11.4719 4.73532 11.9987 6.00709 11.9987 7.33317C11.9987 10.1165 8.7737 13.7165 6.9987 15.3748ZM6.9987 3.99984C6.33943 3.99984 5.69496 4.19533 5.1468 4.56161C4.59863 4.92788 4.17139 5.44847 3.9191 6.05756C3.66681 6.66665 3.6008 7.33687 3.72941 7.98347C3.85803 8.63008 4.1755 9.22402 4.64167 9.69019C5.10785 10.1564 5.70179 10.4738 6.3484 10.6025C6.995 10.7311 7.66522 10.6651 8.27431 10.4128C8.8834 10.1605 9.40399 9.73324 9.77026 9.18507C10.1365 8.63691 10.332 7.99244 10.332 7.33317C10.332 6.44912 9.98084 5.60127 9.35572 4.97615C8.7306 4.35103 7.88275 3.99984 6.9987 3.99984ZM6.9987 8.99984C6.66906 8.99984 6.34683 8.90209 6.07275 8.71895C5.79867 8.53582 5.58504 8.27552 5.4589 7.97098C5.33275 7.66643 5.29975 7.33132 5.36406 7.00802C5.42836 6.68472 5.5871 6.38775 5.82019 6.15466C6.05327 5.92157 6.35024 5.76284 6.67355 5.69853C6.99685 5.63422 7.33196 5.66723 7.6365 5.79337C7.94105 5.91952 8.20134 6.13314 8.38448 6.40722C8.56762 6.6813 8.66536 7.00354 8.66536 7.33317C8.66536 7.7752 8.48977 8.19912 8.17721 8.51168C7.86465 8.82424 7.44072 8.99984 6.9987 8.99984Z" fill="#BCC5D3"/>
</svg>
