<svg width="18" height="19" viewBox="0 0 18 19" fill="none" xmlns="http://www.w3.org/2000/svg">
<path d="M16.5013 7.33325C16.6107 7.33328 16.7191 7.31174 16.8202 7.26987C16.9214 7.228 17.0132 7.16662 17.0906 7.08924C17.168 7.01185 17.2294 6.91997 17.2713 6.81885C17.3131 6.71774 17.3347 6.60936 17.3346 6.49992V3.99992C17.3347 3.82506 17.2797 3.65463 17.1775 3.51279C17.0752 3.37095 16.9309 3.26491 16.765 3.20972L9.26498 0.709717C9.09381 0.652751 8.9088 0.652751 8.73763 0.709717L1.23763 3.20972C1.07171 3.26491 0.927393 3.37095 0.82514 3.51279C0.722888 3.65463 0.667897 3.82506 0.667969 3.99992V6.49992C0.66794 6.60936 0.689476 6.71774 0.731345 6.81885C0.773213 6.91997 0.834595 7.01185 0.911983 7.08924C0.989371 7.16662 1.08125 7.228 1.18237 7.26987C1.28348 7.31174 1.39186 7.33328 1.5013 7.33325H2.33464V13.3201C1.84858 13.4913 1.42744 13.8088 1.12902 14.2289C0.83061 14.6491 0.669554 15.1513 0.667969 15.6666V17.3332C0.66794 17.4427 0.689476 17.5511 0.731345 17.6522C0.773213 17.7533 0.834595 17.8452 0.911983 17.9226C0.989371 18 1.08125 18.0613 1.18237 18.1032C1.28348 18.1451 1.39186 18.1666 1.5013 18.1666H16.5013C16.6107 18.1666 16.7191 18.1451 16.8202 18.1032C16.9214 18.0613 17.0132 18 17.0906 17.9226C17.168 17.8452 17.2294 17.7533 17.2713 17.6522C17.3131 17.5511 17.3347 17.4427 17.3346 17.3332V15.6666C17.3331 15.1513 17.172 14.6491 16.8736 14.2289C16.5752 13.8088 16.154 13.4913 15.668 13.3201V7.33325H16.5013ZM15.668 16.4999H2.33464V15.6666C2.33486 15.4456 2.42272 15.2338 2.57896 15.0776C2.73519 14.9213 2.94702 14.8335 3.16797 14.8332H14.8346C15.0556 14.8335 15.2674 14.9213 15.4236 15.0776C15.5799 15.2338 15.6677 15.4456 15.668 15.6666V16.4999ZM4.0013 13.1666V7.33325H5.66797V13.1666H4.0013ZM7.33464 13.1666V7.33325H10.668V13.1666H7.33464ZM12.3346 13.1666V7.33325H14.0013V13.1666H12.3346ZM2.33464 5.66658V4.6005L9.0013 2.378L15.668 4.6005V5.66658H2.33464Z" fill="#BCC5D3"/>
</svg>
