<svg width="33" height="33" viewBox="0 0 33 33" fill="none" xmlns="http://www.w3.org/2000/svg">
<g clip-path="url(#clip0)">
<path d="M27.817 18.8413C27.472 18.8413 27.1411 18.9784 26.8972 19.2223C26.6532 19.4663 26.5162 19.7971 26.5162 20.1421V25.9438C26.5162 26.2888 26.3791 26.6196 26.1352 26.8636C25.8912 27.1075 25.5604 27.2446 25.2154 27.2446H7.004C6.659 27.2446 6.32814 27.1075 6.08419 26.8636C5.84024 26.6196 5.70319 26.2888 5.70319 25.9438V13.469L13.352 21.1308C14.0788 21.8517 15.0599 22.2582 16.0837 22.2625C16.733 22.2636 17.3724 22.1026 17.9438 21.7942C18.0945 21.7125 18.2275 21.6018 18.3352 21.4686C18.4429 21.3354 18.5233 21.1821 18.5716 21.0178C18.62 20.8534 18.6354 20.681 18.6169 20.5107C18.5985 20.3403 18.5466 20.1753 18.4642 20.0251C18.3825 19.8744 18.2718 19.7414 18.1386 19.6337C18.0053 19.526 17.8521 19.4456 17.6877 19.3973C17.5234 19.3489 17.351 19.3335 17.1807 19.352C17.0103 19.3704 16.8453 19.4223 16.6951 19.5047C16.4538 19.6284 16.1799 19.6735 15.9117 19.6339C15.6434 19.5942 15.3943 19.4718 15.1991 19.2836L7.53733 11.6348H16.1097C16.4547 11.6348 16.7856 11.4978 17.0295 11.2538C17.2735 11.0099 17.4105 10.679 17.4105 10.334C17.4105 9.98902 17.2735 9.65815 17.0295 9.4142C16.7856 9.17025 16.4547 9.0332 16.1097 9.0332H7.004C5.96901 9.0332 4.97641 9.44435 4.24456 10.1762C3.51271 10.908 3.10156 11.9007 3.10156 12.9356V25.9438C3.10156 26.9788 3.51271 27.9714 4.24456 28.7032C4.97641 29.4351 5.96901 29.8462 7.004 29.8462H25.2154C26.2504 29.8462 27.243 29.4351 27.9748 28.7032C28.7067 27.9714 29.1178 26.9788 29.1178 25.9438V20.1421C29.1178 19.7971 28.9808 19.4663 28.7368 19.2223C28.4929 18.9784 28.162 18.8413 27.817 18.8413Z" fill="white"/>
<path d="M25.0857 3.60195L25.0852 3.60195C23.7946 3.60441 22.5326 3.98211 21.4529 4.68905C20.3731 5.396 19.5223 6.40168 19.004 7.58359C18.4857 8.76551 18.3222 10.0726 18.5336 11.3458C18.745 12.6189 19.322 13.8031 20.1944 14.7542L20.1947 14.7545C20.8178 15.4299 21.5741 15.9689 22.4158 16.3376C23.2575 16.7063 24.1665 16.8966 25.0855 16.8966C26.0044 16.8966 26.9134 16.7063 27.7551 16.3376C28.5969 15.9689 29.3531 15.4299 29.9762 14.7545L29.9765 14.7542C30.8489 13.8031 31.426 12.6189 31.6373 11.3458C31.8487 10.0726 31.6853 8.76551 31.1669 7.58359C30.6486 6.40168 29.7978 5.396 28.718 4.68905C27.6383 3.98211 26.3763 3.60441 25.0857 3.60195ZM25.0855 15.3093C23.8113 15.3073 22.5864 14.8241 21.6546 13.9588C21.9416 13.311 22.4065 12.757 22.9961 12.3617C23.6142 11.9474 24.3414 11.7262 25.0855 11.7262C25.8295 11.7262 26.5567 11.9474 27.1748 12.3617C27.7645 12.757 28.2293 13.311 28.5163 13.9588C27.5846 14.8241 26.3596 15.3073 25.0855 15.3093ZM23.9346 8.95521C23.9346 8.7276 24.0021 8.5051 24.1286 8.31585C24.255 8.1266 24.4348 7.9791 24.6451 7.89199C24.8553 7.80489 25.0867 7.7821 25.31 7.82651C25.5332 7.87091 25.7383 7.98051 25.8992 8.14146C26.0602 8.3024 26.1698 8.50746 26.2142 8.73069C26.2586 8.95393 26.2358 9.18532 26.1487 9.3956C26.0616 9.60589 25.9141 9.78562 25.7248 9.91207C25.5356 10.0385 25.3131 10.106 25.0855 10.106C24.7802 10.106 24.4875 9.98477 24.2717 9.76895C24.0559 9.55313 23.9346 9.26042 23.9346 8.95521ZM30.1387 10.2558C30.1377 11.0597 29.943 11.8502 29.5727 12.5608C29.0123 11.701 28.2162 11.02 27.2791 10.5996C27.5561 10.2338 27.7379 9.80369 27.8065 9.34789C27.8853 8.82424 27.8113 8.28898 27.5934 7.80633C27.3755 7.32369 27.023 6.91416 26.5782 6.6269C26.1333 6.33963 25.615 6.18683 25.0855 6.18683C24.5559 6.18683 24.0376 6.33963 23.5928 6.6269C23.1479 6.91416 22.7954 7.32369 22.5775 7.80633C22.3597 8.28898 22.2857 8.82424 22.3645 9.34789C22.4331 9.80369 22.6148 10.2338 22.8918 10.5996C21.9547 11.02 21.1586 11.701 20.5982 12.5608C20.2279 11.8502 20.0332 11.0597 20.0322 10.2559C20.0322 8.91576 20.5646 7.63048 21.5123 6.68283C22.4599 5.73516 23.7453 5.20277 25.0855 5.20277C26.4257 5.20277 27.711 5.73516 28.6587 6.68283C29.6063 7.63046 30.1387 8.91569 30.1387 10.2558Z" fill="white" stroke="white" stroke-width="0.3"/>
</g>
<defs>
<clipPath id="clip0">
<rect width="32" height="31.2195" fill="white" transform="translate(0.5 0.890137)"/>
</clipPath>
</defs>
</svg>
