<svg width="24" height="12" viewBox="0 0 24 12" fill="none" xmlns="http://www.w3.org/2000/svg">
<path fill-rule="evenodd" clip-rule="evenodd" d="M2.01426 0.488322C1.22373 0.569945 0.461654 0.819787 0.221665 1.07609C0.123076 1.18137 0.112386 1.23288 0.118614 1.57289C0.123262 1.82534 0.158357 2.04441 0.223571 2.22778C0.523336 3.07079 1.40696 3.99964 2.63089 4.75837C3.03463 5.00863 15.8604 11.5575 16.2643 11.7197C16.6026 11.8554 17.2772 11.9314 18.2165 11.9394C18.9595 11.9457 18.9915 11.942 19.2392 11.8218C19.5828 11.6549 23.6487 8.5418 23.7869 8.33974C23.9451 8.10844 23.907 7.81784 23.6925 7.62126C23.4364 7.38662 21.7489 6.81043 21.3142 6.80922C21.2338 6.80899 20.5159 7.04019 19.7186 7.32299L18.269 7.83717L15.8736 6.61455C14.5561 5.94209 13.478 5.38147 13.4779 5.36868C13.4778 5.3559 14.6956 4.70747 16.1841 3.92773C17.7563 3.10416 18.9538 2.44867 19.0416 2.3636C19.2293 2.18172 19.2363 2.02359 19.0648 1.84031C18.8843 1.64722 17.0653 0.815371 16.7489 0.781114C16.5556 0.760243 15.742 0.921351 12.246 1.67269L7.97905 2.58974L6.32298 1.77444C4.38945 0.822483 3.98548 0.643805 3.57522 0.558975C3.16056 0.473215 2.46532 0.441746 2.01426 0.488322Z" fill="#BCC5D3"/>
</svg>
