<svg width="21" height="19" viewBox="0 0 21 19" fill="none" xmlns="http://www.w3.org/2000/svg">
<path d="M20.25 1.65651V16.9481C20.25 17.6055 19.6759 18.1412 18.9713 18.1412H1.27867C0.574098 18.1412 0 17.6055 0 16.9481V1.65651C0 0.99907 0.574098 0.463379 1.27867 0.463379H18.9713C19.6759 0.463379 20.25 0.99907 20.25 1.65651Z" fill="#FAB321"/>
<path d="M8.16837 10.057C7.69866 10.2274 6.96799 10.3248 6.3417 10.3248C2.9493 10.3248 1.64453 7.98726 1.64453 6.03928C1.64453 4.28611 3.00149 1.87549 6.39389 1.87549C9.16 1.87549 11.065 3.43386 11.065 5.96623C11.065 7.8655 9.78628 9.05864 9.05561 9.52128L11.3781 10.6414C13.805 11.8102 15.3446 11.9319 16.1275 11.9319C16.7276 11.9319 17.5888 11.8345 18.3717 11.5667C18.4499 11.5423 18.5021 11.518 18.5543 11.518C18.6065 11.518 18.6587 11.5667 18.6587 11.6154C18.6587 11.6884 18.6065 11.7128 18.5282 11.7371C17.8237 12.0537 16.5189 12.5406 14.8749 12.5406C13.1265 12.5406 11.9 12.1023 9.99505 11.0797L8.16837 10.057ZM9.44704 6.25843C9.44704 3.65301 7.72475 2.41118 6.13293 2.41118C4.6194 2.41118 3.26244 3.31212 3.26244 5.82014C3.26244 8.37685 4.93255 9.81348 6.78532 9.81348C7.69865 9.78913 9.44704 9.42389 9.44704 6.25843Z" fill="white"/>
<path d="M13.0213 10.0585C12.8386 9.98546 12.8125 9.93676 12.8125 9.69326C12.8125 9.10887 12.8647 8.45142 12.8647 8.28098C12.8647 8.11053 12.9169 8.01314 12.9952 8.01314C13.0996 8.01314 13.0996 8.11053 13.0996 8.18358C13.0996 8.32968 13.1517 8.54883 13.2039 8.74363C13.4649 9.54716 14.1434 9.83936 14.8479 9.83936C15.8918 9.83936 16.3876 9.18192 16.3876 8.62188C16.3876 8.08618 16.2049 7.59919 15.2655 6.89305L14.7436 6.50345C13.4649 5.57817 13.0213 4.82333 13.0213 3.94674C13.0213 2.7536 14.0912 1.90137 15.683 1.90137C16.4398 1.90137 16.9095 1.99876 17.2226 2.07181C17.327 2.09616 17.3792 2.12051 17.3792 2.19356C17.3792 2.33966 17.327 2.65621 17.327 3.4841C17.327 3.72759 17.3009 3.80064 17.1965 3.80064C17.1182 3.80064 17.0921 3.72759 17.0921 3.60584C17.0921 3.50845 17.04 3.16755 16.8051 2.89971C16.6224 2.70491 16.2832 2.36401 15.5525 2.36401C14.6914 2.36401 14.1695 2.82665 14.1695 3.4841C14.1695 3.97109 14.4304 4.36068 15.3959 5.04247L15.7091 5.26162C17.0921 6.25995 17.614 6.99045 17.614 8.01314C17.614 8.64623 17.3531 9.37671 16.518 9.88806C15.9439 10.229 15.2916 10.3264 14.6914 10.3264C14.039 10.3264 13.5171 10.2533 13.0213 10.0585Z" fill="white"/>
<path d="M10.2022 16.5586C14.8573 16.5586 18.631 16.3951 18.631 16.1934C18.631 15.9917 14.8573 15.8281 10.2022 15.8281C5.54714 15.8281 1.77344 15.9917 1.77344 16.1934C1.77344 16.3951 5.54714 16.5586 10.2022 16.5586Z" fill="#1E2833"/>
</svg>
