<svg width="18" height="18" viewBox="0 0 18 18" fill="none" xmlns="http://www.w3.org/2000/svg">
<path d="M16.6423 0.716442C16.045 0.613553 15.4401 0.560593 14.834 0.558109C12.7659 0.556414 10.741 1.14942 9.00064 2.26644C7.25576 1.16409 5.23118 0.585635 3.16731 0.599776C2.56118 0.602259 1.95631 0.65522 1.35897 0.758109C1.16331 0.791841 0.986124 0.894324 0.859318 1.0471C0.732512 1.19988 0.66442 1.39292 0.667307 1.59144V11.5914C0.665522 11.7139 0.690745 11.8352 0.741182 11.9468C0.791618 12.0584 0.866029 12.1575 0.959118 12.2371C1.05221 12.3166 1.16169 12.3747 1.27977 12.4071C1.39785 12.4396 1.52163 12.4456 1.64231 12.4248C2.83649 12.218 4.05998 12.2523 5.2407 12.5257C6.42142 12.799 7.53549 13.3059 8.51731 14.0164L8.61731 14.0748H8.70897C8.80139 14.1133 8.90052 14.1331 9.00064 14.1331C9.10076 14.1331 9.19989 14.1133 9.29231 14.0748H9.38397L9.48397 14.0164C10.4589 13.29 11.5698 12.7667 12.7508 12.4776C13.9317 12.1884 15.1587 12.1393 16.359 12.3331C16.4796 12.3539 16.6034 12.3479 16.7215 12.3155C16.8396 12.283 16.9491 12.225 17.0422 12.1454C17.1353 12.0658 17.2097 11.9667 17.2601 11.8551C17.3105 11.7436 17.3358 11.6222 17.334 11.4998V1.49978C17.3253 1.3099 17.252 1.1287 17.1262 0.986224C17.0004 0.843747 16.8296 0.748556 16.6423 0.716442ZM8.16731 11.7914C6.62554 10.9803 4.90941 10.557 3.16731 10.5581C2.89231 10.5581 2.61731 10.5581 2.33397 10.5581V2.22478C2.61152 2.20878 2.88976 2.20878 3.16731 2.22478C4.94513 2.22281 6.68415 2.74452 8.16731 3.72478V11.7914ZM15.6673 10.5914C15.384 10.5914 15.109 10.5914 14.834 10.5914C13.0919 10.5904 11.3757 11.0137 9.83397 11.8248V3.72478C11.3171 2.74452 13.0562 2.22281 14.834 2.22478C15.1115 2.20878 15.3898 2.20878 15.6673 2.22478V10.5914ZM16.6423 14.0498C16.045 13.9469 15.4401 13.8939 14.834 13.8914C12.7659 13.8897 10.741 14.4828 9.00064 15.5998C7.26024 14.4828 5.23534 13.8897 3.16731 13.8914C2.56118 13.8939 1.95631 13.9469 1.35897 14.0498C1.2505 14.067 1.14649 14.1055 1.05294 14.163C0.959392 14.2206 0.878141 14.2961 0.813862 14.3851C0.749584 14.4742 0.703545 14.5751 0.678393 14.682C0.653242 14.7889 0.649474 14.8997 0.667307 15.0081C0.709656 15.2245 0.836049 15.4153 1.0188 15.5387C1.20155 15.6621 1.42576 15.708 1.64231 15.6664C2.83649 15.4597 4.05998 15.494 5.2407 15.7673C6.42142 16.0407 7.53549 16.5476 8.51731 17.2581C8.65844 17.3586 8.82739 17.4126 9.00064 17.4126C9.17389 17.4126 9.34284 17.3586 9.48397 17.2581C10.4658 16.5476 11.5799 16.0407 12.7606 15.7673C13.9413 15.494 15.1648 15.4597 16.359 15.6664C16.5755 15.708 16.7997 15.6621 16.9825 15.5387C17.1652 15.4153 17.2916 15.2245 17.334 15.0081C17.3518 14.8997 17.348 14.7889 17.3229 14.682C17.2977 14.5751 17.2517 14.4742 17.1874 14.3851C17.1231 14.2961 17.0419 14.2206 16.9483 14.163C16.8548 14.1055 16.7508 14.067 16.6423 14.0498Z" fill="#BCC5D3"/>
</svg>
