<svg width="44" height="44" viewBox="0 0 44 44" fill="none" xmlns="http://www.w3.org/2000/svg">
<path d="M44 22C44 34.1503 34.1503 44 22 44C9.84974 44 0 34.1503 0 22C0 9.84974 9.84974 0 22 0C34.1503 0 44 9.84974 44 22ZM2.93429 22C2.93429 32.5297 11.4703 41.0657 22 41.0657C32.5297 41.0657 41.0657 32.5297 41.0657 22C41.0657 11.4703 32.5297 2.93429 22 2.93429C11.4703 2.93429 2.93429 11.4703 2.93429 22Z" fill="#DBDFE7"/>
<path d="M42.5329 22C43.3431 22 44.0051 21.3424 43.9511 20.5339C43.7916 18.1465 43.2435 15.7976 42.3253 13.581C41.2197 10.9118 39.5992 8.48654 37.5564 6.44365C35.5135 4.40076 33.0882 2.78025 30.419 1.67465C28.2024 0.756474 25.8535 0.208355 23.4661 0.0489026C22.6576 -0.00509398 22 0.656862 22 1.46714C22 2.27742 22.6578 2.92842 23.4657 2.99071C25.4675 3.14506 27.4355 3.6149 29.2961 4.38558C31.6093 5.34372 33.7111 6.74809 35.4815 8.5185C37.2519 10.2889 38.6563 12.3907 39.6144 14.7039C40.3851 16.5645 40.8549 18.5325 41.0093 20.5343C41.0716 21.3422 41.7226 22 42.5329 22Z" fill="#3B3B3C"/>
</svg>
