<svg width="510" height="75" viewBox="0 0 510 75" fill="none" xmlns="http://www.w3.org/2000/svg">
<path d="M35.1147 51.2625C35.1147 49.3517 35.5036 47.6853 36.2812 46.2633C37.0589 44.8191 38.1365 43.7081 39.514 42.9305C40.8916 42.1306 42.4691 41.7307 44.2466 41.7307C46.5351 41.7307 48.4237 42.3084 49.9123 43.4637C51.1413 44.3855 52.0395 45.6159 52.6069 47.155C52.8107 47.7079 52.3755 48.2629 51.7862 48.2629H48.5666C48.176 48.2629 47.8395 48.0072 47.659 47.6609C47.3896 47.1439 47.0187 46.7224 46.5462 46.3966C45.9241 45.93 45.1464 45.6967 44.2132 45.6967C42.8801 45.6967 41.8248 46.1855 41.0471 47.1631C40.2695 48.1185 39.8806 49.485 39.8806 51.2625C39.8806 53.0177 40.2695 54.3842 41.0471 55.3618C41.8248 56.3172 42.8801 56.7949 44.2132 56.7949C45.8639 56.7949 47.0138 56.1499 47.6631 54.86C47.8375 54.5136 48.1733 54.262 48.5611 54.262H51.7769C52.3691 54.262 52.8044 54.8222 52.5928 55.3753C52.0247 56.8603 51.1312 58.0778 49.9123 59.0278C48.4015 60.2054 46.5129 60.7942 44.2466 60.7942C42.4691 60.7942 40.8916 60.4054 39.514 59.6277C38.1365 58.8279 37.0589 57.7169 36.2812 56.295C35.5036 54.8508 35.1147 53.1733 35.1147 51.2625Z" fill="#0088E9"/>
<path d="M64.762 41.764C66.1617 41.764 67.406 42.0751 68.4947 42.6972C69.5834 43.2971 70.4277 44.1969 71.0276 45.3968C71.6497 46.5743 71.9608 47.9963 71.9608 49.6627V59.587C71.9608 60.0881 71.5546 60.4943 71.0535 60.4943H68.2021C67.7011 60.4943 67.2949 60.0881 67.2949 59.587V50.2959C67.2949 48.8295 66.9283 47.7075 66.195 46.9298C65.4618 46.13 64.462 45.73 63.1955 45.73C61.9069 45.73 60.8848 46.13 60.1294 46.9298C59.3962 47.7075 59.0296 48.8295 59.0296 50.2959V59.587C59.0296 60.0881 58.6234 60.4943 58.1223 60.4943H55.2709C54.7699 60.4943 54.3637 60.0881 54.3637 59.587V36.7389C54.3637 36.2379 54.7699 35.8317 55.2709 35.8317H58.1223C58.6234 35.8317 59.0296 36.2379 59.0296 36.7389V44.3303C59.6295 43.5304 60.4293 42.9083 61.4292 42.4639C62.429 41.9973 63.5399 41.764 64.762 41.764Z" fill="#0088E9"/>
<path d="M82.5968 60.7942C80.8193 60.7942 79.2196 60.4054 77.7976 59.6277C76.3756 58.8279 75.2535 57.7058 74.4315 56.2616C73.6316 54.8174 73.2317 53.151 73.2317 51.2625C73.2317 49.3739 73.6427 47.7075 74.4648 46.2633C75.3091 44.8191 76.4533 43.7081 77.8975 42.9305C79.3418 42.1306 80.9526 41.7307 82.7301 41.7307C84.5076 41.7307 86.1184 42.1306 87.5626 42.9305C89.0068 43.7081 90.14 44.8191 90.9621 46.2633C91.8064 47.7075 92.2285 49.3739 92.2285 51.2625C92.2285 53.151 91.7953 54.8174 90.9287 56.2616C90.0844 57.7058 88.9291 58.8279 87.4626 59.6277C86.0184 60.4054 84.3965 60.7942 82.5968 60.7942ZM82.5968 56.7282C83.4411 56.7282 84.2298 56.5283 84.9631 56.1283C85.7185 55.7062 86.3184 55.084 86.7628 54.262C87.2071 53.4399 87.4293 52.44 87.4293 51.2625C87.4293 49.5072 86.9627 48.163 86.0295 47.2298C85.1186 46.2744 83.9965 45.7967 82.6634 45.7967C81.3303 45.7967 80.2083 46.2744 79.2973 47.2298C78.4086 48.163 77.9642 49.5072 77.9642 51.2625C77.9642 53.0177 78.3975 54.3731 79.264 55.3284C80.1527 56.2616 81.2637 56.7282 82.5968 56.7282Z" fill="#0088E9"/>
<path d="M97.4101 35.8317C97.9112 35.8317 98.3174 36.2379 98.3174 36.7389V59.587C98.3174 60.0881 97.9112 60.4943 97.4101 60.4943H94.5587C94.0577 60.4943 93.6515 60.0881 93.6515 59.587V36.7389C93.6515 36.2379 94.0577 35.8317 94.5587 35.8317H97.4101Z" fill="#0088E9"/>
<path d="M99.7278 51.1958C99.7278 49.3294 100.094 47.6742 100.828 46.2299C101.583 44.7857 102.594 43.6748 103.86 42.8972C105.149 42.1195 106.582 41.7307 108.16 41.7307C109.537 41.7307 110.737 42.0084 111.759 42.5639C112.803 43.1193 113.637 43.8192 114.259 44.6635V42.9379C114.259 42.4368 114.665 42.0306 115.166 42.0306H118.051C118.552 42.0306 118.958 42.4368 118.958 42.9379V59.587C118.958 60.0881 118.552 60.4943 118.051 60.4943H115.166C114.665 60.4943 114.259 60.0881 114.259 59.587V57.7947C113.659 58.6612 112.826 59.3833 111.759 59.961C110.715 60.5165 109.504 60.7942 108.126 60.7942C106.571 60.7942 105.149 60.3943 103.86 59.5944C102.594 58.7945 101.583 57.6725 100.828 56.2283C100.094 54.7619 99.7278 53.0844 99.7278 51.1958ZM114.259 51.2625C114.259 50.1293 114.037 49.1628 113.592 48.3629C113.148 47.5408 112.548 46.9187 111.792 46.4966C111.037 46.0522 110.226 45.83 109.36 45.83C108.493 45.83 107.693 46.0411 106.96 46.4632C106.227 46.8854 105.627 47.5075 105.16 48.3296C104.716 49.1295 104.494 50.0849 104.494 51.1958C104.494 52.3067 104.716 53.2843 105.16 54.1286C105.627 54.9507 106.227 55.584 106.96 56.0283C107.715 56.4727 108.515 56.6949 109.36 56.6949C110.226 56.6949 111.037 56.4838 111.792 56.0617C112.548 55.6173 113.148 54.9952 113.592 54.1953C114.037 53.3732 114.259 52.3956 114.259 51.2625Z" fill="#0088E9"/>
<path d="M126.181 44.8968C126.781 43.9192 127.559 43.1527 128.514 42.5972C129.248 42.1802 130.057 41.9197 130.942 41.8157C131.439 41.7573 131.847 42.1702 131.847 42.6713V45.756C131.847 46.257 131.441 46.6632 130.94 46.6632H130.614C129.147 46.6632 128.037 47.0076 127.281 47.6964C126.548 48.3851 126.181 49.585 126.181 51.2958V59.587C126.181 60.0881 125.775 60.4943 125.274 60.4943H122.423C121.922 60.4943 121.515 60.0881 121.515 59.587V42.9379C121.515 42.4368 121.922 42.0306 122.423 42.0306H125.274C125.775 42.0306 126.181 42.4368 126.181 42.9379V44.8968Z" fill="#0088E9"/>
<path d="M140.056 60.7942C138.545 60.7942 137.189 60.5276 135.99 59.9944C134.79 59.4389 133.834 58.6946 133.123 57.7614C132.435 56.8282 132.057 55.795 131.99 54.6619H136.689C136.778 55.3729 137.123 55.9617 137.723 56.4283C138.345 56.8949 139.111 57.1282 140.022 57.1282C140.911 57.1282 141.6 56.9504 142.089 56.5949C142.6 56.2394 142.855 55.7839 142.855 55.2285C142.855 54.6286 142.544 54.1842 141.922 53.8954C141.322 53.5843 140.355 53.251 139.022 52.8955C137.645 52.5622 136.512 52.2179 135.623 51.8624C134.756 51.5069 134.001 50.9625 133.357 50.2293C132.735 49.4961 132.423 48.5073 132.423 47.2631C132.423 46.2411 132.712 45.3079 133.29 44.4636C133.89 43.6193 134.734 42.9527 135.823 42.4639C136.934 41.9751 138.234 41.7307 139.722 41.7307C141.922 41.7307 143.677 42.2862 144.988 43.3971C146.299 44.4858 147.021 45.9633 147.154 47.8297H142.688C142.622 47.0965 142.311 46.5188 141.755 46.0966C141.222 45.6523 140.5 45.4301 139.589 45.4301C138.745 45.4301 138.089 45.5856 137.623 45.8967C137.178 46.2077 136.956 46.641 136.956 47.1965C136.956 47.8186 137.267 48.2963 137.889 48.6296C138.511 48.9406 139.478 49.2628 140.789 49.5961C142.122 49.9293 143.222 50.2737 144.088 50.6292C144.955 50.9847 145.699 51.5402 146.321 52.2956C146.966 53.0288 147.299 54.0064 147.321 55.2285C147.321 56.295 147.021 57.2504 146.421 58.0947C145.843 58.939 144.999 59.6055 143.888 60.0943C142.8 60.5609 141.522 60.7942 140.056 60.7942Z" fill="#0088E9"/>
<path d="M159.55 41.764C160.95 41.764 162.194 42.0751 163.282 42.6972C164.371 43.2971 165.215 44.1969 165.815 45.3968C166.437 46.5743 166.749 47.9963 166.749 49.6627V59.587C166.749 60.0881 166.342 60.4943 165.841 60.4943H162.99C162.489 60.4943 162.083 60.0881 162.083 59.587V50.2959C162.083 48.8295 161.716 47.7075 160.983 46.9298C160.25 46.13 159.25 45.73 157.983 45.73C156.695 45.73 155.673 46.13 154.917 46.9298C154.184 47.7075 153.817 48.8295 153.817 50.2959V59.587C153.817 60.0881 153.411 60.4943 152.91 60.4943H150.059C149.558 60.4943 149.151 60.0881 149.151 59.587V36.7389C149.151 36.2379 149.558 35.8317 150.059 35.8317H152.91C153.411 35.8317 153.817 36.2379 153.817 36.7389V44.3303C154.417 43.5304 155.217 42.9083 156.217 42.4639C157.217 41.9973 158.328 41.764 159.55 41.764Z" fill="#0088E9"/>
<path d="M171.552 39.831C170.73 39.831 170.041 39.5755 169.486 39.0645C168.953 38.5312 168.686 37.8758 168.686 37.0981C168.686 36.3205 168.953 35.6761 169.486 35.1651C170.041 34.6319 170.73 34.3652 171.552 34.3652C172.374 34.3652 173.052 34.6319 173.585 35.1651C174.141 35.6761 174.418 36.3205 174.418 37.0981C174.418 37.8758 174.141 38.5312 173.585 39.0645C173.052 39.5755 172.374 39.831 171.552 39.831ZM172.945 42.0306C173.446 42.0306 173.852 42.4368 173.852 42.9379V59.587C173.852 60.0881 173.446 60.4943 172.945 60.4943H170.093C169.592 60.4943 169.186 60.0881 169.186 59.587V42.9379C169.186 42.4368 169.592 42.0306 170.093 42.0306H172.945Z" fill="#0088E9"/>
<path d="M181.128 44.6969C181.728 43.8526 182.55 43.1527 183.594 42.5972C184.661 42.0195 185.872 41.7307 187.227 41.7307C188.804 41.7307 190.226 42.1195 191.493 42.8972C192.782 43.6748 193.793 44.7857 194.526 46.2299C195.281 47.6519 195.659 49.3072 195.659 51.1958C195.659 53.0844 195.281 54.7619 194.526 56.2283C193.793 57.6725 192.782 58.7945 191.493 59.5944C190.226 60.3943 188.804 60.7942 187.227 60.7942C185.872 60.7942 184.672 60.5165 183.628 59.961C182.605 59.4056 181.772 58.7057 181.128 57.8614V68.3856C181.128 68.8866 180.722 69.2928 180.221 69.2928H177.369C176.868 69.2928 176.462 68.8866 176.462 68.3856V42.9379C176.462 42.4368 176.868 42.0306 177.369 42.0306H180.221C180.722 42.0306 181.128 42.4368 181.128 42.9379V44.6969ZM190.893 51.1958C190.893 50.0849 190.66 49.1295 190.193 48.3296C189.749 47.5075 189.149 46.8854 188.393 46.4632C187.66 46.0411 186.86 45.83 185.994 45.83C185.15 45.83 184.35 46.0522 183.594 46.4966C182.861 46.9187 182.261 47.5408 181.795 48.3629C181.35 49.185 181.128 50.1515 181.128 51.2625C181.128 52.3734 181.35 53.3399 181.795 54.162C182.261 54.9841 182.861 55.6173 183.594 56.0617C184.35 56.4838 185.15 56.6949 185.994 56.6949C186.86 56.6949 187.66 56.4727 188.393 56.0283C189.149 55.584 189.749 54.9507 190.193 54.1286C190.66 53.3066 190.893 52.3289 190.893 51.1958Z" fill="#0088E9"/>
<path d="M59.8726 31.5635C58.807 31.5635 57.8436 31.3811 56.9824 31.0162C56.1358 30.6512 55.4643 30.1257 54.968 29.4397C54.6414 28.9882 54.4191 28.483 54.3011 27.924C54.1965 27.4283 54.6166 27.0093 55.1232 27.0093H56.6398C57.1164 27.0093 57.4862 27.3922 57.6736 27.8304C57.7836 28.0878 57.94 28.3104 58.1429 28.4982C58.5516 28.8631 59.1063 29.0456 59.8069 29.0456C60.5222 29.0456 61.0842 28.8777 61.4929 28.542C61.9016 28.1916 62.106 27.7391 62.106 27.1844C62.106 26.7319 61.9673 26.3597 61.6899 26.0678C61.4126 25.7758 61.0623 25.5496 60.639 25.389C60.2302 25.2138 59.661 25.0241 58.9311 24.8197C57.9385 24.5278 57.1284 24.2431 56.5007 23.9658C55.8876 23.6738 55.3548 23.2432 54.9023 22.6739C54.4644 22.0901 54.2455 21.3164 54.2455 20.353C54.2455 19.448 54.4717 18.6597 54.9242 17.9883C55.3767 17.3168 56.0117 16.8059 56.8291 16.4556C57.6466 16.0907 58.5808 15.9082 59.6318 15.9082C61.2082 15.9082 62.4855 16.295 63.4635 17.0687C64.2102 17.6397 64.705 18.3842 64.9478 19.3023C65.0827 19.8123 64.6559 20.2654 64.1283 20.2654H62.592C62.1105 20.2654 61.7398 19.8627 61.4876 19.4526C61.3789 19.2758 61.2347 19.1161 61.055 18.9736C60.6463 18.6233 60.0989 18.4481 59.4128 18.4481C58.8143 18.4481 58.3326 18.6014 57.9677 18.9079C57.6174 19.2144 57.4422 19.6596 57.4422 20.2435C57.4422 20.6522 57.5736 20.9953 57.8363 21.2726C58.1137 21.5354 58.4494 21.7543 58.8435 21.9295C59.2522 22.0901 59.8215 22.2798 60.5514 22.4988C61.544 22.7907 62.3541 23.0827 62.9818 23.3746C63.6095 23.6665 64.1496 24.1044 64.6021 24.6883C65.0546 25.2722 65.2808 26.0386 65.2808 26.9874C65.2808 27.8048 65.0692 28.5638 64.6459 29.2645C64.2225 29.9652 63.6022 30.5272 62.7847 30.9505C61.9673 31.3592 60.9966 31.5635 59.8726 31.5635Z" fill="#0088E9"/>
<path d="M77.9009 25.0825C77.9009 25.5204 77.8717 25.9145 77.8133 26.2648H68.9456C69.0186 27.1406 69.3251 27.8267 69.8652 28.323C70.4053 28.8193 71.0695 29.0674 71.8577 29.0674C72.7908 29.0674 73.5033 28.739 73.9952 28.0822C74.2024 27.8056 74.507 27.6004 74.8526 27.6004H76.375C76.9827 27.6004 77.4186 28.1914 77.1243 28.7231C76.7491 29.4011 76.2343 29.9903 75.58 30.4907C74.5874 31.2351 73.3685 31.6073 71.9234 31.6073C70.7556 31.6073 69.7046 31.3519 68.7704 30.841C67.8508 30.3155 67.1283 29.5783 66.6028 28.6295C66.0919 27.6807 65.8364 26.5859 65.8364 25.3452C65.8364 24.0899 66.0919 22.9878 66.6028 22.039C67.1137 21.0902 67.8289 20.3603 68.7485 19.8494C69.6682 19.3385 70.7264 19.0831 71.9234 19.0831C73.0766 19.0831 74.1057 19.3312 75.0107 19.8275C75.9303 20.3238 76.6382 21.0318 77.1345 21.9514C77.6454 22.8564 77.9009 23.9001 77.9009 25.0825ZM74.726 24.2066C74.7114 23.4184 74.4268 22.7907 73.8721 22.3236C73.3174 21.8419 72.6387 21.6011 71.8358 21.6011C71.0768 21.6011 70.4345 21.8346 69.909 22.3017C69.3981 22.7542 69.0843 23.3892 68.9675 24.2066H74.726Z" fill="#0088E9"/>
<path d="M78.0364 25.3452C78.0364 24.0899 78.2918 22.9951 78.8027 22.0609C79.3136 21.1121 80.0216 20.3822 80.9266 19.8713C81.8316 19.3458 82.868 19.0831 84.0358 19.0831C85.5393 19.0831 86.78 19.4626 87.758 20.2216C88.4648 20.7518 89.0051 21.4373 89.3789 22.2783C89.6182 22.8168 89.1808 23.3746 88.5915 23.3746H87.0982C86.7077 23.3746 86.3769 23.1133 86.165 22.7852C86.0018 22.5325 85.7957 22.3203 85.5466 22.1484C85.1378 21.8419 84.6269 21.6886 84.0139 21.6886C83.138 21.6886 82.4447 22.0098 81.9338 22.652C81.4229 23.2797 81.1674 24.1774 81.1674 25.3452C81.1674 26.4984 81.4229 27.3961 81.9338 28.0384C82.4447 28.666 83.138 28.9799 84.0139 28.9799C85.0119 28.9799 85.7313 28.621 86.1721 27.9032C86.3751 27.5726 86.7049 27.3158 87.0928 27.3158H88.5822C89.1744 27.3158 89.6114 27.8787 89.3637 28.4166C88.9905 29.2266 88.4553 29.9034 87.758 30.4469C86.7654 31.2205 85.5247 31.6073 84.0358 31.6073C82.868 31.6073 81.8316 31.3519 80.9266 30.841C80.0216 30.3155 79.3136 29.5856 78.8027 28.6514C78.2918 27.7026 78.0364 26.6005 78.0364 25.3452Z" fill="#0088E9"/>
<path d="M101.227 19.2801C101.728 19.2801 102.134 19.6863 102.134 20.1874V30.503C102.134 31.0041 101.728 31.4103 101.227 31.4103H99.9538C99.4527 31.4103 99.0465 31.0041 99.0465 30.503V29.8776C98.6524 30.4031 98.1342 30.8191 97.492 31.1256C96.8643 31.4176 96.1782 31.5635 95.4338 31.5635C94.485 31.5635 93.6456 31.3665 92.9158 30.9724C92.1859 30.5636 91.6093 29.9725 91.186 29.1988C90.7773 28.4106 90.573 27.4764 90.573 26.3962V20.1874C90.573 19.6863 90.9791 19.2801 91.4802 19.2801H92.7311C93.2321 19.2801 93.6383 19.6863 93.6383 20.1874V25.9583C93.6383 26.9217 93.8792 27.6661 94.3609 28.1916C94.8426 28.7025 95.4995 28.958 96.3315 28.958C97.1781 28.958 97.8423 28.7025 98.324 28.1916C98.8057 27.6661 99.0465 26.9217 99.0465 25.9583V20.1874C99.0465 19.6863 99.4527 19.2801 99.9538 19.2801H101.227Z" fill="#0088E9"/>
<path d="M106.91 21.1631C107.304 20.5209 107.815 20.0173 108.443 19.6523C108.838 19.4275 109.267 19.2719 109.73 19.1856C110.222 19.0936 110.632 19.5112 110.632 20.0122V21.5135C110.632 21.9609 110.27 22.3236 109.822 22.3236C108.859 22.3236 108.129 22.5499 107.633 23.0024C107.151 23.4549 106.91 24.2431 106.91 25.3671V30.503C106.91 31.0041 106.504 31.4103 106.003 31.4103H104.752C104.251 31.4103 103.845 31.0041 103.845 30.503V20.1874C103.845 19.6863 104.251 19.2801 104.752 19.2801H106.003C106.504 19.2801 106.91 19.6863 106.91 20.1874V21.1631Z" fill="#0088E9"/>
<path d="M122.659 25.0825C122.659 25.5204 122.63 25.9145 122.572 26.2648H113.704C113.777 27.1406 114.084 27.8267 114.624 28.323C115.164 28.8193 115.828 29.0674 116.616 29.0674C117.755 29.0674 118.565 28.5784 119.047 27.6004H122.353C122.003 28.7682 121.331 29.7316 120.338 30.4907C119.346 31.2351 118.127 31.6073 116.682 31.6073C115.514 31.6073 114.463 31.3519 113.529 30.841C112.609 30.3155 111.887 29.5783 111.361 28.6295C110.85 27.6807 110.595 26.5859 110.595 25.3452C110.595 24.0899 110.85 22.9878 111.361 22.039C111.872 21.0902 112.587 20.3603 113.507 19.8494C114.427 19.3385 115.485 19.0831 116.682 19.0831C117.835 19.0831 118.864 19.3312 119.769 19.8275C120.689 20.3238 121.397 21.0318 121.893 21.9514C122.404 22.8564 122.659 23.9001 122.659 25.0825ZM119.485 24.2066C119.47 23.4184 119.185 22.7907 118.631 22.3236C118.076 21.8419 117.397 21.6011 116.594 21.6011C115.835 21.6011 115.193 21.8346 114.668 22.3017C114.157 22.7542 113.843 23.3892 113.726 24.2066H119.485Z" fill="#0088E9"/>
<path d="M139.338 16.1272C139.839 16.1272 140.246 16.5334 140.246 17.0344V30.503C140.246 31.0041 139.839 31.4103 139.338 31.4103H138.088C137.586 31.4103 137.18 31.0041 137.18 30.503V21.4697L133.317 30.8485C133.177 31.1884 132.846 31.4103 132.478 31.4103H131.371C131.004 31.4103 130.673 31.1892 130.533 30.8501L126.648 21.4697V30.503C126.648 31.0041 126.242 31.4103 125.741 31.4103H124.49C123.989 31.4103 123.583 31.0041 123.583 30.503V17.0344C123.583 16.5334 123.989 16.1272 124.49 16.1272H126.466C126.829 16.1272 127.157 16.3437 127.3 16.6776L131.925 27.491L136.551 16.6776C136.694 16.3437 137.022 16.1272 137.385 16.1272H139.338Z" fill="#0088E9"/>
<path d="M152.202 19.2801C152.85 19.2801 153.289 19.941 153.038 20.5389L146.291 36.5912C146.149 36.9279 145.819 37.1469 145.454 37.1469H144.178C143.525 37.1469 143.086 36.4771 143.346 35.8779L145.422 31.1037L141.076 20.5324C140.831 19.9353 141.27 19.2801 141.915 19.2801H143.367C143.747 19.2801 144.086 19.5167 144.218 19.8729L147.13 27.7537L150.084 19.8691C150.217 19.5148 150.555 19.2801 150.934 19.2801H152.202Z" fill="#0088E9"/>
<path d="M15.8669 66.1527C15.8652 66.1469 15.8651 66.1437 15.8651 66.1427C15.8651 66.1415 15.8652 66.1407 15.8655 66.1397C15.8661 66.1375 15.8682 66.1325 15.8736 66.1268C15.8789 66.1212 15.8839 66.1187 15.8862 66.1179C15.8871 66.1176 15.888 66.1174 15.8891 66.1173C15.8902 66.1172 15.8935 66.1171 15.8997 66.1182L16.2759 66.19L15.8901 66.1706C15.8791 66.1701 15.8699 66.163 15.8669 66.1527Z" fill="#0088E9" stroke="#0088E9" stroke-width="1.38863"/>
<path d="M26.1727 18.9962C26.1563 19.0078 26.1519 19.0161 26.1498 19.0211C26.1467 19.0285 26.1447 19.0398 26.1473 19.0532C26.1499 19.0666 26.156 19.0763 26.1617 19.0819C26.1655 19.0858 26.1726 19.0918 26.1921 19.0963L31.8632 20.4094L31.7347 20.2954C31.7241 20.286 31.7108 20.2792 31.696 20.2757L26.2327 18.9845C26.2122 18.9796 26.1898 18.984 26.1727 18.9962Z" fill="#0088E9" stroke="#0088E9" stroke-width="1.38863"/>
<path d="M24.4755 21.9567C24.5823 21.4626 25.0946 21.1393 25.5862 21.2558L33.8623 23.2158C34.3291 23.3264 34.5932 23.7914 34.4511 24.2524L22.0072 64.6171C21.8666 65.0733 21.3808 65.354 20.9184 65.2463L16.1759 64.1413C15.7357 64.0388 15.4696 63.6184 15.5651 63.1765L24.4755 21.9567Z" stroke="#0088E9" stroke-width="1.38863"/>
<path fill-rule="evenodd" clip-rule="evenodd" d="M27.2422 44.4214L25.5022 49.7336L20.286 46.0408L21.359 40.658L27.2422 44.4214ZM23.9921 47.0738C24.9846 46.9841 25.7165 46.1067 25.6267 45.1142C25.537 44.1218 24.6597 43.3899 23.6672 43.4796C22.6747 43.5694 21.9429 44.4467 22.0326 45.4392C22.1223 46.4317 22.9996 47.1635 23.9921 47.0738Z" fill="#0088E9"/>
<path d="M21.4576 27.2621C21.0284 27.2947 20.6105 27.3459 20.2037 27.4156C18.0403 27.7995 16.2799 28.6115 14.9224 29.8515C13.6035 31.0682 12.722 32.5738 12.278 34.3681C11.7497 36.5028 11.8701 38.3383 12.639 39.8747C13.4465 41.3878 14.5355 42.6258 15.9059 43.5888C16.5499 44.0348 17.2919 44.5051 18.1319 44.9996L19.3007 38.7659C19.0962 38.5472 18.911 38.3206 18.7451 38.0861C18.2409 37.3376 18.1036 36.4992 18.3333 35.5711C18.6231 34.4 19.306 33.5424 20.382 32.9985L21.4576 27.2621Z" fill="#0088E9"/>
<path d="M29.7219 45.1033L27.7599 51.4496C28.1145 52.1127 28.1945 52.8375 27.9999 53.624C27.7683 54.5599 27.2417 55.2797 26.42 55.7836L26.3601 55.9773L26.1638 55.9287C25.9391 56.0462 25.6952 56.1496 25.4321 56.239C24.0651 56.7215 22.1751 56.6641 19.762 56.067C17.8129 55.5847 15.9442 54.7775 14.156 53.6455C13.0587 52.921 12.095 52.152 11.265 51.3387C10.5371 50.6254 9.31738 50.6229 8.69114 51.427L7.39098 53.0962C6.96783 53.6395 6.9433 54.4026 7.39789 54.9198C8.42452 56.088 9.79193 57.1842 11.5001 58.2085C13.6752 59.5019 16.0158 60.4587 18.5217 61.0788C21.3679 61.7832 23.8882 61.9472 26.0826 61.5709C28.2769 61.1947 30.0335 60.3982 31.3524 59.1815C32.7022 57.9724 33.5992 56.4707 34.0432 54.6763C34.5638 52.5726 34.4204 50.7642 33.6129 49.2511C32.8363 47.7456 31.7473 46.5076 30.3459 45.537C30.1469 45.394 29.9389 45.2494 29.7219 45.1033Z" fill="#0088E9"/>
<path d="M32.5942 35.813L34.2219 30.5481C35.2521 31.1636 36.166 31.8347 36.9636 32.5615C37.5117 33.0609 37.5524 33.8913 37.1166 34.4912L35.8644 36.2151C35.3046 36.9857 34.194 37.0755 33.4552 36.4744C33.1735 36.2452 32.8864 36.0247 32.5942 35.813Z" fill="#0088E9"/>
<rect x="224" y="7.5" width="2" height="60" rx="1" fill="#0088E9"/>
<path d="M268.115 43.5421H266.525V36.7404C266.525 35.3379 266.299 34.3017 265.847 33.6316C265.395 32.946 264.725 32.6032 263.837 32.6032C262.902 32.6032 262.076 32.9304 261.36 33.5849C260.643 34.2394 260.136 35.0808 259.84 36.1093V43.5421H258.251V36.7404C258.251 35.3068 258.025 34.2627 257.573 33.6083C257.137 32.9382 256.475 32.6032 255.586 32.6032C254.667 32.6032 253.841 32.9226 253.109 33.5615C252.392 34.2004 251.885 35.0419 251.589 36.0859V43.5421H250V31.3644H251.449V34.1225C251.948 33.1875 252.602 32.463 253.413 31.9487C254.223 31.4189 255.119 31.154 256.101 31.154C257.113 31.154 257.931 31.4501 258.555 32.0422C259.178 32.6188 259.56 33.3667 259.7 34.2861C260.822 32.1981 262.388 31.154 264.398 31.154C265.769 31.154 266.728 31.6371 267.273 32.6032C267.834 33.5537 268.115 34.8237 268.115 36.4131V43.5421Z" fill="#0088E9"/>
<path d="M268.628 40.036C268.628 39.2881 268.846 38.6414 269.282 38.096C269.718 37.5351 270.318 37.0988 271.082 36.7871C271.861 36.4755 272.757 36.3196 273.77 36.3196C274.362 36.3196 274.977 36.3742 275.616 36.4832C276.255 36.5767 276.824 36.7092 277.323 36.8806V35.8522C277.323 34.8237 277.019 34.0056 276.411 33.3979C275.803 32.7902 274.962 32.4863 273.887 32.4863C273.248 32.4863 272.609 32.611 271.97 32.8603C271.331 33.0941 270.669 33.4447 269.983 33.9121L269.376 32.7902C270.17 32.2448 270.949 31.8397 271.713 31.5748C272.476 31.2943 273.256 31.154 274.05 31.154C275.546 31.154 276.73 31.5826 277.603 32.4396C278.476 33.2966 278.912 34.4809 278.912 35.9924V41.6255C278.912 42.0462 279.107 42.2643 279.496 42.2799V43.5421C279.154 43.5889 278.912 43.6044 278.772 43.5889C278.382 43.5733 278.086 43.4486 277.884 43.2149C277.681 42.9811 277.572 42.7318 277.556 42.4669L277.533 41.5787C276.988 42.2799 276.279 42.8253 275.406 43.2149C274.533 43.5889 273.645 43.7758 272.741 43.7758C271.947 43.7758 271.238 43.6122 270.614 43.285C269.991 42.9422 269.5 42.4903 269.142 41.9293C268.799 41.3528 268.628 40.7217 268.628 40.036ZM276.785 40.971C277.143 40.5503 277.323 40.1607 277.323 39.8023V38.0259C276.247 37.6052 275.125 37.3948 273.957 37.3948C272.819 37.3948 271.9 37.6208 271.199 38.0727C270.497 38.5245 270.147 39.1401 270.147 39.9192C270.147 40.5892 270.404 41.1969 270.918 41.7423C271.448 42.2877 272.18 42.5604 273.115 42.5604C273.879 42.5604 274.588 42.4124 275.242 42.1163C275.912 41.8202 276.427 41.4385 276.785 40.971Z" fill="#0088E9"/>
<path d="M289.171 43.5421L284.66 37.3013L282.066 39.7322V43.5421H280.476V26.4793H282.066V38.0259L288.961 31.3878H290.714L285.735 36.3664L290.901 43.5421H289.171Z" fill="#0088E9"/>
<path d="M291.001 28.8167V26.4793H292.59V28.8167H291.001ZM291.001 43.5421V31.3644H292.59V43.5421H291.001Z" fill="#0088E9"/>
<path d="M304.459 43.5421H302.869V36.7404C302.869 35.3068 302.651 34.2627 302.215 33.6083C301.794 32.9382 301.14 32.6032 300.251 32.6032C299.628 32.6032 299.013 32.759 298.405 33.0707C297.797 33.3667 297.26 33.7797 296.792 34.3095C296.34 34.8237 296.013 35.4158 295.81 36.0859V43.5421H294.221V31.3644H295.67V34.1225C296.153 33.2343 296.862 32.5175 297.797 31.9721C298.732 31.4267 299.745 31.154 300.836 31.154C301.74 31.154 302.456 31.3722 302.986 31.8085C303.516 32.2292 303.89 32.8369 304.108 33.6316C304.342 34.4108 304.459 35.3379 304.459 36.4131V43.5421Z" fill="#0088E9"/>
<path d="M310.863 43.7057C310.022 43.7057 309.251 43.5343 308.549 43.1915C307.864 42.8487 307.264 42.389 306.75 41.8125C306.251 41.2203 305.861 40.5503 305.581 39.8023C305.3 39.0544 305.16 38.283 305.16 37.4883C305.16 36.3508 305.402 35.3068 305.885 34.3562C306.368 33.3901 307.03 32.6188 307.872 32.0422C308.729 31.4501 309.71 31.154 310.817 31.154C311.861 31.154 312.764 31.4189 313.528 31.9487C314.307 32.4785 314.962 33.133 315.491 33.9121V31.3644H316.917V43.5889C316.917 44.7264 316.644 45.6769 316.099 46.4404C315.554 47.204 314.829 47.7805 313.925 48.1701C313.022 48.5597 312.032 48.7544 310.957 48.7544C309.554 48.7544 308.425 48.5051 307.568 48.0065C306.726 47.5078 306.033 46.8378 305.487 45.9963L306.469 45.225C306.952 45.9886 307.591 46.5573 308.386 46.9313C309.196 47.3053 310.053 47.4923 310.957 47.4923C311.752 47.4923 312.476 47.3442 313.131 47.0482C313.801 46.7677 314.33 46.3392 314.72 45.7626C315.125 45.1861 315.328 44.4615 315.328 43.5889V41.1814C314.86 41.9449 314.221 42.5604 313.411 43.0279C312.601 43.4798 311.752 43.7057 310.863 43.7057ZM311.307 42.3734C311.946 42.3734 312.554 42.2254 313.131 41.9293C313.707 41.6333 314.19 41.2593 314.58 40.8074C314.985 40.3399 315.234 39.8569 315.328 39.3582V35.595C315.094 35.0029 314.759 34.4809 314.323 34.029C313.886 33.5615 313.388 33.2031 312.827 32.9538C312.266 32.6889 311.697 32.5565 311.12 32.5565C310.217 32.5565 309.438 32.8058 308.783 33.3044C308.144 33.7875 307.646 34.4108 307.287 35.1743C306.944 35.9223 306.773 36.7014 306.773 37.5117C306.773 38.3843 306.976 39.1946 307.381 39.9426C307.786 40.6749 308.331 41.2671 309.017 41.719C309.702 42.1553 310.466 42.3734 311.307 42.3734Z" fill="#0088E9"/>
<path d="M327.904 43.7758C326.735 43.7758 325.691 43.4876 324.772 42.911C323.852 42.3345 323.128 41.5631 322.598 40.597C322.068 39.6309 321.803 38.5713 321.803 37.4182C321.803 36.2807 322.06 35.2366 322.575 34.2861C323.104 33.3356 323.829 32.5798 324.748 32.0189C325.668 31.4423 326.712 31.154 327.881 31.154C329.08 31.154 330.132 31.4423 331.036 32.0189C331.94 32.5954 332.641 33.359 333.14 34.3095C333.654 35.2444 333.911 36.2729 333.911 37.3948C333.911 37.6441 333.903 37.8545 333.888 38.0259H323.463C323.541 38.8985 323.79 39.6777 324.211 40.3633C324.632 41.0333 325.169 41.5709 325.824 41.9761C326.478 42.3656 327.195 42.5604 327.974 42.5604C328.769 42.5604 329.517 42.3578 330.218 41.9527C330.919 41.5475 331.418 41.0177 331.714 40.3633L333.093 40.7373C332.844 41.3294 332.454 41.8592 331.924 42.3267C331.41 42.7786 330.81 43.137 330.124 43.4019C329.439 43.6512 328.699 43.7758 327.904 43.7758ZM323.416 36.8806H332.415C332.353 36.008 332.111 35.2366 331.69 34.5666C331.27 33.881 330.732 33.3512 330.078 32.9772C329.423 32.5876 328.699 32.3928 327.904 32.3928C327.109 32.3928 326.385 32.5876 325.73 32.9772C325.076 33.3512 324.538 33.881 324.117 34.5666C323.712 35.2366 323.478 36.008 323.416 36.8806Z" fill="#0088E9"/>
<path d="M333.675 37.4883C333.675 36.3352 333.909 35.2834 334.376 34.3329C334.859 33.3667 335.522 32.5954 336.363 32.0189C337.205 31.4423 338.163 31.154 339.238 31.154C340.251 31.154 341.155 31.4267 341.949 31.9721C342.76 32.5019 343.391 33.1486 343.843 33.9121V26.4793H345.432V41.6255C345.432 42.0462 345.619 42.2643 345.993 42.2799V43.5421C345.681 43.5889 345.44 43.6044 345.269 43.5889C344.926 43.5733 344.63 43.4486 344.38 43.2149C344.147 42.9656 344.03 42.6851 344.03 42.3734V41.1814C343.547 41.9761 342.892 42.6072 342.066 43.0746C341.24 43.5421 340.383 43.7758 339.495 43.7758C338.654 43.7758 337.875 43.6044 337.158 43.2616C336.441 42.9188 335.818 42.4513 335.288 41.8592C334.774 41.2671 334.376 40.597 334.096 39.8491C333.815 39.0855 333.675 38.2986 333.675 37.4883ZM343.843 39.3582V35.595C343.64 35.0341 343.313 34.5276 342.861 34.0757C342.409 33.6083 341.895 33.2421 341.318 32.9772C340.757 32.6967 340.196 32.5565 339.635 32.5565C338.763 32.5565 337.999 32.798 337.345 33.281C336.706 33.7485 336.207 34.364 335.849 35.1276C335.491 35.8755 335.311 36.6624 335.311 37.4883C335.311 38.3609 335.506 39.1712 335.896 39.9192C336.301 40.6671 336.846 41.2671 337.532 41.719C338.217 42.1553 338.989 42.3734 339.846 42.3734C340.376 42.3734 340.929 42.241 341.505 41.9761C342.098 41.6956 342.612 41.3294 343.048 40.8775C343.5 40.4256 343.765 39.9192 343.843 39.3582Z" fill="#0088E9"/>
<path d="M347.047 38.5168V31.3644H348.636V38.2363C348.636 40.9944 349.579 42.3734 351.464 42.3734C352.399 42.3734 353.272 42.0696 354.082 41.4618C354.908 40.8541 355.5 40.0438 355.858 39.031V31.3644H357.448V41.6255C357.448 42.0462 357.635 42.2643 358.009 42.2799V43.5421C357.822 43.5733 357.674 43.5889 357.565 43.5889C357.471 43.5889 357.37 43.5889 357.261 43.5889C356.934 43.5577 356.653 43.433 356.419 43.2149C356.201 42.9967 356.092 42.7318 356.092 42.4202L356.045 40.784C355.516 41.7345 354.791 42.4747 353.872 43.0045C352.968 43.5187 351.986 43.7758 350.927 43.7758C348.34 43.7758 347.047 42.0228 347.047 38.5168Z" fill="#0088E9"/>
<path d="M364.454 43.7758C363.27 43.7758 362.218 43.4876 361.299 42.911C360.379 42.3189 359.655 41.5475 359.125 40.597C358.595 39.6309 358.33 38.5713 358.33 37.4182C358.33 36.2651 358.587 35.2211 359.102 34.2861C359.616 33.3356 360.333 32.5798 361.252 32.0189C362.171 31.4423 363.231 31.154 364.431 31.154C365.568 31.154 366.566 31.4189 367.423 31.9487C368.295 32.463 368.95 33.1642 369.386 34.0524L367.843 34.5432C367.501 33.9199 367.018 33.4369 366.394 33.0941C365.786 32.7357 365.109 32.5565 364.361 32.5565C363.535 32.5565 362.787 32.7668 362.117 33.1875C361.462 33.6083 360.933 34.1926 360.527 34.9406C360.138 35.673 359.943 36.4988 359.943 37.4182C359.943 38.3376 360.146 39.1712 360.551 39.9192C360.956 40.6671 361.494 41.2671 362.164 41.719C362.834 42.1553 363.574 42.3734 364.384 42.3734C364.914 42.3734 365.428 42.2799 365.927 42.0929C366.425 41.9059 366.854 41.6566 367.212 41.345C367.571 41.0177 367.812 40.6671 367.937 40.2932L369.503 40.7606C369.285 41.3372 368.926 41.8592 368.428 42.3267C367.929 42.7786 367.337 43.137 366.651 43.4019C365.966 43.6512 365.233 43.7758 364.454 43.7758Z" fill="#0088E9"/>
<path d="M369.148 40.036C369.148 39.2881 369.366 38.6414 369.803 38.096C370.239 37.5351 370.839 37.0988 371.603 36.7871C372.382 36.4755 373.278 36.3196 374.29 36.3196C374.883 36.3196 375.498 36.3742 376.137 36.4832C376.776 36.5767 377.345 36.7092 377.843 36.8806V35.8522C377.843 34.8237 377.539 34.0056 376.932 33.3979C376.324 32.7902 375.483 32.4863 374.407 32.4863C373.768 32.4863 373.13 32.611 372.491 32.8603C371.852 33.0941 371.19 33.4447 370.504 33.9121L369.896 32.7902C370.691 32.2448 371.47 31.8397 372.234 31.5748C372.997 31.2943 373.776 31.154 374.571 31.154C376.067 31.154 377.251 31.5826 378.124 32.4396C378.996 33.2966 379.433 34.4809 379.433 35.9924V41.6255C379.433 42.0462 379.628 42.2643 380.017 42.2799V43.5421C379.674 43.5889 379.433 43.6044 379.292 43.5889C378.903 43.5733 378.607 43.4486 378.404 43.2149C378.202 42.9811 378.093 42.7318 378.077 42.4669L378.054 41.5787C377.508 42.2799 376.799 42.8253 375.927 43.2149C375.054 43.5889 374.166 43.7758 373.262 43.7758C372.467 43.7758 371.758 43.6122 371.135 43.285C370.512 42.9422 370.021 42.4903 369.662 41.9293C369.32 41.3528 369.148 40.7217 369.148 40.036ZM377.306 40.971C377.664 40.5503 377.843 40.1607 377.843 39.8023V38.0259C376.768 37.6052 375.646 37.3948 374.477 37.3948C373.34 37.3948 372.421 37.6208 371.719 38.0727C371.018 38.5245 370.668 39.1401 370.668 39.9192C370.668 40.5892 370.925 41.1969 371.439 41.7423C371.969 42.2877 372.701 42.5604 373.636 42.5604C374.4 42.5604 375.109 42.4124 375.763 42.1163C376.433 41.8202 376.947 41.4385 377.306 40.971Z" fill="#0088E9"/>
<path d="M386.749 42.9578C386.562 43.0357 386.219 43.1759 385.721 43.3785C385.222 43.5811 384.645 43.6823 383.991 43.6823C383.305 43.6823 382.705 43.4876 382.191 43.098C381.677 42.7084 381.42 42.1241 381.42 41.345V32.6266H379.737V31.3644H381.42V27.2506H383.009V31.3644H385.814V32.6266H383.009V40.9009C383.04 41.3528 383.196 41.6878 383.477 41.9059C383.773 42.1085 384.108 42.2098 384.482 42.2098C384.918 42.2098 385.308 42.1397 385.65 41.9994C386.009 41.8436 386.235 41.7345 386.328 41.6722L386.749 42.9578Z" fill="#0088E9"/>
<path d="M386.865 28.8167V26.4793H388.454V28.8167H386.865ZM386.865 43.5421V31.3644H388.454V43.5421H386.865Z" fill="#0088E9"/>
<path d="M395.274 43.7758C394.106 43.7758 393.062 43.4876 392.142 42.911C391.238 42.3345 390.529 41.5709 390.015 40.6204C389.501 39.6543 389.244 38.6103 389.244 37.4883C389.244 36.3508 389.501 35.3068 390.015 34.3562C390.545 33.3901 391.262 32.6188 392.166 32.0422C393.085 31.4501 394.121 31.154 395.274 31.154C396.443 31.154 397.479 31.4501 398.383 32.0422C399.302 32.6188 400.019 33.3901 400.533 34.3562C401.063 35.3068 401.328 36.3508 401.328 37.4883C401.328 38.6103 401.071 39.6543 400.557 40.6204C400.042 41.5709 399.326 42.3345 398.406 42.911C397.503 43.4876 396.459 43.7758 395.274 43.7758ZM390.857 37.5117C390.857 38.4155 391.051 39.2413 391.441 39.9893C391.846 40.7217 392.384 41.306 393.054 41.7423C393.724 42.1631 394.464 42.3734 395.274 42.3734C396.085 42.3734 396.825 42.1553 397.495 41.719C398.165 41.2826 398.702 40.6905 399.108 39.9426C399.513 39.1946 399.715 38.3687 399.715 37.4649C399.715 36.5612 399.513 35.7353 399.108 34.9873C398.702 34.2394 398.165 33.6472 397.495 33.2109C396.825 32.7746 396.085 32.5565 395.274 32.5565C394.48 32.5565 393.747 32.7824 393.077 33.2343C392.407 33.6706 391.869 34.2627 391.464 35.0107C391.059 35.7587 390.857 36.5923 390.857 37.5117Z" fill="#0088E9"/>
<path d="M412.354 43.5421H410.765V36.7404C410.765 35.3068 410.546 34.2627 410.11 33.6083C409.689 32.9382 409.035 32.6032 408.147 32.6032C407.523 32.6032 406.908 32.759 406.3 33.0707C405.693 33.3667 405.155 33.7797 404.687 34.3095C404.236 34.8237 403.908 35.4158 403.706 36.0859V43.5421H402.116V31.3644H403.566V34.1225C404.049 33.2343 404.758 32.5175 405.693 31.9721C406.627 31.4267 407.64 31.154 408.731 31.154C409.635 31.154 410.352 31.3722 410.882 31.8085C411.411 32.2292 411.785 32.8369 412.003 33.6316C412.237 34.4108 412.354 35.3379 412.354 36.4131V43.5421Z" fill="#0088E9"/>
<path d="M416.98 40.036C416.98 39.2881 417.198 38.6414 417.634 38.096C418.07 37.5351 418.67 37.0988 419.434 36.7871C420.213 36.4755 421.109 36.3196 422.122 36.3196C422.714 36.3196 423.329 36.3742 423.968 36.4832C424.607 36.5767 425.176 36.7092 425.675 36.8806V35.8522C425.675 34.8237 425.371 34.0056 424.763 33.3979C424.155 32.7902 423.314 32.4863 422.239 32.4863C421.6 32.4863 420.961 32.611 420.322 32.8603C419.683 33.0941 419.021 33.4447 418.335 33.9121L417.727 32.7902C418.522 32.2448 419.301 31.8397 420.065 31.5748C420.828 31.2943 421.607 31.154 422.402 31.154C423.898 31.154 425.082 31.5826 425.955 32.4396C426.828 33.2966 427.264 34.4809 427.264 35.9924V41.6255C427.264 42.0462 427.459 42.2643 427.848 42.2799V43.5421C427.505 43.5889 427.264 43.6044 427.124 43.5889C426.734 43.5733 426.438 43.4486 426.235 43.2149C426.033 42.9811 425.924 42.7318 425.908 42.4669L425.885 41.5787C425.339 42.2799 424.63 42.8253 423.758 43.2149C422.885 43.5889 421.997 43.7758 421.093 43.7758C420.299 43.7758 419.59 43.6122 418.966 43.285C418.343 42.9422 417.852 42.4903 417.494 41.9293C417.151 41.3528 416.98 40.7217 416.98 40.036ZM425.137 40.971C425.495 40.5503 425.675 40.1607 425.675 39.8023V38.0259C424.599 37.6052 423.477 37.3948 422.309 37.3948C421.171 37.3948 420.252 37.6208 419.551 38.0727C418.849 38.5245 418.499 39.1401 418.499 39.9192C418.499 40.5892 418.756 41.1969 419.27 41.7423C419.8 42.2877 420.532 42.5604 421.467 42.5604C422.231 42.5604 422.94 42.4124 423.594 42.1163C424.264 41.8202 424.779 41.4385 425.137 40.971Z" fill="#0088E9"/>
<path d="M429.321 43.5421V32.6266H427.638V31.3644H429.321V31.2242C429.321 30.5385 429.461 29.8841 429.742 29.2608C430.038 28.6375 430.466 28.131 431.027 27.7415C431.604 27.3519 432.305 27.1571 433.131 27.1571C433.599 27.1571 434.035 27.2117 434.44 27.3207C434.845 27.4142 435.211 27.5467 435.539 27.7181C436.177 26.7364 437.097 26.2456 438.297 26.2456C438.764 26.2456 439.224 26.3157 439.676 26.4559C440.128 26.5962 440.517 26.7831 440.844 27.0169L440.377 28.1622C439.894 27.8038 439.302 27.6246 438.601 27.6246C437.853 27.6246 437.276 27.9129 436.871 28.4894C436.481 29.066 436.287 29.8996 436.287 30.9904V31.3644H439.652V32.6266H436.287V43.5421H434.697V32.6266H430.911V43.5421H429.321ZM430.911 31.1774V31.3644H434.697V31.0372C434.697 30.2425 434.798 29.5257 435.001 28.8868C434.752 28.7465 434.495 28.653 434.23 28.6063C433.965 28.5596 433.692 28.5362 433.412 28.5362C432.819 28.5362 432.336 28.6764 431.962 28.9569C431.604 29.2374 431.339 29.5802 431.168 29.9853C430.996 30.3905 430.911 30.7878 430.911 31.1774Z" fill="#0088E9"/>
<path d="M445.295 43.7758C444.126 43.7758 443.082 43.4876 442.163 42.911C441.259 42.3345 440.55 41.5709 440.036 40.6204C439.522 39.6543 439.265 38.6103 439.265 37.4883C439.265 36.3508 439.522 35.3068 440.036 34.3562C440.566 33.3901 441.282 32.6188 442.186 32.0422C443.106 31.4501 444.142 31.154 445.295 31.154C446.464 31.154 447.5 31.4501 448.404 32.0422C449.323 32.6188 450.04 33.3901 450.554 34.3562C451.084 35.3068 451.349 36.3508 451.349 37.4883C451.349 38.6103 451.092 39.6543 450.577 40.6204C450.063 41.5709 449.346 42.3345 448.427 42.911C447.523 43.4876 446.479 43.7758 445.295 43.7758ZM440.877 37.5117C440.877 38.4155 441.072 39.2413 441.462 39.9893C441.867 40.7217 442.404 41.306 443.074 41.7423C443.744 42.1631 444.485 42.3734 445.295 42.3734C446.105 42.3734 446.845 42.1553 447.515 41.719C448.185 41.2826 448.723 40.6905 449.128 39.9426C449.533 39.1946 449.736 38.3687 449.736 37.4649C449.736 36.5612 449.533 35.7353 449.128 34.9873C448.723 34.2394 448.185 33.6472 447.515 33.2109C446.845 32.7746 446.105 32.5565 445.295 32.5565C444.5 32.5565 443.768 32.7824 443.098 33.2343C442.428 33.6706 441.89 34.2627 441.485 35.0107C441.08 35.7587 440.877 36.5923 440.877 37.5117Z" fill="#0088E9"/>
<path d="M458.214 32.7668C457.155 32.798 456.22 33.0941 455.409 33.655C454.615 34.216 454.054 34.9873 453.726 35.969V43.5421H452.137V31.3644H453.633V34.2861C454.054 33.4291 454.607 32.7357 455.292 32.2059C455.994 31.676 456.734 31.38 457.513 31.3176C457.669 31.3021 457.801 31.2943 457.91 31.2943C458.019 31.2943 458.121 31.3021 458.214 31.3176V32.7668Z" fill="#0088E9"/>
<path d="M457.324 37.4883C457.324 36.3352 457.558 35.2834 458.025 34.3329C458.508 33.3667 459.171 32.5954 460.012 32.0189C460.853 31.4423 461.812 31.154 462.887 31.154C463.9 31.154 464.804 31.4267 465.598 31.9721C466.409 32.5019 467.04 33.1486 467.492 33.9121V26.4793H469.081V41.6255C469.081 42.0462 469.268 42.2643 469.642 42.2799V43.5421C469.33 43.5889 469.089 43.6044 468.917 43.5889C468.575 43.5733 468.278 43.4486 468.029 43.2149C467.795 42.9656 467.679 42.6851 467.679 42.3734V41.1814C467.196 41.9761 466.541 42.6072 465.715 43.0746C464.889 43.5421 464.032 43.7758 463.144 43.7758C462.303 43.7758 461.523 43.6044 460.807 43.2616C460.09 42.9188 459.467 42.4513 458.937 41.8592C458.423 41.2671 458.025 40.597 457.745 39.8491C457.464 39.0855 457.324 38.2986 457.324 37.4883ZM467.492 39.3582V35.595C467.289 35.0341 466.962 34.5276 466.51 34.0757C466.058 33.6083 465.544 33.2421 464.967 32.9772C464.406 32.6967 463.845 32.5565 463.284 32.5565C462.412 32.5565 461.648 32.798 460.994 33.281C460.355 33.7485 459.856 34.364 459.498 35.1276C459.139 35.8755 458.96 36.6624 458.96 37.4883C458.96 38.3609 459.155 39.1712 459.545 39.9192C459.95 40.6671 460.495 41.2671 461.181 41.719C461.866 42.1553 462.638 42.3734 463.495 42.3734C464.024 42.3734 464.578 42.241 465.154 41.9761C465.746 41.6956 466.261 41.3294 466.697 40.8775C467.149 40.4256 467.414 39.9192 467.492 39.3582Z" fill="#0088E9"/>
<path d="M469.831 40.036C469.831 39.2881 470.049 38.6414 470.485 38.096C470.921 37.5351 471.521 37.0988 472.285 36.7871C473.064 36.4755 473.96 36.3196 474.973 36.3196C475.565 36.3196 476.18 36.3742 476.819 36.4832C477.458 36.5767 478.027 36.7092 478.526 36.8806V35.8522C478.526 34.8237 478.222 34.0056 477.614 33.3979C477.006 32.7902 476.165 32.4863 475.09 32.4863C474.451 32.4863 473.812 32.611 473.173 32.8603C472.534 33.0941 471.872 33.4447 471.186 33.9121L470.579 32.7902C471.373 32.2448 472.152 31.8397 472.916 31.5748C473.679 31.2943 474.459 31.154 475.253 31.154C476.749 31.154 477.933 31.5826 478.806 32.4396C479.679 33.2966 480.115 34.4809 480.115 35.9924V41.6255C480.115 42.0462 480.31 42.2643 480.699 42.2799V43.5421C480.357 43.5889 480.115 43.6044 479.975 43.5889C479.585 43.5733 479.289 43.4486 479.087 43.2149C478.884 42.9811 478.775 42.7318 478.759 42.4669L478.736 41.5787C478.191 42.2799 477.482 42.8253 476.609 43.2149C475.736 43.5889 474.848 43.7758 473.944 43.7758C473.15 43.7758 472.441 43.6122 471.817 43.285C471.194 42.9422 470.703 42.4903 470.345 41.9293C470.002 41.3528 469.831 40.7217 469.831 40.036ZM477.988 40.971C478.346 40.5503 478.526 40.1607 478.526 39.8023V38.0259C477.45 37.6052 476.328 37.3948 475.16 37.3948C474.022 37.3948 473.103 37.6208 472.402 38.0727C471.7 38.5245 471.35 39.1401 471.35 39.9192C471.35 40.5892 471.607 41.1969 472.121 41.7423C472.651 42.2877 473.383 42.5604 474.318 42.5604C475.082 42.5604 475.791 42.4124 476.445 42.1163C477.115 41.8202 477.63 41.4385 477.988 40.971Z" fill="#0088E9"/>
<path d="M487.64 43.7758C486.689 43.7758 485.809 43.5343 484.998 43.0513C484.188 42.5526 483.557 41.9293 483.105 41.1814V43.5421H481.679V26.4793H483.269V33.9121C483.814 33.0863 484.468 32.424 485.232 31.9254C485.996 31.4111 486.884 31.154 487.897 31.154C488.754 31.154 489.517 31.3332 490.187 31.6916C490.873 32.05 491.457 32.5331 491.94 33.1408C492.423 33.7329 492.79 34.4108 493.039 35.1743C493.288 35.9223 493.413 36.6936 493.413 37.4883C493.413 38.6258 493.156 39.6699 492.642 40.6204C492.143 41.5709 491.457 42.3345 490.585 42.911C489.712 43.4876 488.73 43.7758 487.64 43.7758ZM487.266 42.3734C488.154 42.3734 488.933 42.1397 489.603 41.6722C490.289 41.2047 490.826 40.6048 491.216 39.8724C491.605 39.1245 491.8 38.3298 491.8 37.4883C491.8 36.6313 491.613 35.8288 491.239 35.0808C490.881 34.3329 490.374 33.7251 489.72 33.2577C489.065 32.7902 488.31 32.5565 487.453 32.5565C486.502 32.5565 485.661 32.8603 484.928 33.468C484.211 34.0757 483.658 34.7848 483.269 35.595V39.3816C483.347 39.9426 483.604 40.449 484.04 40.9009C484.476 41.3528 484.991 41.7112 485.583 41.9761C486.175 42.241 486.736 42.3734 487.266 42.3734Z" fill="#0088E9"/>
<path d="M494.305 26.4793H495.895V40.784C495.895 41.3917 495.996 41.7891 496.199 41.9761C496.417 42.1631 496.69 42.2566 497.017 42.2566C497.297 42.2566 497.578 42.2254 497.858 42.1631C498.154 42.1007 498.396 42.0384 498.583 41.9761L498.863 43.2616C498.567 43.3863 498.201 43.4876 497.765 43.5655C497.344 43.6434 496.978 43.6823 496.666 43.6823C495.949 43.6823 495.373 43.472 494.937 43.0513C494.516 42.6305 494.305 42.054 494.305 41.3216V26.4793Z" fill="#0088E9"/>
<path d="M503.993 43.7758C502.824 43.7758 501.78 43.4876 500.861 42.911C499.941 42.3345 499.217 41.5631 498.687 40.597C498.157 39.6309 497.892 38.5713 497.892 37.4182C497.892 36.2807 498.149 35.2366 498.664 34.2861C499.194 33.3356 499.918 32.5798 500.837 32.0189C501.757 31.4423 502.801 31.154 503.97 31.154C505.169 31.154 506.221 31.4423 507.125 32.0189C508.029 32.5954 508.73 33.359 509.229 34.3095C509.743 35.2444 510 36.2729 510 37.3948C510 37.6441 509.992 37.8545 509.977 38.0259H499.552C499.63 38.8985 499.879 39.6777 500.3 40.3633C500.721 41.0333 501.258 41.5709 501.913 41.9761C502.567 42.3656 503.284 42.5604 504.063 42.5604C504.858 42.5604 505.606 42.3578 506.307 41.9527C507.008 41.5475 507.507 41.0177 507.803 40.3633L509.182 40.7373C508.933 41.3294 508.543 41.8592 508.013 42.3267C507.499 42.7786 506.899 43.137 506.213 43.4019C505.528 43.6512 504.788 43.7758 503.993 43.7758ZM499.505 36.8806H508.504C508.442 36.008 508.2 35.2366 507.779 34.5666C507.359 33.881 506.821 33.3512 506.167 32.9772C505.512 32.5876 504.788 32.3928 503.993 32.3928C503.198 32.3928 502.474 32.5876 501.819 32.9772C501.165 33.3512 500.627 33.881 500.206 34.5666C499.801 35.2366 499.568 36.008 499.505 36.8806Z" fill="#0088E9"/>
</svg>
