<svg width="60" height="60" viewBox="0 0 60 60" fill="none" xmlns="http://www.w3.org/2000/svg">
<path d="M24.3594 52.2957C24.3578 52.2901 24.3577 52.2871 24.3577 52.2861C24.3577 52.2851 24.3578 52.2843 24.358 52.2834C24.3586 52.2812 24.3607 52.2765 24.3657 52.2711C24.3708 52.2658 24.3756 52.2634 24.3777 52.2626C24.3786 52.2623 24.3794 52.2622 24.3805 52.2621C24.3815 52.262 24.3846 52.2618 24.3905 52.2629L24.7479 52.3311L24.3815 52.3127C24.371 52.3122 24.3622 52.3055 24.3594 52.2957Z" fill="#0088E9" stroke="#0088E9" stroke-width="1.31895"/>
<path d="M34.1487 7.50652C34.1332 7.51754 34.1291 7.52543 34.1271 7.5302C34.1241 7.5372 34.1222 7.54793 34.1247 7.56066C34.1271 7.57339 34.1329 7.58259 34.1383 7.58796C34.1419 7.59162 34.1487 7.59736 34.1672 7.60165L39.5538 8.84887L39.4317 8.74052C39.4216 8.73158 39.409 8.72516 39.395 8.72185L34.2057 7.49541C34.1863 7.49082 34.1651 7.49497 34.1487 7.50652Z" fill="#0088E9" stroke="#0088E9" stroke-width="1.31895"/>
<path d="M32.5362 10.3172C32.6377 9.84798 33.1243 9.5409 33.5913 9.65149L41.4521 11.5132C41.8955 11.6182 42.1464 12.0599 42.0114 12.4978L30.1918 50.8372C30.0583 51.2704 29.5968 51.5371 29.1577 51.4348L24.6532 50.3852C24.235 50.2878 23.9823 49.8886 24.073 49.4688L32.5362 10.3172Z" stroke="#0088E9" stroke-width="1.31895"/>
<path fill-rule="evenodd" clip-rule="evenodd" d="M35.1628 31.6563L33.5101 36.7019L28.5557 33.1944L29.5748 28.0817L35.1628 31.6563ZM32.0758 34.1756C33.0185 34.0904 33.7136 33.2571 33.6284 32.3144C33.5432 31.3717 32.7099 30.6766 31.7672 30.7618C30.8245 30.847 30.1294 31.6803 30.2146 32.623C30.2998 33.5657 31.1331 34.2608 32.0758 34.1756Z" fill="#0088E9"/>
<path d="M29.6702 15.3576C29.2626 15.3886 28.8656 15.4372 28.4792 15.5035C26.4244 15.8681 24.7523 16.6394 23.4629 17.8171C22.2102 18.9728 21.373 20.4028 20.9512 22.1071C20.4494 24.1347 20.5637 25.8781 21.2941 27.3374C22.0611 28.7746 23.0954 29.9505 24.3971 30.8652C25.0088 31.2888 25.7136 31.7355 26.5114 32.2052L27.6215 26.2843C27.4273 26.0765 27.2514 25.8613 27.0938 25.6386C26.6149 24.9276 26.4845 24.1313 26.7026 23.2498C26.9779 22.1374 27.6266 21.3229 28.6486 20.8062L29.6702 15.3576Z" fill="#0088E9"/>
<path d="M37.5199 32.3037L35.6563 38.3316C35.9931 38.9614 36.0691 39.6498 35.8842 40.3969C35.6643 41.2858 35.1641 41.9695 34.3836 42.4481L34.3267 42.6321L34.1402 42.5859C33.9268 42.6975 33.6952 42.7957 33.4453 42.8806C32.1469 43.3389 30.3517 43.2845 28.0596 42.7173C26.2084 42.2591 24.4335 41.4925 22.7349 40.4173C21.6927 39.7291 20.7774 38.9987 19.9891 38.2262C19.2977 37.5487 18.1391 37.5464 17.5443 38.31L16.3094 39.8955C15.9075 40.4116 15.8842 41.1364 16.3159 41.6277C17.2911 42.7372 18.5899 43.7785 20.2123 44.7513C22.2783 45.9799 24.5014 46.8886 26.8816 47.4776C29.585 48.1466 31.9789 48.3024 34.0631 47.945C36.1474 47.5877 37.8158 46.8311 39.0685 45.6755C40.3506 44.5271 41.2026 43.1007 41.6243 41.3964C42.1188 39.3982 41.9826 37.6805 41.2156 36.2433C40.478 34.8134 39.4436 33.6375 38.1125 32.7156C37.9235 32.5798 37.726 32.4425 37.5199 32.3037Z" fill="#0088E9"/>
<path d="M40.248 23.4796L41.7941 18.4788C42.7725 19.0634 43.6406 19.7009 44.3982 20.3912C44.9188 20.8655 44.9574 21.6542 44.5435 22.224L43.3541 23.8615C42.8225 24.5934 41.7675 24.6786 41.0658 24.1077C40.7982 23.89 40.5256 23.6806 40.248 23.4796Z" fill="#0088E9"/>
</svg>
