<svg width="152" height="57" viewBox="0 0 152 57" fill="none" xmlns="http://www.w3.org/2000/svg">
<path d="M23.0918 29.01C23.0918 27.4813 23.4029 26.1482 24.025 25.0106C24.6471 23.8553 25.5092 22.9665 26.6112 22.3444C27.7133 21.7045 28.9753 21.3846 30.3973 21.3846C32.2281 21.3846 33.7389 21.8467 34.9299 22.771C35.913 23.5084 36.6316 24.4927 37.0855 25.724C37.2486 26.1663 36.9004 26.6104 36.4289 26.6104H33.8532C33.5408 26.6104 33.2716 26.4058 33.1272 26.1287C32.9117 25.7151 32.615 25.378 32.237 25.1173C31.7393 24.744 31.1171 24.5574 30.3706 24.5574C29.3041 24.5574 28.4598 24.9484 27.8377 25.7305C27.2156 26.4948 26.9045 27.588 26.9045 29.01C26.9045 30.4142 27.2156 31.5073 27.8377 32.2894C28.4598 33.0537 29.3041 33.4359 30.3706 33.4359C31.6911 33.4359 32.611 32.9199 33.1304 31.888C33.27 31.6109 33.5386 31.4096 33.8489 31.4096H36.4215C36.8953 31.4096 37.2436 31.8577 37.0743 32.3002C36.6198 33.4883 35.9049 34.4623 34.9299 35.2223C33.7212 36.1643 32.2103 36.6354 30.3973 36.6354C28.9753 36.6354 27.7133 36.3243 26.6112 35.7022C25.5092 35.0623 24.6471 34.1736 24.025 33.036C23.4029 31.8806 23.0918 30.5386 23.0918 29.01Z" fill="#0088E9"/>
<path d="M46.8096 21.4112C47.9294 21.4112 48.9248 21.6601 49.7957 22.1578C50.6667 22.6377 51.3421 23.3576 51.8221 24.3174C52.3198 25.2595 52.5686 26.3971 52.5686 27.7302V35.6696C52.5686 36.0705 52.2437 36.3954 51.8428 36.3954H49.5617C49.1608 36.3954 48.8359 36.0705 48.8359 35.6696V28.2368C48.8359 27.0636 48.5426 26.166 47.956 25.5439C47.3695 24.904 46.5696 24.584 45.5564 24.584C44.5255 24.584 43.7078 24.904 43.1035 25.5439C42.5169 26.166 42.2236 27.0636 42.2236 28.2368V35.6696C42.2236 36.0705 41.8987 36.3954 41.4978 36.3954H39.2167C38.8159 36.3954 38.4909 36.0705 38.4909 35.6696V17.3911C38.4909 16.9903 38.8159 16.6653 39.2167 16.6653H41.4978C41.8987 16.6653 42.2236 16.9903 42.2236 17.3911V23.4642C42.7036 22.8243 43.3435 22.3266 44.1433 21.9711C44.9432 21.5978 45.8319 21.4112 46.8096 21.4112Z" fill="#0088E9"/>
<path d="M61.0774 36.6354C59.6554 36.6354 58.3756 36.3243 57.2381 35.7022C56.1005 35.0623 55.2028 34.1647 54.5452 33.0093C53.9053 31.8539 53.5853 30.5208 53.5853 29.01C53.5853 27.4991 53.9142 26.166 54.5718 25.0106C55.2473 23.8553 56.1627 22.9665 57.318 22.3444C58.4734 21.7045 59.7621 21.3846 61.1841 21.3846C62.6061 21.3846 63.8947 21.7045 65.0501 22.3444C66.2055 22.9665 67.112 23.8553 67.7697 25.0106C68.4451 26.166 68.7828 27.4991 68.7828 29.01C68.7828 30.5208 68.4362 31.8539 67.743 33.0093C67.0675 34.1647 66.1433 35.0623 64.9701 35.7022C63.8147 36.3243 62.5172 36.6354 61.0774 36.6354ZM61.0774 33.3826C61.7529 33.3826 62.3839 33.2226 62.9704 32.9027C63.5748 32.5649 64.0547 32.0672 64.4102 31.4096C64.7657 30.7519 64.9435 29.952 64.9435 29.01C64.9435 27.6058 64.5702 26.5304 63.8236 25.7838C63.0949 25.0195 62.1972 24.6373 61.1307 24.6373C60.0643 24.6373 59.1666 25.0195 58.4379 25.7838C57.7269 26.5304 57.3714 27.6058 57.3714 29.01C57.3714 30.4142 57.718 31.4984 58.4112 32.2628C59.1222 33.0093 60.0109 33.3826 61.0774 33.3826Z" fill="#0088E9"/>
<path d="M72.9281 16.6653C73.3289 16.6653 73.6539 16.9903 73.6539 17.3911V35.6696C73.6539 36.0705 73.3289 36.3954 72.9281 36.3954H70.647C70.2461 36.3954 69.9212 36.0705 69.9212 35.6696V17.3911C69.9212 16.9903 70.2461 16.6653 70.647 16.6653H72.9281Z" fill="#0088E9"/>
<path d="M74.7822 28.9566C74.7822 27.4636 75.0755 26.1393 75.6621 24.984C76.2664 23.8286 77.0752 22.9399 78.0884 22.3177C79.1193 21.6956 80.2658 21.3846 81.5278 21.3846C82.6298 21.3846 83.5897 21.6067 84.4073 22.0511C85.2427 22.4955 85.9093 23.0554 86.407 23.7308V22.3503C86.407 21.9495 86.732 21.6245 87.1328 21.6245H89.4406C89.8414 21.6245 90.1664 21.9495 90.1664 22.3503V35.6696C90.1664 36.0705 89.8414 36.3954 89.4406 36.3954H87.1328C86.732 36.3954 86.407 36.0705 86.407 35.6696V34.2358C85.9271 34.929 85.2605 35.5067 84.4073 35.9688C83.5719 36.4132 82.6032 36.6354 81.5011 36.6354C80.2569 36.6354 79.1193 36.3154 78.0884 35.6755C77.0752 35.0356 76.2664 34.138 75.6621 32.9826C75.0755 31.8095 74.7822 30.4675 74.7822 28.9566ZM86.407 29.01C86.407 28.1034 86.2293 27.3302 85.8738 26.6903C85.5183 26.0327 85.0383 25.535 84.434 25.1973C83.8297 24.8418 83.1809 24.664 82.4876 24.664C81.7944 24.664 81.1545 24.8329 80.568 25.1706C79.9814 25.5083 79.5015 26.006 79.1282 26.6637C78.7727 27.3036 78.595 28.0679 78.595 28.9566C78.595 29.8454 78.7727 30.6275 79.1282 31.3029C79.5015 31.9606 79.9814 32.4672 80.568 32.8227C81.1723 33.1782 81.8122 33.3559 82.4876 33.3559C83.1809 33.3559 83.8297 33.1871 84.434 32.8493C85.0383 32.4938 85.5183 31.9961 85.8738 31.3562C86.2293 30.6986 86.407 29.9165 86.407 29.01Z" fill="#0088E9"/>
<path d="M95.945 23.9175C96.4249 23.1354 97.0471 22.5221 97.8114 22.0778C98.3986 21.7441 99.0459 21.5357 99.7534 21.4526C100.151 21.4058 100.478 21.7362 100.478 22.137V24.6048C100.478 25.0056 100.153 25.3306 99.7518 25.3306H99.4911C98.318 25.3306 97.4292 25.6061 96.8249 26.1571C96.2383 26.7081 95.945 27.668 95.945 29.0366V35.6696C95.945 36.0705 95.6201 36.3954 95.2192 36.3954H92.9381C92.5373 36.3954 92.2123 36.0705 92.2123 35.6696V22.3503C92.2123 21.9495 92.5373 21.6245 92.9381 21.6245H95.2192C95.6201 21.6245 95.945 21.9495 95.945 22.3503V23.9175Z" fill="#0088E9"/>
<path d="M107.044 36.6354C105.836 36.6354 104.751 36.4221 103.792 35.9955C102.832 35.5511 102.067 34.9557 101.499 34.2091C100.948 33.4626 100.645 32.636 100.592 31.7295H104.352C104.423 32.2983 104.698 32.7693 105.178 33.1426C105.676 33.5159 106.289 33.7025 107.018 33.7025C107.729 33.7025 108.28 33.5603 108.671 33.2759C109.08 32.9915 109.284 32.6271 109.284 32.1828C109.284 31.7029 109.035 31.3474 108.538 31.1163C108.058 30.8674 107.284 30.6008 106.218 30.3164C105.116 30.0498 104.209 29.7743 103.498 29.4899C102.805 29.2055 102.201 28.77 101.685 28.1834C101.188 27.5969 100.939 26.8059 100.939 25.8105C100.939 24.9928 101.17 24.2463 101.632 23.5709C102.112 22.8954 102.787 22.3622 103.658 21.9711C104.547 21.5801 105.587 21.3846 106.778 21.3846C108.538 21.3846 109.942 21.8289 110.99 22.7177C112.039 23.5886 112.617 24.7707 112.724 26.2637H109.151C109.097 25.6772 108.849 25.215 108.404 24.8773C107.978 24.5218 107.4 24.3441 106.671 24.3441C105.996 24.3441 105.471 24.4685 105.098 24.7173C104.743 24.9662 104.565 25.3128 104.565 25.7572C104.565 26.2549 104.814 26.637 105.311 26.9036C105.809 27.1525 106.582 27.4102 107.631 27.6768C108.698 27.9435 109.577 28.219 110.271 28.5034C110.964 28.7878 111.559 29.2321 112.057 29.8365C112.572 30.4231 112.839 31.2052 112.857 32.1828C112.857 33.036 112.617 33.8003 112.137 34.4757C111.675 35.1512 110.999 35.6844 110.111 36.0755C109.24 36.4487 108.218 36.6354 107.044 36.6354Z" fill="#0088E9"/>
<path d="M122.64 21.4112C123.76 21.4112 124.755 21.6601 125.626 22.1578C126.497 22.6377 127.172 23.3576 127.652 24.3174C128.15 25.2595 128.399 26.3971 128.399 27.7302V35.6696C128.399 36.0705 128.074 36.3954 127.673 36.3954H125.392C124.991 36.3954 124.666 36.0705 124.666 35.6696V28.2368C124.666 27.0636 124.373 26.166 123.786 25.5439C123.2 24.904 122.4 24.584 121.387 24.584C120.356 24.584 119.538 24.904 118.934 25.5439C118.347 26.166 118.054 27.0636 118.054 28.2368V35.6696C118.054 36.0705 117.729 36.3954 117.328 36.3954H115.047C114.646 36.3954 114.321 36.0705 114.321 35.6696V17.3911C114.321 16.9903 114.646 16.6653 115.047 16.6653H117.328C117.729 16.6653 118.054 16.9903 118.054 17.3911V23.4642C118.534 22.8243 119.174 22.3266 119.974 21.9711C120.773 21.5978 121.662 21.4112 122.64 21.4112Z" fill="#0088E9"/>
<path d="M132.242 19.8648C131.584 19.8648 131.033 19.6604 130.589 19.2516C130.162 18.825 129.949 18.3006 129.949 17.6785C129.949 17.0564 130.162 16.5409 130.589 16.1321C131.033 15.7055 131.584 15.4922 132.242 15.4922C132.899 15.4922 133.442 15.7055 133.868 16.1321C134.313 16.5409 134.535 17.0564 134.535 17.6785C134.535 18.3006 134.313 18.825 133.868 19.2516C133.442 19.6604 132.899 19.8648 132.242 19.8648ZM133.356 21.6245C133.756 21.6245 134.081 21.9495 134.081 22.3503V35.6696C134.081 36.0705 133.756 36.3954 133.356 36.3954H131.075C130.674 36.3954 130.349 36.0705 130.349 35.6696V22.3503C130.349 21.9495 130.674 21.6245 131.075 21.6245H133.356Z" fill="#0088E9"/>
<path d="M139.902 23.7575C140.382 23.082 141.04 22.5221 141.875 22.0778C142.729 21.6156 143.697 21.3846 144.782 21.3846C146.044 21.3846 147.181 21.6956 148.194 22.3177C149.225 22.9399 150.034 23.8286 150.621 24.984C151.225 26.1215 151.527 27.4458 151.527 28.9566C151.527 30.4675 151.225 31.8095 150.621 32.9826C150.034 34.138 149.225 35.0356 148.194 35.6755C147.181 36.3154 146.044 36.6354 144.782 36.6354C143.697 36.6354 142.737 36.4132 141.902 35.9688C141.084 35.5244 140.418 34.9645 139.902 34.2891V42.7084C139.902 43.1093 139.577 43.4343 139.177 43.4343H136.895C136.495 43.4343 136.17 43.1093 136.17 42.7084V22.3503C136.17 21.9495 136.495 21.6245 136.895 21.6245H139.177C139.577 21.6245 139.902 21.9495 139.902 22.3503V23.7575ZM147.714 28.9566C147.714 28.0679 147.528 27.3036 147.155 26.6637C146.799 26.006 146.319 25.5083 145.715 25.1706C145.128 24.8329 144.488 24.664 143.795 24.664C143.12 24.664 142.48 24.8418 141.875 25.1973C141.289 25.535 140.809 26.0327 140.436 26.6903C140.08 27.348 139.902 28.1212 139.902 29.01C139.902 29.8987 140.08 30.6719 140.436 31.3296C140.809 31.9873 141.289 32.4938 141.875 32.8493C142.48 33.1871 143.12 33.3559 143.795 33.3559C144.488 33.3559 145.128 33.1782 145.715 32.8227C146.319 32.4672 146.799 31.9606 147.155 31.3029C147.528 30.6452 147.714 29.8632 147.714 28.9566Z" fill="#0088E9"/>
<path d="M22.2734 53.8143H21.4838V50.4349C21.4838 49.7381 21.3715 49.2233 21.147 48.8904C20.9225 48.5497 20.5896 48.3794 20.1483 48.3794C19.6838 48.3794 19.2734 48.542 18.9173 48.8672C18.5612 49.1923 18.3096 49.6104 18.1625 50.1213V53.8143H17.3728V50.4349C17.3728 49.7226 17.2605 49.2039 17.036 48.8788C16.8192 48.5459 16.4902 48.3794 16.0489 48.3794C15.5921 48.3794 15.1818 48.5381 14.818 48.8555C14.4618 49.173 14.2102 49.591 14.0631 50.1097V53.8143H13.2734V47.7639H13.9934V49.1343C14.2412 48.6697 14.5663 48.3097 14.9689 48.0543C15.3715 47.791 15.8167 47.6594 16.3044 47.6594C16.8076 47.6594 17.2141 47.8065 17.5238 48.1007C17.8334 48.3872 18.0231 48.7588 18.0928 49.2155C18.6502 48.1781 19.4283 47.6594 20.427 47.6594C21.1083 47.6594 21.5844 47.8994 21.8554 48.3794C22.1341 48.8517 22.2734 49.4826 22.2734 50.2723V53.8143Z" fill="#0088E9"/>
<path d="M22.5283 52.0723C22.5283 51.7007 22.6367 51.3794 22.8534 51.1084C23.0702 50.8297 23.3683 50.613 23.7476 50.4581C24.1347 50.3033 24.5799 50.2259 25.0831 50.2259C25.3773 50.2259 25.6831 50.253 26.0005 50.3072C26.318 50.3536 26.6005 50.4194 26.8483 50.5046V49.9936C26.8483 49.4826 26.6973 49.0762 26.3954 48.7743C26.0934 48.4723 25.6754 48.3213 25.1412 48.3213C24.8238 48.3213 24.5064 48.3833 24.1889 48.5072C23.8715 48.6233 23.5425 48.7975 23.2018 49.0297L22.8999 48.4723C23.2947 48.2013 23.6818 48.0001 24.0612 47.8684C24.4405 47.7291 24.8276 47.6594 25.2225 47.6594C25.9657 47.6594 26.5541 47.8723 26.9876 48.2981C27.4212 48.7239 27.638 49.3123 27.638 50.0633V52.862C27.638 53.071 27.7347 53.1794 27.9283 53.1872V53.8143C27.758 53.8375 27.638 53.8452 27.5683 53.8375C27.3747 53.8297 27.2276 53.7678 27.127 53.6517C27.0264 53.5355 26.9722 53.4117 26.9644 53.2801L26.9528 52.8388C26.6818 53.1872 26.3296 53.4581 25.896 53.6517C25.4625 53.8375 25.0212 53.9304 24.5722 53.9304C24.1773 53.9304 23.8251 53.8491 23.5154 53.6865C23.2057 53.5162 22.9618 53.2917 22.7838 53.013C22.6134 52.7265 22.5283 52.413 22.5283 52.0723ZM26.5812 52.5368C26.7593 52.3278 26.8483 52.1343 26.8483 51.9562V51.0736C26.3141 50.8646 25.7567 50.7601 25.176 50.7601C24.6109 50.7601 24.1541 50.8723 23.8057 51.0968C23.4573 51.3213 23.2831 51.6272 23.2831 52.0143C23.2831 52.3472 23.4109 52.6491 23.6664 52.9201C23.9296 53.191 24.2934 53.3265 24.758 53.3265C25.1373 53.3265 25.4896 53.253 25.8147 53.1059C26.1476 52.9588 26.4031 52.7691 26.5812 52.5368Z" fill="#0088E9"/>
<path d="M32.7351 53.8143L30.4938 50.7136L29.2048 51.9213V53.8143H28.4151V45.3368H29.2048V51.0736L32.6306 47.7755H33.5016L31.028 50.2491L33.5945 53.8143H32.7351Z" fill="#0088E9"/>
<path d="M33.6441 46.4981V45.3368H34.4338V46.4981H33.6441ZM33.6441 53.8143V47.7639H34.4338V53.8143H33.6441Z" fill="#0088E9"/>
<path d="M40.3305 53.8143H39.5408V50.4349C39.5408 49.7226 39.4324 49.2039 39.2157 48.8788C39.0066 48.5459 38.6815 48.3794 38.2402 48.3794C37.9305 48.3794 37.6247 48.4568 37.3228 48.6117C37.0208 48.7588 36.7537 48.9639 36.5215 49.2272C36.297 49.4826 36.1344 49.7768 36.0337 50.1097V53.8143H35.2441V47.7639H35.9641V49.1343C36.2041 48.693 36.5563 48.3368 37.0208 48.0659C37.4853 47.7949 37.9886 47.6594 38.5305 47.6594C38.9795 47.6594 39.3357 47.7678 39.5989 47.9846C39.8621 48.1936 40.0479 48.4955 40.1563 48.8904C40.2724 49.2775 40.3305 49.7381 40.3305 50.2723V53.8143Z" fill="#0088E9"/>
<path d="M43.5125 53.8955C43.0945 53.8955 42.7112 53.8104 42.3629 53.6401C42.0222 53.4697 41.7241 53.2413 41.4687 52.9549C41.2209 52.6607 41.0274 52.3278 40.888 51.9562C40.7487 51.5846 40.679 51.2013 40.679 50.8065C40.679 50.2413 40.799 49.7226 41.039 49.2504C41.279 48.7704 41.608 48.3872 42.0261 48.1007C42.4519 47.8065 42.9396 47.6594 43.4893 47.6594C44.008 47.6594 44.457 47.791 44.8364 48.0543C45.2235 48.3175 45.5487 48.6426 45.8119 49.0297V47.7639H46.5203V53.8375C46.5203 54.4026 46.3848 54.8749 46.1138 55.2543C45.8429 55.6336 45.4829 55.9201 45.0338 56.1136C44.5848 56.3072 44.0932 56.4039 43.559 56.4039C42.8622 56.4039 42.3009 56.2801 41.8751 56.0323C41.457 55.7846 41.1125 55.4517 40.8416 55.0336L41.3293 54.6504C41.5693 55.0297 41.8867 55.3123 42.2816 55.4981C42.6841 55.6839 43.11 55.7768 43.559 55.7768C43.9538 55.7768 44.3138 55.7033 44.639 55.5562C44.9719 55.4168 45.2351 55.2039 45.4287 54.9175C45.63 54.631 45.7306 54.271 45.7306 53.8375V52.6413C45.4983 53.0207 45.1809 53.3265 44.7783 53.5588C44.3758 53.7833 43.9538 53.8955 43.5125 53.8955ZM43.7332 53.2336C44.0506 53.2336 44.3525 53.1601 44.639 53.013C44.9254 52.8659 45.1654 52.6801 45.359 52.4555C45.5603 52.2233 45.6841 51.9833 45.7306 51.7355V49.8659C45.6145 49.5717 45.448 49.3123 45.2312 49.0878C45.0145 48.8555 44.7667 48.6775 44.488 48.5536C44.2093 48.422 43.9267 48.3562 43.6403 48.3562C43.1912 48.3562 42.8041 48.4801 42.479 48.7278C42.1616 48.9678 41.9138 49.2775 41.7358 49.6568C41.5654 50.0284 41.4803 50.4155 41.4803 50.8181C41.4803 51.2517 41.5809 51.6543 41.7822 52.0259C41.9835 52.3897 42.2545 52.6839 42.5951 52.9084C42.9358 53.1252 43.3151 53.2336 43.7332 53.2336Z" fill="#0088E9"/>
<path d="M51.9789 53.9304C51.3982 53.9304 50.8795 53.7872 50.4228 53.5007C49.966 53.2143 49.606 52.831 49.3428 52.351C49.0795 51.871 48.9479 51.3446 48.9479 50.7717C48.9479 50.2065 49.0757 49.6878 49.3311 49.2155C49.5944 48.7433 49.9544 48.3678 50.4111 48.0891C50.8679 47.8026 51.3866 47.6594 51.9673 47.6594C52.5634 47.6594 53.086 47.8026 53.535 48.0891C53.984 48.3755 54.3324 48.7549 54.5802 49.2272C54.8357 49.6917 54.9634 50.2026 54.9634 50.7601C54.9634 50.8839 54.9595 50.9884 54.9518 51.0736H49.7724C49.8111 51.5072 49.935 51.8943 50.144 52.2349C50.3531 52.5678 50.6202 52.8349 50.9453 53.0362C51.2705 53.2297 51.6266 53.3265 52.0137 53.3265C52.4086 53.3265 52.7802 53.2259 53.1286 53.0246C53.4769 52.8233 53.7247 52.5601 53.8718 52.2349L54.5569 52.4207C54.4331 52.7149 54.2395 52.9781 53.9763 53.2104C53.7208 53.4349 53.4228 53.613 53.0821 53.7446C52.7415 53.8684 52.3737 53.9304 51.9789 53.9304ZM49.7492 50.5046H54.2202C54.1892 50.071 54.0692 49.6878 53.8602 49.3549C53.6511 49.0143 53.384 48.751 53.0589 48.5652C52.7337 48.3717 52.3737 48.2749 51.9789 48.2749C51.584 48.2749 51.224 48.3717 50.8989 48.5652C50.5737 48.751 50.3066 49.0143 50.0976 49.3549C49.8963 49.6878 49.7802 50.071 49.7492 50.5046Z" fill="#0088E9"/>
<path d="M54.8463 50.8065C54.8463 50.2336 54.9624 49.711 55.1947 49.2388C55.4347 48.7588 55.7637 48.3755 56.1818 48.0891C56.5998 47.8026 57.0759 47.6594 57.6101 47.6594C58.1134 47.6594 58.5624 47.7949 58.9572 48.0659C59.3598 48.3291 59.6734 48.6504 59.8979 49.0297V45.3368H60.6876V52.862C60.6876 53.071 60.7805 53.1794 60.9663 53.1872V53.8143C60.8114 53.8375 60.6914 53.8452 60.6063 53.8375C60.4359 53.8297 60.2889 53.7678 60.165 53.6517C60.0489 53.5278 59.9908 53.3884 59.9908 53.2336V52.6413C59.7508 53.0362 59.4256 53.3497 59.0153 53.582C58.605 53.8143 58.1792 53.9304 57.7379 53.9304C57.3198 53.9304 56.9327 53.8452 56.5766 53.6749C56.2205 53.5046 55.9108 53.2723 55.6476 52.9781C55.3921 52.6839 55.1947 52.351 55.0553 51.9794C54.9159 51.6001 54.8463 51.2091 54.8463 50.8065ZM59.8979 51.7355V49.8659C59.7972 49.5872 59.6347 49.3355 59.4101 49.111C59.1856 48.8788 58.9301 48.6968 58.6437 48.5652C58.365 48.4259 58.0863 48.3562 57.8076 48.3562C57.374 48.3562 56.9947 48.4762 56.6695 48.7162C56.3521 48.9484 56.1043 49.2543 55.9263 49.6336C55.7482 50.0052 55.6592 50.3962 55.6592 50.8065C55.6592 51.2401 55.7559 51.6426 55.9495 52.0143C56.1508 52.3859 56.4218 52.6839 56.7624 52.9084C57.103 53.1252 57.4863 53.2336 57.9121 53.2336C58.1753 53.2336 58.4501 53.1678 58.7366 53.0362C59.0308 52.8968 59.2863 52.7149 59.503 52.4904C59.7276 52.2659 59.8592 52.0143 59.8979 51.7355Z" fill="#0088E9"/>
<path d="M61.4897 51.3175V47.7639H62.2793V51.1781C62.2793 52.5484 62.7477 53.2336 63.6845 53.2336C64.149 53.2336 64.5826 53.0826 64.9852 52.7807C65.3955 52.4788 65.6897 52.0762 65.8677 51.573V47.7639H66.6574V52.862C66.6574 53.071 66.7503 53.1794 66.9361 53.1872V53.8143C66.8432 53.8297 66.7697 53.8375 66.7155 53.8375C66.669 53.8375 66.6187 53.8375 66.5645 53.8375C66.4019 53.822 66.2626 53.7601 66.1464 53.6517C66.0381 53.5433 65.9839 53.4117 65.9839 53.2568L65.9606 52.4439C65.6974 52.9162 65.3374 53.2839 64.8806 53.5472C64.4316 53.8026 63.9439 53.9304 63.4174 53.9304C62.1322 53.9304 61.4897 53.0594 61.4897 51.3175Z" fill="#0088E9"/>
<path d="M70.1384 53.9304C69.55 53.9304 69.0274 53.7872 68.5706 53.5007C68.1139 53.2065 67.7539 52.8233 67.4906 52.351C67.2274 51.871 67.0958 51.3446 67.0958 50.7717C67.0958 50.1988 67.2235 49.6801 67.479 49.2155C67.7345 48.7433 68.0906 48.3678 68.5474 48.0891C69.0042 47.8026 69.5306 47.6594 70.1268 47.6594C70.6919 47.6594 71.1874 47.791 71.6132 48.0543C72.0468 48.3097 72.3719 48.6581 72.5887 49.0994L71.8223 49.3433C71.6519 49.0336 71.4119 48.7936 71.1023 48.6233C70.8003 48.4452 70.4635 48.3562 70.0919 48.3562C69.6816 48.3562 69.31 48.4607 68.9771 48.6697C68.6519 48.8788 68.3887 49.1691 68.1874 49.5407C67.9939 49.9046 67.8971 50.3149 67.8971 50.7717C67.8971 51.2284 67.9977 51.6426 68.199 52.0143C68.4003 52.3859 68.6674 52.6839 69.0003 52.9084C69.3332 53.1252 69.701 53.2336 70.1035 53.2336C70.3668 53.2336 70.6222 53.1872 70.87 53.0943C71.1177 53.0013 71.3306 52.8775 71.5087 52.7226C71.6868 52.5601 71.8068 52.3859 71.8687 52.2001L72.6468 52.4323C72.5384 52.7188 72.3603 52.9781 72.1126 53.2104C71.8648 53.4349 71.5706 53.613 71.23 53.7446C70.8893 53.8684 70.5255 53.9304 70.1384 53.9304Z" fill="#0088E9"/>
<path d="M72.4706 52.0723C72.4706 51.7007 72.579 51.3794 72.7957 51.1084C73.0125 50.8297 73.3106 50.613 73.6899 50.4581C74.077 50.3033 74.5222 50.2259 75.0254 50.2259C75.3196 50.2259 75.6254 50.253 75.9428 50.3072C76.2603 50.3536 76.5428 50.4194 76.7906 50.5046V49.9936C76.7906 49.4826 76.6396 49.0762 76.3377 48.7743C76.0357 48.4723 75.6177 48.3213 75.0835 48.3213C74.7661 48.3213 74.4486 48.3833 74.1312 48.5072C73.8138 48.6233 73.4848 48.7975 73.1441 49.0297L72.8422 48.4723C73.237 48.2013 73.6241 48.0001 74.0035 47.8684C74.3828 47.7291 74.7699 47.6594 75.1648 47.6594C75.908 47.6594 76.4964 47.8723 76.9299 48.2981C77.3635 48.7239 77.5803 49.3123 77.5803 50.0633V52.862C77.5803 53.071 77.677 53.1794 77.8706 53.1872V53.8143C77.7003 53.8375 77.5803 53.8452 77.5106 53.8375C77.317 53.8297 77.1699 53.7678 77.0693 53.6517C76.9686 53.5355 76.9144 53.4117 76.9067 53.2801L76.8951 52.8388C76.6241 53.1872 76.2719 53.4581 75.8383 53.6517C75.4048 53.8375 74.9635 53.9304 74.5144 53.9304C74.1196 53.9304 73.7673 53.8491 73.4577 53.6865C73.148 53.5162 72.9041 53.2917 72.7261 53.013C72.5557 52.7265 72.4706 52.413 72.4706 52.0723ZM76.5235 52.5368C76.7015 52.3278 76.7906 52.1343 76.7906 51.9562V51.0736C76.2564 50.8646 75.699 50.7601 75.1183 50.7601C74.5532 50.7601 74.0964 50.8723 73.748 51.0968C73.3996 51.3213 73.2254 51.6272 73.2254 52.0143C73.2254 52.3472 73.3532 52.6491 73.6086 52.9201C73.8719 53.191 74.2357 53.3265 74.7003 53.3265C75.0796 53.3265 75.4319 53.253 75.757 53.1059C76.0899 52.9588 76.3454 52.7691 76.5235 52.5368Z" fill="#0088E9"/>
<path d="M81.2153 53.5239C81.1224 53.5626 80.952 53.6323 80.7043 53.733C80.4566 53.8336 80.1701 53.8839 79.845 53.8839C79.5043 53.8839 79.2062 53.7872 78.9508 53.5936C78.6953 53.4001 78.5675 53.1097 78.5675 52.7226V48.391H77.7314V47.7639H78.5675V45.7201H79.3572V47.7639H80.7508V48.391H79.3572V52.502C79.3727 52.7265 79.4501 52.893 79.5895 53.0013C79.7366 53.102 79.903 53.1523 80.0888 53.1523C80.3056 53.1523 80.4991 53.1175 80.6695 53.0478C80.8475 52.9704 80.9598 52.9162 81.0062 52.8852L81.2153 53.5239Z" fill="#0088E9"/>
<path d="M81.2729 46.4981V45.3368H82.0626V46.4981H81.2729ZM81.2729 53.8143V47.7639H82.0626V53.8143H81.2729Z" fill="#0088E9"/>
<path d="M85.4509 53.9304C84.8703 53.9304 84.3515 53.7872 83.8948 53.5007C83.4457 53.2143 83.0935 52.8349 82.838 52.3626C82.5825 51.8826 82.4548 51.3639 82.4548 50.8065C82.4548 50.2413 82.5825 49.7226 82.838 49.2504C83.1012 48.7704 83.4574 48.3872 83.9064 48.1007C84.3632 47.8065 84.878 47.6594 85.4509 47.6594C86.0315 47.6594 86.5464 47.8065 86.9954 48.1007C87.4522 48.3872 87.8083 48.7704 88.0638 49.2504C88.327 49.7226 88.4586 50.2413 88.4586 50.8065C88.4586 51.3639 88.3309 51.8826 88.0754 52.3626C87.8199 52.8349 87.4638 53.2143 87.007 53.5007C86.558 53.7872 86.0393 53.9304 85.4509 53.9304ZM83.2561 50.8181C83.2561 51.2672 83.3528 51.6775 83.5464 52.0491C83.7477 52.413 84.0148 52.7033 84.3477 52.9201C84.6806 53.1291 85.0483 53.2336 85.4509 53.2336C85.8535 53.2336 86.2212 53.1252 86.5541 52.9084C86.887 52.6917 87.1541 52.3975 87.3554 52.0259C87.5567 51.6543 87.6573 51.2439 87.6573 50.7949C87.6573 50.3459 87.5567 49.9355 87.3554 49.5639C87.1541 49.1923 86.887 48.8981 86.5541 48.6813C86.2212 48.4646 85.8535 48.3562 85.4509 48.3562C85.0561 48.3562 84.6922 48.4684 84.3593 48.693C84.0264 48.9097 83.7593 49.2039 83.558 49.5755C83.3567 49.9472 83.2561 50.3613 83.2561 50.8181Z" fill="#0088E9"/>
<path d="M93.9368 53.8143H93.1471V50.4349C93.1471 49.7226 93.0387 49.2039 92.8219 48.8788C92.6129 48.5459 92.2877 48.3794 91.8464 48.3794C91.5368 48.3794 91.2309 48.4568 90.929 48.6117C90.6271 48.7588 90.36 48.9639 90.1277 49.2272C89.9032 49.4826 89.7406 49.7768 89.64 50.1097V53.8143H88.8503V47.7639H89.5703V49.1343C89.8103 48.693 90.1626 48.3368 90.6271 48.0659C91.0916 47.7949 91.5948 47.6594 92.1367 47.6594C92.5858 47.6594 92.9419 47.7678 93.2051 47.9846C93.4684 48.1936 93.6542 48.4955 93.7626 48.8904C93.8787 49.2775 93.9368 49.7381 93.9368 50.2723V53.8143Z" fill="#0088E9"/>
<path d="M96.2348 52.0723C96.2348 51.7007 96.3432 51.3794 96.56 51.1084C96.7768 50.8297 97.0748 50.613 97.4542 50.4581C97.8413 50.3033 98.2865 50.2259 98.7897 50.2259C99.0839 50.2259 99.3897 50.253 99.7071 50.3072C100.025 50.3536 100.307 50.4194 100.555 50.5046V49.9936C100.555 49.4826 100.404 49.0762 100.102 48.7743C99.8 48.4723 99.3819 48.3213 98.8477 48.3213C98.5303 48.3213 98.2129 48.3833 97.8955 48.5072C97.5781 48.6233 97.249 48.7975 96.9084 49.0297L96.6065 48.4723C97.0013 48.2013 97.3884 48.0001 97.7677 47.8684C98.1471 47.7291 98.5342 47.6594 98.929 47.6594C99.6723 47.6594 100.261 47.8723 100.694 48.2981C101.128 48.7239 101.345 49.3123 101.345 50.0633V52.862C101.345 53.071 101.441 53.1794 101.635 53.1872V53.8143C101.465 53.8375 101.345 53.8452 101.275 53.8375C101.081 53.8297 100.934 53.7678 100.834 53.6517C100.733 53.5355 100.679 53.4117 100.671 53.2801L100.659 52.8388C100.388 53.1872 100.036 53.4581 99.6026 53.6517C99.169 53.8375 98.7277 53.9304 98.2787 53.9304C97.8839 53.9304 97.5316 53.8491 97.2219 53.6865C96.9123 53.5162 96.6684 53.2917 96.4903 53.013C96.32 52.7265 96.2348 52.413 96.2348 52.0723ZM100.288 52.5368C100.466 52.3278 100.555 52.1343 100.555 51.9562V51.0736C100.021 50.8646 99.4632 50.7601 98.8826 50.7601C98.3174 50.7601 97.8606 50.8723 97.5123 51.0968C97.1639 51.3213 96.9897 51.6272 96.9897 52.0143C96.9897 52.3472 97.1174 52.6491 97.3729 52.9201C97.6361 53.191 98 53.3265 98.4645 53.3265C98.8439 53.3265 99.1961 53.253 99.5213 53.1059C99.8542 52.9588 100.11 52.7691 100.288 52.5368Z" fill="#0088E9"/>
<path d="M102.367 53.8143V48.391H101.531V47.7639H102.367V47.6943C102.367 47.3536 102.436 47.0284 102.576 46.7188C102.723 46.4091 102.936 46.1575 103.214 45.9639C103.501 45.7704 103.849 45.6736 104.26 45.6736C104.492 45.6736 104.709 45.7007 104.91 45.7549C105.111 45.8013 105.293 45.8672 105.456 45.9523C105.773 45.4646 106.23 45.2207 106.826 45.2207C107.058 45.2207 107.287 45.2555 107.511 45.3252C107.736 45.3949 107.929 45.4878 108.092 45.6039L107.86 46.173C107.62 45.9949 107.325 45.9059 106.977 45.9059C106.605 45.9059 106.319 46.0491 106.118 46.3355C105.924 46.622 105.827 47.0362 105.827 47.5781V47.7639H107.5V48.391H105.827V53.8143H105.038V48.391H103.156V53.8143H102.367ZM103.156 47.671V47.7639H105.038V47.6013C105.038 47.2065 105.088 46.8504 105.189 46.533C105.065 46.4633 104.937 46.4168 104.805 46.3936C104.674 46.3704 104.538 46.3588 104.399 46.3588C104.105 46.3588 103.865 46.4284 103.679 46.5678C103.501 46.7072 103.369 46.8775 103.284 47.0788C103.199 47.2801 103.156 47.4775 103.156 47.671Z" fill="#0088E9"/>
<path d="M110.303 53.9304C109.722 53.9304 109.204 53.7872 108.747 53.5007C108.298 53.2143 107.946 52.8349 107.69 52.3626C107.435 51.8826 107.307 51.3639 107.307 50.8065C107.307 50.2413 107.435 49.7226 107.69 49.2504C107.953 48.7704 108.309 48.3872 108.758 48.1007C109.215 47.8065 109.73 47.6594 110.303 47.6594C110.884 47.6594 111.398 47.8065 111.847 48.1007C112.304 48.3872 112.66 48.7704 112.916 49.2504C113.179 49.7226 113.311 50.2413 113.311 50.8065C113.311 51.3639 113.183 51.8826 112.927 52.3626C112.672 52.8349 112.316 53.2143 111.859 53.5007C111.41 53.7872 110.891 53.9304 110.303 53.9304ZM108.108 50.8181C108.108 51.2672 108.205 51.6775 108.398 52.0491C108.6 52.413 108.867 52.7033 109.2 52.9201C109.533 53.1291 109.9 53.2336 110.303 53.2336C110.706 53.2336 111.073 53.1252 111.406 52.9084C111.739 52.6917 112.006 52.3975 112.207 52.0259C112.409 51.6543 112.509 51.2439 112.509 50.7949C112.509 50.3459 112.409 49.9355 112.207 49.5639C112.006 49.1923 111.739 48.8981 111.406 48.6813C111.073 48.4646 110.706 48.3562 110.303 48.3562C109.908 48.3562 109.544 48.4684 109.211 48.693C108.878 48.9097 108.611 49.2039 108.41 49.5755C108.209 49.9472 108.108 50.3613 108.108 50.8181Z" fill="#0088E9"/>
<path d="M116.722 48.4607C116.195 48.4762 115.731 48.6233 115.328 48.902C114.933 49.1807 114.655 49.5639 114.492 50.0517V53.8143H113.702V47.7639H114.446V49.2155C114.655 48.7897 114.929 48.4452 115.27 48.182C115.618 47.9188 115.986 47.7717 116.373 47.7407C116.451 47.733 116.517 47.7291 116.571 47.7291C116.625 47.7291 116.675 47.733 116.722 47.7407V48.4607Z" fill="#0088E9"/>
<path d="M116.279 50.8065C116.279 50.2336 116.396 49.711 116.628 49.2388C116.868 48.7588 117.197 48.3755 117.615 48.0891C118.033 47.8026 118.509 47.6594 119.043 47.6594C119.547 47.6594 119.996 47.7949 120.39 48.0659C120.793 48.3291 121.107 48.6504 121.331 49.0297V45.3368H122.121V52.862C122.121 53.071 122.214 53.1794 122.399 53.1872V53.8143C122.245 53.8375 122.125 53.8452 122.039 53.8375C121.869 53.8297 121.722 53.7678 121.598 53.6517C121.482 53.5278 121.424 53.3884 121.424 53.2336V52.6413C121.184 53.0362 120.859 53.3497 120.448 53.582C120.038 53.8143 119.612 53.9304 119.171 53.9304C118.753 53.9304 118.366 53.8452 118.01 53.6749C117.654 53.5046 117.344 53.2723 117.081 52.9781C116.825 52.6839 116.628 52.351 116.488 51.9794C116.349 51.6001 116.279 51.2091 116.279 50.8065ZM121.331 51.7355V49.8659C121.23 49.5872 121.068 49.3355 120.843 49.111C120.619 48.8788 120.363 48.6968 120.077 48.5652C119.798 48.4259 119.519 48.3562 119.241 48.3562C118.807 48.3562 118.428 48.4762 118.103 48.7162C117.785 48.9484 117.538 49.2543 117.359 49.6336C117.181 50.0052 117.092 50.3962 117.092 50.8065C117.092 51.2401 117.189 51.6426 117.383 52.0143C117.584 52.3859 117.855 52.6839 118.196 52.9084C118.536 53.1252 118.919 53.2336 119.345 53.2336C119.608 53.2336 119.883 53.1678 120.17 53.0362C120.464 52.8968 120.719 52.7149 120.936 52.4904C121.161 52.2659 121.292 52.0143 121.331 51.7355Z" fill="#0088E9"/>
<path d="M122.493 52.0723C122.493 51.7007 122.602 51.3794 122.818 51.1084C123.035 50.8297 123.333 50.613 123.713 50.4581C124.1 50.3033 124.545 50.2259 125.048 50.2259C125.342 50.2259 125.648 50.253 125.965 50.3072C126.283 50.3536 126.565 50.4194 126.813 50.5046V49.9936C126.813 49.4826 126.662 49.0762 126.36 48.7743C126.058 48.4723 125.64 48.3213 125.106 48.3213C124.789 48.3213 124.471 48.3833 124.154 48.5072C123.836 48.6233 123.507 48.7975 123.167 49.0297L122.865 48.4723C123.26 48.2013 123.647 48.0001 124.026 47.8684C124.405 47.7291 124.793 47.6594 125.187 47.6594C125.931 47.6594 126.519 47.8723 126.953 48.2981C127.386 48.7239 127.603 49.3123 127.603 50.0633V52.862C127.603 53.071 127.7 53.1794 127.893 53.1872V53.8143C127.723 53.8375 127.603 53.8452 127.533 53.8375C127.34 53.8297 127.193 53.7678 127.092 53.6517C126.991 53.5355 126.937 53.4117 126.929 53.2801L126.918 52.8388C126.647 53.1872 126.294 53.4581 125.861 53.6517C125.427 53.8375 124.986 53.9304 124.537 53.9304C124.142 53.9304 123.79 53.8491 123.48 53.6865C123.171 53.5162 122.927 53.2917 122.749 53.013C122.578 52.7265 122.493 52.413 122.493 52.0723ZM126.546 52.5368C126.724 52.3278 126.813 52.1343 126.813 51.9562V51.0736C126.279 50.8646 125.722 50.7601 125.141 50.7601C124.576 50.7601 124.119 50.8723 123.771 51.0968C123.422 51.3213 123.248 51.6272 123.248 52.0143C123.248 52.3472 123.376 52.6491 123.631 52.9201C123.894 53.191 124.258 53.3265 124.723 53.3265C125.102 53.3265 125.454 53.253 125.78 53.1059C126.113 52.9588 126.368 52.7691 126.546 52.5368Z" fill="#0088E9"/>
<path d="M131.341 53.9304C130.869 53.9304 130.432 53.8104 130.029 53.5704C129.626 53.3226 129.313 53.013 129.088 52.6413V53.8143H128.38V45.3368H129.17V49.0297C129.441 48.6194 129.766 48.2904 130.145 48.0426C130.525 47.7872 130.966 47.6594 131.469 47.6594C131.895 47.6594 132.274 47.7484 132.607 47.9265C132.948 48.1046 133.238 48.3446 133.478 48.6465C133.718 48.9407 133.9 49.2775 134.024 49.6568C134.148 50.0284 134.21 50.4117 134.21 50.8065C134.21 51.3717 134.082 51.8904 133.826 52.3626C133.579 52.8349 133.238 53.2143 132.805 53.5007C132.371 53.7872 131.883 53.9304 131.341 53.9304ZM131.155 53.2336C131.597 53.2336 131.984 53.1175 132.317 52.8852C132.657 52.653 132.925 52.3549 133.118 51.991C133.312 51.6194 133.408 51.2246 133.408 50.8065C133.408 50.3807 133.315 49.982 133.13 49.6104C132.952 49.2388 132.7 48.9368 132.375 48.7046C132.05 48.4723 131.674 48.3562 131.248 48.3562C130.776 48.3562 130.358 48.5072 129.994 48.8091C129.638 49.111 129.363 49.4633 129.17 49.8659V51.7472C129.208 52.0259 129.336 52.2775 129.553 52.502C129.77 52.7265 130.025 52.9046 130.319 53.0362C130.614 53.1678 130.892 53.2336 131.155 53.2336Z" fill="#0088E9"/>
<path d="M134.653 45.3368H135.443V52.4439C135.443 52.7459 135.493 52.9433 135.594 53.0362C135.702 53.1291 135.838 53.1755 136 53.1755C136.14 53.1755 136.279 53.1601 136.418 53.1291C136.565 53.0981 136.685 53.0672 136.778 53.0362L136.918 53.6749C136.771 53.7368 136.589 53.7872 136.372 53.8259C136.163 53.8646 135.981 53.8839 135.826 53.8839C135.47 53.8839 135.183 53.7794 134.967 53.5704C134.758 53.3613 134.653 53.0749 134.653 52.711V45.3368Z" fill="#0088E9"/>
<path d="M139.466 53.9304C138.886 53.9304 138.367 53.7872 137.91 53.5007C137.453 53.2143 137.093 52.831 136.83 52.351C136.567 51.871 136.435 51.3446 136.435 50.7717C136.435 50.2065 136.563 49.6878 136.818 49.2155C137.082 48.7433 137.442 48.3678 137.898 48.0891C138.355 47.8026 138.874 47.6594 139.455 47.6594C140.051 47.6594 140.573 47.8026 141.022 48.0891C141.471 48.3755 141.82 48.7549 142.068 49.2272C142.323 49.6917 142.451 50.2026 142.451 50.7601C142.451 50.8839 142.447 50.9884 142.439 51.0736H137.26C137.299 51.5072 137.422 51.8943 137.631 52.2349C137.84 52.5678 138.108 52.8349 138.433 53.0362C138.758 53.2297 139.114 53.3265 139.501 53.3265C139.896 53.3265 140.268 53.2259 140.616 53.0246C140.964 52.8233 141.212 52.5601 141.359 52.2349L142.044 52.4207C141.92 52.7149 141.727 52.9781 141.464 53.2104C141.208 53.4349 140.91 53.613 140.569 53.7446C140.229 53.8684 139.861 53.9304 139.466 53.9304ZM137.237 50.5046H141.708C141.677 50.071 141.557 49.6878 141.348 49.3549C141.139 49.0143 140.871 48.751 140.546 48.5652C140.221 48.3717 139.861 48.2749 139.466 48.2749C139.071 48.2749 138.711 48.3717 138.386 48.5652C138.061 48.751 137.794 49.0143 137.585 49.3549C137.384 49.6878 137.268 50.071 137.237 50.5046Z" fill="#0088E9"/>
<path d="M42.8981 13.2508C42.0456 13.2508 41.2749 13.1049 40.5859 12.8129C39.9086 12.521 39.3714 12.1006 38.9744 11.5517C38.7131 11.1905 38.5353 10.7864 38.4409 10.3392C38.3572 9.94267 38.6933 9.60741 39.0986 9.60741H40.3119C40.6931 9.60741 40.989 9.91375 41.1389 10.2643C41.2269 10.4702 41.352 10.6483 41.5143 10.7985C41.8413 11.0905 42.285 11.2364 42.8455 11.2364C43.4177 11.2364 43.8673 11.1021 44.1943 10.8336C44.5213 10.5533 44.6848 10.1913 44.6848 9.74754C44.6848 9.38553 44.5738 9.08775 44.352 8.8542C44.1301 8.62065 43.8498 8.43965 43.5112 8.31119C43.1842 8.17106 42.7288 8.01925 42.1449 7.85576C41.3508 7.62221 40.7027 7.3945 40.2006 7.17262C39.7101 6.93907 39.2839 6.59458 38.9219 6.13915C38.5715 5.67204 38.3964 5.05313 38.3964 4.28241C38.3964 3.55839 38.5774 2.9278 38.9394 2.39063C39.3014 1.85345 39.8094 1.44474 40.4633 1.16447C41.1173 0.872533 41.8646 0.726562 42.7054 0.726562C43.9666 0.726562 44.9884 1.03602 45.7708 1.65493C46.3682 2.11177 46.764 2.70739 46.9582 3.44181C47.0662 3.84987 46.7247 4.21234 46.3027 4.21234H45.0736C44.6884 4.21234 44.3919 3.8902 44.1901 3.56205C44.1031 3.42064 43.9878 3.29291 43.844 3.17887C43.517 2.8986 43.0791 2.75847 42.5302 2.75847C42.0515 2.75847 41.6661 2.88109 41.3742 3.12632C41.0939 3.37155 40.9538 3.72772 40.9538 4.19482C40.9538 4.5218 41.0589 4.79622 41.2691 5.0181C41.4909 5.22829 41.7595 5.40346 42.0748 5.54359C42.4018 5.67204 42.8572 5.82385 43.4411 5.99902C44.2352 6.23257 44.8833 6.46612 45.3854 6.69968C45.8876 6.93323 46.3196 7.28356 46.6816 7.75066C47.0437 8.21777 47.2247 8.83085 47.2247 9.58989C47.2247 10.2438 47.0553 10.8511 46.7167 11.4116C46.378 11.9721 45.8817 12.4217 45.2278 12.7604C44.5738 13.0873 43.7973 13.2508 42.8981 13.2508Z" fill="#0088E9"/>
<path d="M57.3207 8.06596C57.3207 8.41629 57.2974 8.73159 57.2506 9.01185H50.1565C50.2149 9.71251 50.4601 10.2614 50.8922 10.6584C51.3242 11.0554 51.8556 11.254 52.4862 11.254C53.2326 11.254 53.8026 10.9912 54.1962 10.4657C54.3619 10.2444 54.6056 10.0804 54.8821 10.0804H56.1C56.5862 10.0804 56.9349 10.5531 56.6995 10.9785C56.3993 11.5209 55.9874 11.9922 55.464 12.3925C54.6699 12.9881 53.6948 13.2859 52.5387 13.2859C51.6045 13.2859 50.7637 13.0815 50.0163 12.6728C49.2807 12.2524 48.7026 11.6627 48.2822 10.9036C47.8735 10.1446 47.6691 9.26876 47.6691 8.27616C47.6691 7.27188 47.8735 6.39022 48.2822 5.63117C48.6909 4.87213 49.2631 4.28824 49.9988 3.87953C50.7345 3.47081 51.5812 3.26645 52.5387 3.26645C53.4613 3.26645 54.2845 3.46497 55.0085 3.86201C55.7442 4.25905 56.3106 4.82541 56.7076 5.56111C57.1164 6.28512 57.3207 7.12007 57.3207 8.06596ZM54.7808 7.3653C54.7691 6.73471 54.5414 6.23257 54.0977 5.85889C53.6539 5.47352 53.1109 5.28084 52.4687 5.28084C51.8614 5.28084 51.3476 5.46769 50.9272 5.84137C50.5185 6.20338 50.2674 6.71135 50.174 7.3653H54.7808Z" fill="#0088E9"/>
<path d="M57.4291 8.27616C57.4291 7.27188 57.6335 6.39606 58.0422 5.64869C58.4509 4.88964 59.0173 4.30576 59.7413 3.89704C60.4653 3.47665 61.2944 3.26645 62.2286 3.26645C63.4314 3.26645 64.424 3.57007 65.2064 4.17731C65.7719 4.6014 66.2041 5.14985 66.5031 5.82265C66.6945 6.25346 66.3447 6.69968 65.8732 6.69968H64.6785C64.3661 6.69968 64.1015 6.49061 63.932 6.22816C63.8015 6.026 63.6365 5.8562 63.4372 5.71875C63.1103 5.47352 62.7015 5.35091 62.2111 5.35091C61.5104 5.35091 60.9557 5.60782 60.547 6.12163C60.1383 6.62377 59.934 7.34195 59.934 8.27616C59.934 9.19869 60.1383 9.91687 60.547 10.4307C60.9557 10.9328 61.5104 11.1839 62.2111 11.1839C63.0095 11.1839 63.5851 10.8968 63.9377 10.3225C64.1001 10.0581 64.3639 9.85264 64.6742 9.85264H65.8658C66.3395 9.85264 66.6891 10.303 66.4909 10.7333C66.1924 11.3813 65.7643 11.9227 65.2064 12.3575C64.4123 12.9764 63.4197 13.2859 62.2286 13.2859C61.2944 13.2859 60.4653 13.0815 59.7413 12.6728C59.0173 12.2524 58.4509 11.6685 58.0422 10.9211C57.6335 10.1621 57.4291 9.28044 57.4291 8.27616Z" fill="#0088E9"/>
<path d="M75.9813 3.4241C76.3821 3.4241 76.7071 3.74905 76.7071 4.1499V12.4024C76.7071 12.8033 76.3821 13.1282 75.9813 13.1282H74.963C74.5622 13.1282 74.2372 12.8033 74.2372 12.4024V11.9021C73.9219 12.3225 73.5074 12.6553 72.9936 12.9005C72.4914 13.1341 71.9426 13.2508 71.347 13.2508C70.588 13.2508 69.9165 13.0932 69.3326 12.7779C68.7487 12.4509 68.2875 11.978 67.9488 11.3591C67.6219 10.7285 67.4584 9.98109 67.4584 9.11695V4.1499C67.4584 3.74905 67.7833 3.4241 68.1842 3.4241H69.1849C69.5857 3.4241 69.9107 3.74905 69.9107 4.1499V8.76662C69.9107 9.53734 70.1034 10.1329 70.4887 10.5533C70.8741 10.962 71.3996 11.1664 72.0652 11.1664C72.7425 11.1664 73.2738 10.962 73.6592 10.5533C74.0446 10.1329 74.2372 9.53734 74.2372 8.76662V4.1499C74.2372 3.74905 74.5622 3.4241 74.963 3.4241H75.9813Z" fill="#0088E9"/>
<path d="M80.528 4.93051C80.8433 4.4167 81.252 4.01382 81.7541 3.72188C82.0708 3.54197 82.414 3.4175 82.7838 3.34846C83.1779 3.2749 83.5058 3.60892 83.5058 4.00977V5.21078C83.5058 5.56872 83.2156 5.85889 82.8577 5.85889C82.0869 5.85889 81.5031 6.03989 81.106 6.4019C80.7207 6.7639 80.528 7.3945 80.528 8.29367V12.4024C80.528 12.8033 80.203 13.1282 79.8022 13.1282H78.8015C78.4006 13.1282 78.0757 12.8033 78.0757 12.4024V4.1499C78.0757 3.74905 78.4006 3.4241 78.8015 3.4241H79.8022C80.203 3.4241 80.528 3.74905 80.528 4.1499V4.93051Z" fill="#0088E9"/>
<path d="M93.1275 8.06596C93.1275 8.41629 93.1042 8.73159 93.0574 9.01185H85.9633C86.0217 9.71251 86.2669 10.2614 86.699 10.6584C87.131 11.0554 87.6624 11.254 88.293 11.254C89.2038 11.254 89.8519 10.8628 90.2373 10.0804H92.8823C92.602 11.0146 92.0648 11.7853 91.2708 12.3925C90.4767 12.9881 89.5016 13.2859 88.3455 13.2859C87.4113 13.2859 86.5705 13.0815 85.8231 12.6728C85.0875 12.2524 84.5094 11.6627 84.089 10.9036C83.6803 10.1446 83.4759 9.26876 83.4759 8.27616C83.4759 7.27188 83.6803 6.39022 84.089 5.63117C84.4977 4.87213 85.0699 4.28824 85.8056 3.87953C86.5413 3.47081 87.3879 3.26645 88.3455 3.26645C89.268 3.26645 90.0913 3.46497 90.8153 3.86201C91.551 4.25905 92.1174 4.82541 92.5144 5.56111C92.9231 6.28512 93.1275 7.12007 93.1275 8.06596ZM90.5876 7.3653C90.5759 6.73471 90.3482 6.23257 89.9045 5.85889C89.4607 5.47352 88.9177 5.28084 88.2754 5.28084C87.6682 5.28084 87.1544 5.46769 86.734 5.84137C86.3253 6.20338 86.0742 6.71135 85.9808 7.3653H90.5876Z" fill="#0088E9"/>
<path d="M106.471 0.901727C106.872 0.901727 107.197 1.22668 107.197 1.62753V12.4024C107.197 12.8033 106.872 13.1282 106.471 13.1282H105.47C105.069 13.1282 104.744 12.8033 104.744 12.4024V5.17574L101.654 12.6788C101.542 12.9508 101.277 13.1282 100.983 13.1282H100.097C99.8033 13.1282 99.5386 12.9514 99.4263 12.6801L96.3188 5.17574V12.4024C96.3188 12.8033 95.9938 13.1282 95.593 13.1282H94.5923C94.1914 13.1282 93.8665 12.8033 93.8665 12.4024V1.62753C93.8665 1.22668 94.1914 0.901727 94.5923 0.901727H96.1726C96.4632 0.901727 96.7257 1.07497 96.84 1.34209L100.54 9.99277L104.241 1.34209C104.355 1.07497 104.617 0.901727 104.908 0.901727H106.471Z" fill="#0088E9"/>
<path d="M116.761 3.4241C117.28 3.4241 117.632 3.9528 117.43 4.43116L112.033 17.273C111.919 17.5423 111.656 17.7175 111.363 17.7175H110.343C109.82 17.7175 109.469 17.1817 109.677 16.7023L111.338 12.883L107.861 4.42588C107.664 3.94822 108.016 3.4241 108.532 3.4241H109.694C109.997 3.4241 110.269 3.61334 110.374 3.89834L112.704 10.203L115.067 3.89525C115.173 3.61186 115.444 3.4241 115.747 3.4241H116.761Z" fill="#0088E9"/>
<path d="M7.69375 40.9216C7.69237 40.9169 7.6923 40.9143 7.6923 40.9135C7.6923 40.9126 7.6924 40.912 7.69261 40.9112C7.69311 40.9094 7.69482 40.9054 7.6991 40.9009C7.70338 40.8964 7.70737 40.8944 7.70918 40.8938C7.70994 40.8935 7.71062 40.8933 7.71155 40.8933C7.71237 40.8932 7.71501 40.8931 7.71996 40.894L8.02095 40.9514L7.71235 40.9359C7.70351 40.9355 7.69614 40.9298 7.69375 40.9216Z" fill="#0088E9" stroke="#0088E9" stroke-width="1.1109"/>
<path d="M15.9389 3.19741C15.9258 3.20669 15.9223 3.21334 15.9206 3.21735C15.9182 3.22325 15.9165 3.23229 15.9186 3.24301C15.9207 3.25373 15.9256 3.26148 15.9301 3.266C15.9332 3.26908 15.9389 3.27392 15.9545 3.27753L20.4913 4.32802L20.3885 4.23676C20.38 4.22923 20.3694 4.22382 20.3576 4.22103L15.9869 3.18805C15.9706 3.18419 15.9527 3.18768 15.9389 3.19741Z" fill="#0088E9" stroke="#0088E9" stroke-width="1.1109"/>
<path d="M14.5808 5.56476C14.6662 5.16953 15.0761 4.91089 15.4694 5.00404L22.0903 6.57211C22.4637 6.66054 22.675 7.03258 22.5613 7.40137L12.6062 39.6932C12.4937 40.0581 12.105 40.2826 11.7352 40.1965L7.94117 39.3125C7.589 39.2304 7.37611 38.8942 7.45253 38.5406L14.5808 5.56476Z" stroke="#0088E9" stroke-width="1.1109"/>
<path fill-rule="evenodd" clip-rule="evenodd" d="M16.7931 23.5379L15.4011 27.7876L11.2282 24.8333L12.0865 20.5271L16.7931 23.5379ZM14.193 25.6597C14.987 25.588 15.5725 24.8861 15.5007 24.0921C15.4289 23.2981 14.7271 22.7126 13.9331 22.7844C13.1391 22.8562 12.5536 23.5581 12.6254 24.3521C12.6972 25.1461 13.399 25.7315 14.193 25.6597Z" fill="#0088E9"/>
<path d="M12.1668 9.81012C11.8235 9.83621 11.4891 9.87716 11.1637 9.93295C9.43299 10.2401 8.02464 10.8897 6.93866 11.8817C5.88355 12.855 5.17838 14.0595 4.82315 15.495C4.40054 17.2027 4.49681 18.6711 5.11194 19.9002C5.75794 21.1107 6.62913 22.1011 7.7255 22.8715C8.2407 23.2283 8.8343 23.6045 9.5063 24.0002L10.4413 19.0132C10.2777 18.8382 10.1295 18.6569 9.99681 18.4694C9.59344 17.8705 9.48362 17.1998 9.66736 16.4573C9.89921 15.5205 10.4455 14.8344 11.3064 14.3992L12.1668 9.81012Z" fill="#0088E9"/>
<path d="M18.7783 24.0831L17.2087 29.1601C17.4924 29.6906 17.5564 30.2705 17.4007 30.8997C17.2154 31.6484 16.7941 32.2243 16.1367 32.6274L16.0888 32.7823L15.9318 32.7434C15.752 32.8374 15.5569 32.9201 15.3465 32.9916C14.2529 33.3776 12.7408 33.3318 10.8103 32.8541C9.25108 32.4682 7.75615 31.8225 6.32553 30.9169C5.44768 30.3372 4.67676 29.7221 4.01278 29.0714C3.43046 28.5008 2.45466 28.4988 1.95366 29.142L0.913538 30.4774C0.575018 30.912 0.555396 31.5225 0.919064 31.9363C1.74037 32.8709 2.83429 33.7479 4.20083 34.5673C5.94095 35.602 7.81338 36.3674 9.81811 36.8635C12.0951 37.427 14.1113 37.5582 15.8668 37.2572C17.6223 36.9562 19.0276 36.319 20.0827 35.3456C21.1625 34.3784 21.8801 33.177 22.2353 31.7415C22.6518 30.0585 22.537 28.6118 21.891 27.4013C21.2698 26.197 20.3986 25.2065 19.2775 24.4301C19.1183 24.3157 18.9519 24.2 18.7783 24.0831Z" fill="#0088E9"/>
<path d="M21.0761 16.6509L22.3783 12.4389C23.2024 12.9313 23.9335 13.4682 24.5716 14.0497C25.0101 14.4492 25.0426 15.1135 24.694 15.5934L23.6922 16.9726C23.2445 17.589 22.3559 17.6608 21.7649 17.18C21.5395 16.9966 21.3099 16.8202 21.0761 16.6509Z" fill="#0088E9"/>
</svg>
