<svg width="44" height="44" viewBox="0 0 44 44" fill="none" xmlns="http://www.w3.org/2000/svg">
<rect width="44" height="44" rx="22" fill="#23272B"/>
<path d="M33 14.8268C32.1819 15.2042 31.3101 15.4543 30.4013 15.5758C31.3363 14.9888 32.0499 14.0663 32.3854 12.9544C31.5136 13.5009 30.5511 13.887 29.5254 14.1024C28.6976 13.1756 27.5179 12.6016 26.2309 12.6016C23.7339 12.6016 21.7236 14.7328 21.7236 17.3456C21.7236 17.7215 21.7539 18.083 21.8281 18.4271C18.0785 18.2348 14.7606 16.345 12.5317 13.4662C12.1426 14.1762 11.9144 14.9888 11.9144 15.8635C11.9144 17.5061 12.7187 18.9621 13.9177 19.8051C13.1931 19.7906 12.4822 19.5694 11.88 19.2209C11.88 19.2354 11.88 19.2542 11.88 19.273C11.88 21.5778 13.4434 23.4922 15.4935 23.9332C15.1264 24.0387 14.7263 24.0893 14.311 24.0893C14.0223 24.0893 13.7307 24.072 13.4571 24.0084C14.0415 25.8866 15.6997 27.2674 17.6715 27.3123C16.137 28.5745 14.1886 29.3351 12.0794 29.3351C11.7095 29.3351 11.3548 29.3177 11 29.27C12.9979 30.6248 15.3656 31.3984 17.919 31.3984C26.2185 31.3984 30.756 24.1689 30.756 17.9023C30.756 17.6926 30.7491 17.4902 30.7395 17.2892C31.6346 16.6212 32.3867 15.7869 33 14.8268Z" fill="white"/>
</svg>
