<svg width="226" height="35" viewBox="0 0 226 35" fill="none" xmlns="http://www.w3.org/2000/svg">
<path fill-rule="evenodd" clip-rule="evenodd" d="M6.7 16.0484C7.98 16.0484 9.06667 15.855 9.96 15.4684C10.8533 15.0817 11.5233 14.5584 11.97 13.8984C12.4118 13.254 12.6457 12.4897 12.64 11.7084C12.64 10.775 12.3967 10.035 11.91 9.48837C11.4349 8.9498 10.8336 8.53749 10.16 8.28837C9.30255 7.98319 8.42766 7.7294 7.54 7.52836C6.51324 7.30188 5.74991 7.07188 5.25 6.83837C4.75009 6.60486 4.50009 6.24819 4.5 5.76837C4.49833 5.53523 4.55738 5.30566 4.67135 5.10227C4.78532 4.89888 4.95028 4.72866 5.15 4.60837C5.58324 4.31503 6.25325 4.16837 7.16 4.16837C8.45325 4.16837 9.74658 4.53503 11.04 5.26837L12.04 2.80837C11.3462 2.38615 10.5903 2.07569 9.8 1.88837C8.94308 1.67474 8.06315 1.56727 7.18 1.56837C5.9 1.56837 4.81667 1.7617 3.93 2.14836C3.04333 2.53503 2.38 3.05837 1.94 3.71837C1.50206 4.37157 1.27198 5.14198 1.28 5.92836C1.28 6.8617 1.52333 7.60837 2.01 8.16837C2.48022 8.71709 3.0825 9.13697 3.76 9.38837C4.61732 9.69395 5.49223 9.94774 6.38 10.1484C7.07333 10.3084 7.62333 10.455 8.03 10.5884C8.39432 10.6991 8.73386 10.879 9.03 11.1184C9.15399 11.2178 9.25359 11.3443 9.32119 11.4882C9.38879 11.632 9.42259 11.7894 9.42 11.9484C9.42 12.4017 9.2 12.765 8.76 13.0384C8.32 13.3117 7.64 13.4484 6.72 13.4484C5.87747 13.446 5.04056 13.311 4.24 13.0484C3.47437 12.8123 2.75178 12.4543 2.1 11.9884L1 14.4284C1.62649 14.9084 2.45649 15.2984 3.49 15.5984C4.53326 15.8998 5.61408 16.0513 6.7 16.0484ZM25.16 10.4684C25.1824 9.43772 24.9304 8.41964 24.43 7.51837C23.9609 6.68902 23.2632 6.01211 22.42 5.56837C21.521 5.11622 20.5277 4.88323 19.5214 4.88844C18.5151 4.89366 17.5243 5.13692 16.63 5.59836C15.7736 6.05544 15.0606 6.74078 14.57 7.57836C14.0654 8.44245 13.8061 9.42783 13.82 10.4284C13.8035 11.4337 14.0666 12.4238 14.58 13.2884C15.0969 14.138 15.8465 14.8217 16.74 15.2584C17.7418 15.7473 18.8455 15.9907 19.96 15.9684C21.9067 15.9684 23.3867 15.3884 24.4 14.2284L22.74 12.4284C22.394 12.7706 21.9825 13.0393 21.53 13.2184C21.053 13.3927 20.5478 13.4775 20.04 13.4684C19.2266 13.4684 18.5466 13.275 18 12.8884C17.4623 12.5157 17.0897 11.9496 16.96 11.3084H25.1C25.14 10.7884 25.16 10.5084 25.16 10.4684ZM19.58 7.24836C20.2214 7.23029 20.8473 7.44723 21.34 7.85837C21.8249 8.2741 22.1385 8.85486 22.22 9.48837H16.92C16.9966 8.85048 17.3109 8.2649 17.8 7.84836C18.3018 7.44071 18.9338 7.22768 19.58 7.24836ZM32.42 15.9684C33.5532 15.9684 34.5432 15.7284 35.39 15.2484C36.2073 14.8001 36.8567 14.0981 37.24 13.2484L34.82 11.9284C34.2732 12.915 33.4666 13.4084 32.4 13.4084C32.0265 13.42 31.6546 13.355 31.3072 13.2174C30.9598 13.0798 30.6443 12.8725 30.38 12.6084C29.8467 12.075 29.58 11.3484 29.58 10.4284C29.58 9.50836 29.8467 8.7817 30.38 8.24836C30.6443 7.98428 30.9599 7.77707 31.3073 7.63949C31.6547 7.50191 32.0265 7.43687 32.4 7.44836C33.4532 7.44836 34.2599 7.9417 34.82 8.92836L37.24 7.62836C36.8674 6.76406 36.2161 6.0494 35.39 5.59836C34.5432 5.12503 33.5532 4.88837 32.42 4.88837C31.3477 4.87117 30.2873 5.11483 29.33 5.59836C28.4474 6.04331 27.7063 6.72552 27.19 7.56837C26.6856 8.43713 26.42 9.42381 26.42 10.4284C26.42 11.4329 26.6856 12.4196 27.19 13.2884C27.7062 14.1313 28.4473 14.8135 29.33 15.2584C30.2872 15.7421 31.3477 15.9858 32.42 15.9684ZM46.74 5.04836V10.3684C46.74 11.3284 46.5133 12.0517 46.06 12.5384C45.6067 13.025 45.0067 13.2684 44.26 13.2684C42.8066 13.2684 42.0799 12.4017 42.08 10.6684V5.04836H38.96V11.1284C38.96 12.7284 39.3733 13.935 40.2 14.7484C41.0267 15.5617 42.1467 15.9684 43.56 15.9684C44.1988 15.9739 44.8319 15.8479 45.42 15.5984C45.9869 15.3564 46.4926 14.9909 46.9 14.5284V15.8084H49.86V5.04836H46.74ZM55.72 6.46837V5.04836H52.74V15.8084H55.86V10.7284C55.86 9.72836 56.1133 8.97836 56.62 8.47836C57.1267 7.97836 57.8267 7.72836 58.72 7.72836C58.84 7.72836 59.0733 7.7417 59.42 7.76837V4.88837C58.6706 4.87395 57.9259 5.00997 57.23 5.28837C56.6259 5.53215 56.1026 5.94108 55.72 6.46837ZM71.7 10.4684C71.7224 9.43772 71.4704 8.41964 70.97 7.51837C70.5009 6.68902 69.8032 6.01211 68.96 5.56837C68.061 5.11622 67.0677 4.88323 66.0614 4.88844C65.0551 4.89366 64.0643 5.13692 63.17 5.59836C62.3136 6.05544 61.6006 6.74078 61.11 7.57836C60.6054 8.44245 60.3461 9.42783 60.36 10.4284C60.3435 11.4337 60.6066 12.4238 61.12 13.2884C61.6369 14.138 62.3865 14.8217 63.28 15.2584C64.2818 15.7473 65.3855 15.9907 66.5 15.9684C68.4467 15.9684 69.9267 15.3884 70.94 14.2284L69.28 12.4284C68.934 12.7706 68.5225 13.0393 68.07 13.2184C67.593 13.3927 67.0878 13.4775 66.58 13.4684C65.7666 13.4684 65.0866 13.275 64.54 12.8884C64.0023 12.5157 63.6297 11.9496 63.5 11.3084H71.64C71.68 10.7884 71.7 10.5084 71.7 10.4684ZM66.12 7.24836C66.7614 7.23029 67.3873 7.44723 67.88 7.85837C68.3649 8.2741 68.6785 8.85486 68.76 9.48837H63.46C63.5366 8.85048 63.8509 8.2649 64.34 7.84836C64.8418 7.44071 65.4738 7.22768 66.12 7.24836Z" fill="#0088E9" stroke="#0088E9" stroke-width="0.933333" stroke-linejoin="round"/>
<path fill-rule="evenodd" clip-rule="evenodd" d="M109.114 16.9819C110.394 16.9819 111.481 16.7886 112.374 16.4019C113.267 16.0152 113.937 15.4919 114.384 14.8319C114.826 14.1875 115.06 13.4232 115.054 12.6419C115.054 11.7086 114.811 10.9686 114.324 10.4219C113.849 9.88335 113.248 9.47104 112.574 9.22189C111.717 8.91671 110.842 8.66292 109.954 8.46188C108.927 8.2354 108.164 8.0054 107.664 7.77189C107.164 7.53838 106.914 7.18171 106.914 6.70189C106.912 6.46875 106.971 6.23918 107.085 6.03579C107.199 5.8324 107.364 5.66218 107.564 5.54189C107.997 5.24855 108.667 5.10189 109.574 5.10189C110.867 5.10189 112.16 5.46855 113.454 6.20189L114.454 3.74189C113.76 3.31969 113.004 3.00923 112.214 2.82189C111.357 2.60827 110.477 2.5008 109.594 2.50189C108.314 2.50189 107.231 2.69522 106.344 3.08188C105.457 3.46855 104.794 3.99189 104.354 4.65189C103.916 5.30509 103.686 6.0755 103.694 6.86189C103.694 7.79522 103.937 8.54189 104.424 9.10189C104.894 9.65061 105.497 10.0705 106.174 10.3219C107.031 10.6275 107.906 10.8813 108.794 11.0819C109.487 11.2419 110.037 11.3886 110.444 11.5219C110.808 11.6326 111.148 11.8125 111.444 12.0519C111.568 12.1513 111.668 12.2778 111.735 12.4217C111.803 12.5655 111.837 12.723 111.834 12.8819C111.834 13.3352 111.614 13.6985 111.174 13.9719C110.734 14.2452 110.054 14.3819 109.134 14.3819C108.292 14.3795 107.455 14.2445 106.654 13.9819C105.888 13.7458 105.166 13.3879 104.514 12.9219L103.414 15.3619C104.041 15.8419 104.871 16.2319 105.904 16.5319C106.947 16.8333 108.028 16.9848 109.114 16.9819ZM122.234 16.9019C123.367 16.9019 124.358 16.6619 125.205 16.1819C126.022 15.7332 126.671 15.0313 127.054 14.1819L124.634 12.8619C124.087 13.8486 123.281 14.3419 122.214 14.3419C121.841 14.3535 121.469 14.2884 121.121 14.1509C120.774 14.0133 120.458 13.806 120.194 13.5419C119.661 13.0086 119.394 12.2819 119.394 11.3619C119.394 10.4419 119.661 9.71522 120.194 9.18188C120.458 8.91782 120.774 8.71063 121.121 8.57305C121.469 8.43547 121.841 8.37041 122.214 8.38188C123.267 8.38188 124.074 8.87522 124.634 9.86189L127.054 8.56188C126.681 7.69782 126.03 6.98324 125.205 6.53188C124.357 6.05882 123.367 5.82215 122.234 5.82189C121.162 5.80456 120.102 6.04823 119.145 6.53188C118.262 6.97658 117.52 7.65883 117.004 8.50189C116.5 9.37065 116.234 10.3573 116.234 11.3619C116.234 12.3664 116.5 13.3531 117.004 14.2219C117.52 15.065 118.262 15.7473 119.145 16.1919C120.102 16.6757 121.162 16.9194 122.234 16.9019ZM135.294 5.82189C134.639 5.81517 133.989 5.92697 133.374 6.15189C132.811 6.35674 132.3 6.68081 131.874 7.10189V1.90189H128.754V16.7419H131.874V11.4219C131.874 10.4619 132.107 9.73855 132.574 9.25189C133.041 8.76522 133.667 8.52189 134.454 8.52189C135.161 8.52189 135.701 8.73189 136.074 9.15189C136.447 9.57189 136.634 10.2086 136.634 11.0619V16.7419H139.754V10.5819C139.754 9.00855 139.344 7.82189 138.525 7.02189C137.705 6.22189 136.628 5.82189 135.294 5.82189ZM147.794 16.9019C148.851 16.9202 149.895 16.6762 150.834 16.1919C151.703 15.7419 152.43 15.06 152.934 14.2219C153.432 13.351 153.694 12.3651 153.694 11.3619C153.694 10.3586 153.432 9.37279 152.934 8.50189C152.429 7.66386 151.703 6.98198 150.834 6.53188C149.887 6.06482 148.845 5.82189 147.789 5.82189C146.733 5.82189 145.692 6.06482 144.745 6.53188C143.872 6.97974 143.141 7.66191 142.634 8.50189C142.136 9.37279 141.874 10.3586 141.874 11.3619C141.874 12.3651 142.136 13.351 142.634 14.2219C143.141 15.062 143.872 15.7442 144.745 16.1919C145.687 16.6755 146.735 16.9193 147.794 16.9019ZM147.794 14.3419C147.426 14.3531 147.059 14.2868 146.718 14.1472C146.377 14.0077 146.069 13.798 145.814 13.5319C145.294 12.9919 145.034 12.2686 145.034 11.3619C145.034 10.4552 145.294 9.73189 145.814 9.19189C146.069 8.92572 146.377 8.71608 146.718 8.57654C147.059 8.437 147.426 8.37069 147.794 8.38188C148.161 8.3702 148.526 8.43634 148.866 8.57594C149.206 8.71555 149.512 8.92546 149.765 9.19189C150.277 9.73189 150.533 10.4552 150.534 11.3619C150.535 12.2686 150.279 12.9919 149.765 13.5319C149.512 13.7983 149.206 14.0082 148.866 14.1478C148.526 14.2874 148.161 14.3536 147.794 14.3419ZM155.754 16.7419H158.874V1.90189H155.754V16.7419ZM166.094 5.82189C165.239 5.82036 164.389 5.93473 163.565 6.16188C162.811 6.35819 162.097 6.68295 161.454 7.12189L162.574 9.30189C162.997 8.97617 163.475 8.72892 163.985 8.57189C164.53 8.39303 165.1 8.3019 165.674 8.30189C166.501 8.30189 167.121 8.48522 167.534 8.85189C167.947 9.21855 168.154 9.74189 168.154 10.4219H165.674C164.101 10.4219 162.938 10.7086 162.185 11.2819C161.43 11.8553 161.053 12.642 161.054 13.6419C161.045 14.237 161.212 14.8215 161.534 15.3219C161.876 15.8344 162.359 16.2372 162.925 16.4819C163.602 16.7764 164.336 16.9197 165.074 16.9019C166.674 16.9019 167.767 16.4019 168.354 15.4019V16.7419H171.274V10.6019C171.274 9.00189 170.827 7.80522 169.934 7.01188C169.041 6.21855 167.761 5.82189 166.094 5.82189ZM165.854 14.8019C165.307 14.8019 164.878 14.6852 164.565 14.4519C164.414 14.3448 164.292 14.202 164.21 14.0362C164.128 13.8704 164.088 13.6868 164.094 13.5019C164.094 12.6619 164.734 12.2419 166.014 12.2419H168.154V13.3419C168 13.7984 167.688 14.1849 167.274 14.4319C166.844 14.6832 166.352 14.8112 165.854 14.8019ZM177.054 7.40189V5.98188H174.074V16.7419H177.194V11.6619C177.194 10.6619 177.447 9.91189 177.954 9.41189C178.461 8.91188 179.161 8.66188 180.054 8.66188C180.174 8.66188 180.407 8.67522 180.754 8.70189V5.82189C180.005 5.80736 179.26 5.94339 178.565 6.22189C177.96 6.46537 177.437 6.87435 177.054 7.40189ZM186.254 16.9019C187.183 16.9221 188.107 16.7765 188.985 16.4719C189.75 16.1854 190.333 15.7821 190.734 15.2619C191.13 14.7538 191.342 14.1261 191.334 13.4819C191.334 12.6953 191.127 12.082 190.714 11.6419C190.318 11.2128 189.814 10.8984 189.254 10.7319C188.544 10.5323 187.823 10.3753 187.094 10.2619C186.51 10.1885 185.934 10.0613 185.374 9.88188C185.014 9.74855 184.834 9.51522 184.834 9.18188C184.834 8.88855 185.001 8.64855 185.334 8.46188C185.667 8.27522 186.167 8.18188 186.834 8.18188C187.92 8.17309 188.988 8.44892 189.934 8.98188L190.974 6.76188C190.391 6.43524 189.76 6.2024 189.105 6.07189C188.359 5.90624 187.598 5.82241 186.834 5.82189C185.925 5.80196 185.02 5.95116 184.165 6.26188C183.41 6.55522 182.837 6.96522 182.445 7.49189C182.052 8.01292 181.845 8.64971 181.854 9.30189C181.854 10.1153 182.064 10.742 182.485 11.1819C182.892 11.6141 183.405 11.9314 183.974 12.1019C184.689 12.3058 185.418 12.4595 186.154 12.5619C186.718 12.6163 187.274 12.7303 187.814 12.9019C188.174 13.0352 188.354 13.2552 188.354 13.5619C188.354 14.2154 187.694 14.5421 186.374 14.5419C185.697 14.5386 185.024 14.441 184.374 14.2519C183.761 14.0878 183.174 13.8352 182.634 13.5019L181.594 15.7419C182.101 16.0753 182.781 16.352 183.634 16.5719C184.49 16.7922 185.37 16.9031 186.254 16.9019ZM199.774 5.82189C199.119 5.81517 198.469 5.92697 197.854 6.15189C197.291 6.35674 196.78 6.68081 196.354 7.10189V1.90189H193.234V16.7419H196.354V11.4219C196.354 10.4619 196.587 9.73855 197.054 9.25189C197.521 8.76522 198.147 8.52189 198.934 8.52189C199.641 8.52189 200.181 8.73189 200.554 9.15189C200.927 9.57189 201.114 10.2086 201.114 11.0619V16.7419H204.234V10.5819C204.234 9.00855 203.824 7.82189 203.005 7.02189C202.185 6.22189 201.108 5.82189 199.774 5.82189ZM207.034 16.7419H210.154V5.98188H207.034V16.7419ZM208.594 4.48188C209.11 4.50325 209.613 4.31993 209.994 3.97189C210.17 3.80752 210.31 3.60748 210.403 3.38505C210.496 3.16262 210.541 2.92292 210.534 2.68188C210.538 2.45438 210.492 2.22876 210.399 2.02126C210.305 1.81376 210.167 1.62955 209.994 1.48188C209.604 1.15128 209.105 0.979864 208.594 1.00189C208.08 0.980388 207.578 1.15971 207.194 1.50189C207.024 1.66036 206.888 1.85226 206.795 2.06561C206.702 2.27896 206.654 2.50917 206.654 2.74189C206.654 2.9746 206.702 3.20481 206.795 3.41816C206.888 3.63151 207.024 3.82341 207.194 3.98188C207.578 4.32422 208.08 4.50357 208.594 4.48188ZM219.394 5.82189C217.914 5.82189 216.787 6.28855 216.014 7.22189V5.98188H213.034V20.6219H216.154V15.6019C216.941 16.4688 218.021 16.9022 219.394 16.9019C220.349 16.9134 221.29 16.6756 222.125 16.2119C222.937 15.7592 223.606 15.0869 224.054 14.2719C224.514 13.3709 224.754 12.3736 224.754 11.3619C224.754 10.3502 224.514 9.35291 224.054 8.45189C223.606 7.63695 222.937 6.96465 222.125 6.51188C221.29 6.04817 220.349 5.81033 219.394 5.82189ZM218.854 14.3419C218.487 14.3538 218.122 14.2878 217.782 14.1482C217.443 14.0085 217.137 13.7985 216.885 13.5319C216.37 12.9919 216.113 12.2686 216.114 11.3619C216.115 10.4552 216.372 9.73189 216.885 9.19189C217.409 8.67281 218.117 8.38164 218.855 8.38164C219.592 8.38164 220.3 8.67281 220.825 9.19189C221.337 9.73189 221.593 10.4552 221.594 11.3619C221.595 12.2686 221.338 12.9919 220.825 13.5319C220.572 13.7983 220.266 14.0082 219.926 14.1478C219.586 14.2874 219.221 14.3536 218.854 14.3419Z" fill="#0088E9" stroke="#0088E9" stroke-width="0.933333" stroke-linejoin="round"/>
<path fill-rule="evenodd" clip-rule="evenodd" d="M89.1081 16.0752L89.0681 2.0752H86.4081L81.2481 10.7752L76.0081 2.0752H73.3281V16.0752H76.3681V7.8552L80.4681 14.5952H81.9281L86.0481 7.67519L86.0681 16.0752H89.1081ZM99.8681 5.31519L96.8281 12.6152L93.8081 5.31519H90.5881L95.2481 16.1552L95.2081 16.2552C94.9948 16.7352 94.7548 17.0785 94.4881 17.2852C94.1863 17.5027 93.8198 17.612 93.4481 17.5952C93.1297 17.593 92.8144 17.532 92.5181 17.4152C92.2134 17.3003 91.9321 17.1309 91.6881 16.9152L90.5481 19.1352C90.9395 19.4663 91.396 19.7115 91.8881 19.8552C92.4248 20.0268 92.9847 20.1145 93.5481 20.1152C94.5747 20.1152 95.4514 19.8619 96.1781 19.3552C96.9049 18.8485 97.5149 17.9752 98.0081 16.7352L102.868 5.31519H99.8681Z" fill="white" stroke="white" stroke-width="0.933333" stroke-linejoin="round"/>
<path fill-rule="evenodd" clip-rule="evenodd" d="M104.779 28.8745C104.353 28.8725 103.93 28.9388 103.525 29.071C103.152 29.1888 102.805 29.3782 102.505 29.6288L102.845 30.1919C103.092 29.9792 103.376 29.8152 103.684 29.7085C104.011 29.5913 104.357 29.5319 104.704 29.5332C105.131 29.5032 105.553 29.6382 105.883 29.9103C106.025 30.0547 106.133 30.2274 106.203 30.4169C106.273 30.6064 106.301 30.8085 106.287 31.0099V31.3499H104.513C103.763 31.3499 103.215 31.4952 102.873 31.7855C102.705 31.9246 102.571 32.1003 102.481 32.2992C102.392 32.4981 102.349 32.7149 102.356 32.9329C102.349 33.159 102.396 33.3835 102.492 33.5884C102.588 33.7932 102.731 33.9726 102.909 34.1121C103.338 34.4289 103.864 34.5866 104.396 34.5583C104.801 34.5686 105.204 34.485 105.571 34.314C105.883 34.1671 106.143 33.9303 106.319 33.634V34.5052H107.041V31.0418C107.041 30.3266 106.847 29.7865 106.457 29.4216C106.068 29.057 105.507 28.8745 104.779 28.8745ZM104.513 33.9634C104.144 33.9855 103.779 33.8867 103.472 33.6819C103.352 33.5937 103.255 33.4773 103.19 33.343C103.125 33.2088 103.094 33.0606 103.1 32.9116C103.1 32.2458 103.578 31.913 104.534 31.913H106.287V32.8266C106.156 33.1731 105.918 33.4689 105.607 33.6712C105.279 33.8728 104.898 33.9743 104.513 33.9634ZM111.801 34.5052H117.07V33.3366H113.182V27.0684H111.801V34.5052ZM120.523 34.5796C121.067 34.5884 121.604 34.4606 122.085 34.2077C122.535 33.9705 122.909 33.6115 123.164 33.1719C123.418 32.7124 123.551 32.1961 123.551 31.6713C123.551 31.1464 123.418 30.6301 123.164 30.1706C122.907 29.7334 122.534 29.3765 122.085 29.1401C121.603 28.8956 121.069 28.7683 120.529 28.7683C119.988 28.7683 119.455 28.8956 118.972 29.1401C118.524 29.376 118.15 29.7331 117.895 30.1706C117.64 30.6297 117.506 31.1461 117.506 31.6713C117.506 32.1964 117.64 32.7128 117.895 33.1719C118.149 33.6119 118.523 33.971 118.972 34.2077C119.45 34.4598 119.983 34.5877 120.523 34.5796ZM120.523 33.4428C120.299 33.4501 120.077 33.4104 119.869 33.3262C119.662 33.2421 119.474 33.1153 119.318 32.9541C119.013 32.5956 118.845 32.1398 118.845 31.6686C118.845 31.1974 119.013 30.7416 119.318 30.3831C119.474 30.222 119.662 30.0952 119.869 30.011C120.077 29.9269 120.299 29.8871 120.523 29.8944C120.748 29.8875 120.972 29.9274 121.18 30.0115C121.389 30.0957 121.577 30.2222 121.734 30.3831C122.043 30.7404 122.212 31.1966 122.212 31.6686C122.212 32.1406 122.043 32.5968 121.734 32.9541C121.577 33.1151 121.389 33.2416 121.18 33.3257C120.972 33.4099 120.748 33.4497 120.523 33.4428ZM127.418 34.5796C127.927 34.5901 128.43 34.4713 128.88 34.2343C129.293 34.0124 129.628 33.6695 129.84 33.2516L128.821 32.6566C128.673 32.9038 128.463 33.1074 128.211 33.2463C127.883 33.4142 127.511 33.4767 127.145 33.4254C126.78 33.3741 126.44 33.2113 126.171 32.9594C125.858 32.6021 125.685 32.1429 125.686 31.6678C125.687 31.1927 125.861 30.7341 126.175 30.3778C126.444 30.126 126.783 29.9632 127.148 29.9119C127.512 29.8605 127.883 29.9231 128.211 30.0909C128.463 30.23 128.673 30.4335 128.821 30.6806L129.84 30.0856C129.635 29.6678 129.302 29.3257 128.891 29.1082C128.436 28.8741 127.93 28.7572 127.418 28.7683C126.866 28.7581 126.321 28.8859 125.831 29.1401C125.379 29.3756 125.001 29.7324 124.741 30.1706C124.483 30.6288 124.348 31.1456 124.348 31.6713C124.348 32.1969 124.483 32.7137 124.741 33.1719C125.001 33.6132 125.38 33.9722 125.835 34.2077C126.324 34.4609 126.868 34.5886 127.418 34.5796ZM135.206 34.5052H136.82L134.228 31.2118L136.597 28.832H135.004L132.252 31.3818V26.6222H130.924V34.5052H132.252V33.0072L133.24 32.0723L135.206 34.5052ZM144.002 33.7615L143.067 32.8691C143.39 32.347 143.617 31.7713 143.737 31.1693L142.664 30.8187C142.582 31.2532 142.443 31.6748 142.249 32.0723L140.645 30.5425C141.085 30.3154 141.48 30.0093 141.809 29.6394C142.042 29.3509 142.168 28.9904 142.164 28.6195C142.174 28.3918 142.129 28.1652 142.035 27.9576C141.941 27.7501 141.8 27.5674 141.622 27.4243C141.207 27.1131 140.696 26.9571 140.178 26.9834C139.615 26.9551 139.06 27.1263 138.612 27.4668C138.421 27.6179 138.269 27.8114 138.166 28.0318C138.064 28.2522 138.014 28.4934 138.021 28.7364C138.021 29.015 138.087 29.2896 138.212 29.5385C138.379 29.8489 138.594 30.1304 138.85 30.3725C138.346 30.6273 137.899 30.9794 137.532 31.4083C137.264 31.7563 137.121 32.1852 137.129 32.6248C137.125 32.9965 137.249 33.3583 137.479 33.65C137.734 33.9663 138.067 34.2099 138.446 34.3565C138.888 34.5324 139.361 34.6191 139.838 34.6114C140.751 34.6318 141.64 34.314 142.334 33.719L143.269 34.6221L144.002 33.7615ZM140.178 27.929C140.405 27.9156 140.629 27.9834 140.811 28.1202C140.886 28.1839 140.945 28.264 140.985 28.3542C141.024 28.4444 141.042 28.5424 141.038 28.6408C141.036 28.7472 141.013 28.8523 140.971 28.9498C140.928 29.0473 140.866 29.1355 140.79 29.2092C140.523 29.4526 140.224 29.6582 139.901 29.82C139.702 29.6329 139.524 29.4245 139.37 29.1985C139.28 29.0532 139.233 28.8859 139.232 28.7151C139.229 28.6073 139.25 28.5001 139.294 28.4016C139.338 28.3031 139.404 28.216 139.487 28.1468C139.683 27.9928 139.929 27.9154 140.178 27.929ZM139.933 33.5278C139.548 33.5463 139.166 33.4461 138.839 33.241C138.711 33.1613 138.606 33.0501 138.533 32.918C138.461 32.7859 138.423 32.6374 138.425 32.4867C138.423 32.2209 138.516 31.9632 138.686 31.7589C138.94 31.4799 139.244 31.251 139.583 31.0843L141.548 32.9647C141.094 33.338 140.521 33.5376 139.933 33.5278ZM147.487 34.6114C148.054 34.6273 148.618 34.5261 149.144 34.314C149.552 34.1516 149.905 33.875 150.16 33.5172C150.382 33.1878 150.498 32.7987 150.493 32.4017C150.516 31.9857 150.382 31.5764 150.117 31.2543C149.869 30.9738 149.557 30.757 149.208 30.6221C148.765 30.4576 148.31 30.3245 147.848 30.2237C147.444 30.1246 147.126 30.0361 146.892 29.9581C146.68 29.8925 146.483 29.784 146.314 29.6394C146.239 29.5752 146.18 29.4951 146.14 29.4051C146.101 29.315 146.082 29.2172 146.085 29.1189C146.083 28.9727 146.119 28.8285 146.188 28.7001C146.258 28.5718 146.36 28.4635 146.484 28.3858C146.853 28.1757 147.276 28.0795 147.699 28.1096C148.048 28.1119 148.395 28.1619 148.73 28.2583C149.087 28.3586 149.43 28.505 149.75 28.6939L150.185 27.6209C149.837 27.3953 149.452 27.2301 149.049 27.1322C148.611 27.0192 148.162 26.9621 147.71 26.9622C147.145 26.9459 146.583 27.0472 146.059 27.2597C145.652 27.4235 145.301 27.7022 145.05 28.0618C144.828 28.3932 144.711 28.7838 144.714 29.1826C144.691 29.6039 144.826 30.0187 145.092 30.3459C145.336 30.628 145.647 30.8452 145.995 30.9781C146.444 31.1422 146.904 31.2771 147.37 31.3818C147.774 31.4809 148.092 31.5694 148.326 31.6474C148.54 31.714 148.737 31.8243 148.906 31.9714C148.98 32.0373 149.039 32.1185 149.078 32.2093C149.117 32.3001 149.136 32.3984 149.134 32.4973C149.134 32.6398 149.096 32.7798 149.024 32.903C148.953 33.0262 148.85 33.1282 148.726 33.1985C148.346 33.4007 147.917 33.4927 147.487 33.4641C147.033 33.4628 146.583 33.3856 146.155 33.2357C145.75 33.1044 145.37 32.905 145.033 32.646L144.555 33.719C144.929 34.0207 145.361 34.2413 145.825 34.3671C146.364 34.5307 146.924 34.613 147.487 34.6114ZM154.764 33.2516C154.551 33.4126 154.288 33.4951 154.021 33.4853C153.913 33.4927 153.806 33.477 153.705 33.4395C153.604 33.4019 153.513 33.3433 153.436 33.2675C153.291 33.0902 153.219 32.8641 153.234 32.6354V29.9369H154.754V28.8745H153.234V27.5784H151.906V28.8745H150.972V29.9369H151.906V32.6673C151.906 33.2905 152.076 33.7651 152.416 34.0909C152.815 34.4377 153.334 34.6133 153.861 34.5796C154.1 34.5809 154.339 34.5487 154.569 34.484C154.776 34.4285 154.969 34.3308 155.136 34.1971L154.764 33.2516ZM158.578 34.5796C159.122 34.5884 159.659 34.4606 160.14 34.2077C160.59 33.9705 160.964 33.6115 161.219 33.1719C161.473 32.7124 161.606 32.1961 161.606 31.6713C161.606 31.1464 161.473 30.6301 161.219 30.1706C160.962 29.7334 160.589 29.3765 160.14 29.1401C159.658 28.8956 159.124 28.7683 158.584 28.7683C158.043 28.7683 157.51 28.8956 157.027 29.1401C156.579 29.376 156.206 29.7331 155.95 30.1706C155.695 30.6297 155.561 31.1461 155.561 31.6713C155.561 32.1964 155.695 32.7128 155.95 33.1719C156.204 33.6119 156.578 33.971 157.027 34.2077C157.505 34.4598 158.038 34.5877 158.578 34.5796ZM158.578 33.4428C158.354 33.4501 158.132 33.4104 157.924 33.3262C157.717 33.2421 157.529 33.1153 157.374 32.9541C157.068 32.5956 156.9 32.1398 156.9 31.6686C156.9 31.1974 157.068 30.7416 157.374 30.3831C157.529 30.222 157.717 30.0952 157.924 30.011C158.132 29.9269 158.354 29.8871 158.578 29.8944C158.803 29.8875 159.027 29.9274 159.235 30.0115C159.444 30.0957 159.632 30.2222 159.789 30.3831C160.098 30.7404 160.268 31.1966 160.268 31.6686C160.268 32.1406 160.098 32.5968 159.789 32.9541C159.632 33.1151 159.444 33.2416 159.235 33.3257C159.027 33.4099 158.803 33.4497 158.578 33.4428ZM165.473 34.5796C165.982 34.5901 166.485 34.4713 166.935 34.2343C167.348 34.0124 167.683 33.6695 167.896 33.2516L166.876 32.6566C166.728 32.9038 166.518 33.1074 166.266 33.2463C165.938 33.4142 165.566 33.4767 165.201 33.4254C164.835 33.3741 164.495 33.2113 164.226 32.9594C163.913 32.6021 163.741 32.1429 163.741 31.6678C163.742 31.1927 163.916 30.7341 164.23 30.3778C164.499 30.126 164.838 29.9632 165.203 29.9119C165.567 29.8605 165.938 29.9231 166.266 30.0909C166.518 30.23 166.728 30.4335 166.876 30.6806L167.896 30.0856C167.69 29.6678 167.358 29.3257 166.946 29.1082C166.491 28.8741 165.985 28.7572 165.473 28.7683C164.921 28.7581 164.376 28.8859 163.886 29.1401C163.434 29.3756 163.056 29.7324 162.796 30.1706C162.538 30.6288 162.403 31.1456 162.403 31.6713C162.403 32.1969 162.538 32.7137 162.796 33.1719C163.056 33.6132 163.435 33.9722 163.89 34.2077C164.379 34.4609 164.923 34.5886 165.473 34.5796ZM173.261 34.5052H174.875L172.283 31.2118L174.652 28.832H173.059L170.307 31.3818V26.6222H168.979V34.5052H170.307V33.0072L171.295 32.0723L173.261 34.5052ZM178.679 34.5052H179.433V28.917H178.679V34.5052ZM179.061 27.6952C179.134 27.6963 179.207 27.6828 179.274 27.6554C179.342 27.628 179.403 27.5874 179.454 27.5359C179.506 27.4843 179.547 27.423 179.574 27.3555C179.601 27.288 179.615 27.2156 179.614 27.1428C179.614 27.074 179.6 27.0058 179.573 26.9427C179.545 26.8795 179.505 26.8229 179.454 26.7763C179.402 26.7258 179.341 26.6861 179.273 26.6597C179.206 26.6332 179.134 26.6205 179.061 26.6222C178.988 26.6206 178.916 26.6339 178.848 26.6613C178.781 26.6887 178.719 26.7296 178.668 26.7816C178.618 26.8294 178.578 26.8871 178.55 26.951C178.523 27.015 178.509 27.0839 178.509 27.1534C178.508 27.2247 178.522 27.2954 178.549 27.3612C178.576 27.4269 178.617 27.4864 178.668 27.5359C178.719 27.5878 178.781 27.6288 178.848 27.6562C178.916 27.6836 178.988 27.6969 179.061 27.6952ZM184.373 28.8745C183.934 28.8648 183.499 28.9614 183.105 29.156C182.75 29.3339 182.454 29.6082 182.249 29.9475V28.917H181.526V34.5052H182.28V31.573C182.265 31.3033 182.304 31.0333 182.394 30.7788C182.485 30.5243 182.625 30.2904 182.807 30.0909C182.996 29.9081 183.22 29.7661 183.465 29.6738C183.711 29.5815 183.973 29.5409 184.235 29.5544C184.463 29.5399 184.691 29.573 184.905 29.6517C185.119 29.7304 185.314 29.8528 185.478 30.0113C185.769 30.316 185.915 30.7586 185.914 31.3393V34.5052H186.668V31.2649C186.668 30.4858 186.461 29.8926 186.048 29.4854C185.824 29.2766 185.56 29.115 185.272 29.0101C184.985 28.9052 184.679 28.859 184.373 28.8745ZM188.708 34.5052H189.462V28.917H188.708V34.5052ZM189.09 27.6952C189.163 27.6963 189.236 27.6828 189.303 27.6554C189.371 27.628 189.432 27.5874 189.483 27.5359C189.535 27.4843 189.576 27.423 189.603 27.3555C189.63 27.288 189.644 27.2156 189.643 27.1428C189.643 27.074 189.629 27.0058 189.602 26.9427C189.574 26.8795 189.534 26.8229 189.483 26.7763C189.431 26.7258 189.37 26.6861 189.302 26.6597C189.235 26.6332 189.163 26.6205 189.09 26.6222C189.017 26.6206 188.945 26.6339 188.877 26.6613C188.81 26.6887 188.748 26.7296 188.697 26.7816C188.647 26.8294 188.607 26.8871 188.579 26.951C188.552 27.015 188.538 27.0839 188.538 27.1534C188.537 27.2247 188.551 27.2954 188.578 27.3612C188.605 27.4269 188.646 27.4864 188.697 27.5359C188.748 27.5878 188.81 27.6288 188.877 27.6562C188.945 27.6836 189.017 27.6969 189.09 27.6952ZM194.232 33.6234C194.122 33.718 193.994 33.7901 193.856 33.8359C193.711 33.8854 193.558 33.9105 193.404 33.9103C193.273 33.9191 193.141 33.9005 193.018 33.8557C192.895 33.8109 192.782 33.7408 192.688 33.65C192.507 33.4398 192.417 33.1667 192.437 32.8904V29.5544H194.137V28.917H192.437V27.6952H191.683V28.917H190.684V29.5544H191.683V32.9329C191.66 33.1529 191.686 33.3754 191.76 33.5838C191.834 33.7922 191.954 33.9814 192.111 34.1373C192.268 34.2933 192.458 34.412 192.667 34.4849C192.876 34.5578 193.099 34.5829 193.319 34.5583C193.541 34.559 193.762 34.5249 193.973 34.4574C194.167 34.3982 194.346 34.2986 194.498 34.1652L194.232 33.6234ZM195.858 34.5052H196.612V28.917H195.858V34.5052ZM196.24 27.6952C196.313 27.6963 196.385 27.6828 196.453 27.6554C196.52 27.628 196.582 27.5874 196.633 27.5359C196.685 27.4843 196.726 27.423 196.753 27.3555C196.78 27.288 196.794 27.2156 196.793 27.1428C196.793 27.074 196.779 27.0058 196.752 26.9427C196.724 26.8795 196.684 26.8229 196.633 26.7763C196.581 26.7258 196.52 26.6861 196.452 26.6597C196.385 26.6332 196.313 26.6205 196.24 26.6222C196.167 26.6206 196.095 26.6339 196.027 26.6613C195.96 26.6887 195.898 26.7296 195.847 26.7816C195.797 26.8294 195.756 26.8871 195.729 26.951C195.702 27.015 195.688 27.0839 195.688 27.1534C195.687 27.2247 195.701 27.2954 195.728 27.3612C195.755 27.4269 195.796 27.4864 195.847 27.5359C195.898 27.5878 195.96 27.6288 196.027 27.6562C196.095 27.6836 196.167 27.6969 196.24 27.6952ZM200.66 28.8745C200.234 28.8725 199.811 28.9388 199.406 29.071C199.033 29.1888 198.687 29.3782 198.386 29.6288L198.726 30.1919C198.973 29.9792 199.258 29.8152 199.566 29.7085C199.893 29.5913 200.238 29.5319 200.585 29.5332C201.012 29.5032 201.435 29.6382 201.765 29.9103C201.906 30.0547 202.015 30.2274 202.084 30.4169C202.154 30.6064 202.183 30.8085 202.168 31.0099V31.3499H200.394C199.644 31.3499 199.096 31.4952 198.754 31.7855C198.586 31.9246 198.452 32.1003 198.363 32.2992C198.273 32.4981 198.23 32.7149 198.238 32.9329C198.231 33.159 198.277 33.3835 198.373 33.5884C198.469 33.7932 198.612 33.9726 198.79 34.1121C199.219 34.4289 199.745 34.5866 200.277 34.5583C200.683 34.5686 201.085 34.485 201.452 34.314C201.764 34.1671 202.024 33.9303 202.2 33.634V34.5052H202.923V31.0418C202.923 30.3266 202.728 29.7865 202.338 29.4216C201.95 29.057 201.389 28.8745 200.66 28.8745ZM200.394 33.9634C200.026 33.9855 199.66 33.8867 199.353 33.6819C199.233 33.5937 199.136 33.4773 199.071 33.343C199.006 33.2088 198.976 33.0606 198.981 32.9116C198.981 32.2458 199.459 31.913 200.416 31.913H202.168V32.8266C202.037 33.1731 201.799 33.4689 201.489 33.6712C201.16 33.8728 200.78 33.9743 200.394 33.9634ZM207.64 33.6234C207.529 33.718 207.402 33.7901 207.264 33.8359C207.118 33.8854 206.965 33.9105 206.811 33.9103C206.68 33.9191 206.549 33.9005 206.426 33.8557C206.302 33.8109 206.19 33.7408 206.095 33.65C205.915 33.4398 205.824 33.1667 205.844 32.8904V29.5544H207.544V28.917H205.844V27.6952H205.09V28.917H204.091V29.5544H205.09V32.9329C205.067 33.1529 205.094 33.3754 205.168 33.5838C205.242 33.7922 205.362 33.9814 205.519 34.1373C205.676 34.2933 205.866 34.412 206.075 34.4849C206.284 34.5578 206.506 34.5829 206.726 34.5583C206.948 34.559 207.169 34.5249 207.381 34.4574C207.574 34.3982 207.753 34.2986 207.905 34.1652L207.64 33.6234ZM209.265 34.5052H210.02V28.917H209.265V34.5052ZM209.648 27.6952C209.721 27.6963 209.793 27.6828 209.86 27.6554C209.928 27.628 209.989 27.5874 210.041 27.5359C210.092 27.4843 210.133 27.423 210.16 27.3555C210.188 27.288 210.201 27.2156 210.2 27.1428C210.201 27.074 210.187 27.0058 210.159 26.9427C210.132 26.8795 210.091 26.8229 210.041 26.7763C209.989 26.7258 209.927 26.6861 209.86 26.6597C209.792 26.6332 209.72 26.6205 209.648 26.6222C209.575 26.6206 209.502 26.6339 209.435 26.6613C209.367 26.6887 209.306 26.7296 209.255 26.7816C209.204 26.8294 209.164 26.8871 209.137 26.951C209.109 27.015 209.095 27.0839 209.095 27.1534C209.094 27.2247 209.108 27.2954 209.135 27.3612C209.163 27.4269 209.203 27.4864 209.255 27.5359C209.306 27.5878 209.367 27.6288 209.435 27.6562C209.502 27.6836 209.575 27.6969 209.648 27.6952ZM216.065 28.917L213.95 33.6765L211.858 28.917H211.071L213.547 34.5052H214.322L216.808 28.917H216.065ZM222.577 31.7111C222.587 31.1988 222.466 30.6925 222.227 30.2397C222.003 29.8223 221.668 29.4748 221.26 29.2357C220.833 28.9988 220.354 28.8745 219.866 28.8745C219.378 28.8745 218.898 28.9988 218.472 29.2357C218.059 29.4748 217.72 29.8243 217.495 30.245C217.252 30.6951 217.129 31.1999 217.138 31.7111C217.129 32.2242 217.257 32.7303 217.509 33.1772C217.754 33.6056 218.113 33.9571 218.546 34.1918C219.014 34.4426 219.539 34.5688 220.07 34.5583C220.491 34.5633 220.908 34.4839 221.298 34.3246C221.658 34.1768 221.977 33.9435 222.227 33.6447L221.802 33.156C221.595 33.393 221.337 33.5801 221.047 33.7031C220.744 33.8294 220.419 33.8927 220.091 33.889C219.532 33.9093 218.985 33.7177 218.561 33.3525C218.361 33.1747 218.199 32.9585 218.084 32.7167C217.969 32.4748 217.903 32.2124 217.892 31.9448H222.566L222.577 31.7111ZM219.868 29.5226C220.374 29.5074 220.865 29.6926 221.234 30.0378C221.603 30.3915 221.825 30.8716 221.855 31.3818H217.892C217.922 30.8711 218.144 30.3907 218.514 30.0378C218.88 29.6938 219.366 29.5086 219.868 29.5226ZM224.181 34.5583C224.257 34.5591 224.331 34.5444 224.401 34.5152C224.47 34.4859 224.533 34.4428 224.585 34.3883C224.64 34.3345 224.684 34.2699 224.713 34.1987C224.742 34.1275 224.756 34.051 224.755 33.974C224.757 33.8978 224.742 33.822 224.713 33.7516C224.684 33.6812 224.64 33.6176 224.585 33.565C224.532 33.512 224.469 33.4701 224.4 33.4418C224.33 33.4135 224.256 33.3994 224.181 33.4003C224.107 33.3991 224.034 33.413 223.966 33.4414C223.897 33.4697 223.835 33.5118 223.784 33.565C223.73 33.6182 223.687 33.6819 223.659 33.7523C223.63 33.8226 223.616 33.8981 223.618 33.974C223.617 34.0507 223.631 34.1269 223.659 34.198C223.687 34.2692 223.73 34.334 223.784 34.3883C223.835 34.4429 223.896 34.4863 223.965 34.5156C224.033 34.5449 224.107 34.5594 224.181 34.5583Z" fill="#BCC5D3"/>
</svg>
