<svg width="44" height="44" viewBox="0 0 44 44" fill="none" xmlns="http://www.w3.org/2000/svg">
<rect width="44" height="44" rx="22" fill="#23272B"/>
<path fill-rule="evenodd" clip-rule="evenodd" d="M17.875 10.4326H26.125C29.9214 10.4326 33 13.67 33 17.6622V26.3376C33 30.3298 29.9214 33.5672 26.125 33.5672H17.875C14.0786 33.5672 11 30.3298 11 26.3376V17.6622C11 13.67 14.0786 10.4326 17.875 10.4326ZM26.125 31.3983C28.7787 31.3983 30.9375 29.1283 30.9375 26.3376V17.6622C30.9375 14.8716 28.7787 12.6015 26.125 12.6015H17.875C15.2213 12.6015 13.0625 14.8716 13.0625 17.6622V26.3376C13.0625 29.1283 15.2213 31.3983 17.875 31.3983H26.125Z" fill="white"/>
<path fill-rule="evenodd" clip-rule="evenodd" d="M16.5 21.9995C16.5 18.8054 18.9626 16.2158 22 16.2158C25.0374 16.2158 27.5 18.8054 27.5 21.9995C27.5 25.1935 25.0374 27.7831 22 27.7831C18.9626 27.7831 16.5 25.1935 16.5 21.9995ZM18.5625 21.9995C18.5625 23.9919 20.1052 25.6143 22 25.6143C23.8948 25.6143 25.4375 23.9919 25.4375 21.9995C25.4375 20.0055 23.8948 18.3847 22 18.3847C20.1052 18.3847 18.5625 20.0055 18.5625 21.9995Z" fill="white"/>
<ellipse cx="27.9126" cy="15.7824" rx="0.73291" ry="0.770676" fill="white"/>
</svg>
