<svg width="200" height="75" viewBox="0 0 200 75" fill="none" xmlns="http://www.w3.org/2000/svg">
<path d="M35.1147 51.2625C35.1147 49.3517 35.5036 47.6853 36.2812 46.2633C37.0589 44.8191 38.1365 43.7081 39.514 42.9305C40.8916 42.1306 42.4691 41.7307 44.2466 41.7307C46.5351 41.7307 48.4237 42.3084 49.9123 43.4637C51.1413 44.3855 52.0395 45.6159 52.6069 47.155C52.8107 47.7079 52.3755 48.2629 51.7862 48.2629H48.5666C48.176 48.2629 47.8395 48.0072 47.659 47.6609C47.3896 47.1439 47.0187 46.7224 46.5462 46.3966C45.9241 45.93 45.1464 45.6967 44.2132 45.6967C42.8801 45.6967 41.8248 46.1855 41.0471 47.1631C40.2695 48.1185 39.8806 49.485 39.8806 51.2625C39.8806 53.0177 40.2695 54.3842 41.0471 55.3618C41.8248 56.3172 42.8801 56.7949 44.2132 56.7949C45.8639 56.7949 47.0138 56.1499 47.6631 54.86C47.8375 54.5136 48.1733 54.262 48.5611 54.262H51.7769C52.3691 54.262 52.8044 54.8222 52.5928 55.3753C52.0247 56.8603 51.1312 58.0778 49.9123 59.0278C48.4015 60.2054 46.5129 60.7942 44.2466 60.7942C42.4691 60.7942 40.8916 60.4054 39.514 59.6277C38.1365 58.8279 37.0589 57.7169 36.2812 56.295C35.5036 54.8508 35.1147 53.1733 35.1147 51.2625Z" fill="#F3F5F7"/>
<path d="M64.762 41.764C66.1617 41.764 67.406 42.0751 68.4947 42.6972C69.5834 43.2971 70.4277 44.1969 71.0276 45.3968C71.6497 46.5743 71.9608 47.9963 71.9608 49.6627V59.587C71.9608 60.0881 71.5546 60.4943 71.0535 60.4943H68.2021C67.7011 60.4943 67.2949 60.0881 67.2949 59.587V50.2959C67.2949 48.8295 66.9283 47.7075 66.195 46.9298C65.4618 46.13 64.462 45.73 63.1955 45.73C61.9069 45.73 60.8848 46.13 60.1294 46.9298C59.3962 47.7075 59.0296 48.8295 59.0296 50.2959V59.587C59.0296 60.0881 58.6234 60.4943 58.1223 60.4943H55.2709C54.7699 60.4943 54.3637 60.0881 54.3637 59.587V36.7389C54.3637 36.2379 54.7699 35.8317 55.2709 35.8317H58.1223C58.6234 35.8317 59.0296 36.2379 59.0296 36.7389V44.3303C59.6295 43.5304 60.4293 42.9083 61.4292 42.4639C62.429 41.9973 63.5399 41.764 64.762 41.764Z" fill="#F3F5F7"/>
<path d="M82.5968 60.7942C80.8193 60.7942 79.2196 60.4054 77.7976 59.6277C76.3756 58.8279 75.2535 57.7058 74.4315 56.2616C73.6316 54.8174 73.2317 53.151 73.2317 51.2625C73.2317 49.3739 73.6427 47.7075 74.4648 46.2633C75.3091 44.8191 76.4533 43.7081 77.8975 42.9305C79.3418 42.1306 80.9526 41.7307 82.7301 41.7307C84.5076 41.7307 86.1184 42.1306 87.5626 42.9305C89.0068 43.7081 90.14 44.8191 90.9621 46.2633C91.8064 47.7075 92.2285 49.3739 92.2285 51.2625C92.2285 53.151 91.7953 54.8174 90.9287 56.2616C90.0844 57.7058 88.9291 58.8279 87.4626 59.6277C86.0184 60.4054 84.3965 60.7942 82.5968 60.7942ZM82.5968 56.7282C83.4411 56.7282 84.2298 56.5283 84.9631 56.1283C85.7185 55.7062 86.3184 55.084 86.7628 54.262C87.2071 53.4399 87.4293 52.44 87.4293 51.2625C87.4293 49.5072 86.9627 48.163 86.0295 47.2298C85.1186 46.2744 83.9965 45.7967 82.6634 45.7967C81.3303 45.7967 80.2083 46.2744 79.2973 47.2298C78.4086 48.163 77.9642 49.5072 77.9642 51.2625C77.9642 53.0177 78.3975 54.3731 79.264 55.3284C80.1527 56.2616 81.2637 56.7282 82.5968 56.7282Z" fill="#F3F5F7"/>
<path d="M97.4101 35.8317C97.9112 35.8317 98.3174 36.2379 98.3174 36.7389V59.587C98.3174 60.0881 97.9112 60.4943 97.4101 60.4943H94.5587C94.0577 60.4943 93.6515 60.0881 93.6515 59.587V36.7389C93.6515 36.2379 94.0577 35.8317 94.5587 35.8317H97.4101Z" fill="#F3F5F7"/>
<path d="M99.7278 51.1958C99.7278 49.3294 100.094 47.6742 100.828 46.2299C101.583 44.7857 102.594 43.6748 103.86 42.8972C105.149 42.1195 106.582 41.7307 108.16 41.7307C109.537 41.7307 110.737 42.0084 111.759 42.5639C112.803 43.1193 113.637 43.8192 114.259 44.6635V42.9379C114.259 42.4368 114.665 42.0306 115.166 42.0306H118.051C118.552 42.0306 118.958 42.4368 118.958 42.9379V59.587C118.958 60.0881 118.552 60.4943 118.051 60.4943H115.166C114.665 60.4943 114.259 60.0881 114.259 59.587V57.7947C113.659 58.6612 112.826 59.3833 111.759 59.961C110.715 60.5165 109.504 60.7942 108.126 60.7942C106.571 60.7942 105.149 60.3943 103.86 59.5944C102.594 58.7945 101.583 57.6725 100.828 56.2283C100.094 54.7619 99.7278 53.0844 99.7278 51.1958ZM114.259 51.2625C114.259 50.1293 114.037 49.1628 113.592 48.3629C113.148 47.5408 112.548 46.9187 111.792 46.4966C111.037 46.0522 110.226 45.83 109.36 45.83C108.493 45.83 107.693 46.0411 106.96 46.4632C106.227 46.8854 105.627 47.5075 105.16 48.3296C104.716 49.1295 104.494 50.0849 104.494 51.1958C104.494 52.3067 104.716 53.2843 105.16 54.1286C105.627 54.9507 106.227 55.584 106.96 56.0283C107.715 56.4727 108.515 56.6949 109.36 56.6949C110.226 56.6949 111.037 56.4838 111.792 56.0617C112.548 55.6173 113.148 54.9952 113.592 54.1953C114.037 53.3732 114.259 52.3956 114.259 51.2625Z" fill="#F3F5F7"/>
<path d="M126.181 44.8968C126.781 43.9192 127.559 43.1527 128.514 42.5972C129.248 42.1802 130.057 41.9197 130.942 41.8157C131.439 41.7573 131.847 42.1702 131.847 42.6713V45.756C131.847 46.257 131.441 46.6632 130.94 46.6632H130.614C129.147 46.6632 128.037 47.0076 127.281 47.6964C126.548 48.3851 126.181 49.585 126.181 51.2958V59.587C126.181 60.0881 125.775 60.4943 125.274 60.4943H122.423C121.922 60.4943 121.515 60.0881 121.515 59.587V42.9379C121.515 42.4368 121.922 42.0306 122.423 42.0306H125.274C125.775 42.0306 126.181 42.4368 126.181 42.9379V44.8968Z" fill="#F3F5F7"/>
<path d="M140.056 60.7942C138.545 60.7942 137.189 60.5276 135.99 59.9944C134.79 59.4389 133.834 58.6946 133.123 57.7614C132.435 56.8282 132.057 55.795 131.99 54.6619H136.689C136.778 55.3729 137.123 55.9617 137.723 56.4283C138.345 56.8949 139.111 57.1282 140.022 57.1282C140.911 57.1282 141.6 56.9504 142.089 56.5949C142.6 56.2394 142.855 55.7839 142.855 55.2285C142.855 54.6286 142.544 54.1842 141.922 53.8954C141.322 53.5843 140.355 53.251 139.022 52.8955C137.645 52.5622 136.512 52.2179 135.623 51.8624C134.756 51.5069 134.001 50.9625 133.357 50.2293C132.735 49.4961 132.423 48.5073 132.423 47.2631C132.423 46.2411 132.712 45.3079 133.29 44.4636C133.89 43.6193 134.734 42.9527 135.823 42.4639C136.934 41.9751 138.234 41.7307 139.722 41.7307C141.922 41.7307 143.677 42.2862 144.988 43.3971C146.299 44.4858 147.021 45.9633 147.154 47.8297H142.688C142.622 47.0965 142.311 46.5188 141.755 46.0966C141.222 45.6523 140.5 45.4301 139.589 45.4301C138.745 45.4301 138.089 45.5856 137.623 45.8967C137.178 46.2077 136.956 46.641 136.956 47.1965C136.956 47.8186 137.267 48.2963 137.889 48.6296C138.511 48.9406 139.478 49.2628 140.789 49.5961C142.122 49.9293 143.222 50.2737 144.088 50.6292C144.955 50.9847 145.699 51.5402 146.321 52.2956C146.966 53.0288 147.299 54.0064 147.321 55.2285C147.321 56.295 147.021 57.2504 146.421 58.0947C145.843 58.939 144.999 59.6055 143.888 60.0943C142.8 60.5609 141.522 60.7942 140.056 60.7942Z" fill="#F3F5F7"/>
<path d="M159.55 41.764C160.95 41.764 162.194 42.0751 163.282 42.6972C164.371 43.2971 165.215 44.1969 165.815 45.3968C166.437 46.5743 166.749 47.9963 166.749 49.6627V59.587C166.749 60.0881 166.342 60.4943 165.841 60.4943H162.99C162.489 60.4943 162.083 60.0881 162.083 59.587V50.2959C162.083 48.8295 161.716 47.7075 160.983 46.9298C160.25 46.13 159.25 45.73 157.983 45.73C156.695 45.73 155.673 46.13 154.917 46.9298C154.184 47.7075 153.817 48.8295 153.817 50.2959V59.587C153.817 60.0881 153.411 60.4943 152.91 60.4943H150.059C149.558 60.4943 149.151 60.0881 149.151 59.587V36.7389C149.151 36.2379 149.558 35.8317 150.059 35.8317H152.91C153.411 35.8317 153.817 36.2379 153.817 36.7389V44.3303C154.417 43.5304 155.217 42.9083 156.217 42.4639C157.217 41.9973 158.328 41.764 159.55 41.764Z" fill="#F3F5F7"/>
<path d="M171.552 39.831C170.73 39.831 170.041 39.5755 169.486 39.0645C168.953 38.5312 168.686 37.8758 168.686 37.0981C168.686 36.3205 168.953 35.6761 169.486 35.1651C170.041 34.6319 170.73 34.3652 171.552 34.3652C172.374 34.3652 173.052 34.6319 173.585 35.1651C174.141 35.6761 174.418 36.3205 174.418 37.0981C174.418 37.8758 174.141 38.5312 173.585 39.0645C173.052 39.5755 172.374 39.831 171.552 39.831ZM172.945 42.0306C173.446 42.0306 173.852 42.4368 173.852 42.9379V59.587C173.852 60.0881 173.446 60.4943 172.945 60.4943H170.093C169.592 60.4943 169.186 60.0881 169.186 59.587V42.9379C169.186 42.4368 169.592 42.0306 170.093 42.0306H172.945Z" fill="#F3F5F7"/>
<path d="M181.128 44.6969C181.728 43.8526 182.55 43.1527 183.594 42.5972C184.661 42.0195 185.872 41.7307 187.227 41.7307C188.804 41.7307 190.226 42.1195 191.493 42.8972C192.782 43.6748 193.793 44.7857 194.526 46.2299C195.281 47.6519 195.659 49.3072 195.659 51.1958C195.659 53.0844 195.281 54.7619 194.526 56.2283C193.793 57.6725 192.782 58.7945 191.493 59.5944C190.226 60.3943 188.804 60.7942 187.227 60.7942C185.872 60.7942 184.672 60.5165 183.628 59.961C182.605 59.4056 181.772 58.7057 181.128 57.8614V68.3856C181.128 68.8866 180.722 69.2928 180.221 69.2928H177.369C176.868 69.2928 176.462 68.8866 176.462 68.3856V42.9379C176.462 42.4368 176.868 42.0306 177.369 42.0306H180.221C180.722 42.0306 181.128 42.4368 181.128 42.9379V44.6969ZM190.893 51.1958C190.893 50.0849 190.66 49.1295 190.193 48.3296C189.749 47.5075 189.149 46.8854 188.393 46.4632C187.66 46.0411 186.86 45.83 185.994 45.83C185.15 45.83 184.35 46.0522 183.594 46.4966C182.861 46.9187 182.261 47.5408 181.795 48.3629C181.35 49.185 181.128 50.1515 181.128 51.2625C181.128 52.3734 181.35 53.3399 181.795 54.162C182.261 54.9841 182.861 55.6173 183.594 56.0617C184.35 56.4838 185.15 56.6949 185.994 56.6949C186.86 56.6949 187.66 56.4727 188.393 56.0283C189.149 55.584 189.749 54.9507 190.193 54.1286C190.66 53.3066 190.893 52.3289 190.893 51.1958Z" fill="#F3F5F7"/>
<path d="M59.8726 31.5635C58.807 31.5635 57.8436 31.3811 56.9824 31.0162C56.1358 30.6512 55.4643 30.1257 54.968 29.4397C54.6414 28.9882 54.4191 28.483 54.3011 27.924C54.1965 27.4283 54.6166 27.0093 55.1232 27.0093H56.6398C57.1164 27.0093 57.4862 27.3922 57.6736 27.8304C57.7836 28.0878 57.94 28.3104 58.1429 28.4982C58.5516 28.8631 59.1063 29.0456 59.8069 29.0456C60.5222 29.0456 61.0842 28.8777 61.4929 28.542C61.9016 28.1916 62.106 27.7391 62.106 27.1844C62.106 26.7319 61.9673 26.3597 61.6899 26.0678C61.4126 25.7758 61.0623 25.5496 60.639 25.389C60.2302 25.2138 59.661 25.0241 58.9311 24.8197C57.9385 24.5278 57.1284 24.2431 56.5007 23.9658C55.8876 23.6738 55.3548 23.2432 54.9023 22.6739C54.4644 22.0901 54.2455 21.3164 54.2455 20.353C54.2455 19.448 54.4717 18.6597 54.9242 17.9883C55.3767 17.3168 56.0117 16.8059 56.8291 16.4556C57.6466 16.0907 58.5808 15.9082 59.6318 15.9082C61.2082 15.9082 62.4855 16.295 63.4635 17.0687C64.2102 17.6397 64.705 18.3842 64.9478 19.3023C65.0827 19.8123 64.6559 20.2654 64.1283 20.2654H62.592C62.1105 20.2654 61.7398 19.8627 61.4876 19.4526C61.3789 19.2758 61.2347 19.1161 61.055 18.9736C60.6463 18.6233 60.0989 18.4481 59.4128 18.4481C58.8143 18.4481 58.3326 18.6014 57.9677 18.9079C57.6174 19.2144 57.4422 19.6596 57.4422 20.2435C57.4422 20.6522 57.5736 20.9953 57.8363 21.2726C58.1137 21.5354 58.4494 21.7543 58.8435 21.9295C59.2522 22.0901 59.8215 22.2798 60.5514 22.4988C61.544 22.7907 62.3541 23.0827 62.9818 23.3746C63.6095 23.6665 64.1496 24.1044 64.6021 24.6883C65.0546 25.2722 65.2808 26.0386 65.2808 26.9874C65.2808 27.8048 65.0692 28.5638 64.6459 29.2645C64.2225 29.9652 63.6022 30.5272 62.7847 30.9505C61.9673 31.3592 60.9966 31.5635 59.8726 31.5635Z" fill="#F3F5F7"/>
<path d="M77.9009 25.0825C77.9009 25.5204 77.8717 25.9145 77.8133 26.2648H68.9456C69.0186 27.1406 69.3251 27.8267 69.8652 28.323C70.4053 28.8193 71.0695 29.0674 71.8577 29.0674C72.7908 29.0674 73.5033 28.739 73.9952 28.0822C74.2024 27.8056 74.507 27.6004 74.8526 27.6004H76.375C76.9827 27.6004 77.4186 28.1914 77.1243 28.7231C76.7491 29.4011 76.2343 29.9903 75.58 30.4907C74.5874 31.2351 73.3685 31.6073 71.9234 31.6073C70.7556 31.6073 69.7046 31.3519 68.7704 30.841C67.8508 30.3155 67.1283 29.5783 66.6028 28.6295C66.0919 27.6807 65.8364 26.5859 65.8364 25.3452C65.8364 24.0899 66.0919 22.9878 66.6028 22.039C67.1137 21.0902 67.8289 20.3603 68.7485 19.8494C69.6682 19.3385 70.7264 19.0831 71.9234 19.0831C73.0766 19.0831 74.1057 19.3312 75.0107 19.8275C75.9303 20.3238 76.6382 21.0318 77.1345 21.9514C77.6454 22.8564 77.9009 23.9001 77.9009 25.0825ZM74.726 24.2066C74.7114 23.4184 74.4268 22.7907 73.8721 22.3236C73.3174 21.8419 72.6387 21.6011 71.8358 21.6011C71.0768 21.6011 70.4345 21.8346 69.909 22.3017C69.3981 22.7542 69.0843 23.3892 68.9675 24.2066H74.726Z" fill="#F3F5F7"/>
<path d="M78.0364 25.3452C78.0364 24.0899 78.2918 22.9951 78.8027 22.0609C79.3136 21.1121 80.0216 20.3822 80.9266 19.8713C81.8316 19.3458 82.868 19.0831 84.0358 19.0831C85.5393 19.0831 86.78 19.4626 87.758 20.2216C88.4648 20.7518 89.0051 21.4373 89.3789 22.2783C89.6182 22.8168 89.1808 23.3746 88.5915 23.3746H87.0982C86.7077 23.3746 86.3769 23.1133 86.165 22.7852C86.0018 22.5325 85.7957 22.3203 85.5466 22.1484C85.1378 21.8419 84.6269 21.6886 84.0139 21.6886C83.138 21.6886 82.4447 22.0098 81.9338 22.652C81.4229 23.2797 81.1674 24.1774 81.1674 25.3452C81.1674 26.4984 81.4229 27.3961 81.9338 28.0384C82.4447 28.666 83.138 28.9799 84.0139 28.9799C85.0119 28.9799 85.7313 28.621 86.1721 27.9032C86.3751 27.5726 86.7049 27.3158 87.0928 27.3158H88.5822C89.1744 27.3158 89.6114 27.8787 89.3637 28.4166C88.9905 29.2266 88.4553 29.9034 87.758 30.4469C86.7654 31.2205 85.5247 31.6073 84.0358 31.6073C82.868 31.6073 81.8316 31.3519 80.9266 30.841C80.0216 30.3155 79.3136 29.5856 78.8027 28.6514C78.2918 27.7026 78.0364 26.6005 78.0364 25.3452Z" fill="#F3F5F7"/>
<path d="M101.227 19.2801C101.728 19.2801 102.134 19.6863 102.134 20.1874V30.503C102.134 31.0041 101.728 31.4103 101.227 31.4103H99.9538C99.4527 31.4103 99.0465 31.0041 99.0465 30.503V29.8776C98.6524 30.4031 98.1342 30.8191 97.492 31.1256C96.8643 31.4176 96.1782 31.5635 95.4338 31.5635C94.485 31.5635 93.6456 31.3665 92.9158 30.9724C92.1859 30.5636 91.6093 29.9725 91.186 29.1988C90.7773 28.4106 90.573 27.4764 90.573 26.3962V20.1874C90.573 19.6863 90.9791 19.2801 91.4802 19.2801H92.7311C93.2321 19.2801 93.6383 19.6863 93.6383 20.1874V25.9583C93.6383 26.9217 93.8792 27.6661 94.3609 28.1916C94.8426 28.7025 95.4995 28.958 96.3315 28.958C97.1781 28.958 97.8423 28.7025 98.324 28.1916C98.8057 27.6661 99.0465 26.9217 99.0465 25.9583V20.1874C99.0465 19.6863 99.4527 19.2801 99.9538 19.2801H101.227Z" fill="#F3F5F7"/>
<path d="M106.91 21.1631C107.304 20.5209 107.815 20.0173 108.443 19.6523C108.838 19.4275 109.267 19.2719 109.73 19.1856C110.222 19.0936 110.632 19.5112 110.632 20.0122V21.5135C110.632 21.9609 110.27 22.3236 109.822 22.3236C108.859 22.3236 108.129 22.5499 107.633 23.0024C107.151 23.4549 106.91 24.2431 106.91 25.3671V30.503C106.91 31.0041 106.504 31.4103 106.003 31.4103H104.752C104.251 31.4103 103.845 31.0041 103.845 30.503V20.1874C103.845 19.6863 104.251 19.2801 104.752 19.2801H106.003C106.504 19.2801 106.91 19.6863 106.91 20.1874V21.1631Z" fill="#F3F5F7"/>
<path d="M122.659 25.0825C122.659 25.5204 122.63 25.9145 122.572 26.2648H113.704C113.777 27.1406 114.084 27.8267 114.624 28.323C115.164 28.8193 115.828 29.0674 116.616 29.0674C117.755 29.0674 118.565 28.5784 119.047 27.6004H122.353C122.003 28.7682 121.331 29.7316 120.338 30.4907C119.346 31.2351 118.127 31.6073 116.682 31.6073C115.514 31.6073 114.463 31.3519 113.529 30.841C112.609 30.3155 111.887 29.5783 111.361 28.6295C110.85 27.6807 110.595 26.5859 110.595 25.3452C110.595 24.0899 110.85 22.9878 111.361 22.039C111.872 21.0902 112.587 20.3603 113.507 19.8494C114.427 19.3385 115.485 19.0831 116.682 19.0831C117.835 19.0831 118.864 19.3312 119.769 19.8275C120.689 20.3238 121.397 21.0318 121.893 21.9514C122.404 22.8564 122.659 23.9001 122.659 25.0825ZM119.485 24.2066C119.47 23.4184 119.185 22.7907 118.631 22.3236C118.076 21.8419 117.397 21.6011 116.594 21.6011C115.835 21.6011 115.193 21.8346 114.668 22.3017C114.157 22.7542 113.843 23.3892 113.726 24.2066H119.485Z" fill="#F3F5F7"/>
<path d="M139.338 16.1272C139.839 16.1272 140.246 16.5334 140.246 17.0344V30.503C140.246 31.0041 139.839 31.4103 139.338 31.4103H138.088C137.586 31.4103 137.18 31.0041 137.18 30.503V21.4697L133.317 30.8485C133.177 31.1884 132.846 31.4103 132.478 31.4103H131.371C131.004 31.4103 130.673 31.1892 130.533 30.8501L126.648 21.4697V30.503C126.648 31.0041 126.242 31.4103 125.741 31.4103H124.49C123.989 31.4103 123.583 31.0041 123.583 30.503V17.0344C123.583 16.5334 123.989 16.1272 124.49 16.1272H126.466C126.829 16.1272 127.157 16.3437 127.3 16.6776L131.925 27.491L136.551 16.6776C136.694 16.3437 137.022 16.1272 137.385 16.1272H139.338Z" fill="#F3F5F7"/>
<path d="M152.202 19.2801C152.85 19.2801 153.289 19.941 153.038 20.5389L146.291 36.5912C146.149 36.9279 145.819 37.1469 145.454 37.1469H144.178C143.525 37.1469 143.086 36.4771 143.346 35.8779L145.422 31.1037L141.076 20.5324C140.831 19.9353 141.27 19.2801 141.915 19.2801H143.367C143.747 19.2801 144.086 19.5167 144.218 19.8729L147.13 27.7537L150.084 19.8691C150.217 19.5148 150.555 19.2801 150.934 19.2801H152.202Z" fill="#F3F5F7"/>
<path d="M15.8669 66.1527C15.8652 66.1469 15.8651 66.1437 15.8651 66.1427C15.8651 66.1415 15.8652 66.1407 15.8655 66.1397C15.8661 66.1375 15.8682 66.1325 15.8736 66.1268C15.8789 66.1212 15.8839 66.1187 15.8862 66.1179C15.8871 66.1176 15.888 66.1174 15.8891 66.1173C15.8902 66.1172 15.8935 66.1171 15.8997 66.1182L16.2759 66.19L15.8901 66.1706C15.8791 66.1701 15.8699 66.163 15.8669 66.1527Z" fill="#F3F5F7" stroke="#F3F5F7" stroke-width="1.38863"/>
<path d="M26.1727 18.9962C26.1563 19.0078 26.1519 19.0161 26.1498 19.0211C26.1467 19.0285 26.1447 19.0398 26.1473 19.0532C26.1499 19.0666 26.156 19.0763 26.1617 19.0819C26.1655 19.0858 26.1726 19.0918 26.1921 19.0963L31.8632 20.4094L31.7347 20.2954C31.7241 20.286 31.7108 20.2792 31.696 20.2757L26.2327 18.9845C26.2122 18.9796 26.1898 18.984 26.1727 18.9962Z" fill="#F3F5F7" stroke="#F3F5F7" stroke-width="1.38863"/>
<path d="M24.4755 21.9567C24.5823 21.4626 25.0946 21.1393 25.5862 21.2558L33.8623 23.2158C34.3291 23.3264 34.5932 23.7914 34.4511 24.2524L22.0072 64.6171C21.8666 65.0733 21.3808 65.354 20.9184 65.2463L16.1759 64.1413C15.7357 64.0388 15.4696 63.6184 15.5651 63.1765L24.4755 21.9567Z" stroke="#F3F5F7" stroke-width="1.38863"/>
<path fill-rule="evenodd" clip-rule="evenodd" d="M27.2422 44.4214L25.5022 49.7336L20.286 46.0408L21.359 40.658L27.2422 44.4214ZM23.9921 47.0738C24.9846 46.9841 25.7165 46.1067 25.6267 45.1142C25.537 44.1218 24.6597 43.3899 23.6672 43.4796C22.6747 43.5694 21.9429 44.4467 22.0326 45.4392C22.1223 46.4317 22.9996 47.1635 23.9921 47.0738Z" fill="#F3F5F7"/>
<path d="M21.4576 27.2621C21.0284 27.2947 20.6105 27.3459 20.2037 27.4156C18.0403 27.7995 16.2799 28.6115 14.9224 29.8515C13.6035 31.0682 12.722 32.5738 12.278 34.3681C11.7497 36.5028 11.8701 38.3383 12.639 39.8747C13.4465 41.3878 14.5355 42.6258 15.9059 43.5888C16.5499 44.0348 17.2919 44.5051 18.1319 44.9996L19.3007 38.7659C19.0962 38.5472 18.911 38.3206 18.7451 38.0861C18.2409 37.3376 18.1036 36.4992 18.3333 35.5711C18.6231 34.4 19.306 33.5424 20.382 32.9985L21.4576 27.2621Z" fill="#F3F5F7"/>
<path d="M29.7219 45.1033L27.7599 51.4496C28.1145 52.1127 28.1945 52.8375 27.9999 53.624C27.7683 54.5599 27.2417 55.2797 26.42 55.7836L26.3601 55.9773L26.1638 55.9287C25.9391 56.0462 25.6952 56.1496 25.4321 56.239C24.0651 56.7215 22.1751 56.6641 19.762 56.067C17.8129 55.5847 15.9442 54.7775 14.156 53.6455C13.0587 52.921 12.095 52.152 11.265 51.3387C10.5371 50.6254 9.31738 50.6229 8.69114 51.427L7.39098 53.0962C6.96783 53.6395 6.9433 54.4026 7.39789 54.9198C8.42452 56.088 9.79193 57.1842 11.5001 58.2085C13.6752 59.5019 16.0158 60.4587 18.5217 61.0788C21.3679 61.7832 23.8882 61.9472 26.0826 61.5709C28.2769 61.1947 30.0335 60.3982 31.3524 59.1815C32.7022 57.9724 33.5992 56.4707 34.0432 54.6763C34.5638 52.5726 34.4204 50.7642 33.6129 49.2511C32.8363 47.7456 31.7473 46.5076 30.3459 45.537C30.1469 45.394 29.9389 45.2494 29.7219 45.1033Z" fill="#F3F5F7"/>
<path d="M32.5942 35.813L34.2219 30.5481C35.2521 31.1636 36.166 31.8347 36.9636 32.5615C37.5117 33.0609 37.5524 33.8913 37.1166 34.4912L35.8644 36.2151C35.3046 36.9857 34.194 37.0755 33.4552 36.4744C33.1735 36.2452 32.8864 36.0247 32.5942 35.813Z" fill="#F3F5F7"/>
</svg>
