<svg width="140" height="68" viewBox="0 0 140 68" fill="none" xmlns="http://www.w3.org/2000/svg">
<path d="M0.235539 28.4201C0.684569 27.4263 1.14995 26.1572 1.63167 24.6127C2.13596 23.0745 2.62359 21.4222 3.09455 19.6556C3.58809 17.8953 4.06359 16.0692 4.52106 14.1771C4.97853 12.2851 5.38496 10.4882 5.74035 8.7866C6.10207 7.06242 6.3906 5.51245 6.60594 4.13669C6.84385 2.76726 6.99139 1.67676 7.04855 0.865179C7.28962 0.786722 7.48734 0.732625 7.64173 0.702887C7.82501 0.65691 8.0182 0.662394 8.22131 0.71934C8.37928 0.763632 8.50519 0.835447 8.59905 0.934786C8.69923 1.01156 8.75786 1.1497 8.77494 1.34922C7.98612 5.89895 7.04113 10.4414 5.93995 14.9766C4.86134 19.5181 3.74393 24.0244 2.5877 28.4954C2.53076 28.6985 2.45166 28.9806 2.35043 29.3417C2.25552 29.6802 2.19361 29.8576 2.16472 29.8738C1.80449 29.9432 1.50025 29.9431 1.25201 29.8735C1.0101 29.7813 0.803407 29.6503 0.631938 29.4806C0.466797 29.2882 0.349954 29.0972 0.28141 28.9076C0.212865 28.718 0.197575 28.5555 0.235539 28.4201ZM6.46656 27.0271C6.59964 25.9447 6.80223 24.9184 7.0743 23.948C7.35271 22.955 7.69069 21.9666 8.08826 20.9827C8.5084 20.0051 8.98316 19.0064 9.51254 17.9864C10.0708 16.9502 10.6851 15.8445 11.3554 14.6693C11.425 14.4211 11.556 14.2144 11.7483 14.0493C11.947 13.8616 12.1781 13.7316 12.4418 13.6595C12.7117 13.5648 12.9835 13.5071 13.257 13.4865C13.5306 13.4658 13.7802 13.4871 14.0059 13.5504C14.5024 13.6896 14.9094 13.9741 15.227 14.4039C15.5447 14.8338 15.7982 15.3186 15.9876 15.8586C16.1995 16.4048 16.3456 16.9691 16.4257 17.5514C16.5348 18.1175 16.6176 18.6032 16.6744 19.0086C16.6335 19.8491 16.5045 20.7866 16.2875 21.8211C16.0993 22.8394 15.8259 23.858 15.4671 24.8772C15.1084 25.8963 14.6625 26.8788 14.1295 27.8247C13.6029 28.7481 12.9968 29.564 12.3114 30.2724C11.6259 30.9808 10.843 31.5159 9.96267 31.8776C9.1049 32.2457 8.17184 32.3613 7.16348 32.2247C6.64444 32.0791 6.29696 31.7992 6.12107 31.3847C5.9515 30.9477 5.86861 30.462 5.87241 29.9275C5.90511 29.3769 5.98293 28.8388 6.1059 28.3135C6.25143 27.7944 6.37165 27.3656 6.46656 27.0271ZM8.22142 27.4096C8.15815 27.6353 8.09804 27.8497 8.04109 28.0528C8.00671 28.2622 7.97234 28.4716 7.93796 28.6811C7.93247 28.8743 7.92066 29.09 7.90252 29.3284C7.91328 29.5504 7.92582 29.8096 7.94016 30.1057L8.14327 30.1626C8.68488 30.3145 9.19813 30.2636 9.68301 30.0101C10.1679 29.7566 10.6248 29.3857 11.0538 28.8975C11.4891 28.3867 11.8951 27.8068 12.2718 27.1578C12.6548 26.4863 12.9864 25.8247 13.2665 25.1729C13.5755 24.505 13.8235 23.8808 14.0106 23.3004C14.2266 22.7037 14.3852 22.2249 14.4864 21.8638L14.6762 21.1868C14.7585 20.8934 14.8389 20.563 14.9176 20.1956C15.0026 19.8056 15.065 19.4093 15.1049 19.0067C15.1737 18.5878 15.1959 18.2046 15.1717 17.857C15.1537 17.4869 15.083 17.175 14.9594 16.9212C14.8358 16.6675 14.6273 16.4995 14.3339 16.4173C13.8817 16.1201 13.4435 16.0337 13.0191 16.1582C12.6173 16.2889 12.2277 16.5935 11.8502 17.0718C11.5015 17.5339 11.1632 18.1328 10.8353 18.8684C10.5073 19.6041 10.2023 20.4314 9.92032 21.3503C9.63833 22.2692 9.35181 23.2478 9.06075 24.2858C8.79226 25.3303 8.51248 26.3715 8.22142 27.4096ZM17.0944 30.0069C17.2275 28.9246 17.43 27.8982 17.7021 26.9278C17.9805 25.9348 18.3185 24.9464 18.7161 23.9625C19.1362 22.9849 19.611 21.9862 20.1404 20.9662C20.6986 19.93 21.3129 18.8243 21.9832 17.6492C22.0528 17.4009 22.1838 17.1942 22.3761 17.0291C22.5748 16.8414 22.806 16.7115 23.0696 16.6393C23.3396 16.5446 23.6113 16.487 23.8849 16.4663C24.1584 16.4456 24.408 16.4669 24.6337 16.5302C25.1302 16.6694 25.5372 16.9539 25.8549 17.3837C26.1725 17.8136 26.426 18.2985 26.6154 18.8384C26.8274 19.3846 26.9734 19.9489 27.0535 20.5313C27.1626 21.0973 27.2455 21.5831 27.3022 21.9884C27.2613 22.8289 27.1323 23.7664 26.9153 24.8009C26.7271 25.8192 26.4537 26.8379 26.0949 27.857C25.7362 28.8761 25.2903 29.8586 24.7573 30.8045C24.2307 31.7279 23.6246 32.5438 22.9392 33.2522C22.2537 33.9607 21.4708 34.4957 20.5905 34.8574C19.7327 35.2255 18.7997 35.3412 17.7913 35.2045C17.2723 35.0589 16.9248 34.779 16.7489 34.3645C16.5793 33.9275 16.4964 33.4418 16.5002 32.9074C16.5329 32.3567 16.6108 31.8186 16.7337 31.2933C16.8792 30.7742 16.9995 30.3454 17.0944 30.0069ZM18.8492 30.3894C18.786 30.6151 18.7259 30.8295 18.6689 31.0326C18.6345 31.242 18.6002 31.4515 18.5658 31.6609C18.5603 31.8541 18.5485 32.0698 18.5303 32.3082C18.5411 32.5303 18.5536 32.7894 18.568 33.0855L18.7711 33.1424C19.3127 33.2943 19.826 33.2435 20.3108 32.9899C20.7957 32.7364 21.2527 32.3656 21.6816 31.8773C22.117 31.3665 22.523 30.7866 22.8997 30.1376C23.2827 29.4661 23.6142 28.8045 23.8943 28.1528C24.2033 27.4848 24.4513 26.8606 24.6384 26.2802C24.8544 25.6835 25.013 25.2047 25.1142 24.8436L25.304 24.1666C25.3863 23.8732 25.4668 23.5428 25.5454 23.1754C25.6304 22.7854 25.6929 22.3891 25.7327 21.9865C25.8015 21.5677 25.8237 21.1844 25.7995 20.8369C25.7816 20.4667 25.7108 20.1548 25.5872 19.9011C25.4636 19.6473 25.2551 19.4793 24.9618 19.3971C24.5096 19.0999 24.0713 19.0135 23.6469 19.138C23.2452 19.2687 22.8555 19.5733 22.478 20.0516C22.1293 20.5137 21.791 21.1126 21.4631 21.8483C21.1351 22.5839 20.8301 23.4112 20.5481 24.3301C20.2662 25.2491 19.9796 26.2276 19.6886 27.2657C19.4201 28.3101 19.1403 29.3513 18.8492 30.3894ZM34.7266 11.9116C35.327 11.5931 35.75 11.517 35.9955 11.6832C36.2636 11.8557 36.3925 12.2205 36.3824 12.7775C36.3723 13.3345 36.2615 14.0336 36.0499 14.875C35.8384 15.7163 35.5613 16.6609 35.2188 17.7089C34.9052 18.7407 34.5387 19.8307 34.1194 20.9789C33.7065 22.1045 33.308 23.222 32.9239 24.3314C32.5461 25.4182 32.2036 26.4662 31.8963 27.4754C31.589 28.4846 31.3761 29.3742 31.2576 30.1442L31.3591 30.1727C31.4043 30.1854 31.4413 30.1836 31.4702 30.1673C32.9727 29.3229 34.3701 28.3759 35.6623 27.3264C36.9546 26.2769 38.1344 25.2811 39.2018 24.339C40.2755 23.3743 41.2147 22.5423 42.0194 21.8429C42.8465 21.1499 43.5527 20.715 44.1377 20.5382C44.4762 20.6331 44.7425 20.7686 44.9365 20.9448C45.1531 21.1272 45.2045 21.4215 45.0906 21.8277C45.078 21.8729 45.0445 21.9487 44.9903 22.0552C44.965 22.1455 44.946 22.2132 44.9334 22.2583C44.0465 23.251 43.1 24.2393 42.094 25.2229C41.0943 26.184 40.0476 27.0955 38.9541 27.9572C37.8605 28.819 36.7151 29.6054 35.5177 30.3164C34.343 31.0337 33.1145 31.6385 31.8324 32.131C31.8261 32.1536 31.8021 32.1955 31.7606 32.2569C31.7479 32.302 31.7384 32.3359 31.7321 32.3585C31.6688 32.5841 31.7798 32.883 32.0649 33.255C32.3726 33.6334 32.7738 34.0258 33.2684 34.4322C33.7855 34.845 34.3591 35.2736 34.9891 35.7179C35.6416 36.1687 36.2811 36.5792 36.9075 36.9496C37.5564 37.3262 38.1585 37.6533 38.7136 37.9306C39.2913 38.2143 39.7494 38.4036 40.0879 38.4985C40.0626 38.5888 40.0151 38.758 39.9455 39.0063C39.8985 39.2608 39.8144 39.5172 39.6934 39.7753C39.5723 40.0335 39.4237 40.2596 39.2476 40.4536C39.0778 40.6251 38.8688 40.676 38.6206 40.6064L38.4852 40.5684C38.44 40.5558 38.4094 40.535 38.3931 40.5061L29.8032 33.8988C29.4074 35.224 29.0134 36.2819 28.6213 37.0726C28.2355 37.8407 27.876 38.385 27.5428 38.7053C27.2258 39.0546 26.9463 39.1831 26.7044 39.091C26.4851 39.0051 26.3326 38.7677 26.247 38.3785L34.7266 11.9116ZM61.0771 47.2314C61.1866 46.5805 61.3706 45.7071 61.6292 44.6112C61.8878 43.5153 62.1717 42.3292 62.4809 41.0528C62.7964 39.7538 63.1133 38.4065 63.4316 37.0109C63.7724 35.6217 64.083 34.2969 64.3633 33.0368C64.6436 31.7766 64.8697 30.6229 65.0416 29.5757C65.236 28.5349 65.3623 27.694 65.4203 27.0531C65.5468 26.6017 65.7211 26.3707 65.9432 26.3599C66.1716 26.3266 66.4438 26.3542 66.7597 26.4428C66.8049 26.4555 66.9064 26.4839 67.0644 26.5282C67.2224 26.5725 67.332 26.6154 67.3934 26.657C67.4067 27.3909 67.2841 28.3059 67.0255 29.4018C66.7958 30.4814 66.5151 31.6563 66.1833 32.9264C65.8741 34.2028 65.541 35.5212 65.1839 36.8815C64.8494 38.2482 64.5677 39.5567 64.3389 40.807C65.1547 39.1127 65.8286 37.7073 66.3608 36.5908C66.9155 35.4806 67.3812 34.601 67.7578 33.952C68.1634 33.2868 68.4927 32.8071 68.7455 32.5129C69.0273 32.2024 69.2856 32.0193 69.5203 31.9634C69.7776 31.9138 70.0272 31.9351 70.2691 32.0273C70.54 32.1032 70.8559 32.1918 71.217 32.293C71.6232 32.4069 71.9061 32.6566 72.0658 33.0422C72.248 33.434 72.3372 33.8972 72.3334 34.4316C72.3522 34.9724 72.3132 35.5457 72.2163 36.1514C72.1421 36.7635 72.0597 37.3611 71.9693 37.9442C71.8851 38.5048 71.8136 39.0203 71.7548 39.4906C71.7185 39.9673 71.7653 40.3212 71.8952 40.5523C72.9276 39.0405 73.7956 37.8113 74.4992 36.8645C75.2028 35.9177 75.7867 35.1808 76.2509 34.6537C76.7215 34.1041 77.1076 33.7255 77.4092 33.518C77.7108 33.3105 77.9581 33.2094 78.1513 33.2149C78.3509 33.1978 78.512 33.2309 78.6347 33.314C78.7801 33.4034 78.9317 33.4702 79.0897 33.5145C79.699 33.6854 80.073 34.131 80.2118 34.8515C80.2882 35.9683 80.2643 37.0082 80.1403 37.9715C80.0226 38.9121 79.8548 39.8144 79.637 40.6783C79.4254 41.5196 79.2008 42.3207 78.9631 43.0817C78.748 43.849 78.5617 44.6 78.4044 45.3348C78.2696 46.076 78.1944 46.8216 78.1788 47.5718C78.1858 48.3284 78.3313 49.1116 78.6154 49.9215C78.3336 50.2319 78.0835 50.4295 77.865 50.5143C77.6528 50.5765 77.3887 50.5634 77.0728 50.4748C76.802 50.3989 76.5903 50.2421 76.4378 50.0047C76.2917 49.7446 76.1889 49.4602 76.1294 49.1514C76.0762 48.8201 76.0457 48.4951 76.0377 48.1764C76.0522 47.864 76.0573 47.5855 76.0528 47.3409C76.8674 44.0885 77.4135 41.5762 77.6913 39.8042C77.998 38.0159 77.9722 37.0228 77.6138 36.825C77.2555 36.6271 76.547 37.2439 75.4885 38.6754C74.4588 40.0906 73.0294 42.3673 71.2001 45.5056C71.1008 45.5995 70.9803 45.6387 70.8385 45.6233C70.6968 45.6079 70.547 45.5781 70.389 45.5338C70.2536 45.4958 70.1069 45.4547 69.9489 45.4104C69.8199 45.3499 69.6844 45.3119 69.5427 45.2965C69.9087 41.8209 70.1023 39.3072 70.1236 37.7553C70.1738 36.1872 69.9596 35.5187 69.4811 35.7496C69.0025 35.9805 68.2321 37.079 67.1697 39.0448C66.1137 40.9881 64.685 43.7398 62.8836 47.2997L61.0771 47.2314ZM82.4211 48.3232C82.5542 47.2408 82.7568 46.2144 83.0289 45.244C83.3073 44.251 83.6453 43.2626 84.0429 42.2787C84.463 41.3012 84.9378 40.3024 85.4671 39.2824C86.0254 38.2462 86.6397 37.1406 87.31 35.9654C87.3796 35.7171 87.5105 35.5104 87.7029 35.3453C87.9016 35.1576 88.1327 35.0277 88.3964 34.9555C88.6663 34.8608 88.9381 34.8032 89.2116 34.7825C89.4852 34.7618 89.7348 34.7831 89.9605 34.8464C90.4569 34.9856 90.864 35.2701 91.1816 35.7C91.4993 36.1298 91.7528 36.6147 91.9422 37.1546C92.1541 37.7009 92.3002 38.2651 92.3803 38.8475C92.4894 39.4135 92.5722 39.8993 92.629 40.3046C92.5881 41.1451 92.4591 42.0826 92.242 43.1171C92.0539 44.1354 91.7805 45.1541 91.4217 46.1732C91.0629 47.1923 90.6171 48.1748 90.0841 49.1207C89.5575 50.0441 88.9514 50.86 88.266 51.5684C87.5805 52.2769 86.7976 52.8119 85.9173 53.1737C85.0595 53.5417 84.1264 53.6574 83.1181 53.5207C82.599 53.3752 82.2516 53.0952 82.0757 52.6807C81.9061 52.2437 81.8232 51.758 81.827 51.2236C81.8597 50.6729 81.9375 50.1349 82.0605 49.6095C82.206 49.0904 82.3262 48.6617 82.4211 48.3232ZM84.176 48.7056C84.1127 48.9313 84.0526 49.1457 83.9957 49.3488C83.9613 49.5582 83.9269 49.7677 83.8926 49.9771C83.8871 50.1703 83.8753 50.3861 83.8571 50.6244C83.8679 50.8465 83.8804 51.1056 83.8948 51.4017L84.0979 51.4586C84.6395 51.6105 85.1527 51.5597 85.6376 51.3062C86.1225 51.0526 86.5794 50.6818 87.0084 50.1935C87.4437 49.6827 87.8497 49.1028 88.2264 48.4538C88.6094 47.7823 88.941 47.1207 89.2211 46.469C89.5301 45.801 89.7781 45.1768 89.9652 44.5964C90.1811 43.9998 90.3398 43.5209 90.441 43.1598L90.6308 42.4828C90.7131 42.1894 90.7935 41.859 90.8722 41.4916C90.9572 41.1017 91.0196 40.7054 91.0595 40.3027C91.1283 39.8839 91.1505 39.5006 91.1263 39.1531C91.1083 38.7829 91.0376 38.471 90.914 38.2173C90.7904 37.9635 90.5819 37.7956 90.2885 37.7133C89.8363 37.4161 89.3981 37.3298 88.9737 37.4542C88.5719 37.5849 88.1823 37.8895 87.8048 38.3678C87.4561 38.8299 87.1178 39.4288 86.7899 40.1645C86.4619 40.9001 86.1569 41.7274 85.8749 42.6463C85.5929 43.5653 85.3064 44.5438 85.0153 45.5819C84.7469 46.6263 84.4671 47.6675 84.176 48.7056ZM93.1651 56.2281C93.2745 55.5772 93.4585 54.7039 93.7171 53.608C93.9757 52.5121 94.2596 51.326 94.5688 50.0495C94.8843 48.7505 95.2012 47.4033 95.5195 46.0077C95.8603 44.6184 96.1709 43.2937 96.4512 42.0335C96.7315 40.7733 96.9576 39.6197 97.1295 38.5725C97.3239 37.5317 97.4502 36.6908 97.5082 36.0498C97.6347 35.5985 97.809 35.3674 98.0311 35.3567C98.2595 35.3233 98.5317 35.351 98.8477 35.4396C98.8928 35.4522 98.9944 35.4807 99.1523 35.525C99.3103 35.5693 99.42 35.6122 99.4813 35.6537C99.4946 36.3877 99.372 37.3026 99.1134 38.3985C98.8837 39.4782 98.603 40.653 98.2712 41.9231C97.962 43.1995 97.6289 44.5179 97.2718 45.8783C96.9373 47.245 96.6556 48.5535 96.4268 49.8037C97.2426 48.1095 97.9166 46.7041 98.4487 45.5876C99.0034 44.4773 99.4691 43.5977 99.8458 42.9488C100.251 42.2836 100.581 41.8039 100.833 41.5096C101.115 41.1992 101.373 41.016 101.608 40.9601C101.866 40.9106 102.115 40.9319 102.357 41.024C102.628 41.1 102.944 41.1885 103.305 41.2898C103.711 41.4037 103.994 41.6534 104.154 42.0389C104.336 42.4308 104.425 42.894 104.421 43.4284C104.44 43.9692 104.401 44.5424 104.304 45.1482C104.23 45.7602 104.148 46.3578 104.057 46.941C103.973 47.5016 103.902 48.017 103.843 48.4874C103.806 48.964 103.853 49.3179 103.983 49.5491C105.016 48.0373 105.884 46.808 106.587 45.8612C107.291 44.9145 107.875 44.1776 108.339 43.6505C108.809 43.1009 109.195 42.7223 109.497 42.5148C109.799 42.3072 110.046 42.2062 110.239 42.2117C110.439 42.1946 110.6 42.2276 110.723 42.3107C110.868 42.4001 111.02 42.467 111.178 42.5113C111.787 42.6821 112.161 43.1278 112.3 43.8482C112.376 44.965 112.352 46.005 112.228 46.9682C112.111 47.9089 111.943 48.8112 111.725 49.675C111.513 50.5163 111.289 51.3175 111.051 52.0784C110.836 52.8457 110.65 53.5968 110.492 54.3316C110.358 55.0727 110.282 55.8184 110.267 56.5686C110.274 57.3251 110.419 58.1083 110.703 58.9182C110.422 59.2287 110.171 59.4263 109.953 59.5111C109.741 59.5733 109.477 59.5601 109.161 59.4715C108.89 59.3956 108.678 59.2389 108.526 59.0014C108.38 58.7414 108.277 58.457 108.217 58.1482C108.164 57.8168 108.134 57.4918 108.126 57.1732C108.14 56.8608 108.145 56.5823 108.141 56.3376C108.955 53.0852 109.501 50.573 109.779 48.8009C110.086 47.0126 110.06 46.0195 109.702 45.8217C109.343 45.6239 108.635 46.2407 107.576 47.6721C106.547 49.0873 105.117 51.3641 103.288 54.5024C103.189 54.5962 103.068 54.6355 102.926 54.6201C102.785 54.6047 102.635 54.5748 102.477 54.5305C102.342 54.4926 102.195 54.4515 102.037 54.4072C101.908 54.3466 101.772 54.3087 101.631 54.2933C101.997 50.8177 102.19 48.304 102.212 46.7521C102.262 45.184 102.048 44.5154 101.569 44.7464C101.09 44.9773 100.32 46.0757 99.2576 48.0416C98.2016 49.9849 96.7729 52.7365 94.9715 56.2965L93.1651 56.2281ZM134.571 50.0926C135.153 48.0164 135.774 45.9755 136.434 43.9697C137.1 41.9414 137.804 39.863 138.547 37.7345C138.665 37.5729 138.776 37.4823 138.879 37.4624C138.988 37.42 139.122 37.421 139.28 37.4653C139.505 37.5286 139.644 37.6406 139.697 37.8013C139.755 37.9394 139.774 38.0906 139.752 38.2549C139.753 38.4256 139.714 38.6093 139.634 38.806C139.583 38.9866 139.539 39.1445 139.501 39.2799L136.597 49.6383C136.483 50.0445 136.397 50.4828 136.338 50.9531L136.161 52.3641C136.125 52.8408 136.061 53.2854 135.97 53.6979C135.907 54.0942 135.793 54.4151 135.627 54.6606C135.512 54.8962 135.317 55.0726 135.04 55.1899C134.787 55.3134 134.536 55.3404 134.287 55.2708C133.881 55.157 133.656 54.8748 133.612 54.4243C133.568 53.9737 133.599 53.4714 133.706 52.9171C133.835 52.3692 133.987 51.8275 134.162 51.2923C134.359 50.7633 134.495 50.3634 134.571 50.0926ZM132.29 66.4312L132.442 65.8896C132.474 65.7767 132.517 65.6671 132.571 65.5606C132.631 65.4315 132.708 65.3313 132.801 65.26C132.894 65.1887 133.008 65.1721 133.144 65.21C133.595 65.3366 133.823 65.5222 133.827 65.7668C133.861 65.9953 133.836 66.2561 133.754 66.5495C133.665 66.8655 133.548 67.1123 133.4 67.2901C133.276 67.4743 132.988 67.503 132.536 67.3765C132.401 67.3385 132.312 67.2649 132.27 67.1557C132.227 67.0464 132.211 66.9322 132.22 66.813C132.235 66.6713 132.259 66.544 132.29 66.4312Z" fill="#0088E9"/>
</svg>
