<svg width="114" height="39" viewBox="0 0 114 39" fill="none" xmlns="http://www.w3.org/2000/svg">
<path d="M2.56788 28.649C2.56899 28.6646 2.72596 28.5594 3.03878 28.3334C3.36719 28.1063 3.7457 27.813 4.1743 27.4534C4.61738 27.0772 5.06657 26.677 5.52189 26.2528C5.9761 25.8131 6.34626 25.4029 6.63237 25.0222C6.91848 24.6415 7.06042 24.3259 7.0582 24.0754C7.07045 23.8082 6.84781 23.6518 6.39027 23.6061C5.82363 23.5683 5.34884 23.61 4.96588 23.7314C4.59851 23.8516 4.26343 23.9852 3.96062 24.1321C3.65782 24.279 3.37005 24.4171 3.0973 24.5462C2.84014 24.6742 2.5468 24.7343 2.21729 24.7265C1.53153 24.7755 1.04116 24.599 0.746157 24.1972C0.465629 23.7786 0.299212 23.203 0.246904 22.4705C0.194597 21.738 0.308717 21.0328 0.589266 20.3548C0.868701 19.6613 1.24833 19.0546 1.72814 18.5347C2.20796 18.0148 2.77293 17.5907 3.42307 17.2623C4.07209 16.9183 4.74727 16.7213 5.44861 16.6712C5.72914 16.6512 5.97239 16.6573 6.17833 16.6896C6.38428 16.7219 6.49839 16.8939 6.52064 17.2056C6.53623 17.4238 6.45774 17.6409 6.28518 17.8568C6.11151 18.0572 5.90779 18.1658 5.67401 18.1824C5.65842 18.1836 5.6189 18.1786 5.55545 18.1674C5.49088 18.1407 5.42576 18.1062 5.36008 18.0639C5.2944 18.0216 5.22983 17.9949 5.16638 17.9837C5.10181 17.957 5.06174 17.9442 5.04615 17.9453C4.5374 17.8407 4.05927 17.9453 3.61174 18.2592C3.16421 18.5731 2.77068 18.985 2.43113 19.4949C2.10606 19.988 1.85445 20.523 1.67633 21.0996C1.49708 21.6607 1.42304 22.1594 1.45421 22.5958C1.46645 22.7672 1.50763 22.9053 1.57777 23.0099C1.66237 23.0979 1.76089 23.1613 1.87333 23.2003C2.00135 23.2381 2.13605 23.2598 2.27743 23.2654C2.43328 23.2543 2.58914 23.2432 2.74499 23.232C3.0567 23.2098 3.36506 23.1408 3.67009 23.025C3.99071 22.9081 4.29462 22.7767 4.58184 22.6309C4.88464 22.484 5.18856 22.3526 5.49359 22.2368C5.8142 22.12 6.14595 22.0493 6.48882 22.0248C6.64468 22.0137 6.81945 22.0482 7.01315 22.1283C7.20574 22.1929 7.38608 22.3053 7.55418 22.4657C7.72116 22.6104 7.86699 22.7879 7.99167 22.9983C8.11524 23.1932 8.19371 23.4147 8.22711 23.663C8.3362 23.8745 8.32562 24.165 8.19536 24.5346C8.08069 24.9031 7.88976 25.3005 7.62258 25.7269C7.3554 26.1532 7.02643 26.5919 6.63567 27.0427C6.2438 27.478 5.84971 27.8821 5.45339 28.255C5.05596 28.6123 4.66187 28.9068 4.27112 29.1383C3.88148 29.3855 3.54584 29.5112 3.26419 29.5157C2.95248 29.5379 2.75878 29.4578 2.68309 29.2752C2.62298 29.0915 2.58457 28.8828 2.56788 28.649ZM10.811 27.9429C10.7387 26.9299 10.6391 25.8639 10.5122 24.7451C10.4009 23.6252 10.2812 22.4981 10.1532 21.3637C10.0397 20.2126 9.95122 19.0832 9.88779 17.9755C9.82435 16.8679 9.82048 15.8264 9.87616 14.8512C9.90622 14.8334 9.97579 14.8206 10.0849 14.8128C10.2085 14.7883 10.2936 14.7744 10.3404 14.7711C10.5586 14.7555 10.7328 14.7822 10.863 14.8513C11.0078 14.9036 11.0885 15.0466 11.1052 15.2804C11.1708 16.2 11.2348 17.2058 11.2971 18.2978C11.3739 19.3732 11.4446 20.4726 11.5091 21.5958C11.5882 22.7024 11.6666 23.8011 11.7445 24.8921C11.8224 25.9831 11.9087 26.9716 12.0033 27.8578C12.0378 28.1216 11.9955 28.2969 11.8764 28.3838C11.774 28.4851 11.637 28.5418 11.4656 28.5541C11.2786 28.5674 11.1194 28.5318 10.988 28.4472C10.8578 28.3782 10.7988 28.2101 10.811 27.9429ZM9.10142 11.241C9.08806 11.054 9.1415 10.9248 9.26173 10.8536C9.38196 10.7824 9.52 10.7412 9.67586 10.73C9.98756 10.7078 10.1896 10.7952 10.282 10.9922C10.3744 11.1893 10.4301 11.4203 10.449 11.6852C10.3677 11.8633 10.2597 11.9964 10.125 12.0843C9.98921 12.1567 9.84226 12.1828 9.68418 12.1628C9.54057 12.126 9.40866 12.0336 9.28843 11.8856C9.18379 11.7364 9.12145 11.5215 9.10142 11.241ZM16.8731 37.1674C18.2391 36.9915 19.2889 36.5562 20.0225 35.8616C20.7717 35.1658 21.305 34.2975 21.6223 33.2567C21.9396 32.2158 22.0904 31.038 22.0749 29.7233C22.0604 28.4241 21.9725 27.0832 21.8111 25.7006C21.6497 24.3179 21.4572 22.9375 21.2334 21.5593C21.0242 20.1644 20.8845 18.8664 20.8144 17.6652C20.2844 19.6768 19.7667 21.3116 19.2613 22.5696C18.7548 23.8119 18.2666 24.7632 17.7968 25.4233C17.3415 26.0667 16.9084 26.4736 16.4976 26.6439C16.1013 26.7976 15.7412 26.7998 15.4172 26.6506C15.0922 26.4858 14.8144 26.2159 14.584 25.8407C14.368 25.4488 14.2061 25.0453 14.0981 24.63C14.0781 23.9109 14.1621 23.1138 14.3503 22.2388C14.5529 21.3471 14.8273 20.4738 15.1736 19.6188C15.5343 18.7472 15.9618 17.9334 16.4561 17.1775C16.9492 16.4061 17.4853 15.796 18.0642 15.3474C18.6419 14.8832 19.2576 14.6199 19.911 14.5576C20.5634 14.4797 21.2124 14.684 21.8581 15.1705C21.8748 15.185 21.9132 15.3937 21.9733 15.7967C22.0479 16.183 22.1319 16.7017 22.2254 17.353C22.3334 17.9875 22.4475 18.7078 22.5677 19.5138C22.7024 20.3031 22.8304 21.1085 22.9517 21.9301C23.0719 22.7361 23.1821 23.5114 23.2823 24.2562C23.3825 25.0009 23.4754 25.6444 23.5611 26.1865C23.6869 27.0704 23.7153 28.0161 23.6462 29.0236C23.5928 30.03 23.4592 31.0107 23.2454 31.9659C23.0328 32.9366 22.7377 33.8506 22.3603 34.7078C21.9985 35.5638 21.556 36.2769 21.0327 36.8468C20.5251 37.4157 19.9334 37.7947 19.2577 37.984C18.5986 38.1877 17.8734 38.122 17.0819 37.7869C17.0351 37.7902 16.9644 37.7874 16.8698 37.7785C16.7763 37.7852 16.6967 37.7674 16.631 37.7251C16.5809 37.6817 16.5687 37.6199 16.5943 37.5397C16.6199 37.4596 16.7128 37.3355 16.8731 37.1674ZM15.3021 24.3796C15.4924 24.8516 15.7128 25.0865 15.9633 25.0843C16.2283 25.0654 16.4971 24.8817 16.7699 24.5332C17.0415 24.1692 17.327 23.6711 17.6265 23.0387C17.9416 22.4053 18.2449 21.7179 18.5366 20.9765C18.8283 20.2351 19.1111 19.4787 19.385 18.7072C19.6733 17.919 19.9422 17.1871 20.1915 16.5113C20.1793 16.3399 20.1292 16.1868 20.0413 16.0521C19.9522 15.9018 19.7774 15.8673 19.5169 15.9486C19.0872 16.0733 18.6736 16.3143 18.2762 16.6716C17.8944 17.0278 17.5415 17.4603 17.2175 17.9691C16.908 18.4611 16.6258 19.006 16.3709 19.6038C16.1304 20.1849 15.9216 20.7716 15.7446 21.3638C15.5821 21.9394 15.4568 22.4888 15.3689 23.012C15.2965 23.5341 15.2742 23.99 15.3021 24.3796ZM26.9984 26.9515C26.6767 24.8597 26.3706 22.7668 26.0801 20.6728C25.8041 18.5621 25.5069 16.3746 25.1885 14.1103C25.1618 13.7362 25.3511 13.5347 25.7563 13.5058L25.9433 13.4924C25.9901 13.4891 26.0491 13.5475 26.1203 13.6678C26.1916 13.788 26.2706 14.0173 26.3574 14.3558C26.4587 14.6775 26.5728 15.1784 26.6997 15.8586C26.8411 16.5221 27.013 17.3949 27.2156 18.477C27.4182 19.559 27.6559 20.9127 27.9286 22.5381C28.1802 21.4549 28.3639 20.4079 28.4797 19.3971C28.5955 18.3863 28.7725 17.4651 29.0108 16.6335C29.2479 15.7863 29.6092 15.0321 30.0945 14.3709C30.5955 13.7085 31.3419 13.1931 32.3338 12.8246C32.9016 12.8781 33.3781 13.1887 33.7632 13.7564C34.1473 14.3086 34.4712 15.006 34.735 15.8488C34.9989 16.6915 35.2059 17.6166 35.3562 18.6241C35.5053 19.616 35.6205 20.5711 35.7018 21.4895C35.783 22.408 35.8498 23.2334 35.9021 23.9659C35.9533 24.6829 36.0056 25.1961 36.059 25.5055C36.0212 25.6336 35.9588 25.7477 35.872 25.8479C35.7852 25.9481 35.6811 26.026 35.5597 26.0816C35.4529 26.1206 35.3443 26.1362 35.2341 26.1284C35.1228 26.105 35.0154 26.0265 34.9118 25.8929C34.8996 25.7215 34.859 25.3719 34.79 24.8443C34.721 24.3166 34.638 23.7037 34.5412 23.0057C34.4432 22.2922 34.3347 21.5402 34.2156 20.7498C34.111 19.9427 34.0103 19.1901 33.9134 18.4921C33.8311 17.7774 33.7554 17.1562 33.6864 16.6286C33.6173 16.1009 33.5689 15.7519 33.5411 15.5816C33.1726 15.0283 32.822 14.7244 32.4891 14.6698C32.1718 14.6141 31.8596 14.7383 31.5523 15.0422C31.2606 15.345 30.9873 15.7953 30.7324 16.3931C30.4774 16.9909 30.2437 17.6655 30.031 18.4169C29.8173 19.1527 29.6219 19.9264 29.4448 20.738C29.2678 21.5495 29.1203 22.3355 29.0023 23.0958C28.8832 23.8406 28.783 24.5213 28.7017 25.138C28.6349 25.7381 28.5976 26.2028 28.5898 26.5324C28.5508 26.6448 28.4573 26.7611 28.3092 26.8814C28.1756 26.9849 28.0248 27.0661 27.8567 27.1251C27.7042 27.183 27.5416 27.2103 27.3691 27.207C27.211 27.1869 27.0874 27.1018 26.9984 26.9515ZM51.2328 25.4559C51.1549 25.0228 51.0736 24.4334 50.989 23.6875C50.9044 22.9416 50.8154 22.1334 50.7219 21.2629C50.6273 20.3767 50.5227 19.46 50.408 18.5126C50.309 17.5641 50.2054 16.663 50.0975 15.8091C49.9895 14.9553 49.8715 14.1805 49.7435 13.4847C49.6311 12.7878 49.5209 12.2317 49.4129 11.8165C49.3907 11.5048 49.448 11.3205 49.5849 11.2638C49.7207 11.1914 49.8977 11.1474 50.1159 11.1319C50.1471 11.1296 50.2172 11.1246 50.3263 11.1168C50.4354 11.109 50.5139 11.1113 50.5618 11.1235C50.7354 11.5811 50.8646 12.1828 50.9492 12.9286C51.0482 13.6578 51.1367 14.4582 51.2146 15.3299C51.3081 16.2004 51.396 17.1027 51.4784 18.0367C51.5764 18.9696 51.6943 19.8541 51.8324 20.6901C51.9626 19.4433 52.069 18.4097 52.1514 17.5892C52.2493 16.7677 52.3434 16.1109 52.4336 15.6188C52.5383 15.1101 52.6368 14.7349 52.7292 14.4933C52.8361 14.2351 52.9569 14.062 53.0916 13.974C53.2419 13.885 53.4033 13.8421 53.5758 13.8454C53.7628 13.8321 53.981 13.8165 54.2304 13.7987C54.5109 13.7787 54.7447 13.8716 54.9317 14.0776C55.1343 14.2824 55.2946 14.5529 55.4126 14.8891C55.5462 15.2242 55.6509 15.5927 55.7266 15.9946C55.8178 16.3954 55.9008 16.7889 55.9753 17.1752C56.0488 17.5459 56.12 17.8854 56.1891 18.1938C56.2737 18.501 56.3827 18.7126 56.5163 18.8283C56.8236 17.6472 57.0914 16.6804 57.3196 15.9278C57.5478 15.1753 57.7482 14.5814 57.9208 14.1461C58.0922 13.6952 58.2492 13.3707 58.3917 13.1726C58.5342 12.9744 58.6667 12.8553 58.7891 12.8152C58.9105 12.7596 59.019 12.744 59.1147 12.7685C59.2261 12.7919 59.3363 12.7997 59.4454 12.7919C59.8662 12.7618 60.2013 12.9572 60.4506 13.378C60.7501 14.0616 60.9694 14.7195 61.1085 15.3518C61.2465 15.9685 61.3445 16.5725 61.4024 17.1636C61.4591 17.7391 61.4986 18.2924 61.5209 18.8234C61.5587 19.3533 61.611 19.8665 61.6778 20.363C61.7602 20.8584 61.881 21.3432 62.0401 21.8175C62.2149 22.2906 62.4826 22.7493 62.8433 23.1935C62.7364 23.4517 62.624 23.6321 62.506 23.7345C62.3869 23.8213 62.2182 23.8725 62 23.8881C61.813 23.9015 61.6449 23.8508 61.4957 23.7361C61.3455 23.6059 61.2169 23.4506 61.11 23.2702C61.002 23.0743 60.9096 22.8773 60.8328 22.6791C60.7716 22.4798 60.7121 22.3039 60.6542 22.1514C60.4327 19.9272 60.2095 18.2278 59.9847 17.0534C59.7743 15.8622 59.5344 15.2449 59.265 15.2015C58.9956 15.1581 58.69 15.7046 58.3482 16.8413C58.0209 17.9612 57.6368 19.7117 57.1959 22.0929C57.1547 22.1742 57.0879 22.2259 56.9955 22.2482C56.9031 22.2705 56.8024 22.2855 56.6933 22.2933C56.5998 22.3 56.4985 22.3072 56.3894 22.315C56.2947 22.3061 56.2012 22.3128 56.1088 22.335C55.5556 20.0718 55.1109 18.4509 54.7747 17.4724C54.453 16.4771 54.168 16.1059 53.9198 16.3586C53.6715 16.6113 53.4355 17.474 53.2117 18.9468C52.9868 20.4041 52.7101 22.4524 52.3817 25.0919L51.2328 25.4559ZM65.4408 19.4364C65.3639 19.4576 65.2487 19.4893 65.0951 19.5316C64.9415 19.5739 64.7784 19.5934 64.6058 19.59C64.4333 19.5867 64.2819 19.5505 64.1516 19.4815C64.0058 19.4136 63.9262 19.2861 63.9128 19.0991C63.9051 18.99 63.9229 18.9104 63.9663 18.8603C64.0097 18.8102 64.0826 18.7345 64.185 18.6332C64.5079 18.3282 64.7706 17.9491 64.9732 17.496C65.1903 17.0263 65.3824 16.5348 65.5494 16.0216C65.7152 15.4928 65.8895 14.9712 66.0721 14.4569C66.2691 13.9259 66.5012 13.4472 66.7684 13.0209C67.0356 12.5945 67.3785 12.2411 67.7971 11.9605C68.2156 11.68 68.745 11.5247 69.3851 11.4947C69.6501 11.4757 69.9506 11.5169 70.2868 11.6183C70.623 11.7196 70.9392 11.8693 71.2353 12.0675C71.5303 12.25 71.7819 12.4827 71.99 12.7655C72.1982 13.0482 72.3151 13.3689 72.3407 13.7273C72.4275 13.8464 72.3624 14.0312 72.1453 14.2817C71.9438 14.5311 71.6583 14.8099 71.2887 15.1183C70.9179 15.4111 70.4938 15.7233 70.0162 16.055C69.5531 16.3701 69.1045 16.6684 68.6703 16.9501C68.2361 17.2317 67.8543 17.4783 67.5248 17.6898C67.1952 17.9013 66.9793 18.0577 66.8769 18.159C66.8101 18.3204 66.7605 18.5041 66.7282 18.71C66.6959 18.916 66.6709 19.1136 66.6531 19.3028C66.6497 19.4754 66.6458 19.6402 66.6414 19.7971C66.6514 19.9374 66.6592 20.0465 66.6647 20.1244C66.6859 20.4205 66.6937 20.7489 66.6881 21.1096C66.6981 21.4692 66.7382 21.811 66.8083 22.1349C66.8929 22.4422 67.0443 22.6977 67.2625 22.9014C67.4796 23.0895 67.8297 23.1664 68.3128 23.1318C68.8271 23.0951 69.3014 22.9359 69.7356 22.6543C70.1686 22.3571 70.5666 22.0075 70.9295 21.6057C71.2924 21.2038 71.6142 20.7735 71.8947 20.3149C72.1908 19.8551 72.4502 19.4293 72.6729 19.0375C72.91 18.6289 73.121 18.2927 73.3058 18.0289C73.4906 17.765 73.6531 17.6281 73.7934 17.6181C73.9492 17.607 74.1151 17.6265 74.291 17.6766C74.4814 17.71 74.5838 17.828 74.5983 18.0306C74.6183 18.3111 74.5253 18.6545 74.3194 19.0609C74.129 19.4661 73.8624 19.9002 73.5195 20.3633C73.1922 20.8253 72.8025 21.2918 72.3506 21.7626C71.913 22.2168 71.465 22.6326 71.0063 23.01C70.5465 23.3718 70.0907 23.6785 69.6387 23.9301C69.1856 24.1661 68.7798 24.2969 68.4213 24.3225C67.72 24.3725 67.1779 24.2389 66.7949 23.9217C66.412 23.6044 66.1242 23.1941 65.9316 22.691C65.7546 22.1867 65.6378 21.6467 65.581 21.0712C65.5387 20.479 65.492 19.934 65.4408 19.4364ZM69.2916 12.8172C69.0266 12.8361 68.7555 12.9886 68.4783 13.2747C68.2 13.5452 67.9417 13.877 67.7035 14.2699C67.4797 14.6462 67.296 15.0353 67.1524 15.4371C67.0233 15.8223 66.9676 16.1396 66.9854 16.389C67.2192 16.3723 67.5482 16.2626 67.9723 16.06C68.4109 15.8407 68.839 15.583 69.2564 15.2869C69.6739 14.9908 70.0357 14.683 70.3419 14.3635C70.648 14.044 70.7916 13.7518 70.7727 13.4868C70.7627 13.3466 70.6998 13.2336 70.584 13.1478C70.4682 13.0621 70.3302 12.9937 70.1699 12.9424C70.0252 12.8901 69.8738 12.8539 69.7157 12.8339C69.5576 12.8139 69.4162 12.8083 69.2916 12.8172ZM94.6179 19.7026C94.5689 19.8941 94.4314 20.1624 94.2054 20.5075C93.9939 20.8359 93.7362 21.1754 93.4323 21.5261C93.1272 21.8612 92.8044 22.1662 92.4637 22.4411C92.1375 22.6994 91.842 22.838 91.577 22.8569C91.0783 22.8925 90.6486 22.6882 90.2879 22.2441C89.9428 21.7988 89.6584 21.216 89.4346 20.4957C89.2109 19.7754 89.0361 18.9733 88.9104 18.0894C88.7835 17.1899 88.6816 16.3121 88.6048 15.4561C88.528 14.6 88.4646 13.8213 88.4145 13.1199C88.3644 12.4186 88.3032 11.8904 88.2309 11.5352C88.2821 11.3749 88.3533 11.2759 88.4446 11.238C88.5515 11.1991 88.675 11.1746 88.8153 11.1646C88.94 11.1556 89.0502 11.1634 89.1459 11.1879C89.2573 11.2113 89.3575 11.2981 89.4465 11.4484C89.4588 11.6199 89.4793 11.9082 89.5083 12.3134C89.5528 12.7175 89.609 13.1756 89.6769 13.6877C89.7437 14.1842 89.8127 14.7119 89.8839 15.2707C89.9541 15.814 90.0147 16.3344 90.0659 16.8321C90.1327 17.3286 90.1884 17.7789 90.2329 18.183C90.2919 18.5704 90.3358 18.857 90.3648 19.0429C90.3882 19.1509 90.4165 19.329 90.4499 19.5773C90.4989 19.8244 90.5568 20.0866 90.6236 20.3638C90.7048 20.6243 90.7922 20.8609 90.8857 21.0735C90.9948 21.285 91.1201 21.3936 91.2614 21.3991C91.4952 21.3824 91.7218 21.2644 91.9411 21.0451C92.176 20.8247 92.3992 20.5503 92.6107 20.2219C92.8222 19.8935 93.0159 19.535 93.1918 19.1465C93.3677 18.758 93.5214 18.3868 93.6527 18.0327C93.7986 17.662 93.9004 17.3336 93.9583 17.0475C94.0318 16.7603 94.0719 16.5538 94.0786 16.428C94.0908 16.1609 94.0953 15.7846 94.092 15.2992C94.0875 14.7983 94.0731 14.2667 94.0486 13.7045C94.0241 13.1423 93.9941 12.6119 93.9584 12.1131C93.9384 11.6133 93.9189 11.2309 93.9 10.9659L95.1908 10.9443C95.2965 12.2056 95.3706 13.3516 95.4128 14.3825C95.454 15.3978 95.5147 16.3568 95.5948 17.2596C95.6738 18.1469 95.8057 19.0069 95.9905 19.8396C96.1753 20.6723 96.4636 21.5289 96.8554 22.4095C96.812 22.4596 96.723 22.5286 96.5883 22.6166C96.4547 22.7201 96.3567 22.7741 96.2944 22.7785C95.9047 22.8063 95.6303 22.6928 95.4711 22.4379C95.3286 22.1974 95.2218 21.9074 95.1505 21.5679C95.0938 21.2116 95.0375 20.8632 94.9819 20.5225C94.9407 20.1652 94.8194 19.8919 94.6179 19.7026ZM99.6213 28.2508C99.6759 26.6021 99.6581 25.0369 99.568 23.5551C99.4945 22.0879 99.3832 20.639 99.2341 19.2085C99.1005 17.7769 98.9425 16.3313 98.7599 14.8719C98.5774 13.4124 98.4199 11.865 98.2875 10.2297C98.3186 10.0082 98.3615 9.84061 98.4161 9.72706C98.4851 9.59682 98.6777 9.55173 98.9938 9.59182C99.3267 9.64637 99.5349 9.81948 99.6183 10.1112C99.7007 10.3872 99.7391 10.7056 99.7335 11.0663C99.728 11.427 99.7068 11.7888 99.6701 12.1517C99.6333 12.5146 99.6539 12.803 99.7318 13.0167C100.205 12.6226 100.708 12.2107 101.241 11.781C101.775 11.3513 102.335 10.9667 102.921 10.6272C103.507 10.2721 104.122 10.001 104.767 9.81402C105.41 9.61142 106.064 9.55689 106.729 9.65041C107.552 9.77956 108.133 10.02 108.472 10.3718C108.825 10.7069 108.98 11.1188 108.936 11.6075C108.907 12.0795 108.726 12.6172 108.393 13.2206C108.059 13.8084 107.64 14.4101 107.136 15.0257C106.632 15.6413 106.064 16.2536 105.434 16.8625C104.804 17.4714 104.187 18.0403 103.582 18.569C102.977 19.0822 102.406 19.5381 101.871 19.9366C101.351 20.334 100.933 20.6301 100.618 20.8249C100.616 21.0131 100.614 21.3109 100.612 21.7183C100.624 22.1091 100.632 22.5549 100.637 23.0559C100.657 23.5557 100.671 24.0795 100.678 24.6272C100.702 25.1738 100.716 25.6976 100.72 26.1985C100.74 26.6984 100.748 27.1442 100.745 27.5361C100.757 27.9268 100.77 28.2157 100.784 28.4027C100.753 28.4206 100.7 28.44 100.623 28.4612C100.546 28.4823 100.453 28.4968 100.344 28.5046C100.236 28.528 100.136 28.543 100.042 28.5497C99.9497 28.5719 99.8874 28.5764 99.8551 28.563C99.8083 28.5664 99.7582 28.523 99.7048 28.4328C99.6525 28.3582 99.6247 28.2975 99.6213 28.2508ZM100.016 15.3461C99.9845 15.5677 99.9884 15.8415 100.027 16.1677C100.081 16.4772 100.136 16.8101 100.193 17.1663C100.264 17.5058 100.335 17.8376 100.405 18.1615C100.475 18.4855 100.526 18.7638 100.558 18.9965C101.118 18.5022 101.771 17.9935 102.517 17.4702C103.279 16.9459 104.006 16.3849 104.7 15.7871C105.409 15.1882 106.028 14.533 106.557 13.8217C107.085 13.1104 107.413 12.3272 107.54 11.4722C107.579 11.1405 107.532 10.9245 107.4 10.8243C107.282 10.7074 107.081 10.6356 106.797 10.6089C106.196 10.5265 105.521 10.6217 104.773 10.8944C104.024 11.1516 103.305 11.5083 102.617 11.9647C101.945 12.42 101.364 12.9472 100.874 13.5461C100.384 14.145 100.098 14.745 100.016 15.3461ZM110.592 9.7975C110.489 8.36365 110.419 6.94316 110.381 5.53603C110.342 4.11332 110.316 2.65053 110.303 1.14766C110.341 1.01964 110.39 0.937816 110.45 0.902194C110.509 0.850986 110.593 0.821487 110.702 0.813696C110.858 0.802567 110.97 0.841533 111.039 0.930593C111.107 1.00407 111.153 1.0948 111.176 1.20278C111.215 1.30965 111.232 1.43378 111.226 1.57516C111.235 1.69984 111.243 1.80894 111.25 1.90245L111.761 9.05611C111.781 9.33665 111.825 9.6311 111.894 9.93946L112.101 10.8646C112.186 11.1718 112.246 11.4652 112.282 11.7446C112.332 12.0073 112.332 12.2344 112.283 12.4259C112.264 12.5995 112.181 12.7543 112.034 12.8901C111.903 13.0248 111.752 13.0983 111.58 13.1105C111.3 13.1305 111.095 13.0042 110.966 12.7314C110.837 12.4587 110.743 12.1364 110.685 11.7646C110.643 11.3917 110.616 11.0176 110.605 10.6424C110.609 10.2662 110.605 9.98453 110.592 9.7975ZM112.841 20.5631L112.814 20.189C112.808 20.1111 112.811 20.0326 112.821 19.9536C112.83 19.859 112.855 19.7788 112.898 19.7131C112.94 19.6475 113.008 19.6113 113.101 19.6046C113.413 19.5823 113.598 19.6475 113.656 19.8C113.728 19.9358 113.771 20.105 113.786 20.3076C113.801 20.5258 113.783 20.7073 113.731 20.852C113.694 20.9956 113.52 21.0785 113.208 21.1008C113.115 21.1075 113.042 21.0813 112.991 21.0223C112.94 20.9633 112.904 20.8954 112.883 20.8186C112.86 20.7262 112.846 20.641 112.841 20.5631Z" fill="#0088E9"/>
</svg>
