<svg width="177" height="123" viewBox="0 0 177 123" fill="none" xmlns="http://www.w3.org/2000/svg">
<path d="M12.9195 26.1264C12.8822 25.895 12.9255 25.7219 13.0494 25.6069C13.1695 25.4688 13.33 25.3599 13.5308 25.28C13.7316 25.2001 13.9477 25.1416 14.1791 25.1042C14.4104 25.0669 14.6053 25.0236 14.7635 24.9744L15.2953 28.2716C16.7515 27.5857 17.9301 26.9446 18.831 26.3482C19.7282 25.7287 20.5287 25.1723 21.2326 24.6789C21.9327 24.1624 22.6287 23.694 23.3207 23.2738C24.032 22.8267 24.9012 22.4017 25.9282 21.9986C26.0902 21.9725 26.2189 22.0349 26.3145 22.1856C26.41 22.3364 26.469 22.4812 26.4914 22.62C26.5324 22.8746 26.4156 23.1071 26.1409 23.3175L15.8617 30.4593L17.8914 40.1742C19.4507 38.9493 20.7662 37.9063 21.8381 37.0449C22.9099 36.1836 23.7922 35.4715 24.4849 34.9088C25.1775 34.346 25.7134 33.9153 26.0926 33.6168C26.4949 33.3145 26.7928 33.1003 26.9861 32.9741L27.3399 32.739C27.3824 32.7084 27.4153 32.6913 27.4384 32.6875C27.4847 32.6801 27.5268 32.7207 27.5649 32.8096C27.5992 32.8752 27.6257 32.9659 27.6444 33.0816L27.7116 33.4981C27.7302 33.6138 27.7702 33.7142 27.8314 33.7993C27.7381 33.9568 27.432 34.2673 26.9133 34.7308C26.4177 35.1906 25.8157 35.7268 25.1073 36.3396C24.3953 36.9293 23.6309 37.563 22.8144 38.2407C22.0172 38.8915 21.2741 39.5099 20.5852 40.0958C19.8963 40.6817 19.3252 41.1893 18.8722 41.6185C18.4385 42.0208 18.231 42.2798 18.2497 42.3955L19.1061 47.7057C19.1546 48.0065 19.1341 48.2473 19.0445 48.4279C18.9781 48.6048 18.8291 48.7119 18.5978 48.7492C18.3432 48.7903 18.0652 48.5383 17.7637 47.9935C17.4853 47.4449 17.2002 46.7074 16.9083 45.7811C16.6359 44.828 16.3527 43.7341 16.0586 42.4995C15.7645 41.265 15.4746 39.9823 15.1887 38.6515C14.9029 37.3206 14.6286 35.9879 14.3659 34.6533C14.1263 33.315 13.9035 32.0809 13.6975 30.9508C13.511 29.7939 13.3505 28.7989 13.2162 27.9659L12.9195 26.1264ZM41.2998 40.9215C41.252 41.2141 41.0822 41.6332 40.7904 42.1788C40.5179 42.6976 40.1779 43.2391 39.7704 43.8034C39.3591 44.3445 38.9172 44.8431 38.4447 45.2991C37.9917 45.7283 37.5685 45.9746 37.1751 46.038C36.4347 46.1575 35.7655 45.9093 35.1677 45.2935C34.593 44.674 34.0906 43.841 33.6607 42.7945C33.2308 41.748 32.8632 40.5728 32.558 39.2689C32.249 37.9417 31.9803 36.6437 31.7519 35.3749C31.5235 34.106 31.3254 32.9509 31.1575 31.9097C30.9895 30.8684 30.828 30.0873 30.6727 29.5663C30.728 29.32 30.8213 29.1625 30.9526 29.0939C31.1071 29.0215 31.2885 28.9685 31.4968 28.9349C31.6819 28.905 31.8476 28.9021 31.9939 28.926C32.1633 28.9461 32.3245 29.0625 32.4775 29.2753C32.5186 29.5298 32.5876 29.9579 32.6846 30.5595C32.8048 31.1573 32.9496 31.8343 33.119 32.5904C33.2847 33.3234 33.4578 34.1026 33.6385 34.9282C33.8153 35.7306 33.9751 36.5001 34.1176 37.2368C34.2833 37.9698 34.4262 38.6352 34.5464 39.2331C34.686 39.8041 34.7897 40.2265 34.8576 40.5005C34.9069 40.6587 34.9729 40.9211 35.0558 41.2875C35.1618 41.6503 35.283 42.0343 35.4196 42.4396C35.5756 42.818 35.7376 43.1599 35.9055 43.4652C36.0966 43.7667 36.2981 43.9123 36.5101 43.9018C36.8572 43.8459 37.18 43.6395 37.4786 43.2827C37.8003 42.9222 38.0973 42.4826 38.3698 41.9638C38.6422 41.4451 38.8841 40.8838 39.0953 40.28C39.3066 39.6761 39.4868 39.101 39.6361 38.5547C39.8048 37.9814 39.9134 37.4772 39.9619 37.0421C40.0336 36.6032 40.0661 36.2893 40.0594 36.1005C40.0422 35.6997 39.9989 35.1369 39.9295 34.4121C39.8564 33.6642 39.7642 32.8719 39.653 32.0352C39.5418 31.1985 39.4265 30.4099 39.3071 29.6695C39.2108 28.9253 39.131 28.3566 39.0675 27.9632L40.9932 27.7595C41.3186 29.63 41.5814 31.3325 41.7814 32.8671C41.9776 34.3786 42.1956 35.8035 42.4351 37.1418C42.671 38.4569 42.9822 39.7243 43.3688 40.944C43.7554 42.1636 44.2999 43.4052 45.0023 44.6689C44.9441 44.7495 44.8201 44.8645 44.6306 45.0137C44.4447 45.1861 44.3055 45.2798 44.2129 45.2947C43.6345 45.388 43.2094 45.2548 42.9377 44.895C42.6929 44.5547 42.4947 44.1356 42.3432 43.6377C42.2111 43.113 42.0809 42.5998 41.9525 42.0982C41.8435 41.5698 41.626 41.1775 41.2998 40.9215ZM46.881 28.9466C46.6682 29.0996 46.4689 29.2623 46.2831 29.4347C46.1166 29.5802 45.9502 29.7258 45.7837 29.8713C45.6135 29.9937 45.4396 30.093 45.262 30.1691C45.0843 30.2453 44.8877 30.277 44.672 30.2643C44.5331 30.2867 44.4044 30.2244 44.2857 30.0773C44.1633 29.9071 44.0622 29.7217 43.9823 29.5209C43.8756 29.3007 43.7938 29.0883 43.7371 28.8838C43.6767 28.6562 43.6487 28.4826 43.6531 28.3632L46.6772 25.9169L45.4525 16.9981C45.4503 16.6899 45.6167 16.5443 45.9519 16.5615C46.2833 16.5555 46.63 16.5708 46.992 16.6074C47.0383 16.6 47.1114 16.6119 47.2114 16.6433C47.3309 16.6477 47.4156 16.6578 47.4656 16.6735C47.5201 17.3057 47.5723 17.9976 47.6223 18.7492C47.6917 19.474 47.763 20.2103 47.8361 20.9582C47.9055 21.683 47.9846 22.3943 48.0734 23.0922C48.1854 23.7863 48.3208 24.4055 48.4798 24.9496L53.4509 22.6523C53.5397 22.6142 53.6203 22.6724 53.6927 22.8269C53.7845 22.9546 53.8704 23.1188 53.9502 23.3196C54.0532 23.5166 54.1331 23.7174 54.1898 23.9219C54.2465 24.1264 54.2749 24.2287 54.2749 24.2287L48.7776 27.6792C48.8112 27.8875 48.903 28.3831 49.053 29.166C49.2261 29.9453 49.4235 30.8749 49.6452 31.955C49.8631 33.0119 50.096 34.1614 50.3438 35.4034C50.5878 36.6223 50.8188 37.7601 51.0368 38.8171C51.2547 39.874 51.4405 40.8055 51.5943 41.6116C51.7443 42.3946 51.8361 42.8902 51.8697 43.0984C51.9353 43.8 51.7831 44.1807 51.4129 44.2404C51.0658 44.2964 50.656 44.1844 50.1835 43.9045L46.881 28.9466ZM67.4667 36.7015C67.4189 36.9941 67.2491 37.4132 66.9573 37.9588C66.6848 38.4775 66.3448 39.0191 65.9373 39.5833C65.526 40.1245 65.0841 40.623 64.6116 41.0791C64.1586 41.5083 63.7354 41.7546 63.342 41.818C62.6016 41.9374 61.9324 41.6892 61.3346 41.0734C60.7598 40.4539 60.2575 39.6209 59.8276 38.5745C59.3977 37.528 59.0301 36.3528 58.7249 35.0488C58.4159 33.7217 58.1472 32.4237 57.9188 31.1548C57.6904 29.8859 57.4923 28.7309 57.3244 27.6896C57.1564 26.6484 56.9949 25.8673 56.8396 25.3463C56.8948 25.1 56.9881 24.9425 57.1195 24.8738C57.274 24.8014 57.4554 24.7484 57.6636 24.7149C57.8488 24.685 58.0145 24.682 58.1607 24.7059C58.3302 24.7261 58.4914 24.8425 58.6444 25.0552C58.6855 25.3098 58.7545 25.7378 58.8515 26.3394C58.9717 26.9373 59.1165 27.6143 59.2859 28.3704C59.4516 29.1034 59.6247 29.8826 59.8053 30.7081C59.9822 31.5105 60.142 32.2801 60.2845 33.0168C60.4502 33.7497 60.5931 34.4152 60.7133 35.013C60.8528 35.584 60.9566 36.0065 61.0245 36.2804C61.0738 36.4387 61.1398 36.701 61.2227 37.0675C61.3286 37.4303 61.4499 37.8143 61.5865 38.2196C61.7425 38.598 61.9045 38.9399 62.0724 39.2451C62.2635 39.5467 62.465 39.6922 62.677 39.6818C63.0241 39.6258 63.3469 39.4194 63.6455 39.0627C63.9672 38.7022 64.2642 38.2625 64.5367 37.7438C64.8091 37.225 65.051 36.6638 65.2622 36.0599C65.4735 35.4561 65.6537 34.881 65.803 34.3346C65.9717 33.7614 66.0803 33.2572 66.1288 32.822C66.2005 32.3832 66.233 32.0693 66.2263 31.8805C66.2091 31.4796 66.1658 30.9169 66.0964 30.1921C66.0233 29.4442 65.9311 28.6519 65.8199 27.8152C65.7087 26.9785 65.5934 26.1899 65.474 25.4494C65.3777 24.7053 65.2979 24.1365 65.2344 23.7432L67.1601 23.5394C67.4855 25.4099 67.7482 27.1125 67.9483 28.6471C68.1445 30.1585 68.3625 31.5834 68.602 32.9217C68.8379 34.2369 69.1491 35.5043 69.5357 36.7239C69.9223 37.9435 70.4668 39.1852 71.1692 40.4489C71.1109 40.5295 70.987 40.6444 70.7975 40.7937C70.6116 40.9661 70.4724 41.0598 70.3798 41.0747C69.8014 41.168 69.3763 41.0348 69.1046 40.675C68.8598 40.3346 68.6616 39.9155 68.5101 39.4177C68.378 38.8929 68.2478 38.3798 68.1194 37.8782C68.0104 37.3498 67.7929 36.9575 67.4667 36.7015ZM71.8029 22.9687L71.7581 22.6911C71.7208 22.4597 71.7756 22.2847 71.9227 22.166C72.0929 22.0436 72.2936 21.9637 72.525 21.9264C72.7101 21.8965 72.8874 21.8917 73.0568 21.9118C73.2225 21.9089 73.3703 22.0156 73.5002 22.2321C73.6256 22.5679 73.7734 23.0427 73.9435 23.6562C74.11 24.2466 74.2992 24.9046 74.5112 25.6301C74.7231 26.3556 74.9425 27.1274 75.1694 27.9454C75.4157 28.7366 75.6449 29.495 75.8568 30.2205C76.0882 30.9191 76.3084 31.5483 76.5174 32.1081C76.7264 32.6679 76.9245 33.087 77.1119 33.3655C76.6842 31.1553 76.4439 29.2237 76.3909 27.5704C76.3342 25.894 76.513 24.5001 76.9273 23.3887C77.361 22.2504 78.0551 21.4025 79.0098 20.845C79.9839 20.2605 81.2647 19.959 82.8523 19.9404C83.5696 19.8247 83.9898 20.1486 84.1129 20.9122C84.1615 21.213 83.9984 21.453 83.6237 21.6321C83.2452 21.7881 82.8168 21.9284 82.3384 22.0531C81.8562 22.1546 81.3874 22.2658 80.9321 22.3867C80.4768 22.5076 80.16 22.6774 79.9816 22.8961C79.2232 23.4932 78.7489 24.3057 78.5585 25.3334C78.3913 26.3575 78.3446 27.5402 78.4185 28.8815C78.4924 30.2227 78.6215 31.6857 78.8058 33.2703C79.0096 34.8281 79.1167 36.4489 79.1271 38.1328C79.1644 38.3641 79.0998 38.5526 78.9334 38.6982C78.7669 38.8437 78.5449 38.9389 78.2672 38.9836C78.0127 39.0247 77.7488 39.0079 77.4756 38.9332C77.2256 38.8549 77.0125 38.7112 76.8364 38.5022L71.8029 22.9687ZM89.8113 29.5368C89.6993 29.5786 89.5314 29.6413 89.3075 29.7249C89.0836 29.8085 88.8425 29.8593 88.5842 29.8772C88.326 29.8951 88.095 29.8611 87.8912 29.7753C87.6643 29.6932 87.5284 29.5133 87.4837 29.2356C87.4575 29.0737 87.4736 28.9524 87.5318 28.8718C87.59 28.7911 87.6889 28.6684 87.8285 28.5034C88.2704 28.0048 88.6126 27.4036 88.8552 26.6997C89.1172 25.969 89.3389 25.2092 89.5203 24.4202C89.698 23.6082 89.889 22.8058 90.0936 22.0131C90.3175 21.1936 90.6008 20.4475 90.9434 19.775C91.286 19.1025 91.7514 18.5289 92.3396 18.0542C92.9277 17.5795 93.698 17.2772 94.6504 17.1474C95.0438 17.0839 95.4983 17.1056 96.0141 17.2123C96.5299 17.3191 97.0221 17.5008 97.4909 17.7576C97.9559 17.9912 98.3626 18.3055 98.7112 18.7003C99.0598 19.0952 99.277 19.5587 99.3628 20.0909C99.5083 20.2573 99.4356 20.5421 99.1445 20.9452C98.8765 21.3445 98.4869 21.799 97.9756 22.3088C97.4605 22.7955 96.8683 23.3183 96.1987 23.8773C95.5486 24.4095 94.9179 24.9148 94.3066 25.3933C93.6953 25.8717 93.1575 26.2908 92.6932 26.6505C92.2289 27.0103 91.927 27.2727 91.7874 27.4376C91.7091 27.6877 91.6594 27.9687 91.6385 28.2807C91.6176 28.5927 91.6064 28.8912 91.6049 29.1764C91.6228 29.4346 91.6389 29.6813 91.6531 29.9164C91.6866 30.1247 91.7128 30.2866 91.7314 30.4023C91.8023 30.842 91.8575 31.3316 91.8971 31.8712C91.9598 32.4072 92.065 32.9125 92.2128 33.3872C92.38 33.835 92.6401 34.1967 92.9931 34.4721C93.3425 34.7244 93.8758 34.7927 94.5931 34.677C95.3566 34.5539 96.0441 34.2531 96.6554 33.7746C97.263 33.2731 97.8112 32.698 98.3001 32.0494C98.789 31.4007 99.2126 30.7152 99.5709 29.9927C99.9523 29.2664 100.283 28.5958 100.564 27.9808C100.864 27.3389 101.135 26.8085 101.376 26.3898C101.617 25.9711 101.842 25.7449 102.05 25.7113C102.281 25.674 102.532 25.6811 102.801 25.7326C103.09 25.7573 103.259 25.92 103.307 26.2208C103.374 26.6373 103.281 27.1627 103.027 27.7972C102.796 28.4279 102.456 29.112 102.005 29.8494C101.577 30.5831 101.057 31.3317 100.444 32.0953C99.8507 32.832 99.2364 33.5127 98.6012 34.1374C97.9623 34.739 97.3219 35.2578 96.68 35.6936C96.0343 36.1064 95.4454 36.3557 94.9132 36.4415C93.872 36.6094 93.0442 36.4818 92.43 36.0586C91.8157 35.6353 91.3313 35.0606 90.9767 34.3344C90.6453 33.6044 90.399 32.8132 90.2378 31.9608C90.096 31.0815 89.9539 30.2735 89.8113 29.5368ZM94.6862 19.1358C94.2929 19.1992 93.9081 19.4631 93.5319 19.9273C93.152 20.3685 92.8101 20.8984 92.5063 21.5172C92.2219 22.1091 91.9991 22.7148 91.8379 23.3343C91.6961 23.9269 91.655 24.4083 91.7147 24.7786C92.0618 24.7226 92.5387 24.5151 93.1456 24.1561C93.7718 23.7702 94.3772 23.3283 94.9616 22.8305C95.546 22.3327 96.0458 21.8247 96.4608 21.3067C96.8758 20.7887 97.0516 20.3331 96.9881 19.9397C96.9545 19.7315 96.8456 19.571 96.6612 19.4583C96.4768 19.3456 96.2615 19.2616 96.0152 19.2064C95.792 19.1474 95.561 19.1134 95.3222 19.1045C95.0833 19.0955 94.8713 19.1059 94.6862 19.1358Z" fill="#0088E9"/>
<path d="M65.3666 117.979C64.9269 117.802 64.4815 117.346 64.0302 116.612C63.5616 115.85 63.106 114.982 62.6635 114.009C62.2037 113.008 61.7406 111.969 61.2743 110.894C60.8135 109.796 60.3596 108.821 59.9127 107.967C59.4485 107.085 58.9749 106.394 58.492 105.893C58.0146 105.37 57.538 105.196 57.0624 105.371L49.6139 113.714C49.5292 113.766 49.3706 113.825 49.1382 113.89C48.8831 113.949 48.7099 113.968 48.6187 113.946C48.5275 113.925 48.4303 113.877 48.3272 113.805C48.2296 113.709 48.1232 113.599 48.0082 113.475C47.8932 113.352 47.801 113.233 47.7315 113.12C47.6447 112.979 47.578 112.855 47.5314 112.747L56.0812 103.728C56.5765 103.267 57.1352 103.148 57.7572 103.369C58.3564 103.584 58.9723 104.032 59.605 104.713C60.243 105.371 60.8772 106.197 61.5075 107.191C62.1378 108.185 62.7344 109.219 63.2973 110.293C63.8603 111.367 64.3689 112.416 64.8233 113.44C65.2777 114.464 65.6567 115.35 65.9603 116.097C66.2466 116.816 66.4314 117.354 66.5149 117.711C66.5809 118.04 66.5326 118.041 66.3699 117.713C66.3101 117.963 66.1607 118.084 65.9219 118.076C65.6885 118.044 65.5034 118.012 65.3666 117.979Z" fill="#0088E9"/>
<path opacity="0.75" d="M2 96.0433C33.3333 83.8766 99.4 59.8433 113 61.0433C130 62.5433 90.5 74.0433 90.5 77.5433C90.5 80.3433 146.833 67.71 175 61.0433" stroke="#0088E9" stroke-width="2.8" stroke-linecap="round"/>
</svg>
