<svg width="117" height="36" viewBox="0 0 117 36" fill="none" xmlns="http://www.w3.org/2000/svg">
<path d="M3.0261 15.7135C2.97355 15.4721 2.88087 15.0928 2.74806 14.5756C2.61525 14.0584 2.46583 13.4765 2.29981 12.83C2.1338 12.1835 1.95643 11.4964 1.76772 10.7689C1.57901 10.0413 1.40165 9.3543 1.23563 8.70777C1.06962 8.06125 0.920203 7.47937 0.787389 6.96215C0.654576 6.44493 0.554966 6.05702 0.48856 5.79841C0.410427 5.64854 0.341737 5.48398 0.282489 5.30472C0.240451 5.1116 0.228646 4.92959 0.247073 4.75871C0.267176 4.57229 0.323603 4.41336 0.416354 4.28192C0.509105 4.15049 0.644274 4.06291 0.821859 4.0192C0.992743 4.03762 1.13362 4.11568 1.2445 4.25336C1.37259 4.37718 1.45933 4.52012 1.50472 4.68217L3.44322 11.8453C3.48221 11.6295 3.56293 11.2453 3.68537 10.6928C3.80949 10.1247 3.93697 9.52554 4.06779 8.89531C4.19861 8.26507 4.31748 7.67284 4.42439 7.11861C4.54851 6.55052 4.63783 6.1594 4.69236 5.94526C4.72464 5.79159 4.75944 5.61461 4.79676 5.41433C4.83407 5.21405 4.88608 5.02322 4.95279 4.84182C5.03503 4.66211 5.13806 4.5082 5.26188 4.38011C5.40124 4.2537 5.57966 4.20222 5.79715 4.22567C5.9525 4.24243 6.05957 4.26969 6.11836 4.30746C6.19268 4.3469 6.26807 4.44933 6.34453 4.61473L9.9944 12.7404L10.8437 4.86416C11.2942 4.91274 11.5924 5.06275 11.7381 5.31421C11.9011 5.5518 11.9805 5.83539 11.9764 6.16497C11.9878 6.49623 11.9501 6.84576 11.8633 7.21358C11.7765 7.58139 11.725 7.91372 11.7087 8.21056C11.697 8.3193 11.6796 8.55316 11.6566 8.91214C11.6336 9.27112 11.6047 9.68447 11.57 10.1522C11.5508 10.6216 11.5197 11.129 11.4766 11.6744C11.4352 12.2043 11.3971 12.703 11.3624 13.1708C11.3432 13.6402 11.3221 14.0544 11.2991 14.4133C11.2761 14.7723 11.2588 15.0062 11.247 15.1149C11.3223 15.4373 11.2919 15.6462 11.1559 15.7416C11.0371 15.8231 10.8784 15.8374 10.6798 15.7845C10.4812 15.7317 10.2884 15.6245 10.1016 15.4629C9.91469 15.3013 9.7994 15.1317 9.75568 14.9541L5.87142 6.37886C5.50972 8.71291 5.1899 10.6586 4.91196 12.2159C4.63402 13.7732 4.39065 15.0828 4.18186 16.1446C4.11682 16.3105 4.0291 16.3953 3.91868 16.3991C3.80826 16.4029 3.69342 16.3748 3.57417 16.3148C3.47212 16.241 3.37259 16.1438 3.27557 16.0233C3.17856 15.9029 3.0954 15.7996 3.0261 15.7135ZM20.1524 17.5603C20.1183 17.1481 20.1003 16.6589 20.0985 16.093C20.1139 15.5132 20.1215 14.9325 20.1213 14.351C20.1229 13.754 20.1047 13.1941 20.0667 12.6714C20.0443 12.1504 19.9653 11.7175 19.8296 11.3729C18.8631 12.9031 18.0266 14.1016 17.3203 14.9683C16.6156 15.8196 16.0084 16.422 15.4988 16.7756C15.0064 17.1154 14.6057 17.2608 14.2967 17.2118C13.9877 17.1627 13.7464 16.9953 13.5729 16.7094C13.3995 16.4235 13.2879 16.0736 13.2382 15.6597C13.2058 15.2318 13.1933 14.8376 13.2008 14.477C13.2376 14.1352 13.3672 13.662 13.5896 13.0573C13.8119 12.4527 14.0945 11.7995 14.4374 11.0979C14.7819 10.3807 15.1738 9.66073 15.6132 8.93805C16.0681 8.21704 16.5388 7.56845 17.0253 6.99229C17.5117 6.41612 18.002 5.95037 18.496 5.59504C18.9901 5.23971 19.4624 5.08634 19.9129 5.13492C20.5926 5.09821 21.0661 5.29856 21.3332 5.73597C21.6176 6.15952 21.6085 6.82646 21.306 7.73678C21.1955 8.76209 21.1397 9.644 21.1386 10.3825C21.1531 11.1227 21.1709 11.8318 21.1921 12.5099C21.2288 13.1896 21.2466 13.8987 21.2456 14.6373C21.26 15.3774 21.212 16.2602 21.1014 17.2855C21.0813 17.4719 21.0404 17.6325 20.9788 17.7673C20.9343 17.8882 20.7412 17.9303 20.3994 17.8934C20.3528 17.8884 20.2948 17.8429 20.2255 17.7568C20.1718 17.6724 20.1474 17.607 20.1524 17.5603ZM20.0173 7.00848C19.8732 6.74149 19.6427 6.69306 19.3258 6.86319C19.0088 7.03331 18.6621 7.33381 18.2856 7.76468C17.9092 8.19555 17.5148 8.71879 17.1027 9.3344C16.6906 9.95002 16.3009 10.5759 15.9337 11.2121C15.5665 11.8483 15.2415 12.4575 14.9587 13.04C14.6776 13.6068 14.4772 14.0803 14.3577 14.4603C14.2973 15.0195 14.3484 15.3472 14.511 15.4433C14.6751 15.5239 14.8949 15.4533 15.1703 15.2315C15.4456 15.0098 15.7638 14.6826 16.1248 14.2501C16.5012 13.8192 16.8655 13.3556 17.2177 12.8592C17.5853 12.3645 17.928 11.8829 18.2457 11.4142C18.5789 10.9473 18.84 10.5668 19.0288 10.2729C19.2038 9.96172 19.3452 9.67052 19.4531 9.39926C19.5609 9.12801 19.6515 8.87062 19.7249 8.62708C19.8155 8.36969 19.8751 8.10895 19.9036 7.84485C19.9476 7.58243 19.9855 7.30364 20.0173 7.00848ZM23.5852 18.072C23.6941 17.0622 23.7855 15.9955 23.8595 14.872C23.9491 13.7501 24.0317 12.6196 24.1074 11.4806C24.2003 10.3276 24.314 9.20051 24.4484 8.09921C24.5829 6.9979 24.7642 5.97237 24.9923 5.0226C25.0251 5.01042 25.0958 5.01019 25.2046 5.02191C25.3305 5.01978 25.4168 5.02123 25.4634 5.02625C25.6809 5.04971 25.8476 5.10697 25.9635 5.19805C26.0966 5.27526 26.1506 5.43038 26.1255 5.66341C26.0267 6.57997 25.9108 7.58113 25.778 8.66691C25.6624 9.73882 25.5366 10.8332 25.4004 11.95C25.2815 13.053 25.1634 14.1482 25.0461 15.2357C24.9289 16.3231 24.838 17.3113 24.7736 18.2001C24.7607 18.4659 24.6879 18.6309 24.5552 18.6952C24.4364 18.7767 24.2916 18.8082 24.1207 18.7898C23.9343 18.7696 23.7839 18.7063 23.6697 18.5997C23.5538 18.5086 23.5256 18.3327 23.5852 18.072ZM24.8717 1.33214C24.8918 1.14573 24.9673 1.02815 25.0983 0.979408C25.2293 0.93067 25.3725 0.914677 25.5278 0.931429C25.8385 0.964933 26.0218 1.08685 26.0777 1.29718C26.1336 1.50751 26.1473 1.74472 26.1188 2.00882C26.0072 2.16965 25.8773 2.28137 25.7291 2.34396C25.5826 2.39103 25.4333 2.39065 25.2813 2.34282C25.1465 2.28114 25.0331 2.16676 24.9411 1.99969C24.8647 1.83429 24.8415 1.61177 24.8717 1.33214ZM28.9878 9.06017C28.8241 9.1211 28.6673 9.19062 28.5174 9.26876C28.3848 9.33303 28.2521 9.3973 28.1195 9.46158C27.9885 9.51032 27.8592 9.54352 27.7315 9.56119C27.6039 9.57886 27.4719 9.56462 27.3354 9.51847C27.2422 9.50842 27.1704 9.44567 27.12 9.33022C27.0712 9.19924 27.0389 9.06217 27.0229 8.91901C26.993 8.75863 26.9779 8.6077 26.9774 8.46621C26.9786 8.30919 26.9912 8.19267 27.0151 8.11667L29.3903 7.07627L30.1734 1.12593C30.2263 0.927325 30.3589 0.863052 30.5714 0.933109C30.7855 0.987632 31.0058 1.05853 31.2321 1.14579C31.2631 1.14914 31.3081 1.16971 31.3669 1.20748C31.4429 1.23139 31.4956 1.25279 31.525 1.27167C31.4487 1.68776 31.3604 2.14186 31.2602 2.63395C31.1772 3.11218 31.0934 3.59818 31.0087 4.09195C30.9257 4.57018 30.8513 5.04148 30.7855 5.50586C30.7352 5.97191 30.7133 6.39386 30.7197 6.77173L34.3206 6.16994C34.3844 6.16111 34.426 6.21274 34.4453 6.32483C34.4819 6.42307 34.5082 6.54377 34.5242 6.68693C34.5557 6.83177 34.5717 6.97494 34.5721 7.11643C34.5726 7.25792 34.5728 7.32866 34.5728 7.32866L30.4305 8.57926C30.4154 8.71908 30.3872 9.05392 30.3458 9.58378C30.3199 10.1153 30.2831 10.7478 30.2354 11.4813C30.1894 12.1993 30.1367 12.9794 30.0774 13.8216C30.0196 14.6483 29.9678 15.4207 29.9218 16.1386C29.8758 16.8566 29.8313 17.4882 29.7882 18.0336C29.7467 18.5635 29.7185 18.8983 29.7034 19.0382C29.6221 19.5009 29.4572 19.7188 29.2086 19.692C28.9756 19.6669 28.7318 19.5227 28.4773 19.2595L28.9878 9.06017ZM34.7463 18.8276C34.9889 18.618 35.1921 18.4828 35.3558 18.4219C35.5212 18.3454 35.7282 18.3206 35.9768 18.3474C36.3962 18.3926 36.5842 18.6172 36.5406 19.0211C36.5305 19.1143 36.4878 19.2197 36.4122 19.3373C36.3539 19.441 36.2722 19.5422 36.1673 19.6409C36.0779 19.7413 35.9755 19.8166 35.86 19.8671C35.7463 19.9019 35.6453 19.8911 35.5571 19.8344C35.44 19.9003 35.3218 19.9033 35.2025 19.8433C35.0972 19.8005 35.0029 19.7275 34.9197 19.6242C34.8366 19.521 34.7706 19.4038 34.7219 19.2729C34.6903 19.128 34.6985 18.9796 34.7463 18.8276ZM38.7767 19.2622C39.0193 19.0526 39.2225 18.9174 39.3862 18.8565C39.5516 18.78 39.7586 18.7552 40.0072 18.782C40.4266 18.8272 40.6145 19.0518 40.571 19.4557C40.5609 19.5489 40.5181 19.6543 40.4426 19.7719C40.3843 19.8756 40.3026 19.9768 40.1977 20.0755C40.1083 20.1759 40.0059 20.2513 39.8904 20.3017C39.7767 20.3366 39.6757 20.3257 39.5875 20.269C39.4704 20.335 39.3522 20.3379 39.2329 20.2779C39.1275 20.2351 39.0333 20.1621 38.9501 20.0588C38.8669 19.9556 38.801 19.8385 38.7523 19.7075C38.7207 19.5626 38.7289 19.4142 38.7767 19.2622ZM55.6171 10.6352L55.6372 10.4488C55.654 10.2934 55.7201 10.1905 55.8355 10.1401C55.9665 10.0914 56.1097 10.0754 56.265 10.0921C56.3893 10.1055 56.5041 10.1336 56.6095 10.1764C56.7166 10.2037 56.7928 10.2983 56.8382 10.4604C56.8597 10.6984 56.8711 11.0297 56.8725 11.4542C56.8755 11.8631 56.8813 12.3195 56.8899 12.8233C56.8984 13.3271 56.9036 13.862 56.9054 14.428C56.9245 14.9801 56.9383 15.508 56.9468 16.0118C56.9725 16.5018 57.0033 16.9452 57.0391 17.3419C57.0749 17.7387 57.1285 18.043 57.1999 18.255C57.3141 16.7587 57.4998 15.4743 57.7569 14.4019C58.0156 13.314 58.376 12.4492 58.8381 11.8076C59.3174 11.1521 59.9131 10.7291 60.6251 10.5387C61.3543 10.3345 62.231 10.3661 63.2551 10.6337C63.7366 10.6857 63.9498 10.968 63.8945 11.4806C63.8727 11.6826 63.7256 11.8081 63.4531 11.8573C63.1823 11.891 62.8822 11.9058 62.5526 11.9017C62.2247 11.882 61.9037 11.871 61.5896 11.8685C61.2756 11.8661 61.042 11.9195 60.8887 12.0287C60.296 12.2791 59.8479 12.718 59.5445 13.3453C59.2567 13.9743 59.0184 14.7265 58.8297 15.602C58.641 16.4774 58.4664 17.4408 58.3059 18.4922C58.1626 19.5297 57.946 20.5907 57.6562 21.6752C57.6394 21.8306 57.5647 21.9404 57.4321 22.0047C57.2994 22.0689 57.1399 22.091 56.9535 22.0709C56.7826 22.0525 56.6159 21.9952 56.4534 21.8991C56.3064 21.8047 56.1947 21.6748 56.1182 21.5094L55.6171 10.6352ZM66.0397 18.0296C65.9604 18.0368 65.8414 18.0475 65.6827 18.0618C65.524 18.0761 65.36 18.0663 65.1908 18.0324C65.0216 17.9984 64.879 17.9359 64.7631 17.8448C64.6317 17.752 64.576 17.6125 64.5961 17.426C64.6079 17.3173 64.6395 17.2421 64.6912 17.2006C64.7428 17.159 64.828 17.0974 64.9468 17.016C65.3187 16.7732 65.6447 16.4469 65.9246 16.037C66.2217 15.6133 66.4981 15.1638 66.7536 14.6884C67.0109 14.1976 67.275 13.7153 67.5461 13.2416C67.8344 12.7541 68.1479 12.3243 68.4867 11.9522C68.8254 11.5801 69.2256 11.2933 69.6874 11.0916C70.1492 10.89 70.6977 10.8313 71.333 10.9155C71.5971 10.944 71.8855 11.0379 72.1984 11.1974C72.5112 11.3568 72.7957 11.5604 73.0519 11.808C73.3097 12.0401 73.5159 12.3138 73.6705 12.6291C73.8251 12.9444 73.8832 13.2806 73.8446 13.6379C73.9089 13.7706 73.812 13.9409 73.5538 14.1488C73.3112 14.3583 72.9806 14.582 72.5621 14.8198C72.1452 15.042 71.6723 15.2739 71.1434 15.5154C70.6317 15.7431 70.1371 15.9569 69.6598 16.1569C69.1825 16.3569 68.7629 16.5317 68.401 16.6812C68.0392 16.8308 67.7988 16.9463 67.68 17.0278C67.5856 17.1748 67.5042 17.3467 67.4358 17.5437C67.3674 17.7406 67.3077 17.9306 67.2565 18.1137C67.2225 18.2829 67.1894 18.4443 67.1571 18.598C67.142 18.7378 67.1303 18.8465 67.1219 18.9242C67.0901 19.2194 67.0394 19.5439 66.9698 19.8979C66.9157 20.2535 66.8944 20.597 66.9058 20.9282C66.9345 21.2456 67.038 21.524 67.2165 21.7632C67.3967 21.987 67.7276 22.1248 68.2092 22.1767C68.7218 22.232 69.2168 22.1597 69.6941 21.9597C70.1731 21.7442 70.6269 21.4709 71.0555 21.14C71.4841 20.809 71.8772 20.4428 72.2348 20.0413C72.6079 19.6415 72.9389 19.2686 73.2276 18.9226C73.5336 18.5627 73.801 18.2693 74.0297 18.0426C74.2585 17.8158 74.4428 17.7099 74.5826 17.725C74.7379 17.7417 74.8977 17.7904 75.0619 17.871C75.2433 17.9377 75.3231 18.072 75.3013 18.274C75.2711 18.5536 75.1186 18.875 74.8437 19.2383C74.5843 19.6032 74.2448 19.983 73.825 20.3778C73.4208 20.7743 72.9545 21.164 72.426 21.5471C71.9147 21.9163 71.3999 22.2458 70.8814 22.5356C70.3647 22.8099 69.8615 23.0307 69.372 23.1979C68.8842 23.3496 68.4616 23.4062 68.1043 23.3677C67.4053 23.2923 66.8955 23.0644 66.5751 22.6841C66.2546 22.3038 66.0443 21.849 65.9443 21.3196C65.8597 20.7919 65.8407 20.2398 65.8871 19.6633C65.9508 19.073 66.0017 18.5284 66.0397 18.0296ZM71.0058 12.2003C70.7417 12.1718 70.4479 12.2737 70.1242 12.506C69.8023 12.7227 69.4891 13.0033 69.1848 13.3476C68.8977 13.6781 68.6478 14.0283 68.4351 14.3983C68.2395 14.7544 68.1283 15.0567 68.1015 15.3053C68.3345 15.3304 68.6778 15.281 69.1312 15.157C69.6018 15.0191 70.0688 14.8416 70.5323 14.6244C70.9957 14.4073 71.4065 14.1687 71.7646 13.9087C72.1226 13.6487 72.3159 13.3867 72.3444 13.1226C72.3594 12.9828 72.3176 12.8604 72.2189 12.7554C72.1202 12.6505 71.9966 12.5586 71.8479 12.4797C71.7148 12.4025 71.5723 12.34 71.4203 12.2921C71.2683 12.2443 71.1301 12.2137 71.0058 12.2003ZM83.4809 24.3893C83.4468 23.977 83.4288 23.4879 83.427 22.9219C83.4424 22.3421 83.45 21.7615 83.4498 21.18C83.4513 20.5829 83.4331 20.0231 83.3952 19.5004C83.3728 18.9793 83.2938 18.5465 83.1581 18.2018C82.1916 19.732 81.3551 20.9305 80.6488 21.7973C79.9441 22.6485 79.3369 23.2509 78.8273 23.6046C78.3349 23.9444 77.9342 24.0898 77.6252 24.0407C77.3162 23.9917 77.0749 23.8242 76.9014 23.5384C76.728 23.2525 76.6164 22.9026 76.5667 22.4886C76.5343 22.0608 76.5218 21.6666 76.5293 21.3059C76.5661 20.9641 76.6957 20.4909 76.9181 19.8863C77.1404 19.2816 77.423 18.6285 77.7658 17.9268C78.1104 17.2096 78.5023 16.4897 78.9417 15.767C79.3966 15.046 79.8673 14.3974 80.3537 13.8212C80.8402 13.2451 81.3305 12.7793 81.8245 12.424C82.3186 12.0687 82.7909 11.9153 83.2414 11.9639C83.9211 11.9272 84.3946 12.1275 84.6617 12.5649C84.9461 12.9885 84.937 13.6554 84.6345 14.5657C84.524 15.591 84.4682 16.4729 84.4671 17.2115C84.4816 17.9517 84.4994 18.6608 84.5206 19.3388C84.5573 20.0186 84.5751 20.7277 84.5741 21.4662C84.5885 22.2064 84.5405 23.0891 84.4299 24.1145C84.4098 24.3009 84.3689 24.4615 84.3073 24.5963C84.2628 24.7172 84.0697 24.7592 83.7279 24.7224C83.6813 24.7174 83.6233 24.6718 83.554 24.5858C83.5003 24.5014 83.4759 24.4359 83.4809 24.3893ZM83.3458 13.8374C83.2017 13.5704 82.9712 13.522 82.6543 13.6921C82.3373 13.8623 81.9906 14.1628 81.6141 14.5936C81.2376 15.0245 80.8433 15.5477 80.4312 16.1634C80.0191 16.779 79.6294 17.4049 79.2622 18.041C78.895 18.6772 78.57 19.2865 78.2872 19.8689C78.0061 20.4358 77.8057 20.9092 77.6861 21.2892C77.6258 21.8485 77.6769 22.1762 77.8395 22.2723C78.0036 22.3528 78.2234 22.2822 78.4988 22.0605C78.7741 21.8387 79.0923 21.5116 79.4532 21.079C79.8297 20.6482 80.194 20.1845 80.5462 19.6882C80.9138 19.1935 81.2565 18.7118 81.5742 18.2432C81.9074 17.7762 82.1685 17.3958 82.3573 17.1018C82.5323 16.7907 82.6737 16.4995 82.7816 16.2282C82.8894 15.957 82.98 15.6996 83.0534 15.456C83.144 15.1986 83.2036 14.9379 83.2321 14.6738C83.2761 14.4114 83.314 14.1326 83.3458 13.8374ZM87.1081 24.1911C87.2939 23.4882 87.4601 22.6025 87.6068 21.5339C87.769 20.467 87.9076 19.3269 88.0228 18.1135C88.1534 16.9018 88.265 15.6487 88.3574 14.3543C88.4499 13.0598 88.5192 11.8337 88.5655 10.6757C88.6135 9.5022 88.6325 8.4513 88.6226 7.52302C88.6282 6.5964 88.6051 5.86314 88.5533 5.32323C88.7032 5.24509 88.8273 5.18775 88.9255 5.1512C89.0409 5.10078 89.1686 5.08311 89.3084 5.09819C89.4171 5.10992 89.5078 5.14327 89.5805 5.19825C89.6548 5.2377 89.7086 5.32207 89.7418 5.45138C89.7241 8.52973 89.603 11.6205 89.3784 14.7237C89.1693 17.8285 88.9308 20.9145 88.6629 23.9816C88.6479 24.1214 88.6269 24.3156 88.6001 24.5641C88.575 24.7972 88.5538 24.9206 88.5366 24.9345C88.3074 25.0198 88.1074 25.0532 87.9365 25.0348C87.7673 25.0008 87.6169 24.9374 87.4855 24.8447C87.3557 24.7364 87.2579 24.6237 87.1919 24.5066C87.126 24.3895 87.098 24.2843 87.1081 24.1911ZM91.3482 24.6483C91.534 23.9454 91.7002 23.0597 91.8469 21.9912C92.0091 20.9243 92.1477 19.7841 92.2629 18.5707C92.3935 17.359 92.5051 16.1059 92.5975 14.8115C92.69 13.5171 92.7593 12.2909 92.8056 11.1329C92.8536 9.95942 92.8726 8.90853 92.8627 7.98024C92.8683 7.05363 92.8452 6.32037 92.7935 5.78045C92.9433 5.70232 93.0674 5.64498 93.1656 5.60842C93.281 5.55801 93.4087 5.54034 93.5485 5.55542C93.6572 5.56714 93.7479 5.6005 93.8206 5.65548C93.8949 5.69492 93.9487 5.7793 93.9819 5.9086C93.9642 8.98696 93.8431 12.0777 93.6185 15.1809C93.4094 18.2858 93.1709 21.3717 92.9031 24.4388C92.888 24.5786 92.867 24.7728 92.8402 25.0214C92.8151 25.2544 92.7939 25.3778 92.7767 25.3917C92.5475 25.477 92.3475 25.5104 92.1766 25.492C92.0074 25.458 91.857 25.3947 91.7256 25.3019C91.5958 25.1936 91.498 25.0809 91.432 24.9638C91.3661 24.8467 91.3381 24.7415 91.3482 24.6483ZM100.97 26.7938L95.9953 16.5216C95.9815 16.5044 95.9718 16.4483 95.9663 16.3534C95.9625 16.243 95.9639 16.1567 95.9706 16.0946C95.9924 15.8926 96.0419 15.7251 96.1191 15.592C96.2136 15.445 96.4084 15.3874 96.7035 15.4193C96.7657 15.426 96.8702 15.4765 97.0172 15.571C97.1658 15.6499 97.2524 15.7221 97.2767 15.7875C97.5599 16.3681 97.8441 17.0117 98.1293 17.7182C98.4301 18.4264 98.7387 19.1355 99.0551 19.8453C99.3869 20.5569 99.7368 21.2468 100.105 21.9151C100.474 22.5679 100.877 23.1377 101.311 23.6246L102.856 14.5504C102.871 14.5521 102.91 14.5563 102.972 14.563C103.051 14.5558 103.107 14.5539 103.138 14.5573C103.278 14.5723 103.415 14.6107 103.55 14.6724C103.686 14.7185 103.776 14.8304 103.82 15.008C103.775 15.5689 103.701 16.2602 103.596 17.0819C103.507 17.9053 103.401 18.7502 103.276 19.6168C103.166 20.4851 103.053 21.3215 102.934 22.126C102.833 22.9166 102.749 23.5518 102.682 24.0317C102.633 24.3408 102.551 24.8035 102.438 25.4198C102.34 26.0379 102.218 26.7319 102.072 27.502C101.94 28.2892 101.788 29.1136 101.617 29.9752C101.461 30.8385 101.31 31.6551 101.164 32.4252C101.018 33.1952 100.888 33.8884 100.775 34.5048C100.659 35.1367 100.571 35.5908 100.51 35.8671L99.298 35.7364L100.97 26.7938ZM108.28 26.7571C108.309 26.493 108.374 26.3271 108.475 26.2595C108.593 26.1935 108.737 26.1698 108.907 26.1882C109.172 26.2167 109.386 26.3419 109.551 26.564C109.717 26.7705 109.787 26.9981 109.76 27.2466C109.736 27.4641 109.634 27.6102 109.453 27.685C109.29 27.7459 109.107 27.7655 108.905 27.7437C108.812 27.7337 108.722 27.6926 108.635 27.6204C108.566 27.5343 108.497 27.4405 108.43 27.3389C108.379 27.2235 108.336 27.1166 108.299 27.0184C108.278 26.9218 108.272 26.8347 108.28 26.7571ZM108.06 17.2097C108.127 16.5883 108.336 16.0372 108.687 15.5564C109.053 15.0772 109.477 14.6358 109.961 14.2322C110.446 13.8131 110.976 13.4145 111.551 13.0365C112.127 12.6585 112.657 12.2599 113.142 11.8407C113.627 11.4216 114.045 10.9716 114.395 10.4908C114.763 9.9961 114.981 9.4303 115.05 8.79336C115.088 8.43606 115.024 8.16191 114.856 7.97093C114.688 7.77994 114.467 7.6383 114.194 7.54601C113.923 7.43818 113.624 7.37444 113.296 7.3548C112.969 7.31962 112.666 7.28695 112.387 7.2568C111.89 7.2032 111.405 7.25308 110.933 7.40645C110.46 7.55983 110.002 7.73041 109.557 7.9182C109.13 8.09214 108.704 8.2583 108.278 8.4167C107.854 8.55957 107.432 8.60839 107.013 8.56316C106.826 8.54305 106.666 8.50216 106.531 8.44048C106.398 8.36326 106.348 8.16931 106.381 7.85861C106.402 7.67219 106.554 7.50001 106.838 7.34207C107.122 7.18413 107.475 7.04149 107.898 6.91416C108.337 6.77297 108.814 6.65151 109.328 6.54976C109.859 6.43416 110.371 6.34795 110.864 6.29114C111.358 6.23432 111.794 6.19495 112.174 6.17301C112.57 6.13722 112.87 6.13021 113.072 6.15199C113.414 6.18884 113.783 6.26012 114.18 6.36581C114.595 6.45765 114.957 6.59883 115.266 6.78936C115.593 6.96602 115.85 7.2059 116.037 7.50898C116.242 7.7982 116.32 8.1603 116.274 8.59528C116.188 9.38756 115.902 10.1503 115.414 10.8835C114.926 11.6167 114.357 12.3018 113.707 12.9389C113.074 13.5621 112.414 14.1432 111.728 14.682C111.058 15.207 110.481 15.6791 109.995 16.0983C109.799 16.1714 109.659 16.3055 109.575 16.5008C109.508 16.6822 109.494 16.885 109.533 17.1092C109.573 17.3178 109.66 17.5315 109.794 17.7502C109.945 17.9551 110.138 18.1253 110.375 18.2608C110.629 18.3825 110.921 18.4454 111.251 18.4495C111.582 18.4381 111.954 18.3368 112.368 18.1456L112.713 19.1022C112.359 19.3156 111.96 19.4454 111.515 19.4917C111.072 19.5225 110.648 19.5161 110.245 19.4725C109.949 19.4407 109.667 19.3631 109.397 19.2397C109.128 19.1164 108.886 18.9567 108.671 18.7607C108.457 18.5647 108.293 18.3348 108.18 18.0712C108.067 17.8076 108.027 17.5204 108.06 17.2097Z" fill="#0088E9"/>
</svg>
