<svg width="168" height="32" viewBox="0 0 168 32" fill="none" xmlns="http://www.w3.org/2000/svg">
<path d="M7.83296 16.954C7.79174 16.5423 7.76533 16.0536 7.75374 15.4877C7.75912 14.9077 7.75672 14.327 7.74654 13.7456C7.73776 13.1487 7.70991 12.5892 7.66297 12.0672C7.6316 11.5467 7.5451 11.1153 7.40348 10.773C6.4635 12.3196 5.64784 13.5323 4.95652 14.4111C4.2666 15.2744 3.66992 15.8872 3.16649 16.2496C2.68003 16.5978 2.28189 16.7501 1.97206 16.7064C1.66224 16.6627 1.41814 16.4994 1.23976 16.2166C1.06138 15.9337 0.943801 15.5858 0.887018 15.1728C0.847203 14.7456 0.827916 14.3516 0.829157 13.9909C0.860114 13.6485 0.981543 13.1731 1.19344 12.5648C1.40534 11.9564 1.67663 11.2984 2.00732 10.591C2.3394 9.86794 2.71888 9.14135 3.14574 8.4112C3.58817 7.68245 4.04761 7.02585 4.52405 6.44138C5.0005 5.85691 5.48266 5.38278 5.97053 5.01899C6.4584 4.6552 6.92797 4.49371 7.37926 4.53451C8.05825 4.48609 8.53507 4.67825 8.80972 5.11099C9.10133 5.52958 9.10377 6.19657 8.81704 7.11197C8.72417 8.13903 8.68357 9.02177 8.69525 9.7602C8.72248 10.5 8.75253 11.2087 8.78539 11.8863C8.83381 12.5653 8.86386 13.274 8.87553 14.0125C8.90277 14.7523 8.86995 15.6357 8.77708 16.6628C8.76019 16.8495 8.72207 17.0108 8.66273 17.1467C8.62035 17.2683 8.42798 17.3137 8.08563 17.2827C8.03894 17.2785 7.98021 17.234 7.90944 17.1491C7.85423 17.0657 7.82874 17.0006 7.83296 16.954ZM7.51596 6.40599C7.3673 6.14153 7.13599 6.09708 6.82202 6.27264C6.50806 6.44821 6.16658 6.75464 5.79757 7.19193C5.42857 7.62923 5.04334 8.15919 4.64188 8.78182C4.24043 9.40444 3.86162 10.037 3.50544 10.6794C3.14927 11.3218 2.83481 11.9366 2.56207 12.5238C2.29074 13.0954 2.09858 13.5722 1.98559 13.9542C1.93494 14.5145 1.99168 14.8412 2.15582 14.9345C2.32137 15.0122 2.53989 14.9378 2.81139 14.7114C3.08289 14.4849 3.39536 14.1523 3.7488 13.7136C4.11781 13.2763 4.47407 12.8065 4.81758 12.3041C5.17665 11.8032 5.51097 11.3157 5.82055 10.8416C6.14568 10.369 6.40013 9.98411 6.58389 9.68695C6.75349 9.37282 6.88986 9.07922 6.993 8.80615C7.09613 8.53308 7.1823 8.27416 7.2515 8.0294C7.33767 7.77048 7.39271 7.50875 7.41663 7.2442C7.45611 6.98106 7.48922 6.70166 7.51596 6.40599ZM20.1606 8.39656C19.6045 8.12664 19.0443 8.16227 18.4801 8.50347C17.9158 8.84466 17.3601 9.35136 16.8129 10.0236C16.2672 10.6802 15.7357 11.4401 15.2184 12.3033C14.701 13.1665 14.219 13.9858 13.7724 14.7612C13.3257 15.5366 12.9208 16.1981 12.5575 16.7458C12.2097 17.2948 11.9086 17.5892 11.6539 17.6289C11.4672 17.612 11.3222 17.5676 11.2189 17.4955C11.1326 17.4092 11.1021 17.226 11.1274 16.9459L12.6112 0.536314C12.6239 0.396261 12.6861 0.315598 12.7978 0.294324C12.9251 0.274459 13.0581 0.278638 13.1967 0.306864C13.3354 0.33509 13.4641 0.385954 13.583 0.459457C13.7033 0.517399 13.7762 0.5789 13.8017 0.64396L12.9168 13.8131C13.1133 13.5485 13.3041 13.1735 13.4892 12.6882C13.6912 12.1887 13.9194 11.6603 14.1738 11.1028C14.4296 10.5297 14.7157 9.96729 15.0324 9.41543C15.3659 8.84943 15.7561 8.35129 16.2029 7.92103C16.6498 7.49077 17.1723 7.17718 17.7706 6.98026C18.3859 6.76919 19.0868 6.73844 19.8734 6.88801C20.4025 6.93585 20.8149 7.14572 21.1108 7.51763C21.408 7.87397 21.5398 8.32517 21.5061 8.87123L20.8974 18.2059C20.8917 18.2681 20.8677 18.3601 20.8253 18.4818C20.7999 18.5893 20.7292 18.677 20.6133 18.745C20.5115 18.8299 20.3665 18.8717 20.1783 18.8704C20.0044 18.8861 19.7822 18.8267 19.512 18.6925L20.1606 8.39656ZM23.0543 18.0244C23.2933 17.8107 23.4941 17.672 23.6568 17.6082C23.8208 17.5289 24.0274 17.5005 24.2763 17.523C24.6965 17.561 24.8883 17.7823 24.8517 18.1869C24.8433 18.2803 24.8023 18.3864 24.7288 18.5053C24.6722 18.61 24.5924 18.7126 24.4891 18.8131C24.4015 18.915 24.3004 18.9921 24.1858 19.0445C24.0727 19.0814 23.9715 19.0722 23.8824 19.0171C23.7664 19.085 23.6483 19.09 23.528 19.0321C23.4219 18.9911 23.3264 18.9197 23.2415 18.8179C23.1565 18.7161 23.0886 18.6001 23.0376 18.47C23.0036 18.3258 23.0091 18.1772 23.0543 18.0244ZM27.0916 18.3895C27.3306 18.1758 27.5314 18.037 27.694 17.9733C27.8581 17.894 28.0646 17.8656 28.3136 17.8881C28.7338 17.9261 28.9256 18.1474 28.889 18.552C28.8805 18.6454 28.8396 18.7515 28.7661 18.8704C28.7095 18.9751 28.6296 19.0777 28.5264 19.1781C28.4388 19.28 28.3377 19.3572 28.2231 19.4096C28.1099 19.4464 28.0088 19.4373 27.9197 19.3821C27.8037 19.4501 27.6856 19.4551 27.5653 19.3972C27.4592 19.3562 27.3637 19.2848 27.2787 19.183C27.1938 19.0812 27.1258 18.9652 27.0749 18.8351C27.0408 18.6908 27.0464 18.5423 27.0916 18.3895ZM31.1289 18.7545C31.3679 18.5408 31.5687 18.4021 31.7313 18.3384C31.8954 18.2591 32.1019 18.2307 32.3509 18.2532C32.7711 18.2912 32.9628 18.5125 32.9263 18.9171C32.9178 19.0104 32.8768 19.1166 32.8033 19.2354C32.7468 19.3401 32.6669 19.4427 32.5637 19.5432C32.476 19.6451 32.3749 19.7223 32.2604 19.7747C32.1472 19.8115 32.0461 19.8023 31.9569 19.7472C31.841 19.8152 31.7228 19.8202 31.6026 19.7622C31.4965 19.7213 31.4009 19.6499 31.316 19.5481C31.2311 19.4462 31.1631 19.3303 31.1121 19.2002C31.0781 19.0559 31.0837 18.9073 31.1289 18.7545ZM47.5861 30.3619C48.9625 30.4079 50.0686 30.1471 50.9044 29.5794C51.7557 29.0132 52.4216 28.2419 52.9021 27.2656C53.3826 26.2893 53.7209 25.151 53.9169 23.8509C54.1115 22.5663 54.2403 21.2287 54.3033 19.8381C54.3663 18.4475 54.3981 17.0541 54.3989 15.6579C54.4166 14.2475 54.4874 12.9439 54.6113 11.7471C53.7649 13.6473 52.9911 15.1776 52.29 16.3379C51.5903 17.4827 50.9556 18.3431 50.3858 18.9191C49.8329 19.481 49.3401 19.8129 48.9073 19.915C48.4914 20.0029 48.1356 19.9472 47.8398 19.7479C47.5455 19.533 47.3148 19.2219 47.1476 18.8146C46.9975 18.3931 46.9025 17.9687 46.8627 17.5416C46.9585 16.8285 47.1697 16.0553 47.496 15.222C47.8394 14.3745 48.2506 13.5566 48.7298 12.7684C49.226 11.9661 49.7787 11.2316 50.3881 10.5651C50.9989 9.88293 51.626 9.36699 52.2695 9.01727C52.9144 8.65199 53.5644 8.49112 54.2193 8.53466C54.8757 8.56263 55.4835 8.86861 56.0425 9.45258C56.0567 9.46954 56.061 9.68174 56.0556 10.0891C56.0671 10.4824 56.0666 11.0079 56.0542 11.6657C56.0588 12.3094 56.0556 13.0386 56.0446 13.8535C56.0507 14.6541 56.0475 15.4697 56.0352 16.3001C56.0243 17.1149 56.0084 17.8979 55.9875 18.6491C55.9667 19.4002 55.955 20.0503 55.9524 20.5991C55.9344 21.4918 55.8104 22.4297 55.5803 23.413C55.3657 24.3977 55.0762 25.3442 54.7117 26.2526C54.3457 27.1765 53.9076 28.0311 53.3973 28.8165C52.9026 29.6032 52.3512 30.2358 51.7431 30.7143C51.1506 31.1941 50.5057 31.4731 49.8083 31.5513C49.1251 31.6464 48.4198 31.4649 47.6925 31.0069C47.6458 31.0027 47.5765 30.9886 47.4845 30.9646C47.3911 30.9562 47.3154 30.9258 47.2574 30.8735C47.215 30.8226 47.2128 30.7596 47.251 30.6846C47.2891 30.6096 47.4008 30.5021 47.5861 30.3619ZM48.0913 17.4879C48.2033 17.9844 48.383 18.2517 48.6306 18.2897C48.8952 18.3137 49.1901 18.1756 49.5153 17.8755C49.8419 17.5599 50.2038 17.1141 50.6011 16.5382C51.0138 15.9637 51.4238 15.334 51.8309 14.6491C52.2379 13.9642 52.6387 13.2631 53.033 12.5457C53.4443 11.8141 53.8273 11.1349 54.1821 10.5081C54.1976 10.3369 54.1727 10.1778 54.1076 10.0307C54.0439 9.86802 53.8769 9.80586 53.6067 9.84418C53.1626 9.89815 52.7156 10.0695 52.2659 10.3583C51.8318 10.6485 51.4139 11.0187 51.0124 11.4687C50.6278 11.9046 50.2617 12.3971 49.9139 12.9461C49.5832 13.481 49.2828 14.0265 49.0129 14.5825C48.76 15.1245 48.548 15.6466 48.3771 16.1488C48.2217 16.6525 48.1264 17.0989 48.0913 17.4879ZM58.6299 21.6884C58.7213 20.6769 58.7944 19.6089 58.849 18.4842C58.9192 17.361 58.9823 16.2292 59.0383 15.089C59.1114 13.9347 59.2056 12.8057 59.3211 11.7023C59.4365 10.5988 59.6001 9.57032 59.8119 8.61676C59.8444 8.60401 59.9151 8.60256 60.0241 8.61241C60.15 8.60811 60.2362 8.60807 60.2829 8.61229C60.5008 8.63199 60.6684 8.68637 60.7859 8.77544C60.9203 8.85035 60.977 9.00451 60.9559 9.23793C60.8729 10.1561 60.7743 11.1591 60.6603 12.247C60.5632 13.3207 60.4562 14.4171 60.3393 15.5361C60.2394 16.641 60.1402 17.7381 60.0417 18.8274C59.9432 19.9167 59.8694 20.9063 59.8203 21.7961C59.812 22.062 59.742 22.2283 59.6105 22.2948C59.4931 22.3783 59.3488 22.4124 59.1777 22.3969C58.9909 22.38 58.8395 22.3192 58.7235 22.2146C58.606 22.1256 58.5748 21.9502 58.6299 21.6884ZM59.6276 4.92893C59.6445 4.74219 59.718 4.62333 59.8481 4.57234C59.9782 4.52135 60.1211 4.50289 60.2767 4.51696C60.5879 4.54511 60.7733 4.66385 60.8328 4.87318C60.8923 5.08252 60.9101 5.31946 60.8862 5.584C60.7774 5.74674 60.6494 5.86067 60.5023 5.92582C60.3566 5.9754 60.2074 5.97759 60.0546 5.9324C59.9188 5.87305 59.8034 5.76064 59.7086 5.59518C59.6293 5.43112 59.6023 5.20904 59.6276 4.92893ZM63.2848 22.5094C63.2776 22.0695 63.2921 21.4746 63.3285 20.7248C63.365 19.9751 63.407 19.1631 63.4547 18.2888C63.5038 17.399 63.5479 16.4773 63.587 15.5239C63.6418 14.5718 63.6845 13.6657 63.7152 12.8056C63.7459 11.9455 63.754 11.1618 63.7395 10.4545C63.7406 9.7486 63.7212 9.18206 63.6814 8.75486C63.7095 8.44363 63.7958 8.27101 63.94 8.23698C64.0857 8.1874 64.2675 8.17246 64.4853 8.19216C64.5165 8.19498 64.5865 8.20131 64.6954 8.21116C64.8044 8.22101 64.8815 8.23582 64.9267 8.25561C65.0246 8.73512 65.0553 9.34976 65.0189 10.0995C64.9994 10.8351 64.9581 11.6394 64.8948 12.5122C64.8472 13.3865 64.7889 14.2912 64.72 15.2263C64.6667 16.1628 64.641 17.0547 64.6428 17.902C64.9718 16.6924 65.2429 15.6893 65.4562 14.8928C65.685 14.0976 65.8834 13.4645 66.0515 12.9933C66.2366 12.508 66.3942 12.1536 66.5242 11.93C66.6712 11.6923 66.8182 11.5409 66.9653 11.4757C67.128 11.412 67.2942 11.3956 67.464 11.4267C67.6507 11.4436 67.8686 11.4633 68.1175 11.4858C68.3977 11.5111 68.6134 11.6404 68.7649 11.8738C68.932 12.1085 69.0467 12.4013 69.1091 12.7521C69.1871 13.1043 69.2311 13.4848 69.2412 13.8936C69.2669 14.3039 69.2855 14.7056 69.297 15.0989C69.3099 15.4766 69.3256 15.8231 69.3441 16.1386C69.3782 16.4554 69.4519 16.6817 69.5651 16.8175C70.0583 15.7011 70.478 14.7899 70.8243 14.0838C71.1705 13.3778 71.4638 12.8238 71.7041 12.4219C71.9458 12.0045 72.1529 11.7095 72.3254 11.5368C72.4979 11.3641 72.6478 11.2679 72.7751 11.248C72.9038 11.2126 73.0134 11.2146 73.104 11.2542C73.2101 11.2952 73.3176 11.3206 73.4265 11.3304C73.8467 11.3684 74.146 11.6151 74.3245 12.0706C74.5101 12.7933 74.6208 13.478 74.6565 14.1244C74.6936 14.7553 74.6932 15.3672 74.6553 15.9599C74.6187 16.5371 74.5688 17.0895 74.5054 17.6172C74.4575 18.1463 74.4267 18.6612 74.4128 19.162C74.4144 19.6642 74.4557 20.1621 74.5366 20.6558C74.633 21.1509 74.8235 21.6466 75.1081 22.143C74.9611 22.3807 74.8211 22.5406 74.6882 22.6228C74.5566 22.6893 74.3819 22.7127 74.1641 22.693C73.9773 22.6761 73.8196 22.5991 73.6908 22.462C73.5634 22.3093 73.4615 22.1353 73.385 21.9401C73.3099 21.7294 73.2504 21.52 73.2064 21.3121C73.178 21.1056 73.1475 20.9224 73.1149 20.7626C73.2539 18.5317 73.3068 16.8185 73.2737 15.6232C73.2576 14.4137 73.12 13.7659 72.8611 13.6797C72.6022 13.5935 72.2127 14.0839 71.6926 15.1508C71.1895 16.2035 70.529 17.8695 69.711 20.1489C69.6573 20.2224 69.5831 20.2628 69.4883 20.2699C69.3935 20.277 69.2917 20.2757 69.1827 20.2658C69.0894 20.2574 68.9882 20.2482 68.8793 20.2384C68.7873 20.2144 68.694 20.2059 68.5992 20.213C68.417 17.8903 68.2387 16.219 68.0642 15.1992C67.9066 14.1652 67.6851 13.7529 67.3994 13.9624C67.1138 14.1719 66.7421 14.9855 66.2844 16.4032C65.8282 17.8053 65.2258 19.7825 64.4773 22.3348L63.2848 22.5094ZM78.0829 23.8475C78.0756 23.4076 78.0902 22.8127 78.1266 22.0629C78.163 21.3132 78.2051 20.5012 78.2528 19.6269C78.3018 18.7371 78.346 17.8154 78.3851 16.862C78.4398 15.9099 78.4825 15.0038 78.5132 14.1437C78.5439 13.2836 78.5521 12.4999 78.5376 11.7926C78.5386 11.0867 78.5193 10.5202 78.4795 10.093C78.5076 9.78173 78.5938 9.60911 78.7381 9.57509C78.8838 9.5255 79.0655 9.51056 79.2834 9.53026C79.3145 9.53308 79.3846 9.53941 79.4935 9.54926C79.6024 9.55911 79.6795 9.57393 79.7248 9.59371C79.8226 10.0732 79.8533 10.6879 79.8169 11.4376C79.7975 12.1732 79.7561 12.9775 79.6929 13.8503C79.6452 14.7246 79.5869 15.6293 79.5181 16.5644C79.4648 17.5009 79.439 18.3928 79.4409 19.2401C79.7699 18.0305 80.041 17.0274 80.2542 16.2309C80.483 15.4357 80.6815 14.8026 80.8496 14.3314C81.0347 13.8461 81.1922 13.4917 81.3223 13.2681C81.4693 13.0304 81.6163 12.879 81.7634 12.8138C81.926 12.7501 82.0923 12.7337 82.262 12.7648C82.4488 12.7817 82.6666 12.8014 82.9156 12.8239C83.1957 12.8492 83.4115 12.9785 83.563 13.2119C83.73 13.4466 83.8448 13.7394 83.9072 14.0902C83.9851 14.4424 84.0292 14.8229 84.0393 15.2317C84.0649 15.642 84.0835 16.0437 84.095 16.437C84.1079 16.8147 84.1237 17.1612 84.1422 17.4767C84.1763 17.7935 84.25 18.0198 84.3632 18.1556C84.8564 17.0392 85.2761 16.128 85.6223 15.4219C85.9686 14.7159 86.2618 14.1619 86.5021 13.76C86.7438 13.3426 86.9509 13.0476 87.1234 12.8749C87.2959 12.7022 87.4458 12.606 87.5731 12.5861C87.7019 12.5507 87.8115 12.5527 87.902 12.5923C88.0082 12.6333 88.1157 12.6587 88.2246 12.6685C88.6448 12.7065 88.9441 12.9532 89.1225 13.4087C89.3082 14.1314 89.4189 14.8161 89.4546 15.4625C89.4916 16.0934 89.4912 16.7053 89.4533 17.298C89.4168 17.8752 89.3669 18.4276 89.3035 18.9553C89.2556 19.4844 89.2247 19.9993 89.2108 20.5001C89.2125 21.0023 89.2538 21.5002 89.3346 21.9939C89.4311 22.489 89.6216 22.9847 89.9061 23.4811C89.7591 23.7188 89.6192 23.8787 89.4862 23.9609C89.3547 24.0274 89.18 24.0508 88.9621 24.0311C88.7754 24.0142 88.6176 23.9372 88.4888 23.8001C88.3615 23.6474 88.2595 23.4734 88.183 23.2782C88.108 23.0675 88.0484 22.8581 88.0045 22.6502C87.9761 22.4437 87.9456 22.2605 87.913 22.1007C88.052 19.8698 88.1049 18.1566 88.0718 16.9613C88.0556 15.7518 87.9181 15.104 87.6592 15.0178C87.4003 14.9316 87.0108 15.422 86.4907 16.4889C85.9876 17.5416 85.3271 19.2076 84.5091 21.487C84.4554 21.5605 84.3811 21.6009 84.2864 21.608C84.1916 21.6151 84.0897 21.6138 83.9808 21.6039C83.8874 21.5955 83.7863 21.5863 83.6774 21.5765C83.5854 21.5525 83.492 21.544 83.3972 21.5512C83.2151 19.2284 83.0367 17.5571 82.8622 16.5373C82.7047 15.5033 82.4831 15.091 82.1975 15.3005C81.9118 15.51 81.5402 16.3236 81.0825 17.7413C80.6263 19.1434 80.0239 21.1206 79.2754 23.6729L78.0829 23.8475ZM93.0738 20.1905C92.9946 20.199 92.8757 20.2118 92.7173 20.2289C92.5589 20.2459 92.3948 20.2389 92.225 20.2079C92.0553 20.1768 91.9116 20.1168 91.7942 20.0277C91.6612 19.9373 91.6031 19.7986 91.62 19.6119C91.6298 19.503 91.6602 19.4273 91.7111 19.3848C91.762 19.3424 91.8462 19.2794 91.9635 19.1958C92.3312 18.9467 92.6515 18.6148 92.9243 18.2002C93.2141 17.7714 93.4826 17.3172 93.73 16.8375C93.9787 16.3423 94.2345 15.8555 94.4974 15.3773C94.7773 14.8848 95.0833 14.4497 95.4156 14.0718C95.7478 13.694 96.1431 13.4003 96.6013 13.1907C97.0595 12.9811 97.607 12.9129 98.2436 12.9862C98.5081 13.0101 98.7982 13.0991 99.1137 13.2531C99.4292 13.4072 99.7172 13.6058 99.9776 13.849C100.239 14.0766 100.45 14.3467 100.61 14.6592C100.77 14.9718 100.834 15.307 100.802 15.6649C100.868 15.7965 100.774 15.9684 100.52 16.1807C100.281 16.3944 99.9542 16.6238 99.5398 16.8687C99.1269 17.0981 98.658 17.3381 98.1333 17.5887C97.6256 17.8252 97.1348 18.0475 96.661 18.2557C96.1872 18.4639 95.7707 18.6458 95.4115 18.8016C95.0522 18.9574 94.8139 19.0771 94.6966 19.1606C94.6047 19.3092 94.5263 19.4825 94.4613 19.6806C94.3963 19.8786 94.3398 20.0696 94.2918 20.2536C94.2608 20.4233 94.2304 20.5853 94.2008 20.7395C94.1881 20.8796 94.1783 20.9885 94.1712 21.0663C94.1445 21.362 94.0994 21.6874 94.0359 22.0425C93.988 22.399 93.9726 22.7427 93.9897 23.0738C94.0238 23.3906 94.1322 23.6671 94.3148 23.9033C94.4988 24.1239 94.832 24.256 95.3144 24.2996C95.8279 24.346 96.3216 24.2652 96.7954 24.057C97.2706 23.8332 97.7196 23.5522 98.1424 23.2139C98.5652 22.8756 98.9519 22.5027 99.3026 22.0951C99.6688 21.6889 99.9932 21.3104 100.276 20.9594C100.576 20.5943 100.838 20.2964 101.063 20.0657C101.288 19.835 101.47 19.726 101.61 19.7387C101.766 19.7527 101.926 19.7986 102.092 19.8764C102.274 19.9399 102.356 20.0729 102.338 20.2752C102.313 20.5553 102.166 20.8793 101.897 21.2472C101.644 21.6166 101.311 22.0022 100.898 22.4042C100.501 22.8075 100.042 23.2052 99.5197 23.5973C99.0149 23.9753 98.5058 24.3136 97.9924 24.6124C97.4805 24.8955 96.9812 25.1249 96.4947 25.3006C96.0095 25.4607 95.588 25.5245 95.2301 25.4922C94.5298 25.4288 94.0162 25.2098 93.6893 24.8351C93.3623 24.4604 93.1442 24.0092 93.0351 23.4816C92.9414 22.9554 92.9129 22.4037 92.9494 21.8266C93.0028 21.2352 93.0443 20.6899 93.0738 20.1905ZM97.9387 14.2765C97.6741 14.2525 97.382 14.3595 97.0624 14.5973C96.7443 14.8195 96.436 15.1054 96.1377 15.455C95.8564 15.7904 95.6125 16.1449 95.4061 16.5184C95.2168 16.8778 95.1108 17.182 95.0883 17.431C95.3217 17.4521 95.664 17.3968 96.1152 17.265C96.5834 17.1191 97.0473 16.9335 97.5069 16.7084C97.9666 16.4833 98.3732 16.2376 98.7267 15.9715C99.0802 15.7054 99.269 15.44 99.2929 15.1755C99.3055 15.0354 99.2616 14.9138 99.1611 14.8106C99.0607 14.7074 98.9354 14.6176 98.7854 14.5413C98.651 14.4664 98.5074 14.4063 98.3546 14.3611C98.2018 14.3159 98.0631 14.2877 97.9387 14.2765ZM122.339 27.3081C122.298 26.8964 122.271 26.4077 122.26 25.8418C122.265 25.2618 122.263 24.6811 122.252 24.0997C122.244 23.5028 122.216 22.9433 122.169 22.4213C122.138 21.9008 122.051 21.4694 121.909 21.1271C120.969 22.6737 120.154 23.8864 119.462 24.7653C118.773 25.6285 118.176 26.2413 117.672 26.6037C117.186 26.9519 116.788 27.1042 116.478 27.0605C116.168 27.0168 115.924 26.8535 115.746 26.5707C115.567 26.2878 115.45 25.9399 115.393 25.5269C115.353 25.0997 115.334 24.7057 115.335 24.345C115.366 24.0026 115.487 23.5272 115.699 22.9189C115.911 22.3105 116.183 21.6525 116.513 20.9451C116.845 20.222 117.225 19.4954 117.652 18.7653C118.094 18.0366 118.554 17.38 119.03 16.7955C119.506 16.211 119.989 15.7369 120.476 15.3731C120.964 15.0093 121.434 14.8478 121.885 14.8886C122.564 14.8402 123.041 15.0323 123.316 15.4651C123.607 15.8837 123.61 16.5507 123.323 17.4661C123.23 18.4931 123.19 19.3759 123.201 20.1143C123.228 20.8541 123.258 21.5628 123.291 22.2404C123.34 22.9194 123.37 23.6281 123.381 24.3666C123.409 25.1064 123.376 25.9898 123.283 27.0169C123.266 27.2036 123.228 27.3649 123.169 27.5008C123.126 27.6224 122.934 27.6678 122.592 27.6368C122.545 27.6326 122.486 27.5881 122.415 27.5032C122.36 27.4198 122.335 27.3547 122.339 27.3081ZM122.022 16.7601C121.873 16.4956 121.642 16.4512 121.328 16.6267C121.014 16.8023 120.673 17.1087 120.304 17.546C119.935 17.9833 119.549 18.5133 119.148 19.1359C118.746 19.7585 118.368 20.3911 118.011 21.0335C117.655 21.6759 117.341 22.2907 117.068 22.8779C116.797 23.4495 116.605 23.9263 116.492 24.3083C116.441 24.8686 116.498 25.1953 116.662 25.2886C116.827 25.3663 117.046 25.2919 117.317 25.0655C117.589 24.839 117.901 24.5064 118.255 24.0677C118.624 23.6304 118.98 23.1606 119.324 22.6582C119.683 22.1573 120.017 21.6698 120.326 21.1957C120.652 20.7231 120.906 20.3382 121.09 20.041C121.259 19.7269 121.396 19.4333 121.499 19.1602C121.602 18.8872 121.688 18.6283 121.757 18.3835C121.844 18.1246 121.899 17.8628 121.923 17.5983C121.962 17.3352 121.995 17.0558 122.022 16.7601ZM138.957 29.0696C138.955 29.0852 139.127 29.0066 139.472 28.8338C139.833 28.6625 140.254 28.4338 140.735 28.1478C141.232 27.8477 141.74 27.5249 142.258 27.1795C142.777 26.8185 143.208 26.4731 143.552 26.1434C143.895 25.8136 144.086 25.5249 144.124 25.2773C144.179 25.0156 143.985 24.8254 143.54 24.7068C142.987 24.5784 142.512 24.5432 142.114 24.6014C141.732 24.661 141.38 24.739 141.058 24.8353C140.735 24.9317 140.429 25.0217 140.139 25.1053C139.865 25.1903 139.565 25.2024 139.241 25.1418C138.557 25.0798 138.101 24.8268 137.875 24.3828C137.665 23.9245 137.593 23.3297 137.659 22.5983C137.726 21.8669 137.952 21.1892 138.337 20.5652C138.725 19.9256 139.197 19.3878 139.754 18.9518C140.311 18.5159 140.937 18.1881 141.632 17.9685C142.327 17.7333 143.025 17.6474 143.726 17.7107C144.006 17.736 144.245 17.7812 144.443 17.8462C144.641 17.9112 144.726 18.0993 144.698 18.4105C144.678 18.6283 144.566 18.83 144.361 19.0154C144.157 19.1853 143.939 19.2596 143.705 19.2385C143.69 19.2371 143.651 19.2258 143.591 19.2046C143.531 19.1679 143.472 19.1233 143.414 19.071C143.356 19.0187 143.297 18.982 143.236 18.9608C143.177 18.924 143.139 18.9049 143.124 18.9035C142.638 18.7185 142.15 18.7449 141.657 18.9828C141.165 19.2206 140.711 19.5639 140.294 20.0125C139.893 20.447 139.559 20.9345 139.291 21.475C139.023 22 138.87 22.4803 138.831 22.9161C138.815 23.0872 138.834 23.2301 138.886 23.3447C138.956 23.4451 139.043 23.5235 139.147 23.5801C139.268 23.638 139.397 23.6811 139.536 23.7093C139.691 23.7234 139.847 23.7375 140.003 23.7515C140.314 23.7797 140.629 23.7611 140.949 23.6959C141.284 23.6321 141.605 23.5513 141.912 23.4535C142.235 23.3572 142.556 23.2764 142.875 23.2112C143.211 23.1474 143.549 23.1309 143.892 23.1619C144.047 23.176 144.214 23.2381 144.393 23.3484C144.572 23.4431 144.732 23.583 144.872 23.7683C145.014 23.938 145.129 24.1367 145.219 24.3644C145.309 24.5765 145.351 24.8078 145.344 25.0582C145.418 25.2845 145.361 25.5696 145.173 25.9134C145 26.2587 144.748 26.6202 144.416 26.9981C144.083 27.3759 143.688 27.756 143.23 28.1381C142.773 28.5047 142.319 28.8402 141.868 29.1446C141.418 29.4334 140.982 29.6606 140.559 29.8264C140.135 30.0076 139.783 30.0778 139.505 30.0369C139.194 30.0088 139.015 29.8985 138.97 29.7062C138.94 29.5152 138.936 29.303 138.957 29.0696ZM147.923 25.1502C147.844 25.1588 147.725 25.1715 147.567 25.1886C147.409 25.2056 147.244 25.1987 147.075 25.1676C146.905 25.1366 146.761 25.0765 146.644 24.9875C146.511 24.897 146.453 24.7584 146.47 24.5716C146.479 24.4627 146.51 24.387 146.561 24.3446C146.612 24.3021 146.696 24.2391 146.813 24.1556C147.181 23.9064 147.501 23.5745 147.774 23.1599C148.064 22.7312 148.332 22.2769 148.58 21.7973C148.828 21.302 149.084 20.8153 149.347 20.337C149.627 19.8446 149.933 19.4094 150.265 19.0316C150.597 18.6537 150.993 18.36 151.451 18.1504C151.909 17.9408 152.457 17.8727 153.093 17.9459C153.358 17.9698 153.648 18.0588 153.963 18.2129C154.279 18.3669 154.567 18.5655 154.827 18.8087C155.089 19.0363 155.3 19.3064 155.46 19.619C155.62 19.9315 155.684 20.2668 155.651 20.6247C155.718 20.7562 155.624 20.9281 155.369 21.1404C155.131 21.3542 154.804 21.5835 154.389 21.8284C153.977 22.0578 153.508 22.2978 152.983 22.5484C152.475 22.7849 151.984 23.0072 151.511 23.2154C151.037 23.4236 150.62 23.6056 150.261 23.7614C149.902 23.9171 149.664 24.0368 149.546 24.1203C149.454 24.2689 149.376 24.4422 149.311 24.6403C149.246 24.8384 149.189 25.0294 149.141 25.2133C149.11 25.3831 149.08 25.5451 149.05 25.6993C149.038 25.8393 149.028 25.9483 149.021 26.0261C148.994 26.3217 148.949 26.6471 148.886 27.0022C148.838 27.3587 148.822 27.7025 148.839 28.0335C148.873 28.3504 148.982 28.6269 149.164 28.863C149.348 29.0836 149.682 29.2157 150.164 29.2593C150.678 29.3058 151.171 29.2249 151.645 29.0167C152.12 28.793 152.569 28.512 152.992 28.1737C153.415 27.8354 153.802 27.4624 154.152 27.0548C154.518 26.6487 154.843 26.2701 155.126 25.9191C155.425 25.554 155.688 25.2561 155.912 25.0254C156.137 24.7947 156.32 24.6857 156.46 24.6984C156.615 24.7125 156.776 24.7584 156.941 24.8361C157.124 24.8997 157.206 25.0326 157.188 25.2349C157.163 25.515 157.016 25.839 156.747 26.207C156.494 26.5763 156.161 26.9619 155.748 27.3639C155.351 27.7672 154.891 28.165 154.369 28.5571C153.865 28.935 153.355 29.2734 152.842 29.5721C152.33 29.8553 151.831 30.0847 151.344 30.2603C150.859 30.4204 150.438 30.4843 150.08 30.4519C149.379 30.3886 148.866 30.1696 148.539 29.7948C148.212 29.4201 147.994 28.969 147.885 28.4414C147.791 27.9152 147.763 27.3635 147.799 26.7863C147.852 26.195 147.894 25.6496 147.923 25.1502ZM152.788 19.2362C152.524 19.2123 152.232 19.3192 151.912 19.557C151.594 19.7793 151.286 20.0652 150.987 20.4147C150.706 20.7501 150.462 21.1046 150.256 21.4782C150.066 21.8376 149.96 22.1418 149.938 22.3907C150.171 22.4119 150.514 22.3565 150.965 22.2247C151.433 22.0788 151.897 21.8933 152.357 21.6681C152.816 21.443 153.223 21.1974 153.576 20.9312C153.93 20.6651 154.119 20.3998 154.143 20.1352C154.155 19.9952 154.111 19.8735 154.011 19.7703C153.91 19.6671 153.785 19.5773 153.635 19.501C153.501 19.4261 153.357 19.3661 153.204 19.3209C153.051 19.2757 152.913 19.2474 152.788 19.2362ZM159.273 25.847C159.37 25.2911 159.472 24.6884 159.578 24.039C159.685 23.3741 159.815 22.7191 159.967 22.0739C160.135 21.4302 160.324 20.8197 160.533 20.2424C160.758 19.6666 161.023 19.1649 161.328 18.7376C161.65 18.2961 162.026 17.9613 162.454 17.7334C162.884 17.4898 163.386 17.4019 163.961 17.4695C164.35 17.5047 164.631 17.6948 164.803 18.0399C164.992 18.3864 165.104 18.7966 165.139 19.2705C165.19 19.7458 165.193 20.2324 165.148 20.7304C165.12 21.2142 165.092 21.6117 165.064 21.9229C164.753 21.8948 164.508 21.7393 164.33 21.4565C164.153 21.1581 164.026 20.825 163.949 20.4572C163.873 20.0894 163.827 19.7323 163.811 19.3857L163.802 18.7024C163.787 18.701 163.755 18.6982 163.709 18.694C163.679 18.6756 163.656 18.6657 163.641 18.6643C163.376 18.6404 163.114 18.7657 162.854 19.0403C162.609 19.3163 162.365 19.6785 162.12 20.1271C161.893 20.5615 161.683 21.0602 161.491 21.6233C161.3 22.1709 161.133 22.7128 160.991 23.249C160.848 23.7852 160.724 24.2839 160.62 24.7451C160.532 25.1922 160.477 25.5402 160.455 25.7892C160.387 26.191 160.347 26.6345 160.335 27.1197C160.322 27.6049 160.375 28.0646 160.492 28.4989C160.61 28.9331 160.795 29.3185 161.047 29.6551C161.3 29.9761 161.655 30.2121 162.112 30.3633C162.688 30.4153 163.162 30.3797 163.534 30.2565C163.906 30.1332 164.213 29.9492 164.455 29.7043C164.712 29.4609 164.918 29.1814 165.072 28.8659C165.226 28.5504 165.373 28.2263 165.513 27.8938C165.669 27.5472 165.826 27.2083 165.981 26.8772C166.136 26.5461 166.344 26.2433 166.604 25.9687C166.795 25.9389 166.927 25.9587 166.999 26.0279C167.088 26.0831 167.144 26.1587 167.167 26.2549C167.19 26.3511 167.195 26.4614 167.184 26.5859L167.161 26.8427C167.102 27.4963 166.936 28.1167 166.663 28.7039C166.39 29.2911 166.022 29.8069 165.558 30.2513C165.096 30.6801 164.556 31.0157 163.938 31.2578C163.336 31.4859 162.662 31.5661 161.915 31.4986C161.293 31.4423 160.789 31.2007 160.404 30.7736C160.036 30.3324 159.761 29.8212 159.578 29.2399C159.411 28.66 159.308 28.0623 159.27 27.447C159.232 26.8161 159.234 26.2828 159.273 25.847Z" fill="#0088E9"/>
</svg>
