<svg width="150" height="56" viewBox="0 0 150 56" fill="none" xmlns="http://www.w3.org/2000/svg">
<path d="M12.2429 32.5927C12.0056 32.8055 11.5797 33.1319 10.9651 33.572C10.3715 33.9863 9.73487 34.4404 9.05517 34.9343C8.37548 35.4281 7.72956 35.9067 7.11741 36.3701C6.50288 36.8101 6.07695 37.1365 5.83962 37.3494C5.36737 37.7984 5.06431 38.2889 4.93043 38.821C4.79655 39.3531 4.76072 39.9222 4.82293 40.5284C4.88275 41.1113 5.00445 41.7231 5.18802 42.364C5.3692 42.9815 5.51661 43.6143 5.63024 44.2624C5.66374 44.5888 5.58993 44.9026 5.4088 45.2039C5.22768 45.5053 4.97392 45.6727 4.64751 45.7062C4.50762 45.7205 4.35248 45.7011 4.1821 45.6479C4.00932 45.5714 3.91456 45.4515 3.89781 45.2883L0.792743 22.9535C0.778386 22.8136 0.805874 22.6223 0.875206 22.3796C0.967853 22.1344 1.04795 21.9966 1.1155 21.9661C1.18545 21.959 1.27991 21.9611 1.39887 21.9724C1.54116 21.9814 1.68583 22.0136 1.8329 22.0692C1.97758 22.1015 2.11179 22.1466 2.23555 22.2046C2.38022 22.2369 2.47827 22.2739 2.52968 22.3158C2.71866 23.2388 2.88701 24.3053 3.03476 25.5153C3.1825 26.7253 3.33143 27.9469 3.48157 29.1803C3.65502 30.4112 3.83654 31.6059 4.02612 32.7645C4.23663 33.8973 4.48748 34.8494 4.77867 35.6205C5.73815 35.098 6.64173 34.6047 7.48941 34.1407C8.3371 33.6768 9.06223 33.1665 9.6648 32.6099C10.2674 32.0533 10.7193 31.4061 11.0205 30.6683C11.3194 29.9073 11.4021 28.9917 11.2688 27.9216C11.2089 27.3387 11.1446 26.827 11.0759 26.3864C11.0071 25.9458 10.9162 25.5193 10.8032 25.1068C10.6878 24.671 10.535 24.2155 10.3448 23.7402C10.1756 23.2392 9.96426 22.6719 9.71074 22.0382C9.62104 21.6233 9.66347 21.348 9.83803 21.2123C10.0126 21.0766 10.2281 20.9956 10.4846 20.9693C10.7877 20.9382 11.028 20.9842 11.2055 21.1073C11.3831 21.2305 11.5305 21.4038 11.6477 21.6274C11.7882 21.8486 11.8844 22.0979 11.9365 22.3753C11.9861 22.6293 12.0345 22.8717 12.0818 23.1025C12.1667 23.4708 12.2824 24.0243 12.4289 24.7632C12.5754 25.5021 12.7327 26.346 12.9008 27.2947C13.0898 28.2177 13.2847 29.199 13.4856 30.2386C13.7099 31.2759 13.9165 32.256 14.1055 33.179C14.2945 34.102 14.4505 34.9342 14.5737 35.6755C14.7203 36.4144 14.836 36.968 14.9209 37.3362C15.0818 38.215 15.2648 39.0798 15.4699 39.9305C15.675 40.7812 15.8242 41.6611 15.9175 42.5704L15.9749 43.13C15.9941 43.3165 15.9899 43.5054 15.9624 43.6967C15.9559 43.8623 15.8898 44.0223 15.7643 44.1765C15.6597 44.305 15.4711 44.4186 15.1984 44.5173C14.7477 44.2573 14.4682 43.9443 14.3599 43.5785C14.2517 43.2126 14.1515 42.8106 14.0595 42.3724C14.0098 42.1183 13.947 41.736 13.8711 41.2255C13.7927 40.6916 13.6863 40.1135 13.5517 39.4912C13.4381 38.8432 13.3104 38.173 13.1687 37.4807C13.0479 36.7627 12.9202 36.0926 12.7856 35.4703C12.672 34.8222 12.5656 34.2441 12.4663 33.736C12.367 33.2278 12.2926 32.8467 12.2429 32.5927ZM17.7288 36.624C17.6146 36.6593 17.4433 36.7122 17.215 36.7827C16.9866 36.8533 16.743 36.8901 16.4841 36.8931C16.2253 36.8961 15.9966 36.8489 15.7981 36.7514C15.5763 36.6564 15.4511 36.469 15.4223 36.1892C15.4056 36.026 15.4286 35.9058 15.4914 35.8287C15.5541 35.7516 15.6599 35.6347 15.8088 35.4781C16.2787 35.0058 16.6549 34.4252 16.9377 33.7365C17.2413 33.0221 17.5064 32.2763 17.7329 31.4991C17.9571 30.6986 18.1941 29.9086 18.4439 29.129C18.7147 28.3237 19.0404 27.5952 19.4212 26.9436C19.802 26.2919 20.2996 25.7461 20.9142 25.306C21.5287 24.866 22.3151 24.6086 23.2734 24.5338C23.6698 24.4931 24.1223 24.5409 24.6311 24.6772C25.1399 24.8135 25.6208 25.0233 26.074 25.3066C26.5248 25.5666 26.9128 25.9038 27.238 26.318C27.5633 26.7323 27.7534 27.2076 27.8084 27.7438C27.9442 27.9184 27.8551 28.1985 27.5413 28.5841C27.2507 28.9673 26.8356 29.3987 26.2958 29.8782C25.7536 30.3343 25.1322 30.8222 24.4316 31.3418C23.7519 31.8356 23.0931 32.3037 22.4552 32.7462C21.8174 33.1886 21.2564 33.576 20.7721 33.9085C20.2879 34.2409 19.9714 34.4854 19.8225 34.642C19.7299 34.8872 19.6641 35.1649 19.6253 35.4751C19.5865 35.7854 19.5581 36.0828 19.5402 36.3674C19.5432 36.6262 19.545 36.8734 19.5456 37.109C19.5671 37.3188 19.5839 37.482 19.5959 37.5986C19.6413 38.0416 19.6683 38.5336 19.6767 39.0746C19.7084 39.6133 19.7843 40.1238 19.9045 40.6062C20.0456 41.063 20.2845 41.439 20.6211 41.7343C20.9553 42.0063 21.4838 42.1052 22.2065 42.031C22.9759 41.952 23.6796 41.6914 24.3174 41.2489C24.9529 40.7832 25.5333 40.2406 26.0588 39.6212C26.5842 39.0018 27.0466 38.3418 27.4459 37.6411C27.8685 36.9381 28.2376 36.2876 28.5532 35.6898C28.8898 35.0662 29.1905 34.5524 29.4553 34.1482C29.7201 33.7441 29.9574 33.5312 30.1672 33.5097C30.4004 33.4858 30.65 33.5073 30.916 33.5742C31.203 33.6154 31.362 33.7876 31.3931 34.0907C31.4362 34.5104 31.3128 35.0296 31.0229 35.6484C30.7563 36.2647 30.3767 36.928 29.8841 37.6383C29.4149 38.3461 28.8524 39.0636 28.1966 39.7906C27.5618 40.4919 26.9093 41.1361 26.2392 41.7232C25.5666 42.287 24.8974 42.768 24.2315 43.1662C23.5631 43.541 22.9608 43.756 22.4246 43.811C21.3754 43.9187 20.5564 43.7436 19.9675 43.2857C19.3786 42.8278 18.9281 42.2261 18.616 41.4806C18.3272 40.7328 18.1268 39.9287 18.015 39.0685C17.9241 38.1825 17.8287 37.3677 17.7288 36.624ZM23.1946 26.521C22.7983 26.5616 22.399 26.8029 21.9966 27.2447C21.5919 27.6632 21.2201 28.1726 20.8812 28.7728C20.5632 29.3474 20.3059 29.9392 20.1092 30.5484C19.9335 31.1319 19.8648 31.6102 19.9031 31.9832C20.2528 31.9473 20.7409 31.7676 21.3674 31.4442C22.0148 31.095 22.6446 30.6887 23.2568 30.2254C23.8689 29.762 24.397 29.2837 24.8412 28.7905C25.2854 28.2973 25.4871 27.8525 25.4464 27.4561C25.4249 27.2463 25.3253 27.0798 25.1478 26.9567C24.9702 26.8335 24.7601 26.7373 24.5173 26.6679C24.2979 26.5962 24.0693 26.549 23.8313 26.5263C23.5934 26.5036 23.3812 26.5018 23.1946 26.521ZM42.2892 41.5956L31.7839 28.078C31.7582 28.057 31.7266 27.9778 31.6889 27.8403C31.6488 27.6795 31.624 27.5525 31.6144 27.4592C31.5833 27.1561 31.6036 26.8949 31.6754 26.6755C31.768 26.4304 32.0358 26.2851 32.4788 26.2396C32.5721 26.23 32.7412 26.2716 32.9864 26.3642C33.2291 26.4336 33.3785 26.5125 33.4347 26.6009C34.0314 27.3643 34.6493 28.2198 35.2885 29.1673C35.9509 30.1124 36.625 31.0563 37.3108 31.999C38.0199 32.9394 38.7487 33.8423 39.4972 34.708C40.2434 35.5502 41.0113 36.2607 41.8011 36.8393L41.2334 23.044C41.2568 23.0416 41.3151 23.0356 41.4083 23.026C41.5225 22.9907 41.6029 22.9707 41.6495 22.9659C41.8594 22.9444 42.0728 22.9578 42.2898 23.0062C42.5044 23.0313 42.6715 23.1673 42.7911 23.4142C42.9006 24.2512 43.007 25.2887 43.1105 26.5268C43.2374 27.7625 43.3445 29.0355 43.4318 30.346C43.5425 31.654 43.6368 32.9166 43.7145 34.1338C43.8133 35.3252 43.8881 36.2835 43.9389 37.0087C43.9635 37.4774 43.9886 38.1816 44.0144 39.1214C44.0635 40.0588 44.1012 41.1151 44.1276 42.2905C44.1797 43.4867 44.2144 44.7436 44.2318 46.0612C44.2726 47.3765 44.3061 48.6217 44.3325 49.797C44.3589 50.9724 44.385 52.0299 44.4107 52.9697C44.4389 53.9328 44.4512 54.6266 44.4476 55.051L42.6291 55.2377L42.2892 41.5956ZM60.4269 24.7849C60.2058 24.9254 59.9974 25.0764 59.802 25.2378C59.6274 25.3735 59.4528 25.5093 59.2783 25.645C59.1013 25.7574 58.922 25.8465 58.7403 25.9122C58.5585 25.978 58.3603 25.9984 58.1457 25.9733C58.0058 25.9876 57.8809 25.918 57.7709 25.7643C57.6585 25.5874 57.5682 25.3964 57.5 25.1913C57.4061 24.9654 57.3368 24.7487 57.2919 24.5412C57.2447 24.3105 57.2267 24.1356 57.2381 24.0166L60.3981 21.7486L59.689 12.7741C59.7046 12.4662 59.8791 12.3305 60.2127 12.3669C60.5439 12.3801 60.8892 12.4153 61.2485 12.4727C61.2951 12.4679 61.3674 12.484 61.4655 12.5211C61.5844 12.5324 61.6684 12.5474 61.7175 12.5659C61.7354 13.2002 61.7477 13.894 61.7544 14.6472C61.7819 15.3748 61.8106 16.114 61.8406 16.8649C61.8681 17.5924 61.9061 18.3071 61.9546 19.0089C62.0264 19.7084 62.126 20.3343 62.2534 20.8867L67.3485 18.8795C67.4394 18.8466 67.5165 18.9093 67.5799 19.0678C67.6642 19.2005 67.7404 19.3694 67.8086 19.5744C67.9 19.7771 67.9682 19.9821 68.0131 20.1896C68.0579 20.397 68.0803 20.5007 68.0803 20.5007L62.3934 23.6289C62.415 23.8387 62.4781 24.3388 62.5827 25.1291C62.7107 25.9171 62.8543 26.8565 63.0133 27.9476C63.17 29.0153 63.3363 30.1762 63.5122 31.4305C63.6856 32.6614 63.8507 33.8107 64.0074 34.8784C64.1641 35.9461 64.296 36.8868 64.403 37.7004C64.5077 38.4907 64.5708 38.9908 64.5923 39.2006C64.6175 39.9049 64.4435 40.2761 64.0705 40.3144C63.7208 40.3503 63.3181 40.2149 62.8626 39.9083L60.4269 24.7849ZM80.9032 22.3301C80.007 22.0922 79.1925 22.3054 78.4596 22.9696C77.7267 23.6338 77.0539 24.5393 76.4412 25.6859C75.8261 26.8093 75.2616 28.0806 74.7475 29.4999C74.2335 30.9191 73.7589 32.2637 73.3238 33.5335C72.8886 34.8033 72.4822 35.8935 72.1044 36.804C71.75 37.7121 71.391 38.2319 71.0275 38.3635C70.7477 38.3922 70.5215 38.3683 70.3487 38.2918C70.1968 38.1896 70.0994 37.9286 70.0563 37.509L67.5331 12.9232C67.5115 12.7134 67.58 12.5768 67.7384 12.5134C67.9201 12.4477 68.1171 12.4157 68.3294 12.4174C68.5416 12.4192 68.7457 12.4572 68.9418 12.5313C69.1355 12.5821 69.2605 12.6517 69.3167 12.7402L71.7921 32.3831C72.0055 31.9371 72.1788 31.3303 72.312 30.5627C72.4662 29.7693 72.6506 28.9258 72.8652 28.032C73.0773 27.115 73.3373 26.2048 73.6452 25.3014C73.9739 24.3724 74.4055 23.527 74.9399 22.7654C75.4743 22.0037 76.1537 21.3921 76.978 20.9305C77.8233 20.4432 78.8465 20.1968 80.0475 20.1914C80.8402 20.11 81.5077 20.3007 82.05 20.7634C82.5899 21.2027 82.9133 21.8292 83.0204 22.6429L84.8022 36.561C84.8118 36.6543 84.8028 36.7966 84.7753 36.9879C84.7688 37.1535 84.6899 37.3029 84.5386 37.4363C84.4131 37.5905 84.2116 37.6937 83.9342 37.7457C83.6826 37.8186 83.3385 37.795 82.9021 37.6749L80.9032 22.3301ZM86.1561 29.6013C86.0419 29.6366 85.8706 29.6895 85.6423 29.76C85.4139 29.8306 85.1703 29.8674 84.9114 29.8704C84.6526 29.8734 84.4239 29.8262 84.2254 29.7288C84.0036 29.6337 83.8784 29.4463 83.8496 29.1665C83.8329 29.0033 83.8559 28.8832 83.9187 28.806C83.9814 28.7289 84.0872 28.612 84.2361 28.4554C84.7059 27.9831 85.0822 27.4026 85.365 26.7138C85.6686 25.9994 85.9337 25.2536 86.1602 24.4764C86.3844 23.6759 86.6213 22.8859 86.8712 22.1063C87.142 21.301 87.4677 20.5725 87.8485 19.9209C88.2293 19.2692 88.7269 18.7234 89.3415 18.2834C89.956 17.8433 90.7424 17.5859 91.7007 17.5111C92.0971 17.4704 92.5496 17.5182 93.0584 17.6545C93.5671 17.7908 94.0481 18.0006 94.5013 18.2839C94.9521 18.5439 95.3401 18.8811 95.6653 19.2954C95.9906 19.7096 96.1807 20.1849 96.2357 20.7211C96.3715 20.8957 96.2824 21.1758 95.9686 21.5614C95.678 21.9446 95.2629 22.376 94.7231 22.8555C94.1809 23.3116 93.5595 23.7995 92.8589 24.3191C92.1792 24.8129 91.5204 25.2811 90.8825 25.7235C90.2447 26.1659 89.6836 26.5533 89.1994 26.8858C88.7152 27.2182 88.3987 27.4627 88.2498 27.6194C88.1572 27.8645 88.0914 28.1422 88.0526 28.4524C88.0138 28.7627 87.9854 29.0601 87.9675 29.3447C87.9705 29.6036 87.9723 29.8508 87.9729 30.0863C87.9944 30.2961 88.0112 30.4593 88.0232 30.5759C88.0686 31.0189 88.0955 31.5109 88.104 32.052C88.1357 32.5906 88.2116 33.1011 88.3318 33.5836C88.4729 34.0403 88.7118 34.4163 89.0484 34.7116C89.3826 34.9836 89.9111 35.0825 90.6338 35.0083C91.4032 34.9294 92.1069 34.6687 92.7447 34.2262C93.3802 33.7605 93.9606 33.2179 94.4861 32.5985C95.0115 31.9792 95.4739 31.3191 95.8732 30.6185C96.2958 29.9154 96.6649 29.2649 96.9805 28.6671C97.3171 28.0435 97.6178 27.5297 97.8826 27.1255C98.1474 26.7214 98.3847 26.5085 98.5945 26.487C98.8277 26.4631 99.0773 26.4846 99.3433 26.5515C99.6303 26.5928 99.7893 26.7649 99.8204 27.068C99.8635 27.4877 99.7401 28.0069 99.4502 28.6257C99.1836 29.242 98.804 29.9054 98.3114 30.6156C97.8422 31.3235 97.2797 32.0409 96.6239 32.7679C95.9891 33.4692 95.3366 34.1134 94.6665 34.7005C93.9939 35.2643 93.3247 35.7453 92.6588 36.1435C91.9904 36.5184 91.3881 36.7333 90.8519 36.7883C89.8027 36.896 88.9837 36.7209 88.3948 36.263C87.8059 35.8051 87.3554 35.2034 87.0433 34.458C86.7545 33.7101 86.5541 32.906 86.4423 32.0458C86.3514 31.1598 86.256 30.345 86.1561 29.6013ZM91.6219 19.4983C91.2256 19.539 90.8262 19.7802 90.4239 20.222C90.0192 20.6405 89.6474 21.1499 89.3085 21.7501C88.9905 22.3247 88.7332 22.9165 88.5365 23.5257C88.3608 24.1092 88.2921 24.5875 88.3304 24.9605C88.6801 24.9246 89.1682 24.745 89.7947 24.4215C90.4421 24.0723 91.0719 23.6661 91.6841 23.2027C92.2962 22.7394 92.8243 22.2611 93.2685 21.7678C93.7126 21.2746 93.9144 20.8298 93.8737 20.4334C93.8522 20.2236 93.7526 20.0571 93.5751 19.934C93.3975 19.8108 93.1874 19.7146 92.9446 19.6453C92.7252 19.5735 92.4966 19.5263 92.2586 19.5036C92.0207 19.4809 91.8085 19.4791 91.6219 19.4983ZM100.013 18.7785L99.9842 18.4987C99.9603 18.2656 100.025 18.094 100.179 17.984C100.356 17.8716 100.561 17.8034 100.794 17.7795C100.98 17.7603 101.158 17.7657 101.326 17.7956C101.491 17.8021 101.633 17.9172 101.75 18.1408C101.856 18.4833 101.976 18.9658 102.11 19.5881C102.243 20.1871 102.394 20.8549 102.563 21.5914C102.733 22.3279 102.908 23.111 103.087 23.9408C103.288 24.7449 103.473 25.5152 103.643 26.2517C103.833 26.9625 104.017 27.6033 104.193 28.1742C104.37 28.7451 104.543 29.175 104.714 29.4637C104.415 27.2326 104.286 25.2903 104.328 23.6367C104.368 21.9598 104.627 20.5785 105.105 19.4929C105.603 18.3815 106.345 17.5749 107.33 17.0733C108.336 16.546 109.632 16.3187 111.218 16.3915C111.941 16.3174 112.342 16.665 112.421 17.4344C112.452 17.7375 112.275 17.9676 111.891 18.1249C111.504 18.2588 111.068 18.3742 110.584 18.4711C110.096 18.5447 109.622 18.6287 109.161 18.7232C108.699 18.8177 108.373 18.9689 108.182 19.177C107.391 19.7294 106.87 20.5132 106.621 21.5283C106.395 22.5411 106.281 23.7191 106.277 25.0624C106.274 26.4057 106.318 27.8737 106.411 29.4663C106.525 31.0332 106.538 32.6575 106.452 34.3392C106.476 34.5723 106.4 34.7567 106.226 34.8925C106.051 35.0282 105.824 35.1104 105.544 35.1391C105.288 35.1654 105.025 35.1335 104.757 35.0432C104.512 34.9506 104.307 34.7948 104.143 34.5761L100.013 18.7785ZM115.464 26.5934C115.35 26.6287 115.179 26.6816 114.951 26.7521C114.722 26.8227 114.479 26.8595 114.22 26.8625C113.961 26.8655 113.732 26.8183 113.534 26.7208C113.312 26.6258 113.187 26.4384 113.158 26.1586C113.141 25.9954 113.164 25.8752 113.227 25.7981C113.29 25.721 113.396 25.6041 113.544 25.4475C114.014 24.9752 114.391 24.3946 114.673 23.7059C114.977 22.9915 115.242 22.2457 115.469 21.4685C115.693 20.668 115.93 19.878 116.18 19.0984C116.45 18.2931 116.776 17.5646 117.157 16.913C117.538 16.2613 118.035 15.7155 118.65 15.2754C119.264 14.8354 120.051 14.578 121.009 14.5032C121.405 14.4625 121.858 14.5103 122.367 14.6466C122.876 14.7829 123.357 14.9927 123.81 15.276C124.26 15.536 124.648 15.8732 124.974 16.2874C125.299 16.7017 125.489 17.177 125.544 17.7132C125.68 17.8878 125.591 18.1679 125.277 18.5535C124.986 18.9367 124.571 19.3681 124.031 19.8476C123.489 20.3037 122.868 20.7916 122.167 21.3112C121.488 21.805 120.829 22.2731 120.191 22.7156C119.553 23.158 118.992 23.5454 118.508 23.8779C118.024 24.2103 117.707 24.4548 117.558 24.6114C117.466 24.8566 117.4 25.1343 117.361 25.4445C117.322 25.7548 117.294 26.0522 117.276 26.3368C117.279 26.5957 117.281 26.8429 117.281 27.0784C117.303 27.2882 117.32 27.4514 117.332 27.568C117.377 28.011 117.404 28.503 117.412 29.044C117.444 29.5827 117.52 30.0932 117.64 30.5756C117.781 31.0324 118.02 31.4084 118.357 31.7037C118.691 31.9757 119.219 32.0746 119.942 32.0004C120.712 31.9215 121.415 31.6608 122.053 31.2183C122.689 30.7526 123.269 30.21 123.794 29.5906C124.32 28.9712 124.782 28.3112 125.182 27.6105C125.604 26.9075 125.973 26.257 126.289 25.6592C126.625 25.0356 126.926 24.5218 127.191 24.1176C127.456 23.7135 127.693 23.5006 127.903 23.4791C128.136 23.4552 128.386 23.4767 128.652 23.5436C128.939 23.5848 129.098 23.757 129.129 24.0601C129.172 24.4798 129.048 24.999 128.759 25.6178C128.492 26.2341 128.112 26.8974 127.62 27.6077C127.151 28.3155 126.588 29.033 125.932 29.76C125.297 30.4613 124.645 31.1055 123.975 31.6926C123.302 32.2564 122.633 32.7374 121.967 33.1356C121.299 33.5104 120.697 33.7254 120.16 33.7804C119.111 33.8881 118.292 33.713 117.703 33.2551C117.114 32.7972 116.664 32.1955 116.352 31.4501C116.063 30.7022 115.863 29.8981 115.751 29.0379C115.66 28.1519 115.564 27.3371 115.464 26.5934ZM120.93 16.4904C120.534 16.531 120.135 16.7723 119.732 17.2141C119.328 17.6326 118.956 18.142 118.617 18.7422C118.299 19.3168 118.042 19.9086 117.845 20.5178C117.669 21.1013 117.6 21.5796 117.639 21.9526C117.988 21.9167 118.477 21.737 119.103 21.4136C119.751 21.0644 120.38 20.6581 120.992 20.1948C121.605 19.7314 122.133 19.2531 122.577 18.7599C123.021 18.2667 123.223 17.8219 123.182 17.4255C123.161 17.2157 123.061 17.0492 122.883 16.9261C122.706 16.8029 122.496 16.7067 122.253 16.6373C122.034 16.5656 121.805 16.5184 121.567 16.4957C121.329 16.473 121.117 16.4712 120.93 16.4904ZM144.388 13.9769C144.167 11.832 143.996 9.7055 143.874 7.59758C143.75 5.46634 143.643 3.27442 143.553 1.02182C143.604 0.828117 143.673 0.703167 143.762 0.646966C143.848 0.56745 143.972 0.519316 144.136 0.502567C144.369 0.478639 144.539 0.531834 144.647 0.662153C144.752 0.769157 144.825 0.903065 144.865 1.06388C144.928 1.2223 144.959 1.40762 144.957 1.61985C144.976 1.80637 144.993 1.96957 145.007 2.10946L146.106 12.8111C146.149 13.2307 146.229 13.6701 146.347 14.1293L146.7 15.5066C146.841 15.9634 146.945 16.4004 147.012 16.8176C147.099 17.2092 147.11 17.5497 147.046 17.839C147.025 18.1003 146.908 18.3361 146.694 18.5466C146.504 18.7546 146.28 18.8718 146.024 18.8981C145.604 18.9412 145.291 18.7613 145.085 18.3584C144.878 17.9554 144.723 17.4766 144.619 16.9218C144.538 16.3646 144.481 15.8051 144.447 15.2431C144.436 14.6788 144.416 14.2567 144.388 13.9769ZM148.26 30.0131L148.202 29.4535C148.19 29.3369 148.19 29.2191 148.201 29.1002C148.21 28.9579 148.245 28.8365 148.305 28.7361C148.366 28.6357 148.466 28.5783 148.606 28.5639C149.072 28.516 149.352 28.6051 149.446 28.8311C149.561 29.0313 149.634 29.283 149.665 29.5861C149.698 29.9125 149.679 30.1854 149.608 30.4048C149.559 30.6219 149.302 30.7543 148.836 30.8021C148.696 30.8165 148.586 30.7806 148.506 30.6946C148.427 30.6085 148.37 30.5083 148.334 30.3942C148.297 30.2567 148.272 30.1296 148.26 30.0131Z" fill="#FAFAFA"/>
</svg>
