<svg width="120" height="36" viewBox="0 0 120 36" fill="none" xmlns="http://www.w3.org/2000/svg">
<path d="M5.15195 34.223C5.17605 33.9852 5.44622 33.7354 5.96248 33.4735C6.47873 33.2117 7.12217 32.9258 7.89278 32.6158C8.6634 32.3058 9.5134 31.9646 10.4428 31.5921C11.3722 31.2197 12.2632 30.8156 13.1159 30.38C13.9685 29.9443 14.735 29.4699 15.4153 28.9567C16.119 28.4413 16.6176 27.875 16.9111 27.258C16.8773 26.9081 16.618 26.6623 16.1334 26.5208C15.6721 26.3771 15.0509 26.2841 14.2698 26.2419C13.5097 26.1741 12.6364 26.1526 11.6499 26.1774C10.6844 26.1765 9.68161 26.1558 8.64161 26.1151C7.62269 26.0488 6.61317 25.958 5.61306 25.8428C4.63403 25.702 3.74041 25.4706 2.93221 25.1484C2.14509 24.8007 1.48778 24.3345 0.960295 23.7497C0.456138 23.1627 0.160067 22.4143 0.0720816 21.5045C-0.0159034 20.5947 0.0955333 19.6773 0.406392 18.7525C0.714994 17.8043 1.15529 16.8787 1.72727 15.9757C2.32259 15.0705 3.00519 14.2157 3.77509 13.4112C4.56831 12.6046 5.40555 11.8879 6.28681 11.2611C7.16807 10.6343 8.04894 10.1252 8.92943 9.73397C9.83325 9.34045 10.6817 9.10534 11.4749 9.02864C11.6849 9.00834 11.9065 8.9869 12.1398 8.96434C12.3708 8.91845 12.5702 8.91094 12.7381 8.94181C12.9269 8.94709 13.0865 9.01407 13.2167 9.14277C13.3468 9.27146 13.4255 9.47578 13.4525 9.75572C13.518 10.4323 13.3437 10.9436 12.9298 11.2897C12.5136 11.6125 11.9906 11.8044 11.3607 11.8653L9.90124 11.0175C9.36468 11.0694 8.78447 11.2785 8.16059 11.645C7.56005 12.0092 6.94632 12.4806 6.31943 13.0592C5.7136 13.6123 5.12733 14.2459 4.56063 14.96C3.99392 15.6741 3.49946 16.4048 3.07724 17.152C2.67835 17.897 2.3611 18.6341 2.12551 19.3633C1.91325 20.0902 1.83419 20.7336 1.88833 21.2935C1.96729 22.11 2.25321 22.7535 2.74609 23.2238C3.26004 23.6686 3.90494 24.0065 4.68078 24.2376C5.4777 24.4431 6.37283 24.5685 7.36617 24.6137C8.35951 24.6589 9.36226 24.6797 10.3744 24.676C11.3866 24.6723 12.3871 24.6697 13.3759 24.6683C14.3625 24.6435 15.2392 24.7 16.006 24.8378C16.7961 24.9733 17.4298 25.1946 17.9068 25.5016C18.4073 25.8064 18.6868 26.2621 18.7454 26.8687C19.0382 27.2171 19.0216 27.6543 18.6957 28.1803C18.3909 28.6807 17.8772 29.2131 17.1548 29.7775C16.4534 30.3162 15.6015 30.8813 14.5991 31.4728C13.6177 32.0386 12.598 32.5728 11.5399 33.0755C10.4795 33.5547 9.44968 33.984 8.45029 34.3632C7.44865 34.7191 6.58961 34.967 5.87319 35.1069C5.66323 35.1272 5.46984 35.0753 5.293 34.9511C5.13949 34.8247 5.09247 34.582 5.15195 34.223ZM23.3698 33.5915C23.3721 33.6148 23.6035 33.4511 24.0641 33.1005C24.548 32.7476 25.1045 32.2935 25.7336 31.7381C26.3839 31.1572 27.0424 30.5402 27.7092 29.8871C28.3737 29.2106 28.9133 28.5815 29.328 27.9998C29.7427 27.4181 29.9436 26.9395 29.9309 26.564C29.9392 26.1629 29.5994 25.9368 28.9116 25.8855C28.0605 25.8501 27.3501 25.9306 26.7804 26.127C26.2341 26.3211 25.7366 26.534 25.2881 26.7658C24.8396 26.9975 24.4133 27.2153 24.0091 27.4192C23.6283 27.6209 23.1907 27.7221 22.6963 27.7228C21.6699 27.8221 20.9279 27.5759 20.4704 26.9844C20.0339 26.3673 19.7627 25.5105 19.6567 24.4141C19.5507 23.3176 19.6952 22.2558 20.0904 21.2286C20.4833 20.1781 21.0297 19.2541 21.7296 18.4564C22.4295 17.6588 23.2607 17.0015 24.2232 16.4846C25.1835 15.9443 26.1885 15.6234 27.2383 15.5219C27.6582 15.4813 28.0232 15.4813 28.3332 15.522C28.6433 15.5627 28.8209 15.8163 28.866 16.2828C28.8976 16.6094 28.788 16.9379 28.5374 17.2683C28.2846 17.5753 27.9832 17.7457 27.6332 17.7795C27.6099 17.7818 27.5504 17.7758 27.4549 17.7615C27.3571 17.7238 27.2581 17.6745 27.158 17.6136C27.0579 17.5526 26.9601 17.515 26.8645 17.5007C26.7667 17.463 26.7061 17.4454 26.6828 17.4476C25.916 17.3099 25.2029 17.4848 24.5437 17.9724C23.8844 18.46 23.3098 19.0924 22.8199 19.8698C22.351 20.6215 21.9939 21.4331 21.7485 22.3045C21.5009 23.1526 21.4086 23.9032 21.4718 24.5564C21.4966 24.8131 21.5636 25.0185 21.6727 25.1728C21.8028 25.3015 21.953 25.3929 22.123 25.4471C22.3164 25.499 22.5192 25.5265 22.7315 25.5296C22.9647 25.507 23.198 25.4844 23.4313 25.4619C23.8979 25.4167 24.3577 25.3016 24.8107 25.1166C25.2871 24.9292 25.7379 24.7208 26.1631 24.4913C26.6116 24.2595 27.0624 24.0511 27.5154 23.866C27.9918 23.6787 28.4866 23.5602 28.9998 23.5106C29.2331 23.488 29.4965 23.5332 29.79 23.6461C30.0812 23.7356 30.3559 23.8974 30.614 24.1315C30.8698 24.3422 31.0952 24.603 31.2901 24.9138C31.4827 25.2013 31.6087 25.5305 31.6681 25.9015C31.8397 26.2146 31.8348 26.6507 31.6534 27.2098C31.4953 27.7667 31.224 28.3698 30.8394 29.0192C30.4548 29.6686 29.978 30.3387 29.4091 31.0295C28.8378 31.697 28.2621 32.3178 27.6819 32.8919C27.0994 33.4427 26.5195 33.8991 25.9423 34.261C25.3673 34.6463 24.8688 34.8476 24.4466 34.8648C23.98 34.91 23.6866 34.7971 23.5662 34.5261C23.4691 34.253 23.4037 33.9414 23.3698 33.5915ZM35.7755 32.3918C35.7778 32.4151 36.0092 32.2514 36.4698 31.9008C36.9537 31.5479 37.5102 31.0938 38.1394 30.5384C38.7896 29.9575 39.4481 29.3405 40.1149 28.6873C40.7794 28.0109 41.319 27.3818 41.7337 26.8001C42.1484 26.2184 42.3494 25.7398 42.3366 25.3643C42.3449 24.9632 42.0051 24.737 41.3173 24.6858C40.4662 24.6504 39.7558 24.7309 39.1861 24.9272C38.6398 25.1214 38.1423 25.3343 37.6938 25.566C37.2453 25.7978 36.819 26.0156 36.4148 26.2195C36.0341 26.4212 35.5964 26.5224 35.102 26.5231C34.0756 26.6224 33.3336 26.3762 32.8761 25.7847C32.4397 25.1676 32.1684 24.3108 32.0624 23.2144C31.9564 22.1179 32.1009 21.0561 32.4961 20.0289C32.889 18.9784 33.4354 18.0544 34.1353 17.2567C34.8352 16.4591 35.6664 15.8018 36.6289 15.2849C37.5892 14.7446 38.5942 14.4237 39.644 14.3222C40.0639 14.2816 40.4289 14.2816 40.739 14.3223C41.049 14.3629 41.2266 14.6166 41.2717 15.0831C41.3033 15.4097 41.1938 15.7382 40.9431 16.0686C40.6903 16.3756 40.3889 16.546 40.0389 16.5798C40.0156 16.5821 39.9562 16.5761 39.8606 16.5618C39.7628 16.5241 39.6638 16.4748 39.5637 16.4139C39.4636 16.3529 39.3658 16.3153 39.2703 16.301C39.1724 16.2633 39.1118 16.2457 39.0885 16.2479C38.3217 16.1101 37.6087 16.2851 36.9494 16.7727C36.2902 17.2603 35.7156 17.8927 35.2256 18.67C34.7567 19.4218 34.3996 20.2334 34.1542 21.1048C33.9066 21.9529 33.8143 22.7035 33.8775 23.3567C33.9023 23.6133 33.9693 23.8188 34.0784 23.9731C34.2086 24.1018 34.3587 24.1932 34.5288 24.2474C34.7222 24.2993 34.925 24.3268 35.1372 24.3298C35.3705 24.3073 35.6037 24.2847 35.837 24.2622C36.3036 24.217 36.7634 24.1019 37.2165 23.9168C37.6928 23.7295 38.1436 23.5211 38.5688 23.2916C39.0173 23.0598 39.4681 22.8514 39.9211 22.6663C40.3975 22.479 40.8923 22.3605 41.4055 22.3108C41.6388 22.2883 41.9022 22.3335 42.1957 22.4464C42.4869 22.5359 42.7616 22.6977 43.0197 22.9318C43.2755 23.1425 43.5009 23.4033 43.6958 23.7141C43.8884 24.0016 44.0144 24.3308 44.0739 24.7018C44.2454 25.0149 44.2405 25.451 44.0591 26.0101C43.901 26.567 43.6297 27.1701 43.2451 27.8195C42.8605 28.4689 42.3837 29.139 41.8148 29.8298C41.2436 30.4973 40.6678 31.1181 40.0876 31.6922C39.5051 32.243 38.9252 32.6994 38.348 33.0613C37.7731 33.4466 37.2745 33.6478 36.8523 33.6651C36.3857 33.7102 36.0923 33.5973 35.9719 33.3264C35.8748 33.0533 35.8094 32.7417 35.7755 32.3918ZM56.5512 15.4775C55.6565 15.2344 54.8407 15.4428 54.1039 16.1027C53.3672 16.7626 52.6891 17.6641 52.0697 18.8071C51.448 19.9269 50.876 21.1948 50.3536 22.6111C49.8313 24.0273 49.3488 25.369 48.9062 26.6363C48.4637 27.9035 48.0508 28.9913 47.6677 29.8995C47.308 30.8056 46.946 31.3233 46.5817 31.4527C46.3018 31.4798 46.0756 31.4546 45.9033 31.377C45.7521 31.2739 45.6561 31.0124 45.6155 30.5925L43.2366 5.99242C43.2162 5.78246 43.2855 5.64625 43.4443 5.5838C43.6264 5.5191 43.8236 5.48826 44.0358 5.49128C44.248 5.49431 44.4519 5.53345 44.6476 5.60872C44.841 5.66066 44.9655 5.73103 45.0212 5.81983L47.3813 25.4769C47.5973 25.0322 47.7742 24.4264 47.912 23.6596C48.0708 22.8672 48.2601 22.0247 48.4799 21.1322C48.6975 20.2164 48.9628 19.3077 49.2759 18.4062C49.6101 17.4791 50.0466 16.6363 50.5855 15.8778C51.1244 15.1193 51.8073 14.5117 52.6344 14.0549C53.4825 13.5726 54.5071 13.3323 55.7082 13.3338C56.5013 13.2571 57.1677 13.4517 57.7072 13.9176C58.2445 14.3601 58.5643 14.9885 58.6666 15.8027L60.3667 29.7311C60.3758 29.8244 60.366 29.9666 60.3374 30.1578C60.3298 30.3233 60.25 30.4723 60.098 30.6048C59.9716 30.7583 59.7695 30.8602 59.4918 30.9106C59.2397 30.9821 58.8958 30.9565 58.4601 30.8338L56.5512 15.4775ZM72.5612 13.9292C71.6665 13.6861 70.8507 13.8945 70.1139 14.5544C69.3772 15.2143 68.6991 16.1158 68.0797 17.2589C67.458 18.3786 66.886 19.6466 66.3636 21.0628C65.8413 22.479 65.3588 23.8208 64.9162 25.088C64.4737 26.3552 64.0608 27.443 63.6777 28.3513C63.318 29.2573 62.956 29.775 62.5917 29.9044C62.3118 29.9315 62.0856 29.9063 61.9133 29.8288C61.7621 29.7257 61.6661 29.4641 61.6255 29.0442L59.2465 4.44415C59.2262 4.23419 59.2955 4.09799 59.4543 4.03554C59.6364 3.97083 59.8336 3.93999 60.0458 3.94302C60.258 3.94604 60.4619 3.98519 60.6576 4.06045C60.851 4.11239 60.9755 4.18276 61.0312 4.27156L63.3913 23.9286C63.6073 23.4839 63.7842 22.8781 63.922 22.1113C64.0808 21.3189 64.2701 20.4764 64.4899 19.584C64.7075 18.6681 64.9728 17.7595 65.2859 16.858C65.6201 15.9309 66.0566 15.0881 66.5955 14.3295C67.1344 13.571 67.8173 12.9634 68.6444 12.5067C69.4925 12.0244 70.5171 11.784 71.7182 11.7856C72.5113 11.7089 73.1777 11.9034 73.7172 12.3693C74.2545 12.8118 74.5743 13.4402 74.6766 14.2545L76.3767 28.1828C76.3858 28.2761 76.376 28.4184 76.3474 28.6095C76.3398 28.7751 76.26 28.9241 76.108 29.0565C75.9816 29.21 75.7795 29.312 75.5018 29.3624C75.2497 29.4338 74.9058 29.4082 74.4701 29.2855L72.5612 13.9292ZM88.5712 12.381C87.6765 12.1378 86.8607 12.3462 86.1239 13.0061C85.3872 13.6661 84.7091 14.5676 84.0897 15.7106C83.468 16.8303 82.896 18.0983 82.3736 19.5145C81.8513 20.9308 81.3688 22.2725 80.9262 23.5397C80.4837 24.807 80.0708 25.8947 79.6877 26.803C79.328 27.709 78.966 28.2268 78.6017 28.3562C78.3218 28.3832 78.0956 28.358 77.9233 28.2805C77.7721 28.1774 77.6761 27.9159 77.6355 27.496L75.2565 2.89588C75.2362 2.68593 75.3055 2.54972 75.4643 2.48727C75.6464 2.42257 75.8436 2.39173 76.0558 2.39475C76.268 2.39778 76.4719 2.43692 76.6676 2.51219C76.861 2.56413 76.9855 2.6345 77.0412 2.7233L79.4013 22.3804C79.6173 21.9356 79.7942 21.3299 79.932 20.563C80.0908 19.7706 80.2801 18.9282 80.4999 18.0357C80.7175 17.1199 80.9828 16.2112 81.2959 15.3097C81.6301 14.3826 82.0666 13.5398 82.6055 12.7813C83.1444 12.0228 83.8273 11.4151 84.6544 10.9584C85.5025 10.4761 86.5271 10.2357 87.7282 10.2373C88.5213 10.1606 89.1877 10.3552 89.7272 10.821C90.2645 11.2636 90.5843 11.8919 90.6866 12.7062L92.3867 26.6346C92.3958 26.7279 92.386 26.8701 92.3574 27.0612C92.3498 27.2268 92.27 27.3758 92.118 27.5082C91.9916 27.6617 91.7895 27.7637 91.5118 27.8141C91.2597 27.8856 90.9158 27.86 90.4801 27.7373L88.5712 12.381ZM104.581 10.8327C103.686 10.5896 102.871 10.798 102.134 11.4579C101.397 12.1178 100.719 13.0193 100.1 14.1623C99.478 15.2821 98.906 16.55 98.3836 17.9663C97.8613 19.3825 97.3788 20.7242 96.9362 21.9915C96.4937 23.2587 96.0808 24.3465 95.6977 25.2548C95.338 26.1608 94.976 26.6785 94.6117 26.8079C94.3318 26.835 94.1056 26.8098 93.9333 26.7322C93.7821 26.6291 93.6861 26.3676 93.6455 25.9477L91.2665 1.34762C91.2462 1.13766 91.3155 1.00146 91.4743 0.939009C91.6564 0.874303 91.8536 0.843463 92.0658 0.846487C92.278 0.849512 92.4819 0.888657 92.6776 0.963924C92.871 1.01586 92.9955 1.08623 93.0512 1.17503L95.4113 20.8321C95.6273 20.3874 95.8042 19.7816 95.942 19.0148C96.1008 18.2224 96.2901 17.3799 96.5099 16.4874C96.7275 15.5716 96.9928 14.6629 97.3059 13.7614C97.6401 12.8343 98.0766 11.9915 98.6155 11.233C99.1544 10.4745 99.8373 9.86687 100.664 9.41014C101.513 8.92782 102.537 8.68746 103.738 8.68904C104.531 8.61234 105.198 8.80691 105.737 9.27277C106.274 9.71529 106.594 10.3437 106.697 11.1579L108.397 25.0863C108.406 25.1796 108.396 25.3218 108.367 25.513C108.36 25.6785 108.28 25.8275 108.128 25.96C108.002 26.1135 107.8 26.2154 107.522 26.2658C107.27 26.3373 106.926 26.3117 106.49 26.189L104.581 10.8327ZM109.376 24.4265C109.668 24.045 109.926 23.7846 110.148 23.6454C110.367 23.4829 110.664 23.3836 111.037 23.3475C111.667 23.2866 112.011 23.5594 112.07 24.1659C112.084 24.3059 112.053 24.4737 111.977 24.6694C111.923 24.8394 111.834 25.0129 111.71 25.1897C111.609 25.3643 111.481 25.5062 111.327 25.6153C111.171 25.701 111.019 25.7157 110.872 25.6593C110.72 25.7917 110.548 25.8319 110.354 25.78C110.186 25.7491 110.026 25.6705 109.872 25.5441C109.719 25.4176 109.586 25.2656 109.475 25.088C109.385 24.8848 109.351 24.6643 109.376 24.4265ZM113.278 24.0491C113.571 23.6676 113.828 23.4072 114.05 23.268C114.27 23.1055 114.566 23.0062 114.94 22.9701C115.57 22.9092 115.914 23.182 115.972 23.7885C115.986 23.9285 115.955 24.0963 115.88 24.292C115.826 24.4621 115.736 24.6355 115.612 24.8123C115.511 24.9869 115.384 25.1288 115.23 25.2379C115.073 25.3237 114.921 25.3383 114.775 25.2819C114.623 25.4143 114.45 25.4546 114.257 25.4026C114.089 25.3717 113.928 25.2931 113.775 25.1667C113.621 25.0402 113.489 24.8882 113.377 24.7106C113.287 24.5074 113.254 24.2869 113.278 24.0491ZM117.18 23.6717C117.473 23.2902 117.731 23.0299 117.953 22.8907C118.172 22.7281 118.469 22.6288 118.842 22.5927C119.472 22.5318 119.816 22.8046 119.875 23.4112C119.888 23.5511 119.858 23.7189 119.782 23.9146C119.728 24.0847 119.639 24.2581 119.515 24.435C119.414 24.6095 119.286 24.7514 119.132 24.8605C118.975 24.9463 118.824 24.9609 118.677 24.9045C118.525 25.0369 118.352 25.0772 118.159 25.0252C117.991 24.9944 117.831 24.9157 117.677 24.7893C117.524 24.6628 117.391 24.5108 117.28 24.3332C117.189 24.13 117.156 23.9095 117.18 23.6717Z" fill="#0088E9"/>
</svg>
