<svg width="121" height="36" viewBox="0 0 121 36" fill="none" xmlns="http://www.w3.org/2000/svg">
<path d="M0.217064 25.5504C0.570339 25.2241 0.868183 25.0112 1.1106 24.9117C1.35475 24.7889 1.66381 24.7413 2.03778 24.7691C2.66885 24.816 2.96181 25.1433 2.91665 25.751C2.90623 25.8912 2.84733 26.0514 2.73994 26.2314C2.65767 26.3898 2.54033 26.5456 2.38794 26.6988C2.25891 26.8537 2.10912 26.9719 1.93856 27.0532C1.76974 27.1112 1.61782 27.0999 1.48279 27.0193C1.31049 27.124 1.13346 27.1344 0.951685 27.0504C0.791547 26.9915 0.646569 26.8867 0.516751 26.736C0.386933 26.5854 0.282225 26.4131 0.202627 26.2191C0.148138 26.0036 0.152951 25.7807 0.217064 25.5504ZM4.12691 25.8409C4.48018 25.5146 4.77803 25.3018 5.02044 25.2023C5.26459 25.0794 5.57365 25.0318 5.94762 25.0596C6.5787 25.1065 6.87165 25.4338 6.8265 26.0415C6.81608 26.1818 6.75718 26.3419 6.64979 26.5219C6.56751 26.6803 6.45018 26.8361 6.29778 26.9893C6.16876 27.1442 6.01897 27.2624 5.84841 27.3437C5.67959 27.4017 5.52766 27.3904 5.39263 27.3098C5.22034 27.4146 5.0433 27.4249 4.86153 27.3409C4.70139 27.282 4.55641 27.1772 4.4266 27.0265C4.29678 26.8759 4.19207 26.7036 4.11247 26.5097C4.05798 26.2941 4.0628 26.0712 4.12691 25.8409ZM8.03676 26.1314C8.39003 25.8052 8.68788 25.5923 8.93029 25.4928C9.17444 25.3699 9.4835 25.3224 9.85747 25.3502C10.4885 25.397 10.7815 25.7243 10.7363 26.332C10.7259 26.4723 10.667 26.6324 10.5596 26.8125C10.4774 26.9709 10.36 27.1267 10.2076 27.2798C10.0786 27.4348 9.92881 27.5529 9.75826 27.6342C9.58943 27.6922 9.43751 27.6809 9.30248 27.6004C9.13019 27.7051 8.95315 27.7154 8.77138 27.6314C8.61124 27.5725 8.46626 27.4677 8.33644 27.3171C8.20663 27.1664 8.10192 26.9941 8.02232 26.8002C7.96783 26.5846 7.97264 26.3617 8.03676 26.1314ZM30.0982 28.6168C30.0965 28.6402 30.3523 28.5182 30.8658 28.2508C31.4025 27.9852 32.0281 27.6321 32.7424 27.1916C33.4818 26.7295 34.2355 26.2332 35.0034 25.7028C35.7732 25.1489 36.4117 24.6205 36.9191 24.1177C37.4265 23.6149 37.7058 23.1773 37.757 22.8051C37.8333 22.4112 37.5368 22.1307 36.8677 21.9634C36.0349 21.784 35.3212 21.7428 34.7264 21.8396C34.1551 21.9381 33.6287 22.0635 33.1474 22.2158C32.666 22.368 32.2089 22.5103 31.776 22.6427C31.3665 22.7768 30.9181 22.8022 30.4307 22.719C29.4023 22.6426 28.7129 22.2741 28.3624 21.6135C28.0371 20.9312 27.9152 20.0408 27.9969 18.9423C28.0785 17.8438 28.4012 16.8219 28.965 15.8767C29.5305 14.9081 30.2258 14.0902 31.051 13.423C31.8761 12.7557 32.8068 12.2491 33.8431 11.9031C34.8812 11.5336 35.9261 11.388 36.9779 11.4662C37.3986 11.4974 37.7583 11.5594 38.0569 11.6521C38.3556 11.7448 38.4875 12.0249 38.4528 12.4923C38.4285 12.8196 38.2648 13.1247 37.9617 13.4077C37.6604 13.6673 37.3344 13.7841 36.9838 13.7581C36.9605 13.7563 36.9029 13.7403 36.8112 13.71C36.7211 13.6563 36.632 13.5909 36.5437 13.5138C36.4554 13.4368 36.3654 13.3831 36.2736 13.3528C36.1836 13.2991 36.1269 13.2714 36.1036 13.2696C35.3713 13.0037 34.6389 13.055 33.9064 13.4236C33.174 13.7923 32.5003 14.318 31.8856 15.0009C31.2959 15.6621 30.8062 16.4013 30.4164 17.2184C30.0284 18.0122 29.8101 18.7363 29.7614 19.3907C29.7423 19.6478 29.7735 19.8616 29.8548 20.0322C29.9612 20.1811 30.0937 20.2967 30.2521 20.379C30.4338 20.463 30.629 20.5245 30.8377 20.5635C31.0714 20.5809 31.3051 20.5983 31.5388 20.6156C32.0063 20.6504 32.479 20.615 32.9569 20.5095C33.4581 20.4057 33.9377 20.2768 34.3957 20.1228C34.8771 19.9706 35.3567 19.8417 35.8346 19.7362C36.3358 19.6325 36.8436 19.5997 37.3578 19.6379C37.5915 19.6553 37.8434 19.7445 38.1134 19.9056C38.3852 20.0433 38.6285 20.2493 38.8431 20.5238C39.0594 20.7749 39.2373 21.0702 39.3766 21.4095C39.5176 21.7255 39.5859 22.0714 39.5815 22.4471C39.6974 22.7847 39.6185 23.2137 39.3449 23.7339C39.0946 24.2558 38.7248 24.8042 38.2355 25.3789C37.7463 25.9536 37.1627 26.533 36.4847 27.1172C35.8085 27.678 35.1358 28.1921 34.4665 28.6594C33.7989 29.1033 33.15 29.4546 32.5197 29.7133C31.8877 29.9954 31.3622 30.1091 30.9432 30.0545C30.4758 30.0197 30.2057 29.8587 30.1331 29.5712C30.0838 29.2856 30.0722 28.9674 30.0982 28.6168ZM40.0406 25.0547C39.9569 23.9674 39.9524 22.9212 40.0271 21.9162C40.1035 20.8877 40.2392 19.852 40.4342 18.8089C40.6526 17.7675 40.9204 16.6946 41.2375 15.59C41.5797 14.4638 41.963 13.2585 42.3875 11.9739C42.4066 11.7168 42.4941 11.4883 42.6499 11.2883C42.8075 11.065 43.0084 10.8919 43.2526 10.7691C43.4985 10.6228 43.7534 10.5125 44.0175 10.4381C44.2815 10.3637 44.5304 10.3352 44.7642 10.3526C45.2784 10.3908 45.7337 10.5891 46.1301 10.9476C46.5265 11.3061 46.8709 11.7312 47.1634 12.223C47.4793 12.7165 47.7341 13.2408 47.9279 13.7957C48.1468 14.329 48.3241 14.7887 48.4599 15.1749C48.5861 16.0068 48.6452 16.9513 48.6372 18.0083C48.6543 19.0436 48.5878 20.0963 48.4378 21.1663C48.2878 22.2362 48.0451 23.2875 47.7099 24.3202C47.3764 25.3295 46.9437 26.2492 46.412 27.0793C45.8803 27.9093 45.2188 28.5888 44.4274 29.1175C43.6594 29.648 42.7677 29.946 41.7522 30.0116C41.2147 29.9716 40.8187 29.7659 40.5642 29.3945C40.3115 28.9997 40.1342 28.54 40.0322 28.0153C39.9552 27.4691 39.9251 26.9263 39.9416 26.387C39.9816 25.8494 40.0146 25.4053 40.0406 25.0547ZM41.8365 25.0824C41.8191 25.3161 41.8026 25.5382 41.787 25.7485C41.7947 25.9606 41.8025 26.1727 41.8102 26.3848C41.8431 26.5753 41.8742 26.7891 41.9036 27.0263C41.958 27.2419 42.0216 27.4934 42.0943 27.7808L42.3046 27.7964C42.8656 27.8381 43.3586 27.6867 43.7838 27.3423C44.2089 26.9978 44.5834 26.5439 44.9073 25.9804C45.2329 25.3935 45.5162 24.7448 45.757 24.0341C45.9995 23.3 46.1936 22.5859 46.3392 21.8916C46.5099 21.1758 46.6295 20.5148 46.6981 19.9089C46.7917 19.2813 46.8524 18.7805 46.8802 18.4065L46.9323 17.7053C46.9549 17.4015 46.9684 17.0617 46.9728 16.686C46.9789 16.2869 46.9617 15.8861 46.9211 15.4836C46.9056 15.0594 46.8516 14.6793 46.7591 14.3434C46.6683 13.9841 46.5372 13.6924 46.3658 13.4681C46.1945 13.2439 45.9569 13.1204 45.653 13.0979C45.151 12.8961 44.7043 12.8981 44.3129 13.1041C43.945 13.3117 43.6233 13.6874 43.3479 14.231C43.0976 14.7529 42.8845 15.4069 42.7085 16.1929C42.5326 16.9789 42.3974 17.8502 42.3028 18.8067C42.2082 19.7633 42.121 20.7791 42.0411 21.8543C41.9846 22.9312 41.9164 24.0072 41.8365 25.0824ZM67.7475 18.9347C67.654 18.9278 67.5103 18.9641 67.3163 19.0437C67.1242 19.0999 66.9185 19.1787 66.6995 19.2799C66.5056 19.3595 66.3116 19.4391 66.1177 19.5187C65.9238 19.5983 65.7567 19.6329 65.6164 19.6225C65.3827 19.6051 65.1758 19.5427 64.9958 19.4353C64.8391 19.3297 64.7712 19.1366 64.7921 18.8562C64.8094 18.6224 64.9311 18.4082 65.1571 18.2135C65.4065 18.0205 65.6909 17.8301 66.0104 17.6423C66.3298 17.4545 66.6484 17.2784 66.9662 17.114C67.2839 16.9496 67.5199 16.7791 67.674 16.6026C67.655 16.2251 67.6721 15.5213 67.7251 14.4912C67.7782 13.461 67.865 12.2924 67.9856 10.9852C68.1314 9.65643 68.3148 8.29519 68.5359 6.90149C68.7803 5.50952 69.0719 4.27383 69.4106 3.1944C69.7745 2.09333 70.2019 1.24376 70.6929 0.645686C71.1838 0.0476113 71.7712 -0.108509 72.4551 0.177324C72.9459 0.213796 73.3787 0.398719 73.7535 0.732093C74.13 1.04209 74.442 1.42956 74.6894 1.89449C74.9386 2.33605 75.1143 2.81914 75.2163 3.34377C75.3417 3.87013 75.3888 4.34367 75.3575 4.76439C75.3401 4.99812 75.2626 5.25088 75.1249 5.52267C75.0123 5.77283 74.8158 5.88749 74.5353 5.86664L74.4301 5.85883C74.4067 5.85709 74.3842 5.84367 74.3626 5.81856C73.9076 4.35112 73.4953 3.41565 73.1258 3.01216C72.7813 2.58703 72.455 2.55103 72.1467 2.90416C71.8618 3.25902 71.5903 3.90865 71.3321 4.85306C71.0972 5.79919 70.8745 6.89899 70.6639 8.15246C70.4549 9.38255 70.2516 10.6953 70.0539 12.0907C69.858 13.4628 69.669 14.7414 69.4869 15.9265C69.963 15.8443 70.3574 15.7561 70.6699 15.6618C71.0058 15.5693 71.3067 15.4741 71.5725 15.3764C71.84 15.2552 72.0833 15.144 72.3023 15.0428C72.5231 14.9182 72.7655 14.8187 73.0296 14.7443C73.5378 14.5471 74.0918 14.365 74.6918 14.198C75.3169 14.0094 75.9099 13.936 76.4708 13.9777C76.4205 14.6555 76.2502 15.2069 75.9601 15.6319C75.6934 16.0586 75.3509 16.3974 74.9328 16.6484C74.5379 16.9011 74.0899 17.0793 73.5887 17.1831C73.0891 17.2635 72.5788 17.3313 72.0576 17.3866C71.5599 17.4436 71.0855 17.5024 70.6344 17.5629C70.1834 17.6234 69.789 17.7116 69.4514 17.8275C69.4086 19.352 69.4031 20.6912 69.4349 21.8451C69.49 23.0008 69.5314 24.0262 69.5588 24.9214C69.6097 25.8182 69.6307 26.6424 69.6219 27.3938C69.6382 28.1235 69.5843 28.8481 69.4604 29.5675C69.4482 29.7311 69.4309 29.9648 69.4083 30.2687C69.4108 30.5509 69.3783 30.8305 69.3107 31.1075C69.2665 31.3862 69.1664 31.6256 69.0106 31.8255C68.8564 32.0021 68.6275 32.0791 68.3236 32.0565C68.0431 32.0356 67.8371 31.9616 67.7056 31.8343C67.5757 31.6836 67.5022 31.4079 67.485 31.0071C67.4854 29.1034 67.4875 27.4937 67.4913 26.1779C67.5202 24.8404 67.5442 23.7258 67.5635 22.8342C67.5845 21.9192 67.6141 21.2045 67.6523 20.6903L67.7721 19.0776C67.7791 18.9841 67.7709 18.9365 67.7475 18.9347ZM85.7342 32.3631C85.6625 31.7467 85.6112 31.0143 85.5802 30.166C85.5743 29.2959 85.5568 28.4251 85.5276 27.5533C85.5001 26.6582 85.4449 25.8198 85.3619 25.038C85.3024 24.258 85.1623 23.6131 84.9417 23.1031C83.569 25.4454 82.3748 27.2838 81.3591 28.6184C80.345 29.9297 79.4648 30.8632 78.7185 31.4188C77.9973 31.9527 77.4038 32.1906 76.9381 32.1325C76.4723 32.0744 76.1023 31.8354 75.828 31.4155C75.5537 30.9956 75.369 30.4765 75.2739 29.8584C75.2039 29.2187 75.1655 28.6283 75.1587 28.0872C75.1969 27.573 75.3676 26.8571 75.6708 25.9396C75.974 25.022 76.3651 24.0287 76.8441 22.9597C77.3248 21.8673 77.8765 20.7685 78.4992 19.6631C79.1452 18.5595 79.8185 17.5637 80.5191 16.6757C81.2196 15.7877 81.9314 15.065 82.6543 14.5077C83.3773 13.9503 84.0777 13.6968 84.7555 13.7472C85.7727 13.6583 86.4925 13.935 86.9148 14.5775C87.3622 15.1983 87.3819 16.1986 86.9738 17.5784C86.8592 19.121 86.8195 20.4459 86.8547 21.5531C86.9134 22.6621 86.9754 23.7243 87.041 24.7398C87.1299 25.757 87.192 26.8192 87.2272 27.9264C87.2859 29.0353 87.2579 30.3611 87.1432 31.9037C87.1224 32.1842 87.0691 32.427 86.9833 32.6322C86.9227 32.8157 86.6353 32.8883 86.1211 32.8501C86.0509 32.8449 85.9618 32.7795 85.8536 32.654C85.7688 32.5302 85.729 32.4332 85.7342 32.3631ZM85.0055 16.5508C84.7762 16.1577 84.4282 16.0966 83.9615 16.3674C83.4949 16.6383 82.9901 17.1061 82.4471 17.7708C81.9042 18.4355 81.3391 19.2396 80.752 20.1831C80.1648 21.1265 79.6119 22.0843 79.0931 23.0563C78.5743 24.0284 78.1175 24.958 77.7225 25.8452C77.3293 26.7091 77.0525 27.4289 76.8923 28.0045C76.8297 28.8459 76.9227 29.3346 77.1711 29.4706C77.4213 29.5832 77.7472 29.4664 78.149 29.1202C78.5507 28.774 79.0114 28.2677 79.531 27.6013C80.0739 26.9366 80.5969 26.2233 81.1001 25.4617C81.6266 24.7017 82.1163 23.9625 82.5692 23.2441C83.0455 22.5274 83.4179 21.9441 83.6864 21.494C83.9332 21.0188 84.1307 20.5751 84.2788 20.1631C84.4269 19.7511 84.5499 19.3607 84.6478 18.9919C84.7709 18.6015 84.8471 18.2077 84.8766 17.8103C84.9295 17.4147 84.9725 16.9949 85.0055 16.5508ZM89.3946 16.5596L89.4154 16.2792C89.4328 16.0454 89.5267 15.8879 89.6973 15.8066C89.8912 15.727 90.1051 15.6958 90.3388 15.7132C90.5258 15.7271 90.6993 15.7635 90.8595 15.8224C91.0213 15.8579 91.1403 15.996 91.2165 16.2367C91.2605 16.5925 91.2942 17.0886 91.3174 17.7249C91.3424 18.3378 91.3738 19.0217 91.4117 19.7765C91.4496 20.5314 91.4841 21.3331 91.5151 22.1814C91.5711 23.0082 91.6181 23.799 91.656 24.5539C91.7191 25.2871 91.7873 25.9503 91.8608 26.5433C91.9342 27.1363 92.0298 27.5899 92.1474 27.9042C92.244 25.6552 92.4583 23.7204 92.7902 22.0999C93.1239 20.4561 93.6211 19.1416 94.2818 18.1566C94.9677 17.15 95.8396 16.4862 96.8975 16.1653C97.9806 15.8228 99.2964 15.8265 100.845 16.1766C101.57 16.2304 101.903 16.643 101.846 17.4143C101.823 17.7182 101.609 17.9138 101.203 18.0011C100.799 18.0651 100.349 18.1022 99.8551 18.1125C99.3626 18.0994 98.8808 18.0988 98.4099 18.1109C97.9389 18.1229 97.5913 18.2145 97.3671 18.3859C96.4909 18.7908 95.8411 19.4711 95.4175 20.4267C95.0174 21.3841 94.6977 22.5237 94.4584 23.8455C94.2192 25.1674 94.0055 26.6204 93.8173 28.2045C93.6541 29.7671 93.3824 31.3685 93.002 33.0089C92.9846 33.2426 92.8781 33.411 92.6824 33.5139C92.4867 33.6169 92.2487 33.658 91.9682 33.6371C91.7111 33.618 91.4583 33.5405 91.2099 33.4045C90.9849 33.2703 90.8109 33.0811 90.688 32.837L89.3946 16.5596ZM118.058 18.4427C118.218 16.2924 118.422 14.1689 118.672 12.0723C118.924 9.95228 119.203 7.77558 119.51 5.54219C119.594 5.36042 119.685 5.24963 119.781 5.20983C119.88 5.14666 120.011 5.12115 120.175 5.13331C120.409 5.15067 120.567 5.23295 120.65 5.38014C120.735 5.50395 120.783 5.64853 120.794 5.81388C120.829 5.98096 120.827 6.16882 120.788 6.37744C120.774 6.56442 120.762 6.72803 120.751 6.86827L119.954 17.5965C119.923 18.0172 119.925 18.4639 119.96 18.9366L120.066 20.3546C120.125 20.829 120.15 21.2774 120.143 21.6999C120.16 22.1007 120.111 22.4379 119.997 22.7114C119.931 22.965 119.774 23.1767 119.527 23.3463C119.302 23.5176 119.062 23.5938 118.805 23.5747C118.384 23.5434 118.107 23.3113 117.975 22.8785C117.843 22.4456 117.774 21.9469 117.769 21.3825C117.787 20.8198 117.829 20.2589 117.894 19.6996C117.982 19.1422 118.037 18.7232 118.058 18.4427ZM119.055 34.9095L119.097 34.3486C119.106 34.2317 119.126 34.1157 119.158 34.0006C119.192 33.8621 119.247 33.7487 119.324 33.6604C119.401 33.5721 119.51 33.5332 119.65 33.5436C120.118 33.5784 120.378 33.7152 120.431 33.9541C120.508 34.1715 120.536 34.432 120.514 34.7359C120.489 35.0631 120.423 35.3284 120.313 35.5318C120.228 35.737 119.951 35.8222 119.484 35.7874C119.343 35.777 119.242 35.7225 119.178 35.6238C119.115 35.5251 119.076 35.4164 119.062 35.2978C119.049 35.1558 119.047 35.0264 119.055 34.9095Z" fill="#0088E9"/>
</svg>
